<?xml version="1.0" encoding="UTF-8" standalone="no"?>
<!DOCTYPE svg PUBLIC "-//W3C//DTD SVG 1.1//EN"
 "http://www.w3.org/Graphics/SVG/1.1/DTD/svg11.dtd">
<!-- Generated by graphviz version 9.0.0 (20230911.1827)
 -->
<!-- Pages: 1 -->
<svg width="222pt" height="504pt"
 viewBox="0.00 0.00 221.50 503.50" xmlns="http://www.w3.org/2000/svg" xmlns:xlink="http://www.w3.org/1999/xlink">
<g id="graph0" class="graph" transform="scale(1 1) rotate(0) translate(4 499.5)">
<polygon fill="white" stroke="none" points="-4,4 -4,-499.5 217.5,-499.5 217.5,4 -4,4"/>
<text text-anchor="middle" x="106.75" y="-478.2" font-family="Times,serif" font-size="14.00">Layer 0: 1 files</text>
<!-- bootstrap/state.ts -->
<g id="node1" class="node">
<title>bootstrap/state.ts</title>
<polygon fill="#ffcc99" stroke="black" points="196.25,-468 109.75,-468 109.75,-432 196.25,-432 196.25,-468"/>
<text text-anchor="middle" x="153" y="-447.82" font-family="Times,serif" font-size="9.00">bootstrap/state.ts</text>
</g>
<!-- constants/common.ts -->
<g id="node2" class="node">
<title>constants/common.ts</title>
<polygon fill="#ffcc99" stroke="black" points="205.62,-414 100.38,-414 100.38,-378 205.62,-378 205.62,-414"/>
<text text-anchor="middle" x="153" y="-393.82" font-family="Times,serif" font-size="9.00">constants/common.ts</text>
</g>
<!-- context.ts -->
<g id="node3" class="node">
<title>context.ts</title>
<polygon fill="#ff9999" stroke="black" points="56.5,-252 0,-252 0,-216 56.5,-216 56.5,-252"/>
<text text-anchor="middle" x="28.25" y="-231.82" font-family="Times,serif" font-size="9.00">context.ts</text>
</g>
<!-- context.ts&#45;&gt;bootstrap/state.ts -->
<g id="edge1" class="edge">
<title>context.ts&#45;&gt;bootstrap/state.ts</title>
<path fill="none" stroke="black" d="M30.59,-252.26C34.2,-289.03 47.19,-372.77 92.5,-423 94.71,-425.45 97.18,-427.69 99.83,-429.74"/>
<polygon fill="black" stroke="black" points="97.84,-432.62 108.13,-435.15 101.67,-426.76 97.84,-432.62"/>
</g>
<!-- context.ts&#45;&gt;constants/common.ts -->
<g id="edge2" class="edge">
<title>context.ts&#45;&gt;constants/common.ts</title>
<path fill="none" stroke="black" d="M33.41,-252.09C40.77,-280.43 58.62,-335.53 92.5,-369 93.11,-369.6 93.73,-370.18 94.36,-370.76"/>
<polygon fill="black" stroke="black" points="92.02,-373.38 102.09,-376.66 96.27,-367.81 92.02,-373.38"/>
</g>
<!-- utils/claudemd.ts -->
<g id="node4" class="node">
<title>utils/claudemd.ts</title>
<polygon fill="#ffcc99" stroke="black" points="197,-360 109,-360 109,-324 197,-324 197,-360"/>
<text text-anchor="middle" x="153" y="-339.82" font-family="Times,serif" font-size="9.00">utils/claudemd.ts</text>
</g>
<!-- context.ts&#45;&gt;utils/claudemd.ts -->
<g id="edge3" class="edge">
<title>context.ts&#45;&gt;utils/claudemd.ts</title>
<path fill="none" stroke="black" d="M39.8,-252.18C50.97,-270.12 70.07,-297.34 92.5,-315 94.49,-316.57 96.59,-318.07 98.76,-319.5"/>
<polygon fill="black" stroke="black" points="96.93,-322.49 107.32,-324.57 100.5,-316.46 96.93,-322.49"/>
</g>
<!-- utils/diagLogs.ts -->
<g id="node5" class="node">
<title>utils/diagLogs.ts</title>
<polygon fill="#ffcc99" stroke="black" points="194.38,-306 111.62,-306 111.62,-270 194.38,-270 194.38,-306"/>
<text text-anchor="middle" x="153" y="-285.82" font-family="Times,serif" font-size="9.00">utils/diagLogs.ts</text>
</g>
<!-- context.ts&#45;&gt;utils/diagLogs.ts -->
<g id="edge4" class="edge">
<title>context.ts&#45;&gt;utils/diagLogs.ts</title>
<path fill="none" stroke="black" d="M56.8,-246.12C69.89,-251.88 85.97,-258.95 101.17,-265.64"/>
<polygon fill="black" stroke="black" points="99.55,-268.75 110.11,-269.57 102.37,-262.34 99.55,-268.75"/>
</g>
<!-- utils/envUtils.ts -->
<g id="node6" class="node">
<title>utils/envUtils.ts</title>
<polygon fill="#ffcc99" stroke="black" points="193.62,-252 112.38,-252 112.38,-216 193.62,-216 193.62,-252"/>
<text text-anchor="middle" x="153" y="-231.82" font-family="Times,serif" font-size="9.00">utils/envUtils.ts</text>
</g>
<!-- context.ts&#45;&gt;utils/envUtils.ts -->
<g id="edge5" class="edge">
<title>context.ts&#45;&gt;utils/envUtils.ts</title>
<path fill="none" stroke="black" d="M56.8,-234C69.75,-234 85.63,-234 100.68,-234"/>
<polygon fill="black" stroke="black" points="100.45,-237.5 110.45,-234 100.45,-230.5 100.45,-237.5"/>
</g>
<!-- utils/execFileNoThrow.ts -->
<g id="node7" class="node">
<title>utils/execFileNoThrow.ts</title>
<polygon fill="#ffcc99" stroke="black" points="213.5,-198 92.5,-198 92.5,-162 213.5,-162 213.5,-198"/>
<text text-anchor="middle" x="153" y="-177.82" font-family="Times,serif" font-size="9.00">utils/execFileNoThrow.ts</text>
</g>
<!-- context.ts&#45;&gt;utils/execFileNoThrow.ts -->
<g id="edge6" class="edge">
<title>context.ts&#45;&gt;utils/execFileNoThrow.ts</title>
<path fill="none" stroke="black" d="M56.8,-221.88C69.42,-216.33 84.83,-209.55 99.54,-203.08"/>
<polygon fill="black" stroke="black" points="100.94,-206.28 108.69,-199.05 98.13,-199.88 100.94,-206.28"/>
</g>
<!-- utils/git.ts -->
<g id="node8" class="node">
<title>utils/git.ts</title>
<polygon fill="#ffcc99" stroke="black" points="181.25,-144 124.75,-144 124.75,-108 181.25,-108 181.25,-144"/>
<text text-anchor="middle" x="153" y="-123.83" font-family="Times,serif" font-size="9.00">utils/git.ts</text>
</g>
<!-- context.ts&#45;&gt;utils/git.ts -->
<g id="edge7" class="edge">
<title>context.ts&#45;&gt;utils/git.ts</title>
<path fill="none" stroke="black" d="M39.8,-215.82C50.97,-197.88 70.07,-170.66 92.5,-153 98.92,-147.94 106.44,-143.6 113.93,-139.96"/>
<polygon fill="black" stroke="black" points="115.3,-143.18 123,-135.9 112.45,-136.79 115.3,-143.18"/>
</g>
<!-- utils/gitSettings.ts -->
<g id="node9" class="node">
<title>utils/gitSettings.ts</title>
<polygon fill="#ffcc99" stroke="black" points="197.75,-90 108.25,-90 108.25,-54 197.75,-54 197.75,-90"/>
<text text-anchor="middle" x="153" y="-69.83" font-family="Times,serif" font-size="9.00">utils/gitSettings.ts</text>
</g>
<!-- context.ts&#45;&gt;utils/gitSettings.ts -->
<g id="edge8" class="edge">
<title>context.ts&#45;&gt;utils/gitSettings.ts</title>
<path fill="none" stroke="black" d="M33.41,-215.91C40.77,-187.57 58.62,-132.47 92.5,-99 94.3,-97.22 96.24,-95.54 98.29,-93.97"/>
<polygon fill="black" stroke="black" points="100.1,-96.96 106.51,-88.52 96.24,-91.13 100.1,-96.96"/>
</g>
<!-- utils/log.ts -->
<g id="node10" class="node">
<title>utils/log.ts</title>
<polygon fill="#ffcc99" stroke="black" points="182.38,-36 123.62,-36 123.62,0 182.38,0 182.38,-36"/>
<text text-anchor="middle" x="153" y="-15.82" font-family="Times,serif" font-size="9.00">utils/log.ts</text>
</g>
<!-- context.ts&#45;&gt;utils/log.ts -->
<g id="edge9" class="edge">
<title>context.ts&#45;&gt;utils/log.ts</title>
<path fill="none" stroke="black" d="M30.59,-215.74C34.2,-178.97 47.19,-95.23 92.5,-45 98.09,-38.8 105.38,-33.94 112.93,-30.15"/>
<polygon fill="black" stroke="black" points="114.11,-33.46 121.87,-26.24 111.31,-27.04 114.11,-33.46"/>
</g>
</g>
</svg>
