<?xml version="1.0" encoding="UTF-8" standalone="no"?>
<!DOCTYPE svg PUBLIC "-//W3C//DTD SVG 1.1//EN"
 "http://www.w3.org/Graphics/SVG/1.1/DTD/svg11.dtd">
<!-- Generated by graphviz version 9.0.0 (20230911.1827)
 -->
<!-- Pages: 1 -->
<svg width="352pt" height="2232pt"
 viewBox="0.00 0.00 351.75 2231.50" xmlns="http://www.w3.org/2000/svg" xmlns:xlink="http://www.w3.org/1999/xlink">
<g id="graph0" class="graph" transform="scale(1 1) rotate(0) translate(4 2227.5)">
<polygon fill="white" stroke="none" points="-4,4 -4,-2227.5 347.75,-2227.5 347.75,4 -4,4"/>
<text text-anchor="middle" x="171.88" y="-2206.2" font-family="Times,serif" font-size="14.00">Layer 0: 1 files</text>
<!-- Tool.ts -->
<g id="node1" class="node">
<title>Tool.ts</title>
<polygon fill="#ffcc99" stroke="black" points="243.88,-2196 189.88,-2196 189.88,-2160 243.88,-2160 243.88,-2196"/>
<text text-anchor="middle" x="216.88" y="-2175.82" font-family="Times,serif" font-size="9.00">Tool.ts</text>
</g>
<!-- bootstrap/state.ts -->
<g id="node2" class="node">
<title>bootstrap/state.ts</title>
<polygon fill="#ffcc99" stroke="black" points="260.12,-2142 173.62,-2142 173.62,-2106 260.12,-2106 260.12,-2142"/>
<text text-anchor="middle" x="216.88" y="-2121.82" font-family="Times,serif" font-size="9.00">bootstrap/state.ts</text>
</g>
<!-- hooks/useCanUseTool.tsx -->
<g id="node3" class="node">
<title>hooks/useCanUseTool.tsx</title>
<polygon fill="#ffcc99" stroke="black" points="278.12,-2088 155.62,-2088 155.62,-2052 278.12,-2052 278.12,-2088"/>
<text text-anchor="middle" x="216.88" y="-2067.82" font-family="Times,serif" font-size="9.00">hooks/useCanUseTool.tsx</text>
</g>
<!-- query.ts -->
<g id="node4" class="node">
<title>query.ts</title>
<polygon fill="#ff9999" stroke="black" points="54,-1116 0,-1116 0,-1080 54,-1080 54,-1116"/>
<text text-anchor="middle" x="27" y="-1095.83" font-family="Times,serif" font-size="9.00">query.ts</text>
</g>
<!-- query.ts&#45;&gt;Tool.ts -->
<g id="edge1" class="edge">
<title>query.ts&#45;&gt;Tool.ts</title>
<path fill="none" stroke="black" d="M28.45,-1116.39C31.91,-1253.34 54.9,-2110.09 90,-2151 111.36,-2175.9 149.61,-2181.12 178.35,-2181.05"/>
<polygon fill="black" stroke="black" points="178.21,-2184.55 188.11,-2180.79 178.02,-2177.55 178.21,-2184.55"/>
</g>
<!-- query.ts&#45;&gt;bootstrap/state.ts -->
<g id="edge2" class="edge">
<title>query.ts&#45;&gt;bootstrap/state.ts</title>
<path fill="none" stroke="black" d="M27.83,-1116.32C26.81,-1245.79 23.54,-2019.79 90,-2097 107.51,-2117.34 136.3,-2124.54 161.93,-2126.45"/>
<polygon fill="black" stroke="black" points="161.76,-2129.95 171.92,-2126.91 162.09,-2122.95 161.76,-2129.95"/>
</g>
<!-- query.ts&#45;&gt;hooks/useCanUseTool.tsx -->
<g id="edge3" class="edge">
<title>query.ts&#45;&gt;hooks/useCanUseTool.tsx</title>
<path fill="none" stroke="black" d="M27.9,-1116.13C27.39,-1240.93 27.12,-1970.22 90,-2043 103.56,-2058.7 123.83,-2066.56 144.17,-2070.21"/>
<polygon fill="black" stroke="black" points="143.54,-2073.65 153.93,-2071.61 144.53,-2066.73 143.54,-2073.65"/>
</g>
<!-- query/config.ts -->
<g id="node5" class="node">
<title>query/config.ts</title>
<polygon fill="#ffcc99" stroke="black" points="256.38,-2034 177.38,-2034 177.38,-1998 256.38,-1998 256.38,-2034"/>
<text text-anchor="middle" x="216.88" y="-2013.83" font-family="Times,serif" font-size="9.00">query/config.ts</text>
</g>
<!-- query.ts&#45;&gt;query/config.ts -->
<g id="edge4" class="edge">
<title>query.ts&#45;&gt;query/config.ts</title>
<path fill="none" stroke="black" d="M27.98,-1116.24C28,-1237.18 30.75,-1920.69 90,-1989 108.43,-2010.25 139.17,-2017.13 165.66,-2018.64"/>
<polygon fill="black" stroke="black" points="165.47,-2022.13 175.57,-2018.94 165.68,-2015.14 165.47,-2022.13"/>
</g>
<!-- query/deps.ts -->
<g id="node6" class="node">
<title>query/deps.ts</title>
<polygon fill="#ffcc99" stroke="black" points="252.62,-1980 181.12,-1980 181.12,-1944 252.62,-1944 252.62,-1980"/>
<text text-anchor="middle" x="216.88" y="-1959.83" font-family="Times,serif" font-size="9.00">query/deps.ts</text>
</g>
<!-- query.ts&#45;&gt;query/deps.ts -->
<g id="edge5" class="edge">
<title>query.ts&#45;&gt;query/deps.ts</title>
<path fill="none" stroke="black" d="M28.06,-1116.25C28.65,-1232.89 34.36,-1871.14 90,-1935 109.4,-1957.26 142.3,-1963.74 169.61,-1964.79"/>
<polygon fill="black" stroke="black" points="169.35,-1968.29 179.39,-1964.92 169.44,-1961.29 169.35,-1968.29"/>
</g>
<!-- query/stopHooks.ts -->
<g id="node7" class="node">
<title>query/stopHooks.ts</title>
<polygon fill="#ffcc99" stroke="black" points="265.38,-1926 168.38,-1926 168.38,-1890 265.38,-1890 265.38,-1926"/>
<text text-anchor="middle" x="216.88" y="-1905.83" font-family="Times,serif" font-size="9.00">query/stopHooks.ts</text>
</g>
<!-- query.ts&#45;&gt;query/stopHooks.ts -->
<g id="edge6" class="edge">
<title>query.ts&#45;&gt;query/stopHooks.ts</title>
<path fill="none" stroke="black" d="M28.16,-1116.15C29.33,-1228.06 37.95,-1821.56 90,-1881 106.46,-1899.8 132.55,-1907.33 156.72,-1909.84"/>
<polygon fill="black" stroke="black" points="156.27,-1913.32 166.5,-1910.57 156.79,-1906.34 156.27,-1913.32"/>
</g>
<!-- query/tokenBudget.ts -->
<g id="node8" class="node">
<title>query/tokenBudget.ts</title>
<polygon fill="#ffcc99" stroke="black" points="269.88,-1872 163.88,-1872 163.88,-1836 269.88,-1836 269.88,-1872"/>
<text text-anchor="middle" x="216.88" y="-1851.83" font-family="Times,serif" font-size="9.00">query/tokenBudget.ts</text>
</g>
<!-- query.ts&#45;&gt;query/tokenBudget.ts -->
<g id="edge7" class="edge">
<title>query.ts&#45;&gt;query/tokenBudget.ts</title>
<path fill="none" stroke="black" d="M28.28,-1116.27C30.07,-1223.87 41.56,-1772.02 90,-1827 105.48,-1844.58 129.38,-1852.29 152.21,-1855.26"/>
<polygon fill="black" stroke="black" points="151.85,-1858.74 162.14,-1856.24 152.53,-1851.78 151.85,-1858.74"/>
</g>
<!-- services/analytics/growthbook.ts -->
<g id="node9" class="node">
<title>services/analytics/growthbook.ts</title>
<polygon fill="#ffcc99" stroke="black" points="293.88,-1818 139.88,-1818 139.88,-1782 293.88,-1782 293.88,-1818"/>
<text text-anchor="middle" x="216.88" y="-1797.83" font-family="Times,serif" font-size="9.00">services/analytics/growthbook.ts</text>
</g>
<!-- query.ts&#45;&gt;services/analytics/growthbook.ts -->
<g id="edge8" class="edge">
<title>query.ts&#45;&gt;services/analytics/growthbook.ts</title>
<path fill="none" stroke="black" d="M28.41,-1116.24C30.87,-1218.96 45.15,-1722.43 90,-1773 100.2,-1784.5 114.01,-1791.78 128.76,-1796.26"/>
<polygon fill="black" stroke="black" points="127.59,-1799.57 138.15,-1798.67 129.34,-1792.79 127.59,-1799.57"/>
</g>
<!-- services/analytics/index.ts -->
<g id="node10" class="node">
<title>services/analytics/index.ts</title>
<polygon fill="#ffcc99" stroke="black" points="280,-1764 153.75,-1764 153.75,-1728 280,-1728 280,-1764"/>
<text text-anchor="middle" x="216.88" y="-1743.83" font-family="Times,serif" font-size="9.00">services/analytics/index.ts</text>
</g>
<!-- query.ts&#45;&gt;services/analytics/index.ts -->
<g id="edge9" class="edge">
<title>query.ts&#45;&gt;services/analytics/index.ts</title>
<path fill="none" stroke="black" d="M28.56,-1116.36C31.74,-1214.34 48.75,-1672.86 90,-1719 103.32,-1733.9 122.7,-1741.69 142.28,-1745.51"/>
<polygon fill="black" stroke="black" points="141.54,-1748.94 151.97,-1747.05 142.64,-1742.02 141.54,-1748.94"/>
</g>
<!-- services/api/dumpPrompts.ts -->
<g id="node11" class="node">
<title>services/api/dumpPrompts.ts</title>
<polygon fill="#ffcc99" stroke="black" points="285.25,-1710 148.5,-1710 148.5,-1674 285.25,-1674 285.25,-1710"/>
<text text-anchor="middle" x="216.88" y="-1689.83" font-family="Times,serif" font-size="9.00">services/api/dumpPrompts.ts</text>
</g>
<!-- query.ts&#45;&gt;services/api/dumpPrompts.ts -->
<g id="edge10" class="edge">
<title>query.ts&#45;&gt;services/api/dumpPrompts.ts</title>
<path fill="none" stroke="black" d="M28.74,-1116.27C32.68,-1208.82 52.31,-1623.24 90,-1665 102.21,-1678.53 119.43,-1686.18 137.21,-1690.33"/>
<polygon fill="black" stroke="black" points="136.35,-1693.73 146.83,-1692.19 137.67,-1686.85 136.35,-1693.73"/>
</g>
<!-- services/api/errors.ts -->
<g id="node12" class="node">
<title>services/api/errors.ts</title>
<polygon fill="#ffcc99" stroke="black" points="268.75,-1656 165,-1656 165,-1620 268.75,-1620 268.75,-1656"/>
<text text-anchor="middle" x="216.88" y="-1635.83" font-family="Times,serif" font-size="9.00">services/api/errors.ts</text>
</g>
<!-- query.ts&#45;&gt;services/api/errors.ts -->
<g id="edge11" class="edge">
<title>query.ts&#45;&gt;services/api/errors.ts</title>
<path fill="none" stroke="black" d="M28.96,-1116.23C33.72,-1203.24 55.86,-1573.61 90,-1611 105.99,-1628.52 130.36,-1636.15 153.41,-1639.09"/>
<polygon fill="black" stroke="black" points="152.78,-1642.54 163.07,-1640.03 153.46,-1635.57 152.78,-1642.54"/>
</g>
<!-- services/api/withRetry.ts -->
<g id="node13" class="node">
<title>services/api/withRetry.ts</title>
<polygon fill="#ffcc99" stroke="black" points="276.25,-1602 157.5,-1602 157.5,-1566 276.25,-1566 276.25,-1602"/>
<text text-anchor="middle" x="216.88" y="-1581.83" font-family="Times,serif" font-size="9.00">services/api/withRetry.ts</text>
</g>
<!-- query.ts&#45;&gt;services/api/withRetry.ts -->
<g id="edge12" class="edge">
<title>query.ts&#45;&gt;services/api/withRetry.ts</title>
<path fill="none" stroke="black" d="M27.78,-1116.41C27.26,-1193.76 29.3,-1491.43 90,-1557 104.28,-1572.43 125.07,-1580.17 145.65,-1583.78"/>
<polygon fill="black" stroke="black" points="145.13,-1587.24 155.52,-1585.17 146.11,-1580.31 145.13,-1587.24"/>
</g>
<!-- services/compact/autoCompact.ts -->
<g id="node14" class="node">
<title>services/compact/autoCompact.ts</title>
<polygon fill="#ffcc99" stroke="black" points="294.62,-1548 139.12,-1548 139.12,-1512 294.62,-1512 294.62,-1548"/>
<text text-anchor="middle" x="216.88" y="-1527.83" font-family="Times,serif" font-size="9.00">services/compact/autoCompact.ts</text>
</g>
<!-- query.ts&#45;&gt;services/compact/autoCompact.ts -->
<g id="edge13" class="edge">
<title>query.ts&#45;&gt;services/compact/autoCompact.ts</title>
<path fill="none" stroke="black" d="M28.15,-1116.4C29.12,-1187.88 36.34,-1446.05 90,-1503 100.2,-1513.82 113.6,-1520.84 127.85,-1525.31"/>
<polygon fill="black" stroke="black" points="126.85,-1528.66 137.41,-1527.86 128.65,-1521.9 126.85,-1528.66"/>
</g>
<!-- services/compact/compact.ts -->
<g id="node15" class="node">
<title>services/compact/compact.ts</title>
<polygon fill="#ffcc99" stroke="black" points="284.5,-1494 149.25,-1494 149.25,-1458 284.5,-1458 284.5,-1494"/>
<text text-anchor="middle" x="216.88" y="-1473.83" font-family="Times,serif" font-size="9.00">services/compact/compact.ts</text>
</g>
<!-- query.ts&#45;&gt;services/compact/compact.ts -->
<g id="edge14" class="edge">
<title>query.ts&#45;&gt;services/compact/compact.ts</title>
<path fill="none" stroke="black" d="M28.62,-1116.14C31.2,-1181.06 43.29,-1400.56 90,-1449 102.65,-1462.12 120.02,-1469.63 137.82,-1473.76"/>
<polygon fill="black" stroke="black" points="136.95,-1477.15 147.43,-1475.62 138.28,-1470.28 136.95,-1477.15"/>
</g>
<!-- services/compact/snipCompact.ts -->
<g id="node16" class="node">
<title>services/compact/snipCompact.ts</title>
<polygon fill="#ffcc99" stroke="black" points="293.88,-1440 139.88,-1440 139.88,-1404 293.88,-1404 293.88,-1440"/>
<text text-anchor="middle" x="216.88" y="-1419.83" font-family="Times,serif" font-size="9.00">services/compact/snipCompact.ts</text>
</g>
<!-- query.ts&#45;&gt;services/compact/snipCompact.ts -->
<g id="edge15" class="edge">
<title>query.ts&#45;&gt;services/compact/snipCompact.ts</title>
<path fill="none" stroke="black" d="M29.25,-1116.13C33.63,-1174.35 50.26,-1355.04 90,-1395 100.55,-1405.61 114.19,-1412.51 128.58,-1416.93"/>
<polygon fill="black" stroke="black" points="127.67,-1420.31 138.23,-1419.46 129.44,-1413.54 127.67,-1420.31"/>
</g>
<!-- services/contextCollapse/index.ts -->
<g id="node17" class="node">
<title>services/contextCollapse/index.ts</title>
<polygon fill="#ffcc99" stroke="black" points="293.88,-1386 139.88,-1386 139.88,-1350 293.88,-1350 293.88,-1386"/>
<text text-anchor="middle" x="216.88" y="-1365.83" font-family="Times,serif" font-size="9.00">services/contextCollapse/index.ts</text>
</g>
<!-- query.ts&#45;&gt;services/contextCollapse/index.ts -->
<g id="edge16" class="edge">
<title>query.ts&#45;&gt;services/contextCollapse/index.ts</title>
<path fill="none" stroke="black" d="M30.19,-1116.37C36.64,-1167.45 57.21,-1309.45 90,-1341 100.65,-1351.25 114.2,-1358.01 128.44,-1362.39"/>
<polygon fill="black" stroke="black" points="127.4,-1365.73 137.97,-1364.91 129.19,-1358.97 127.4,-1365.73"/>
</g>
<!-- services/toolUseSummary/toolUseSummaryGenerator.ts -->
<g id="node18" class="node">
<title>services/toolUseSummary/toolUseSummaryGenerator.ts</title>
<polygon fill="#ffcc99" stroke="black" points="343.75,-1332 90,-1332 90,-1296 343.75,-1296 343.75,-1332"/>
<text text-anchor="middle" x="216.88" y="-1311.83" font-family="Times,serif" font-size="9.00">services/toolUseSummary/toolUseSummaryGenerator.ts</text>
</g>
<!-- query.ts&#45;&gt;services/toolUseSummary/toolUseSummaryGenerator.ts -->
<g id="edge17" class="edge">
<title>query.ts&#45;&gt;services/toolUseSummary/toolUseSummaryGenerator.ts</title>
<path fill="none" stroke="black" d="M28.3,-1116.24C29.97,-1154.11 39.42,-1241.5 90,-1287 90.78,-1287.7 91.58,-1288.39 92.39,-1289.06"/>
<polygon fill="black" stroke="black" points="90.12,-1291.74 100.28,-1294.74 94.21,-1286.06 90.12,-1291.74"/>
</g>
<!-- services/tools/StreamingToolExecutor.ts -->
<g id="node19" class="node">
<title>services/tools/StreamingToolExecutor.ts</title>
<polygon fill="#ffcc99" stroke="black" points="308.5,-1278 125.25,-1278 125.25,-1242 308.5,-1242 308.5,-1278"/>
<text text-anchor="middle" x="216.88" y="-1257.83" font-family="Times,serif" font-size="9.00">services/tools/StreamingToolExecutor.ts</text>
</g>
<!-- query.ts&#45;&gt;services/tools/StreamingToolExecutor.ts -->
<g id="edge18" class="edge">
<title>query.ts&#45;&gt;services/tools/StreamingToolExecutor.ts</title>
<path fill="none" stroke="black" d="M30.98,-1116.03C36.8,-1145.32 52.57,-1202.99 90,-1233 97.33,-1238.88 105.65,-1243.55 114.44,-1247.26"/>
<polygon fill="black" stroke="black" points="112.92,-1250.43 123.51,-1250.66 115.37,-1243.88 112.92,-1250.43"/>
</g>
<!-- services/tools/toolOrchestration.ts -->
<g id="node20" class="node">
<title>services/tools/toolOrchestration.ts</title>
<polygon fill="#ffcc99" stroke="black" points="296.5,-1224 137.25,-1224 137.25,-1188 296.5,-1188 296.5,-1224"/>
<text text-anchor="middle" x="216.88" y="-1203.83" font-family="Times,serif" font-size="9.00">services/tools/toolOrchestration.ts</text>
</g>
<!-- query.ts&#45;&gt;services/tools/toolOrchestration.ts -->
<g id="edge19" class="edge">
<title>query.ts&#45;&gt;services/tools/toolOrchestration.ts</title>
<path fill="none" stroke="black" d="M36.95,-1116.19C47.14,-1134.94 65.61,-1163.56 90,-1179 100.99,-1185.96 113.49,-1191.15 126.25,-1195.01"/>
<polygon fill="black" stroke="black" points="124.96,-1198.29 135.53,-1197.56 126.81,-1191.54 124.96,-1198.29"/>
</g>
<!-- tools/SleepTool/prompt.ts -->
<g id="node21" class="node">
<title>tools/SleepTool/prompt.ts</title>
<polygon fill="#ffcc99" stroke="black" points="278.12,-1170 155.62,-1170 155.62,-1134 278.12,-1134 278.12,-1170"/>
<text text-anchor="middle" x="216.88" y="-1149.83" font-family="Times,serif" font-size="9.00">tools/SleepTool/prompt.ts</text>
</g>
<!-- query.ts&#45;&gt;tools/SleepTool/prompt.ts -->
<g id="edge20" class="edge">
<title>query.ts&#45;&gt;tools/SleepTool/prompt.ts</title>
<path fill="none" stroke="black" d="M54.41,-1110.89C65.25,-1115.81 78.04,-1121.16 90,-1125 107.27,-1130.55 126.25,-1135.3 144.12,-1139.19"/>
<polygon fill="black" stroke="black" points="143.38,-1142.61 153.88,-1141.25 144.82,-1135.76 143.38,-1142.61"/>
</g>
<!-- utils/api.ts -->
<g id="node22" class="node">
<title>utils/api.ts</title>
<polygon fill="#ffcc99" stroke="black" points="246.62,-1116 187.12,-1116 187.12,-1080 246.62,-1080 246.62,-1116"/>
<text text-anchor="middle" x="216.88" y="-1095.83" font-family="Times,serif" font-size="9.00">utils/api.ts</text>
</g>
<!-- query.ts&#45;&gt;utils/api.ts -->
<g id="edge21" class="edge">
<title>query.ts&#45;&gt;utils/api.ts</title>
<path fill="none" stroke="black" d="M54.12,-1098C85.6,-1098 138.84,-1098 175.59,-1098"/>
<polygon fill="black" stroke="black" points="175.38,-1101.5 185.38,-1098 175.38,-1094.5 175.38,-1101.5"/>
</g>
<!-- utils/array.ts -->
<g id="node23" class="node">
<title>utils/array.ts</title>
<polygon fill="#ffcc99" stroke="black" points="251.5,-1062 182.25,-1062 182.25,-1026 251.5,-1026 251.5,-1062"/>
<text text-anchor="middle" x="216.88" y="-1041.83" font-family="Times,serif" font-size="9.00">utils/array.ts</text>
</g>
<!-- query.ts&#45;&gt;utils/array.ts -->
<g id="edge22" class="edge">
<title>query.ts&#45;&gt;utils/array.ts</title>
<path fill="none" stroke="black" d="M54.41,-1085.11C65.25,-1080.19 78.04,-1074.84 90,-1071 116.36,-1062.53 146.68,-1055.93 170.96,-1051.38"/>
<polygon fill="black" stroke="black" points="171.3,-1054.88 180.51,-1049.64 170.05,-1047.99 171.3,-1054.88"/>
</g>
<!-- utils/attachments.ts -->
<g id="node24" class="node">
<title>utils/attachments.ts</title>
<polygon fill="#ffcc99" stroke="black" points="266.12,-1008 167.62,-1008 167.62,-972 266.12,-972 266.12,-1008"/>
<text text-anchor="middle" x="216.88" y="-987.83" font-family="Times,serif" font-size="9.00">utils/attachments.ts</text>
</g>
<!-- query.ts&#45;&gt;utils/attachments.ts -->
<g id="edge23" class="edge">
<title>query.ts&#45;&gt;utils/attachments.ts</title>
<path fill="none" stroke="black" d="M36.95,-1079.81C47.14,-1061.06 65.61,-1032.44 90,-1017 109.54,-1004.63 133.84,-997.85 155.87,-994.16"/>
<polygon fill="black" stroke="black" points="156.27,-997.64 165.65,-992.72 155.25,-990.71 156.27,-997.64"/>
</g>
<!-- utils/commandLifecycle.ts -->
<g id="node25" class="node">
<title>utils/commandLifecycle.ts</title>
<polygon fill="#ffcc99" stroke="black" points="280,-954 153.75,-954 153.75,-918 280,-918 280,-954"/>
<text text-anchor="middle" x="216.88" y="-933.83" font-family="Times,serif" font-size="9.00">utils/commandLifecycle.ts</text>
</g>
<!-- query.ts&#45;&gt;utils/commandLifecycle.ts -->
<g id="edge24" class="edge">
<title>query.ts&#45;&gt;utils/commandLifecycle.ts</title>
<path fill="none" stroke="black" d="M30.98,-1079.97C36.8,-1050.68 52.57,-993.01 90,-963 104.8,-951.14 123.62,-944.17 142.17,-940.16"/>
<polygon fill="black" stroke="black" points="142.66,-943.63 151.85,-938.35 141.37,-936.75 142.66,-943.63"/>
</g>
<!-- utils/computerUse/cleanup.ts -->
<g id="node26" class="node">
<title>utils/computerUse/cleanup.ts</title>
<polygon fill="#ffcc99" stroke="black" points="286.38,-900 147.38,-900 147.38,-864 286.38,-864 286.38,-900"/>
<text text-anchor="middle" x="216.88" y="-879.83" font-family="Times,serif" font-size="9.00">utils/computerUse/cleanup.ts</text>
</g>
<!-- query.ts&#45;&gt;utils/computerUse/cleanup.ts -->
<g id="edge25" class="edge">
<title>query.ts&#45;&gt;utils/computerUse/cleanup.ts</title>
<path fill="none" stroke="black" d="M28.3,-1079.76C29.97,-1041.89 39.42,-954.5 90,-909 102.74,-897.54 119.15,-890.52 135.88,-886.31"/>
<polygon fill="black" stroke="black" points="136.37,-889.78 145.41,-884.25 134.9,-882.94 136.37,-889.78"/>
</g>
<!-- utils/context.ts -->
<g id="node27" class="node">
<title>utils/context.ts</title>
<polygon fill="#ffcc99" stroke="black" points="255.62,-846 178.12,-846 178.12,-810 255.62,-810 255.62,-846"/>
<text text-anchor="middle" x="216.88" y="-825.83" font-family="Times,serif" font-size="9.00">utils/context.ts</text>
</g>
<!-- query.ts&#45;&gt;utils/context.ts -->
<g id="edge26" class="edge">
<title>query.ts&#45;&gt;utils/context.ts</title>
<path fill="none" stroke="black" d="M30.19,-1079.63C36.64,-1028.55 57.21,-886.55 90,-855 110.13,-835.63 140.62,-828.74 166.54,-826.76"/>
<polygon fill="black" stroke="black" points="166.39,-830.27 176.19,-826.25 166.02,-823.28 166.39,-830.27"/>
</g>
<!-- utils/debug.ts -->
<g id="node28" class="node">
<title>utils/debug.ts</title>
<polygon fill="#ffcc99" stroke="black" points="252.62,-792 181.12,-792 181.12,-756 252.62,-756 252.62,-792"/>
<text text-anchor="middle" x="216.88" y="-771.83" font-family="Times,serif" font-size="9.00">utils/debug.ts</text>
</g>
<!-- query.ts&#45;&gt;utils/debug.ts -->
<g id="edge27" class="edge">
<title>query.ts&#45;&gt;utils/debug.ts</title>
<path fill="none" stroke="black" d="M29.25,-1079.87C33.63,-1021.65 50.26,-840.96 90,-801 110.52,-780.36 142.74,-773.73 169.44,-772.2"/>
<polygon fill="black" stroke="black" points="169.49,-775.7 179.37,-771.88 169.26,-768.71 169.49,-775.7"/>
</g>
<!-- utils/headlessProfiler.ts -->
<g id="node29" class="node">
<title>utils/headlessProfiler.ts</title>
<polygon fill="#ffcc99" stroke="black" points="273.62,-738 160.12,-738 160.12,-702 273.62,-702 273.62,-738"/>
<text text-anchor="middle" x="216.88" y="-717.83" font-family="Times,serif" font-size="9.00">utils/headlessProfiler.ts</text>
</g>
<!-- query.ts&#45;&gt;utils/headlessProfiler.ts -->
<g id="edge28" class="edge">
<title>query.ts&#45;&gt;utils/headlessProfiler.ts</title>
<path fill="none" stroke="black" d="M28.62,-1079.86C31.2,-1014.94 43.29,-795.44 90,-747 105.19,-731.25 127.17,-723.59 148.53,-720.15"/>
<polygon fill="black" stroke="black" points="148.97,-723.62 158.44,-718.87 148.07,-716.68 148.97,-723.62"/>
</g>
<!-- utils/hooks.ts -->
<g id="node30" class="node">
<title>utils/hooks.ts</title>
<polygon fill="#ffcc99" stroke="black" points="252.62,-684 181.12,-684 181.12,-648 252.62,-648 252.62,-684"/>
<text text-anchor="middle" x="216.88" y="-663.83" font-family="Times,serif" font-size="9.00">utils/hooks.ts</text>
</g>
<!-- query.ts&#45;&gt;utils/hooks.ts -->
<g id="edge29" class="edge">
<title>query.ts&#45;&gt;utils/hooks.ts</title>
<path fill="none" stroke="black" d="M28.15,-1079.6C29.12,-1008.12 36.34,-749.95 90,-693 110.12,-671.65 142.69,-665.1 169.67,-663.78"/>
<polygon fill="black" stroke="black" points="169.4,-667.28 179.32,-663.54 169.23,-660.29 169.4,-667.28"/>
</g>
<!-- utils/hooks/postSamplingHooks.ts -->
<g id="node31" class="node">
<title>utils/hooks/postSamplingHooks.ts</title>
<polygon fill="#ffcc99" stroke="black" points="296.12,-630 137.62,-630 137.62,-594 296.12,-594 296.12,-630"/>
<text text-anchor="middle" x="216.88" y="-609.83" font-family="Times,serif" font-size="9.00">utils/hooks/postSamplingHooks.ts</text>
</g>
<!-- query.ts&#45;&gt;utils/hooks/postSamplingHooks.ts -->
<g id="edge30" class="edge">
<title>query.ts&#45;&gt;utils/hooks/postSamplingHooks.ts</title>
<path fill="none" stroke="black" d="M27.78,-1079.59C27.26,-1002.24 29.3,-704.57 90,-639 99.86,-628.35 112.82,-621.36 126.67,-616.87"/>
<polygon fill="black" stroke="black" points="127.24,-620.35 135.94,-614.3 125.37,-613.6 127.24,-620.35"/>
</g>
<!-- utils/imageResizer.ts -->
<g id="node32" class="node">
<title>utils/imageResizer.ts</title>
<polygon fill="#ffcc99" stroke="black" points="267.25,-576 166.5,-576 166.5,-540 267.25,-540 267.25,-576"/>
<text text-anchor="middle" x="216.88" y="-555.83" font-family="Times,serif" font-size="9.00">utils/imageResizer.ts</text>
</g>
<!-- query.ts&#45;&gt;utils/imageResizer.ts -->
<g id="edge31" class="edge">
<title>query.ts&#45;&gt;utils/imageResizer.ts</title>
<path fill="none" stroke="black" d="M28.96,-1079.77C33.72,-992.76 55.86,-622.39 90,-585 106.32,-567.13 131.35,-559.54 154.81,-556.74"/>
<polygon fill="black" stroke="black" points="155,-560.24 164.64,-555.86 154.37,-553.27 155,-560.24"/>
</g>
<!-- utils/imageValidation.ts -->
<g id="node33" class="node">
<title>utils/imageValidation.ts</title>
<polygon fill="#ffcc99" stroke="black" points="274.75,-522 159,-522 159,-486 274.75,-486 274.75,-522"/>
<text text-anchor="middle" x="216.88" y="-501.82" font-family="Times,serif" font-size="9.00">utils/imageValidation.ts</text>
</g>
<!-- query.ts&#45;&gt;utils/imageValidation.ts -->
<g id="edge32" class="edge">
<title>query.ts&#45;&gt;utils/imageValidation.ts</title>
<path fill="none" stroke="black" d="M28.74,-1079.73C32.68,-987.18 52.31,-572.76 90,-531 104.53,-514.9 126.14,-507.12 147.37,-503.68"/>
<polygon fill="black" stroke="black" points="147.76,-507.16 157.23,-502.41 146.87,-500.21 147.76,-507.16"/>
</g>
<!-- utils/log.ts -->
<g id="node34" class="node">
<title>utils/log.ts</title>
<polygon fill="#ffcc99" stroke="black" points="246.25,-468 187.5,-468 187.5,-432 246.25,-432 246.25,-468"/>
<text text-anchor="middle" x="216.88" y="-447.82" font-family="Times,serif" font-size="9.00">utils/log.ts</text>
</g>
<!-- query.ts&#45;&gt;utils/log.ts -->
<g id="edge33" class="edge">
<title>query.ts&#45;&gt;utils/log.ts</title>
<path fill="none" stroke="black" d="M28.56,-1079.64C31.74,-981.66 48.75,-523.14 90,-477 111.21,-453.28 147.76,-447.59 176.03,-447.22"/>
<polygon fill="black" stroke="black" points="175.64,-450.71 185.67,-447.31 175.71,-443.71 175.64,-450.71"/>
</g>
<!-- utils/messageQueueManager.ts -->
<g id="node35" class="node">
<title>utils/messageQueueManager.ts</title>
<polygon fill="#ffcc99" stroke="black" points="289.38,-414 144.38,-414 144.38,-378 289.38,-378 289.38,-414"/>
<text text-anchor="middle" x="216.88" y="-393.82" font-family="Times,serif" font-size="9.00">utils/messageQueueManager.ts</text>
</g>
<!-- query.ts&#45;&gt;utils/messageQueueManager.ts -->
<g id="edge34" class="edge">
<title>query.ts&#45;&gt;utils/messageQueueManager.ts</title>
<path fill="none" stroke="black" d="M28.41,-1079.76C30.87,-977.04 45.15,-473.57 90,-423 101.19,-410.38 116.73,-402.86 133.07,-398.52"/>
<polygon fill="black" stroke="black" points="133.41,-402.03 142.41,-396.43 131.89,-395.19 133.41,-402.03"/>
</g>
<!-- utils/messages.ts -->
<g id="node36" class="node">
<title>utils/messages.ts</title>
<polygon fill="#ffcc99" stroke="black" points="259,-360 174.75,-360 174.75,-324 259,-324 259,-360"/>
<text text-anchor="middle" x="216.88" y="-339.82" font-family="Times,serif" font-size="9.00">utils/messages.ts</text>
</g>
<!-- query.ts&#45;&gt;utils/messages.ts -->
<g id="edge35" class="edge">
<title>query.ts&#45;&gt;utils/messages.ts</title>
<path fill="none" stroke="black" d="M28.28,-1079.73C30.07,-972.13 41.56,-423.98 90,-369 108.02,-348.55 137.43,-341.45 163.3,-339.63"/>
<polygon fill="black" stroke="black" points="163.15,-343.14 172.99,-339.21 162.85,-336.15 163.15,-343.14"/>
</g>
<!-- utils/model/model.ts -->
<g id="node37" class="node">
<title>utils/model/model.ts</title>
<polygon fill="#ffcc99" stroke="black" points="267.25,-306 166.5,-306 166.5,-270 267.25,-270 267.25,-306"/>
<text text-anchor="middle" x="216.88" y="-285.82" font-family="Times,serif" font-size="9.00">utils/model/model.ts</text>
</g>
<!-- query.ts&#45;&gt;utils/model/model.ts -->
<g id="edge36" class="edge">
<title>query.ts&#45;&gt;utils/model/model.ts</title>
<path fill="none" stroke="black" d="M28.16,-1079.85C29.33,-967.94 37.95,-374.44 90,-315 106.01,-296.72 131.12,-289.1 154.72,-286.38"/>
<polygon fill="black" stroke="black" points="154.95,-289.87 164.62,-285.54 154.36,-282.89 154.95,-289.87"/>
</g>
<!-- utils/queryProfiler.ts -->
<g id="node38" class="node">
<title>utils/queryProfiler.ts</title>
<polygon fill="#ffcc99" stroke="black" points="268.38,-252 165.38,-252 165.38,-216 268.38,-216 268.38,-252"/>
<text text-anchor="middle" x="216.88" y="-231.82" font-family="Times,serif" font-size="9.00">utils/queryProfiler.ts</text>
</g>
<!-- query.ts&#45;&gt;utils/queryProfiler.ts -->
<g id="edge37" class="edge">
<title>query.ts&#45;&gt;utils/queryProfiler.ts</title>
<path fill="none" stroke="black" d="M28.06,-1079.75C28.65,-963.11 34.36,-324.86 90,-261 105.77,-242.9 130.47,-235.23 153.83,-232.43"/>
<polygon fill="black" stroke="black" points="153.99,-235.93 163.64,-231.56 153.36,-228.96 153.99,-235.93"/>
</g>
<!-- utils/sessionStorage.ts -->
<g id="node39" class="node">
<title>utils/sessionStorage.ts</title>
<polygon fill="#ffcc99" stroke="black" points="270.62,-198 163.12,-198 163.12,-162 270.62,-162 270.62,-198"/>
<text text-anchor="middle" x="216.88" y="-177.82" font-family="Times,serif" font-size="9.00">utils/sessionStorage.ts</text>
</g>
<!-- query.ts&#45;&gt;utils/sessionStorage.ts -->
<g id="edge38" class="edge">
<title>query.ts&#45;&gt;utils/sessionStorage.ts</title>
<path fill="none" stroke="black" d="M27.98,-1079.76C28,-958.82 30.75,-275.31 90,-207 105.22,-189.45 128.83,-181.7 151.51,-178.69"/>
<polygon fill="black" stroke="black" points="151.78,-182.18 161.38,-177.69 151.08,-175.21 151.78,-182.18"/>
</g>
<!-- utils/systemPromptType.ts -->
<g id="node40" class="node">
<title>utils/systemPromptType.ts</title>
<polygon fill="#ffcc99" stroke="black" points="280,-144 153.75,-144 153.75,-108 280,-108 280,-144"/>
<text text-anchor="middle" x="216.88" y="-123.83" font-family="Times,serif" font-size="9.00">utils/systemPromptType.ts</text>
</g>
<!-- query.ts&#45;&gt;utils/systemPromptType.ts -->
<g id="edge39" class="edge">
<title>query.ts&#45;&gt;utils/systemPromptType.ts</title>
<path fill="none" stroke="black" d="M27.9,-1079.87C27.39,-955.07 27.12,-225.78 90,-153 103.13,-137.8 122.55,-129.95 142.23,-126.15"/>
<polygon fill="black" stroke="black" points="142.64,-129.63 151.98,-124.63 141.56,-122.71 142.64,-129.63"/>
</g>
<!-- utils/tokens.ts -->
<g id="node41" class="node">
<title>utils/tokens.ts</title>
<polygon fill="#ffcc99" stroke="black" points="253.75,-90 180,-90 180,-54 253.75,-54 253.75,-90"/>
<text text-anchor="middle" x="216.88" y="-69.83" font-family="Times,serif" font-size="9.00">utils/tokens.ts</text>
</g>
<!-- query.ts&#45;&gt;utils/tokens.ts -->
<g id="edge40" class="edge">
<title>query.ts&#45;&gt;utils/tokens.ts</title>
<path fill="none" stroke="black" d="M27.83,-1079.68C26.81,-950.21 23.54,-176.21 90,-99 109.01,-76.92 141.3,-70.32 168.42,-69.17"/>
<polygon fill="black" stroke="black" points="168.22,-72.67 178.16,-69.01 168.1,-65.68 168.22,-72.67"/>
</g>
<!-- utils/toolResultStorage.ts -->
<g id="node42" class="node">
<title>utils/toolResultStorage.ts</title>
<polygon fill="#ffcc99" stroke="black" points="277,-36 156.75,-36 156.75,0 277,0 277,-36"/>
<text text-anchor="middle" x="216.88" y="-15.82" font-family="Times,serif" font-size="9.00">utils/toolResultStorage.ts</text>
</g>
<!-- query.ts&#45;&gt;utils/toolResultStorage.ts -->
<g id="edge41" class="edge">
<title>query.ts&#45;&gt;utils/toolResultStorage.ts</title>
<path fill="none" stroke="black" d="M28.45,-1079.61C31.91,-942.66 54.9,-85.91 90,-45 103.76,-28.97 124.51,-21.09 145.22,-17.54"/>
<polygon fill="black" stroke="black" points="145.41,-21.05 154.85,-16.22 144.47,-14.11 145.41,-21.05"/>
</g>
</g>
</svg>
