<?xml version="1.0" encoding="UTF-8" standalone="no"?>
<!DOCTYPE svg PUBLIC "-//W3C//DTD SVG 1.1//EN"
 "http://www.w3.org/Graphics/SVG/1.1/DTD/svg11.dtd">
<!-- Generated by graphviz version 9.0.0 (20230911.1827)
 -->
<!-- Title: context_deps Pages: 1 -->
<svg width="583pt" height="611pt"
 viewBox="0.00 0.00 582.50 611.00" xmlns="http://www.w3.org/2000/svg" xmlns:xlink="http://www.w3.org/1999/xlink">
<g id="graph0" class="graph" transform="scale(1 1) rotate(0) translate(4 607)">
<title>context_deps</title>
<polygon fill="white" stroke="none" points="-4,4 -4,-607 578.5,-607 578.5,4 -4,4"/>
<!-- context.ts -->
<g id="node1" class="node">
<title>context.ts</title>
<polygon fill="#ff9999" stroke="black" points="359.75,-252 296.5,-252 296.5,-216 359.75,-216 359.75,-252"/>
<text text-anchor="middle" x="328.12" y="-231.62" font-family="Times,serif" font-size="10.00">context.ts</text>
</g>
<!-- bootstrap/state.ts -->
<g id="node2" class="node">
<title>bootstrap/state.ts</title>
<polygon fill="lightgrey" stroke="black" points="557.62,-468 458.38,-468 458.38,-432 557.62,-432 557.62,-468"/>
<text text-anchor="middle" x="508" y="-447.62" font-family="Times,serif" font-size="10.00">bootstrap/state.ts</text>
</g>
<!-- context.ts&#45;&gt;bootstrap/state.ts -->
<g id="edge1" class="edge">
<title>context.ts&#45;&gt;bootstrap/state.ts</title>
<path fill="none" stroke="black" d="M335.42,-252.22C349.09,-289.28 384.89,-374.08 441.5,-423 443.66,-424.86 445.96,-426.61 448.37,-428.25"/>
<polygon fill="black" stroke="black" points="446.38,-431.14 456.76,-433.26 449.97,-425.13 446.38,-431.14"/>
</g>
<!-- constants/common.ts -->
<g id="node3" class="node">
<title>constants/common.ts</title>
<polygon fill="lightgrey" stroke="black" points="568.12,-414 447.88,-414 447.88,-378 568.12,-378 568.12,-414"/>
<text text-anchor="middle" x="508" y="-393.62" font-family="Times,serif" font-size="10.00">constants/common.ts</text>
</g>
<!-- context.ts&#45;&gt;constants/common.ts -->
<g id="edge2" class="edge">
<title>context.ts&#45;&gt;constants/common.ts</title>
<path fill="none" stroke="black" d="M340.06,-252.14C358.01,-280.57 396.29,-335.77 441.5,-369 442.83,-369.98 444.2,-370.93 445.61,-371.85"/>
<polygon fill="black" stroke="black" points="443.57,-374.72 453.97,-376.77 447.12,-368.68 443.57,-374.72"/>
</g>
<!-- utils/claudemd.ts -->
<g id="node4" class="node">
<title>utils/claudemd.ts</title>
<polygon fill="lightgrey" stroke="black" points="556.5,-360 459.5,-360 459.5,-324 556.5,-324 556.5,-360"/>
<text text-anchor="middle" x="508" y="-339.62" font-family="Times,serif" font-size="10.00">utils/claudemd.ts</text>
</g>
<!-- context.ts&#45;&gt;utils/claudemd.ts -->
<g id="edge3" class="edge">
<title>context.ts&#45;&gt;utils/claudemd.ts</title>
<path fill="none" stroke="black" d="M351.32,-252.4C373.27,-270 408.3,-296.52 441.5,-315 443.86,-316.31 446.29,-317.6 448.77,-318.85"/>
<polygon fill="black" stroke="black" points="447.26,-322.01 457.79,-323.16 450.28,-315.69 447.26,-322.01"/>
</g>
<!-- utils/diagLogs.ts -->
<g id="node5" class="node">
<title>utils/diagLogs.ts</title>
<polygon fill="lightgrey" stroke="black" points="553.88,-306 462.12,-306 462.12,-270 553.88,-270 553.88,-306"/>
<text text-anchor="middle" x="508" y="-285.62" font-family="Times,serif" font-size="10.00">utils/diagLogs.ts</text>
</g>
<!-- context.ts&#45;&gt;utils/diagLogs.ts -->
<g id="edge4" class="edge">
<title>context.ts&#45;&gt;utils/diagLogs.ts</title>
<path fill="none" stroke="black" d="M360.11,-243.41C385.11,-251 420.93,-261.87 450.94,-270.98"/>
<polygon fill="black" stroke="black" points="449.66,-274.25 460.25,-273.81 451.7,-267.55 449.66,-274.25"/>
</g>
<!-- utils/envUtils.ts -->
<g id="node6" class="node">
<title>utils/envUtils.ts</title>
<polygon fill="lightgrey" stroke="black" points="552.75,-252 463.25,-252 463.25,-216 552.75,-216 552.75,-252"/>
<text text-anchor="middle" x="508" y="-231.62" font-family="Times,serif" font-size="10.00">utils/envUtils.ts</text>
</g>
<!-- context.ts&#45;&gt;utils/envUtils.ts -->
<g id="edge5" class="edge">
<title>context.ts&#45;&gt;utils/envUtils.ts</title>
<path fill="none" stroke="black" d="M360.11,-234C385.35,-234 421.63,-234 451.81,-234"/>
<polygon fill="black" stroke="black" points="451.53,-237.5 461.53,-234 451.53,-230.5 451.53,-237.5"/>
</g>
<!-- utils/execFileNoThrow.ts -->
<g id="node7" class="node">
<title>utils/execFileNoThrow.ts</title>
<polygon fill="lightgrey" stroke="black" points="574.5,-198 441.5,-198 441.5,-162 574.5,-162 574.5,-198"/>
<text text-anchor="middle" x="508" y="-177.62" font-family="Times,serif" font-size="10.00">utils/execFileNoThrow.ts</text>
</g>
<!-- context.ts&#45;&gt;utils/execFileNoThrow.ts -->
<g id="edge6" class="edge">
<title>context.ts&#45;&gt;utils/execFileNoThrow.ts</title>
<path fill="none" stroke="black" d="M360.11,-224.59C380.93,-218.27 409.26,-209.67 435.48,-201.71"/>
<polygon fill="black" stroke="black" points="436.17,-205.16 444.73,-198.91 434.14,-198.46 436.17,-205.16"/>
</g>
<!-- utils/git.ts -->
<g id="node8" class="node">
<title>utils/git.ts</title>
<polygon fill="lightgrey" stroke="black" points="538.88,-144 477.12,-144 477.12,-108 538.88,-108 538.88,-144"/>
<text text-anchor="middle" x="508" y="-123.62" font-family="Times,serif" font-size="10.00">utils/git.ts</text>
</g>
<!-- context.ts&#45;&gt;utils/git.ts -->
<g id="edge7" class="edge">
<title>context.ts&#45;&gt;utils/git.ts</title>
<path fill="none" stroke="black" d="M351.32,-215.6C373.27,-198 408.3,-171.48 441.5,-153 449.2,-148.72 457.71,-144.72 465.99,-141.18"/>
<polygon fill="black" stroke="black" points="467.32,-144.42 475.24,-137.38 464.66,-137.94 467.32,-144.42"/>
</g>
<!-- utils/gitSettings.ts -->
<g id="node9" class="node">
<title>utils/gitSettings.ts</title>
<polygon fill="lightgrey" stroke="black" points="557.62,-90 458.38,-90 458.38,-54 557.62,-54 557.62,-90"/>
<text text-anchor="middle" x="508" y="-69.62" font-family="Times,serif" font-size="10.00">utils/gitSettings.ts</text>
</g>
<!-- context.ts&#45;&gt;utils/gitSettings.ts -->
<g id="edge8" class="edge">
<title>context.ts&#45;&gt;utils/gitSettings.ts</title>
<path fill="none" stroke="black" d="M340.06,-215.86C358.01,-187.43 396.29,-132.23 441.5,-99 443.63,-97.43 445.87,-95.94 448.18,-94.52"/>
<polygon fill="black" stroke="black" points="449.62,-97.72 456.66,-89.8 446.22,-91.6 449.62,-97.72"/>
</g>
<!-- utils/log.ts -->
<g id="node10" class="node">
<title>utils/log.ts</title>
<polygon fill="lightgrey" stroke="black" points="540,-36 476,-36 476,0 540,0 540,-36"/>
<text text-anchor="middle" x="508" y="-15.62" font-family="Times,serif" font-size="10.00">utils/log.ts</text>
</g>
<!-- context.ts&#45;&gt;utils/log.ts -->
<g id="edge9" class="edge">
<title>context.ts&#45;&gt;utils/log.ts</title>
<path fill="none" stroke="black" d="M335.42,-215.78C349.09,-178.72 384.89,-93.92 441.5,-45 448.37,-39.06 456.73,-34.3 465.14,-30.54"/>
<polygon fill="black" stroke="black" points="466.34,-33.83 474.31,-26.85 463.73,-27.33 466.34,-33.83"/>
</g>
<!-- commands/btw/btw.tsx -->
<g id="node11" class="node">
<title>commands/btw/btw.tsx</title>
<polygon fill="#99ccff" stroke="black" points="171.62,-495 43.12,-495 43.12,-459 171.62,-459 171.62,-495"/>
<text text-anchor="middle" x="107.38" y="-474.62" font-family="Times,serif" font-size="10.00">commands/btw/btw.tsx</text>
</g>
<!-- commands/btw/btw.tsx&#45;&gt;context.ts -->
<g id="edge10" class="edge">
<title>commands/btw/btw.tsx&#45;&gt;context.ts</title>
<path fill="none" stroke="black" d="M172.02,-469.98C187.19,-465.96 202.5,-459.7 214.75,-450 276.15,-401.37 307.54,-309.97 320.2,-263.2"/>
<polygon fill="black" stroke="black" points="323.51,-264.35 322.64,-253.79 316.74,-262.59 323.51,-264.35"/>
</g>
<!-- commands/clear/caches.ts -->
<g id="node12" class="node">
<title>commands/clear/caches.ts</title>
<polygon fill="#99ccff" stroke="black" points="178.75,-441 36,-441 36,-405 178.75,-405 178.75,-441"/>
<text text-anchor="middle" x="107.38" y="-420.62" font-family="Times,serif" font-size="10.00">commands/clear/caches.ts</text>
</g>
<!-- commands/clear/caches.ts&#45;&gt;context.ts -->
<g id="edge11" class="edge">
<title>commands/clear/caches.ts&#45;&gt;context.ts</title>
<path fill="none" stroke="black" d="M179,-412.65C191.61,-408.75 204.1,-403.38 214.75,-396 263.69,-362.05 298.02,-299.41 314.99,-262.77"/>
<polygon fill="black" stroke="black" points="318.17,-264.23 319.07,-253.67 311.78,-261.36 318.17,-264.23"/>
</g>
<!-- commands/compact/compact.ts -->
<g id="node13" class="node">
<title>commands/compact/compact.ts</title>
<polygon fill="#99ccff" stroke="black" points="192.62,-387 22.12,-387 22.12,-351 192.62,-351 192.62,-387"/>
<text text-anchor="middle" x="107.38" y="-366.62" font-family="Times,serif" font-size="10.00">commands/compact/compact.ts</text>
</g>
<!-- commands/compact/compact.ts&#45;&gt;context.ts -->
<g id="edge12" class="edge">
<title>commands/compact/compact.ts&#45;&gt;context.ts</title>
<path fill="none" stroke="black" d="M192.99,-351.88C200.55,-349.06 207.92,-345.79 214.75,-342 251.67,-321.49 285.33,-285.85 306,-261.15"/>
<polygon fill="black" stroke="black" points="308.68,-263.4 312.3,-253.45 303.26,-258.97 308.68,-263.4"/>
</g>
<!-- screens/REPL.tsx -->
<g id="node14" class="node">
<title>screens/REPL.tsx</title>
<polygon fill="#99ccff" stroke="black" points="155.5,-333 59.25,-333 59.25,-297 155.5,-297 155.5,-333"/>
<text text-anchor="middle" x="107.38" y="-312.62" font-family="Times,serif" font-size="10.00">screens/REPL.tsx</text>
</g>
<!-- screens/REPL.tsx&#45;&gt;context.ts -->
<g id="edge13" class="edge">
<title>screens/REPL.tsx&#45;&gt;context.ts</title>
<path fill="none" stroke="black" d="M155.85,-305.09C174.47,-300.65 195.86,-294.86 214.75,-288 239.12,-279.15 265.28,-266.77 286.23,-256.09"/>
<polygon fill="black" stroke="black" points="287.74,-259.24 295.02,-251.54 284.53,-253.02 287.74,-259.24"/>
</g>
<!-- services/compact/postCompactCleanup.ts -->
<g id="node15" class="node">
<title>services/compact/postCompactCleanup.ts</title>
<polygon fill="#99ccff" stroke="black" points="214.75,-279 0,-279 0,-243 214.75,-243 214.75,-279"/>
<text text-anchor="middle" x="107.38" y="-258.62" font-family="Times,serif" font-size="10.00">services/compact/postCompactCleanup.ts</text>
</g>
<!-- services/compact/postCompactCleanup.ts&#45;&gt;context.ts -->
<g id="edge14" class="edge">
<title>services/compact/postCompactCleanup.ts&#45;&gt;context.ts</title>
<path fill="none" stroke="black" d="M215.19,-247.82C240.03,-244.75 265.05,-241.66 285.11,-239.19"/>
<polygon fill="black" stroke="black" points="285.31,-242.69 294.81,-237.99 284.46,-235.74 285.31,-242.69"/>
</g>
<!-- tools/AgentTool/runAgent.ts -->
<g id="node16" class="node">
<title>tools/AgentTool/runAgent.ts</title>
<polygon fill="#99ccff" stroke="black" points="182.12,-225 32.62,-225 32.62,-189 182.12,-189 182.12,-225"/>
<text text-anchor="middle" x="107.38" y="-204.62" font-family="Times,serif" font-size="10.00">tools/AgentTool/runAgent.ts</text>
</g>
<!-- tools/AgentTool/runAgent.ts&#45;&gt;context.ts -->
<g id="edge15" class="edge">
<title>tools/AgentTool/runAgent.ts&#45;&gt;context.ts</title>
<path fill="none" stroke="black" d="M182.43,-216.14C216.53,-220.35 255.76,-225.19 284.76,-228.77"/>
<polygon fill="black" stroke="black" points="284.27,-232.24 294.62,-229.99 285.13,-225.29 284.27,-232.24"/>
</g>
<!-- utils/analyzeContext.ts -->
<g id="node17" class="node">
<title>utils/analyzeContext.ts</title>
<polygon fill="#99ccff" stroke="black" points="170.12,-171 44.62,-171 44.62,-135 170.12,-135 170.12,-171"/>
<text text-anchor="middle" x="107.38" y="-150.62" font-family="Times,serif" font-size="10.00">utils/analyzeContext.ts</text>
</g>
<!-- utils/analyzeContext.ts&#45;&gt;context.ts -->
<g id="edge16" class="edge">
<title>utils/analyzeContext.ts&#45;&gt;context.ts</title>
<path fill="none" stroke="black" d="M170.6,-166.58C185.25,-170.38 200.69,-174.9 214.75,-180 239.12,-188.85 265.28,-201.23 286.23,-211.91"/>
<polygon fill="black" stroke="black" points="284.53,-214.98 295.02,-216.46 287.74,-208.76 284.53,-214.98"/>
</g>
<!-- utils/api.ts -->
<g id="node18" class="node">
<title>utils/api.ts</title>
<polygon fill="#99ccff" stroke="black" points="139.75,-117 75,-117 75,-81 139.75,-81 139.75,-117"/>
<text text-anchor="middle" x="107.38" y="-96.62" font-family="Times,serif" font-size="10.00">utils/api.ts</text>
</g>
<!-- utils/api.ts&#45;&gt;context.ts -->
<g id="edge17" class="edge">
<title>utils/api.ts&#45;&gt;context.ts</title>
<path fill="none" stroke="black" d="M140.22,-102.7C162.23,-106.28 191.6,-113.14 214.75,-126 251.67,-146.51 285.33,-182.15 306,-206.85"/>
<polygon fill="black" stroke="black" points="303.26,-209.03 312.3,-214.55 308.68,-204.6 303.26,-209.03"/>
</g>
<!-- utils/queryContext.ts -->
<g id="node19" class="node">
<title>utils/queryContext.ts</title>
<polygon fill="#99ff99" stroke="black" points="164.88,-63 49.88,-63 49.88,-27 164.88,-27 164.88,-63"/>
<text text-anchor="middle" x="107.38" y="-42.62" font-family="Times,serif" font-size="10.00">utils/queryContext.ts</text>
</g>
<!-- utils/queryContext.ts&#45;&gt;context.ts -->
<g id="edge18" class="edge">
<title>utils/queryContext.ts&#45;&gt;context.ts</title>
<path fill="none" stroke="black" d="M165.13,-43.05C182.17,-46.58 200.19,-52.9 214.75,-63 266.2,-98.69 301.5,-166.1 317.46,-204.95"/>
<polygon fill="black" stroke="black" points="314.16,-206.12 321.07,-214.16 320.68,-203.57 314.16,-206.12"/>
</g>
<!-- utils/queryContext.ts&#45;&gt;context.ts -->
<g id="edge19" class="edge">
<title>utils/queryContext.ts&#45;&gt;context.ts</title>
<path fill="none" stroke="black" d="M165.13,-60.18C182.17,-64.58 200.19,-70.9 214.75,-81 261.01,-113.09 294.22,-170.82 312.05,-205.61"/>
<polygon fill="black" stroke="black" points="308.78,-206.9 316.4,-214.26 315.03,-203.76 308.78,-206.9"/>
</g>
<!-- constants/prompts.ts -->
<g id="node20" class="node">
<title>constants/prompts.ts</title>
<polygon fill="lightgrey" stroke="black" points="386.75,-63 269.5,-63 269.5,-27 386.75,-27 386.75,-63"/>
<text text-anchor="middle" x="328.12" y="-42.62" font-family="Times,serif" font-size="10.00">constants/prompts.ts</text>
</g>
<!-- utils/queryContext.ts&#45;&gt;constants/prompts.ts -->
<g id="edge20" class="edge">
<title>utils/queryContext.ts&#45;&gt;constants/prompts.ts</title>
<path fill="none" stroke="black" d="M165.28,-45C193.68,-45 228.26,-45 258.16,-45"/>
<polygon fill="black" stroke="black" points="257.85,-48.5 267.85,-45 257.85,-41.5 257.85,-48.5"/>
</g>
<!-- utils/context.ts -->
<g id="node21" class="node">
<title>utils/context.ts</title>
<polygon fill="#ffcc99" stroke="black" points="551.25,-559 464.75,-559 464.75,-523 551.25,-523 551.25,-559"/>
<text text-anchor="middle" x="508" y="-538.62" font-family="Times,serif" font-size="10.00">utils/context.ts</text>
</g>
<!-- services/compact/autoCompact.ts -->
<g id="node22" class="node">
<title>services/compact/autoCompact.ts</title>
<polygon fill="#ffcc99" stroke="black" points="196,-549 18.75,-549 18.75,-513 196,-513 196,-549"/>
<text text-anchor="middle" x="107.38" y="-528.62" font-family="Times,serif" font-size="10.00">services/compact/autoCompact.ts</text>
</g>
<!-- services/compact/autoCompact.ts&#45;&gt;utils/context.ts -->
<g id="edge21" class="edge">
<title>services/compact/autoCompact.ts&#45;&gt;utils/context.ts</title>
<path fill="none" stroke="black" d="M196.47,-533.54C214.43,-534.04 233.2,-534.55 250.75,-535 320.64,-536.8 401.27,-538.65 453.12,-539.81"/>
<polygon fill="black" stroke="black" points="452.79,-543.31 462.87,-540.03 452.95,-536.31 452.79,-543.31"/>
</g>
<!-- services/compact/compact.ts -->
<g id="node23" class="node">
<title>services/compact/compact.ts</title>
<polygon fill="#ffcc99" stroke="black" points="405.5,-526 250.75,-526 250.75,-490 405.5,-490 405.5,-526"/>
<text text-anchor="middle" x="328.12" y="-505.62" font-family="Times,serif" font-size="10.00">services/compact/compact.ts</text>
</g>
<!-- services/compact/autoCompact.ts&#45;&gt;services/compact/compact.ts -->
<g id="edge22" class="edge">
<title>services/compact/autoCompact.ts&#45;&gt;services/compact/compact.ts</title>
<path fill="none" stroke="black" d="M196.4,-521.74C210.55,-520.26 225.19,-518.72 239.33,-517.23"/>
<polygon fill="black" stroke="black" points="239.46,-520.74 249.04,-516.21 238.73,-513.78 239.46,-520.74"/>
</g>
<!-- services/compact/compact.ts&#45;&gt;utils/context.ts -->
<g id="edge23" class="edge">
<title>services/compact/compact.ts&#45;&gt;utils/context.ts</title>
<path fill="none" stroke="black" d="M405.85,-522.23C421.89,-525.21 438.46,-528.28 453.44,-531.06"/>
<polygon fill="black" stroke="black" points="452.58,-534.46 463.05,-532.85 453.86,-527.58 452.58,-534.46"/>
</g>
<!-- services/compact/microCompact.ts -->
<g id="node24" class="node">
<title>services/compact/microCompact.ts</title>
<polygon fill="#ffcc99" stroke="black" points="199.38,-603 15.38,-603 15.38,-567 199.38,-567 199.38,-603"/>
<text text-anchor="middle" x="107.38" y="-582.62" font-family="Times,serif" font-size="10.00">services/compact/microCompact.ts</text>
</g>
</g>
</svg>
