<?xml version="1.0" encoding="UTF-8" standalone="no"?>
<!DOCTYPE svg PUBLIC "-//W3C//DTD SVG 1.1//EN"
 "http://www.w3.org/Graphics/SVG/1.1/DTD/svg11.dtd">
<!-- Generated by graphviz version 9.0.0 (20230911.1827)
 -->
<!-- Pages: 1 -->
<svg width="291pt" height="450pt"
 viewBox="0.00 0.00 290.50 449.50" xmlns="http://www.w3.org/2000/svg" xmlns:xlink="http://www.w3.org/1999/xlink">
<g id="graph0" class="graph" transform="scale(1 1) rotate(0) translate(4 445.5)">
<polygon fill="white" stroke="none" points="-4,4 -4,-445.5 286.5,-445.5 286.5,4 -4,4"/>
<text text-anchor="middle" x="141.25" y="-424.2" font-family="Times,serif" font-size="14.00">Layer 0: 1 files</text>
<!-- entrypoints/sdk/runtimeTypes.ts -->
<g id="node1" class="node">
<title>entrypoints/sdk/runtimeTypes.ts</title>
<polygon fill="#ffcc99" stroke="black" points="270.12,-414 117.62,-414 117.62,-378 270.12,-378 270.12,-414"/>
<text text-anchor="middle" x="193.88" y="-393.82" font-family="Times,serif" font-size="9.00">entrypoints/sdk/runtimeTypes.ts</text>
</g>
<!-- services/analytics/growthbook.ts -->
<g id="node2" class="node">
<title>services/analytics/growthbook.ts</title>
<polygon fill="#ffcc99" stroke="black" points="270.88,-360 116.88,-360 116.88,-324 270.88,-324 270.88,-360"/>
<text text-anchor="middle" x="193.88" y="-339.82" font-family="Times,serif" font-size="9.00">services/analytics/growthbook.ts</text>
</g>
<!-- utils/auth.ts -->
<g id="node3" class="node">
<title>utils/auth.ts</title>
<polygon fill="#ffcc99" stroke="black" points="227,-306 160.75,-306 160.75,-270 227,-270 227,-306"/>
<text text-anchor="middle" x="193.88" y="-285.82" font-family="Times,serif" font-size="9.00">utils/auth.ts</text>
</g>
<!-- utils/effort.ts -->
<g id="node4" class="node">
<title>utils/effort.ts</title>
<polygon fill="#ff9999" stroke="black" points="69.25,-225 0,-225 0,-189 69.25,-189 69.25,-225"/>
<text text-anchor="middle" x="34.62" y="-204.82" font-family="Times,serif" font-size="9.00">utils/effort.ts</text>
</g>
<!-- utils/effort.ts&#45;&gt;entrypoints/sdk/runtimeTypes.ts -->
<g id="edge1" class="edge">
<title>utils/effort.ts&#45;&gt;entrypoints/sdk/runtimeTypes.ts</title>
<path fill="none" stroke="black" d="M38.4,-225.47C44.4,-258.98 61.75,-329.93 105.25,-369 106.17,-369.82 107.11,-370.62 108.08,-371.4"/>
<polygon fill="black" stroke="black" points="105.83,-374.1 116.05,-376.88 109.79,-368.33 105.83,-374.1"/>
</g>
<!-- utils/effort.ts&#45;&gt;services/analytics/growthbook.ts -->
<g id="edge2" class="edge">
<title>utils/effort.ts&#45;&gt;services/analytics/growthbook.ts</title>
<path fill="none" stroke="black" d="M42.61,-225.1C52.78,-249.13 73.96,-291.28 105.25,-315 106.6,-316.02 107.98,-317 109.41,-317.95"/>
<polygon fill="black" stroke="black" points="107.5,-320.89 117.9,-322.91 111.03,-314.85 107.5,-320.89"/>
</g>
<!-- utils/effort.ts&#45;&gt;utils/auth.ts -->
<g id="edge3" class="edge">
<title>utils/effort.ts&#45;&gt;utils/auth.ts</title>
<path fill="none" stroke="black" d="M55.3,-225.4C68.57,-236.98 86.93,-251.48 105.25,-261 119.09,-268.2 135.18,-273.84 149.77,-278.06"/>
<polygon fill="black" stroke="black" points="148.54,-281.36 159.1,-280.62 150.38,-274.6 148.54,-281.36"/>
</g>
<!-- utils/envUtils.ts -->
<g id="node5" class="node">
<title>utils/envUtils.ts</title>
<polygon fill="#ffcc99" stroke="black" points="234.5,-252 153.25,-252 153.25,-216 234.5,-216 234.5,-252"/>
<text text-anchor="middle" x="193.88" y="-231.82" font-family="Times,serif" font-size="9.00">utils/envUtils.ts</text>
</g>
<!-- utils/effort.ts&#45;&gt;utils/envUtils.ts -->
<g id="edge4" class="edge">
<title>utils/effort.ts&#45;&gt;utils/envUtils.ts</title>
<path fill="none" stroke="black" d="M69.75,-212.86C90.78,-216.47 118.16,-221.17 141.75,-225.22"/>
<polygon fill="black" stroke="black" points="141.05,-228.65 151.49,-226.89 142.23,-221.75 141.05,-228.65"/>
</g>
<!-- utils/model/modelSupportOverrides.ts -->
<g id="node6" class="node">
<title>utils/model/modelSupportOverrides.ts</title>
<polygon fill="#ffcc99" stroke="black" points="282.5,-198 105.25,-198 105.25,-162 282.5,-162 282.5,-198"/>
<text text-anchor="middle" x="193.88" y="-177.82" font-family="Times,serif" font-size="9.00">utils/model/modelSupportOverrides.ts</text>
</g>
<!-- utils/effort.ts&#45;&gt;utils/model/modelSupportOverrides.ts -->
<g id="edge5" class="edge">
<title>utils/effort.ts&#45;&gt;utils/model/modelSupportOverrides.ts</title>
<path fill="none" stroke="black" d="M69.75,-201.14C77.09,-199.88 85.22,-198.49 93.68,-197.03"/>
<polygon fill="black" stroke="black" points="94.21,-200.49 103.48,-195.35 93.03,-193.59 94.21,-200.49"/>
</g>
<!-- utils/model/providers.ts -->
<g id="node7" class="node">
<title>utils/model/providers.ts</title>
<polygon fill="#ffcc99" stroke="black" points="251.75,-144 136,-144 136,-108 251.75,-108 251.75,-144"/>
<text text-anchor="middle" x="193.88" y="-123.83" font-family="Times,serif" font-size="9.00">utils/model/providers.ts</text>
</g>
<!-- utils/effort.ts&#45;&gt;utils/model/providers.ts -->
<g id="edge6" class="edge">
<title>utils/effort.ts&#45;&gt;utils/model/providers.ts</title>
<path fill="none" stroke="black" d="M55.3,-188.6C68.57,-177.02 86.93,-162.52 105.25,-153 111.46,-149.77 118.12,-146.86 124.9,-144.24"/>
<polygon fill="black" stroke="black" points="125.95,-147.58 134.17,-140.89 123.57,-141 125.95,-147.58"/>
</g>
<!-- utils/settings/settings.ts -->
<g id="node8" class="node">
<title>utils/settings/settings.ts</title>
<polygon fill="#ffcc99" stroke="black" points="249.5,-90 138.25,-90 138.25,-54 249.5,-54 249.5,-90"/>
<text text-anchor="middle" x="193.88" y="-69.83" font-family="Times,serif" font-size="9.00">utils/settings/settings.ts</text>
</g>
<!-- utils/effort.ts&#45;&gt;utils/settings/settings.ts -->
<g id="edge7" class="edge">
<title>utils/effort.ts&#45;&gt;utils/settings/settings.ts</title>
<path fill="none" stroke="black" d="M42.61,-188.9C52.78,-164.87 73.96,-122.72 105.25,-99 111.95,-93.92 119.62,-89.79 127.58,-86.42"/>
<polygon fill="black" stroke="black" points="128.6,-89.78 136.72,-82.97 126.13,-83.23 128.6,-89.78"/>
</g>
<!-- utils/thinking.ts -->
<g id="node9" class="node">
<title>utils/thinking.ts</title>
<polygon fill="#ffcc99" stroke="black" points="235.25,-36 152.5,-36 152.5,0 235.25,0 235.25,-36"/>
<text text-anchor="middle" x="193.88" y="-15.82" font-family="Times,serif" font-size="9.00">utils/thinking.ts</text>
</g>
<!-- utils/effort.ts&#45;&gt;utils/thinking.ts -->
<g id="edge8" class="edge">
<title>utils/effort.ts&#45;&gt;utils/thinking.ts</title>
<path fill="none" stroke="black" d="M38.4,-188.53C44.4,-155.02 61.75,-84.07 105.25,-45 115.33,-35.94 128.41,-29.92 141.36,-25.92"/>
<polygon fill="black" stroke="black" points="141.94,-29.39 150.69,-23.41 140.12,-22.63 141.94,-29.39"/>
</g>
</g>
</svg>
