<?xml version="1.0" encoding="UTF-8" standalone="no"?>
<!DOCTYPE svg PUBLIC "-//W3C//DTD SVG 1.1//EN"
 "http://www.w3.org/Graphics/SVG/1.1/DTD/svg11.dtd">
<!-- Generated by graphviz version 9.0.0 (20230911.1827)
 -->
<!-- Pages: 1 -->
<svg width="1973pt" height="2740pt"
 viewBox="0.00 0.00 1973.00 2740.11" xmlns="http://www.w3.org/2000/svg" xmlns:xlink="http://www.w3.org/1999/xlink">
<g id="graph0" class="graph" transform="scale(1 1) rotate(0) translate(4 2736.11)">
<polygon fill="white" stroke="none" points="-4,4 -4,-2736.11 1969,-2736.11 1969,4 -4,4"/>
<text text-anchor="middle" x="982.5" y="-2714.81" font-family="Times,serif" font-size="14.00">Layer 2: 50 files</text>
<!-- bootstrap/state.ts -->
<g id="node1" class="node">
<title>bootstrap/state.ts</title>
<polygon fill="#ffff99" stroke="black" points="907.62,-2023.51 821.12,-2023.51 821.12,-1987.51 907.62,-1987.51 907.62,-2023.51"/>
<text text-anchor="middle" x="864.38" y="-2003.34" font-family="Times,serif" font-size="9.00">bootstrap/state.ts</text>
</g>
<!-- utils/model/model.ts -->
<g id="node33" class="node">
<title>utils/model/model.ts</title>
<polygon fill="#ffff99" stroke="black" points="1134.75,-2169.51 1034,-2169.51 1034,-2133.51 1134.75,-2133.51 1134.75,-2169.51"/>
<text text-anchor="middle" x="1084.38" y="-2149.34" font-family="Times,serif" font-size="9.00">utils/model/model.ts</text>
</g>
<!-- bootstrap/state.ts&#45;&gt;utils/model/model.ts -->
<g id="edge1" class="edge">
<title>bootstrap/state.ts&#45;&gt;utils/model/model.ts</title>
<path fill="none" stroke="black" d="M908.1,-2004.74C931.6,-2009.42 959.96,-2019.65 980,-2037.51 1007,-2061.58 990.23,-2085.12 1016,-2110.51 1023.17,-2117.58 1032.2,-2123.3 1041.3,-2128.1"/>
<polygon fill="black" stroke="black" points="1039.63,-2131.18 1050.15,-2132.48 1042.73,-2124.91 1039.63,-2131.18"/>
</g>
<!-- utils/model/modelStrings.ts -->
<g id="node34" class="node">
<title>utils/model/modelStrings.ts</title>
<polygon fill="#ffff99" stroke="black" points="1319.5,-2114.51 1188.75,-2114.51 1188.75,-2078.51 1319.5,-2078.51 1319.5,-2114.51"/>
<text text-anchor="middle" x="1254.12" y="-2094.34" font-family="Times,serif" font-size="9.00">utils/model/modelStrings.ts</text>
</g>
<!-- bootstrap/state.ts&#45;&gt;utils/model/modelStrings.ts -->
<g id="edge2" class="edge">
<title>bootstrap/state.ts&#45;&gt;utils/model/modelStrings.ts</title>
<path fill="none" stroke="black" d="M907.94,-2011.57C929.69,-2018.12 956.47,-2027.77 980,-2037.51 996.35,-2044.28 999.04,-2049.46 1016,-2054.51 1068.53,-2070.17 1129.86,-2078.45 1176.99,-2084.03"/>
<polygon fill="black" stroke="black" points="1176.51,-2087.5 1186.85,-2085.19 1177.32,-2080.55 1176.51,-2087.5"/>
</g>
<!-- utils/settings/constants.ts -->
<g id="node40" class="node">
<title>utils/settings/constants.ts</title>
<polygon fill="#ffff99" stroke="black" points="1613.25,-503.51 1493,-503.51 1493,-467.51 1613.25,-467.51 1613.25,-503.51"/>
<text text-anchor="middle" x="1553.12" y="-483.34" font-family="Times,serif" font-size="9.00">utils/settings/constants.ts</text>
</g>
<!-- bootstrap/state.ts&#45;&gt;utils/settings/constants.ts -->
<g id="edge3" class="edge">
<title>bootstrap/state.ts&#45;&gt;utils/settings/constants.ts</title>
<path fill="none" stroke="black" d="M907.92,-1989.73C929.79,-1984.23 956.67,-1977.75 980,-1969.51 1060.31,-1941.14 1082.29,-1934.38 1152.75,-1886.51 1312.96,-1777.66 1383.61,-1753.75 1457,-1574.51 1506.61,-1453.36 1481.46,-1116.91 1493,-986.51 1508.93,-806.58 1536.69,-591.92 1547.57,-514.74"/>
<polygon fill="black" stroke="black" points="1551,-515.45 1548.95,-505.06 1544.07,-514.46 1551,-515.45"/>
</g>
<!-- utils/settings/settingsCache.ts -->
<g id="node45" class="node">
<title>utils/settings/settingsCache.ts</title>
<polygon fill="#ffff99" stroke="black" points="1152.75,-485.51 1016,-485.51 1016,-449.51 1152.75,-449.51 1152.75,-485.51"/>
<text text-anchor="middle" x="1084.38" y="-465.34" font-family="Times,serif" font-size="9.00">utils/settings/settingsCache.ts</text>
</g>
<!-- bootstrap/state.ts&#45;&gt;utils/settings/settingsCache.ts -->
<g id="edge4" class="edge">
<title>bootstrap/state.ts&#45;&gt;utils/settings/settingsCache.ts</title>
<path fill="none" stroke="black" d="M908.02,-2007.39C933.04,-2005.98 962.98,-1999.46 980,-1978.51 1030.42,-1916.44 985.7,-613.52 1016,-539.51 1023.24,-521.84 1036.96,-505.89 1050.15,-493.53"/>
<polygon fill="black" stroke="black" points="1052.39,-496.21 1057.53,-486.94 1047.73,-490.99 1052.39,-496.21"/>
</g>
<!-- utils/settings/types.ts -->
<g id="node46" class="node">
<title>utils/settings/types.ts</title>
<polygon fill="#ffff99" stroke="black" points="1457,-442.51 1355.5,-442.51 1355.5,-406.51 1457,-406.51 1457,-442.51"/>
<text text-anchor="middle" x="1406.25" y="-422.34" font-family="Times,serif" font-size="9.00">utils/settings/types.ts</text>
</g>
<!-- bootstrap/state.ts&#45;&gt;utils/settings/types.ts -->
<g id="edge5" class="edge">
<title>bootstrap/state.ts&#45;&gt;utils/settings/types.ts</title>
<path fill="none" stroke="black" d="M908.04,-2006.04C932.27,-2004.03 961.39,-1997.34 980,-1978.51 1031.55,-1926.37 984.09,-1883.53 1016,-1817.51 1109.3,-1624.46 1239.53,-1641.45 1319.5,-1442.51 1394.54,-1255.84 1403.92,-600.51 1405.09,-453.8"/>
<polygon fill="black" stroke="black" points="1408.58,-454.19 1405.16,-444.17 1401.58,-454.14 1408.58,-454.19"/>
</g>
<!-- utils/signal.ts -->
<g id="node48" class="node">
<title>utils/signal.ts</title>
<polygon fill="#ffff99" stroke="black" points="1120.12,-2337.51 1048.62,-2337.51 1048.62,-2301.51 1120.12,-2301.51 1120.12,-2337.51"/>
<text text-anchor="middle" x="1084.38" y="-2317.34" font-family="Times,serif" font-size="9.00">utils/signal.ts</text>
</g>
<!-- bootstrap/state.ts&#45;&gt;utils/signal.ts -->
<g id="edge6" class="edge">
<title>bootstrap/state.ts&#45;&gt;utils/signal.ts</title>
<path fill="none" stroke="black" d="M878.04,-2023.75C914.61,-2076.43 1020.57,-2229.04 1064.23,-2291.93"/>
<polygon fill="black" stroke="black" points="1061.24,-2293.76 1069.81,-2299.98 1066.99,-2289.77 1061.24,-2293.76"/>
</g>
<!-- constants/keys.ts -->
<g id="node2" class="node">
<title>constants/keys.ts</title>
<polygon fill="#ffff99" stroke="black" points="468.75,-2245.51 382.25,-2245.51 382.25,-2209.51 468.75,-2209.51 468.75,-2245.51"/>
<text text-anchor="middle" x="425.5" y="-2225.34" font-family="Times,serif" font-size="9.00">constants/keys.ts</text>
</g>
<!-- constants/oauth.ts -->
<g id="node3" class="node">
<title>constants/oauth.ts</title>
<polygon fill="#ffff99" stroke="black" points="686.12,-2153.51 592.88,-2153.51 592.88,-2117.51 686.12,-2117.51 686.12,-2153.51"/>
<text text-anchor="middle" x="639.5" y="-2133.34" font-family="Times,serif" font-size="9.00">constants/oauth.ts</text>
</g>
<!-- services/analytics/firstPartyEventLogger.ts -->
<g id="node4" class="node">
<title>services/analytics/firstPartyEventLogger.ts</title>
<polygon fill="#ffff99" stroke="black" points="522.38,-2191.51 328.62,-2191.51 328.62,-2155.51 522.38,-2155.51 522.38,-2191.51"/>
<text text-anchor="middle" x="425.5" y="-2171.34" font-family="Times,serif" font-size="9.00">services/analytics/firstPartyEventLogger.ts</text>
</g>
<!-- services/analytics/growthbook.ts -->
<g id="node5" class="node">
<title>services/analytics/growthbook.ts</title>
<polygon fill="#ffcc99" stroke="black" points="270.5,-2087.51 116.5,-2087.51 116.5,-2051.51 270.5,-2051.51 270.5,-2087.51"/>
<text text-anchor="middle" x="193.5" y="-2067.34" font-family="Times,serif" font-size="9.00">services/analytics/growthbook.ts</text>
</g>
<!-- services/analytics/growthbook.ts&#45;&gt;bootstrap/state.ts -->
<g id="edge7" class="edge">
<title>services/analytics/growthbook.ts&#45;&gt;bootstrap/state.ts</title>
<path fill="none" stroke="black" d="M270.91,-2051.24C275.8,-2048.7 280.48,-2045.81 284.75,-2042.51 309.08,-2023.75 293.96,-1998.55 320.75,-1983.51 403.19,-1937.24 689.43,-1976.96 809.6,-1996.34"/>
<polygon fill="black" stroke="black" points="808.77,-1999.75 819.2,-1997.91 809.9,-1992.85 808.77,-1999.75"/>
</g>
<!-- services/analytics/growthbook.ts&#45;&gt;constants/keys.ts -->
<g id="edge8" class="edge">
<title>services/analytics/growthbook.ts&#45;&gt;constants/keys.ts</title>
<path fill="none" stroke="black" d="M266.1,-2087.91C272.93,-2091.64 279.32,-2096.13 284.75,-2101.51 317.99,-2134.48 286.12,-2169 320.75,-2200.51 334.37,-2212.9 352.95,-2219.75 370.62,-2223.48"/>
<polygon fill="black" stroke="black" points="369.8,-2226.89 380.26,-2225.21 371.04,-2220 369.8,-2226.89"/>
</g>
<!-- services/analytics/growthbook.ts&#45;&gt;services/analytics/firstPartyEventLogger.ts -->
<g id="edge9" class="edge">
<title>services/analytics/growthbook.ts&#45;&gt;services/analytics/firstPartyEventLogger.ts</title>
<path fill="none" stroke="black" d="M260.26,-2087.91C268.89,-2091.71 277.3,-2096.21 284.75,-2101.51 305.62,-2116.36 299.26,-2132.57 320.75,-2146.51 322.62,-2147.73 324.55,-2148.89 326.52,-2150"/>
<polygon fill="black" stroke="black" points="324.83,-2153.06 335.33,-2154.43 327.98,-2146.81 324.83,-2153.06"/>
</g>
<!-- utils/config.ts -->
<g id="node19" class="node">
<title>utils/config.ts</title>
<polygon fill="#ffff99" stroke="black" points="675.62,-1725.51 603.38,-1725.51 603.38,-1689.51 675.62,-1689.51 675.62,-1725.51"/>
<text text-anchor="middle" x="639.5" y="-1705.34" font-family="Times,serif" font-size="9.00">utils/config.ts</text>
</g>
<!-- services/analytics/growthbook.ts&#45;&gt;utils/config.ts -->
<g id="edge10" class="edge">
<title>services/analytics/growthbook.ts&#45;&gt;utils/config.ts</title>
<path fill="none" stroke="black" d="M270.96,-2054.1C276.1,-2050.91 280.8,-2047.09 284.75,-2042.51 357.53,-1958.2 246.99,-1877.96 320.75,-1794.51 356.54,-1754.02 512.61,-1725.91 591.9,-1713.96"/>
<polygon fill="black" stroke="black" points="592.14,-1717.46 601.52,-1712.53 591.12,-1710.53 592.14,-1717.46"/>
</g>
<!-- utils/debug.ts -->
<g id="node20" class="node">
<title>utils/debug.ts</title>
<polygon fill="#ffff99" stroke="black" points="1720.75,-1078.51 1649.25,-1078.51 1649.25,-1042.51 1720.75,-1042.51 1720.75,-1078.51"/>
<text text-anchor="middle" x="1685" y="-1058.34" font-family="Times,serif" font-size="9.00">utils/debug.ts</text>
</g>
<!-- services/analytics/growthbook.ts&#45;&gt;utils/debug.ts -->
<g id="edge11" class="edge">
<title>services/analytics/growthbook.ts&#45;&gt;utils/debug.ts</title>
<path fill="none" stroke="black" d="M270.72,-2066.58C338.92,-2064.87 441.51,-2064.54 530.25,-2073.51 750.01,-2095.71 796.54,-2153.51 1016,-2178.51 1076.39,-2185.39 1092.74,-2188.15 1152.75,-2178.51 1229.8,-2166.13 1248.99,-2156.94 1319.5,-2123.51 1354.46,-2106.93 1593.28,-1969.65 1613.25,-1936.51 1657.77,-1862.62 1678.85,-1235.61 1683.15,-1090.43"/>
<polygon fill="black" stroke="black" points="1686.65,-1090.6 1683.44,-1080.51 1679.65,-1090.4 1686.65,-1090.6"/>
</g>
<!-- utils/errors.ts -->
<g id="node22" class="node">
<title>utils/errors.ts</title>
<polygon fill="#ffff99" stroke="black" points="1965,-2105.51 1892,-2105.51 1892,-2069.51 1965,-2069.51 1965,-2105.51"/>
<text text-anchor="middle" x="1928.5" y="-2085.34" font-family="Times,serif" font-size="9.00">utils/errors.ts</text>
</g>
<!-- services/analytics/growthbook.ts&#45;&gt;utils/errors.ts -->
<g id="edge12" class="edge">
<title>services/analytics/growthbook.ts&#45;&gt;utils/errors.ts</title>
<path fill="none" stroke="black" d="M232.63,-2087.81C251.31,-2098.76 272.38,-2114.46 284.75,-2134.51 337.91,-2220.71 254.07,-2283.29 320.75,-2359.51 384.76,-2432.69 460.49,-2354.79 530.25,-2422.51 566.55,-2457.75 525.93,-2499.94 566.25,-2530.51 749.61,-2669.52 853.27,-2555.51 1083.38,-2555.51 1083.38,-2555.51 1083.38,-2555.51 1686,-2555.51 1773.43,-2555.51 1805.38,-2527.8 1856,-2456.51 1895.09,-2401.46 1917.7,-2194.31 1924.93,-2116.92"/>
<polygon fill="black" stroke="black" points="1928.4,-2117.44 1925.83,-2107.16 1921.43,-2116.8 1928.4,-2117.44"/>
</g>
<!-- utils/http.ts -->
<g id="node28" class="node">
<title>utils/http.ts</title>
<polygon fill="#ffff99" stroke="black" points="457.12,-2137.51 393.88,-2137.51 393.88,-2101.51 457.12,-2101.51 457.12,-2137.51"/>
<text text-anchor="middle" x="425.5" y="-2117.34" font-family="Times,serif" font-size="9.00">utils/http.ts</text>
</g>
<!-- services/analytics/growthbook.ts&#45;&gt;utils/http.ts -->
<g id="edge13" class="edge">
<title>services/analytics/growthbook.ts&#45;&gt;utils/http.ts</title>
<path fill="none" stroke="black" d="M270.77,-2086.09C308.03,-2094.19 351.45,-2103.63 382.62,-2110.41"/>
<polygon fill="black" stroke="black" points="381.52,-2113.75 392.03,-2112.45 383,-2106.91 381.52,-2113.75"/>
</g>
<!-- utils/log.ts -->
<g id="node31" class="node">
<title>utils/log.ts</title>
<polygon fill="#ffff99" stroke="black" points="1435.62,-1574.51 1376.88,-1574.51 1376.88,-1538.51 1435.62,-1538.51 1435.62,-1574.51"/>
<text text-anchor="middle" x="1406.25" y="-1554.34" font-family="Times,serif" font-size="9.00">utils/log.ts</text>
</g>
<!-- services/analytics/growthbook.ts&#45;&gt;utils/log.ts -->
<g id="edge14" class="edge">
<title>services/analytics/growthbook.ts&#45;&gt;utils/log.ts</title>
<path fill="none" stroke="black" d="M231.8,-2087.78C250.49,-2098.8 271.83,-2114.58 284.75,-2134.51 327.72,-2200.77 259.51,-2258.65 320.75,-2308.51 408.27,-2379.77 1246.69,-2209.75 1319.5,-2123.51 1389.23,-2040.92 1402.36,-1690.47 1404.74,-1586.01"/>
<polygon fill="black" stroke="black" points="1408.24,-1586.38 1404.95,-1576.31 1401.24,-1586.23 1408.24,-1586.38"/>
</g>
<!-- services/analytics/growthbook.ts&#45;&gt;utils/signal.ts -->
<g id="edge15" class="edge">
<title>services/analytics/growthbook.ts&#45;&gt;utils/signal.ts</title>
<path fill="none" stroke="black" d="M232.52,-2087.88C251.17,-2098.85 272.25,-2114.54 284.75,-2134.51 334.31,-2213.66 249.29,-2281.4 320.75,-2341.51 348.22,-2364.62 876.23,-2332.8 1037.19,-2322.52"/>
<polygon fill="black" stroke="black" points="1037.31,-2326.02 1047.06,-2321.89 1036.86,-2319.04 1037.31,-2326.02"/>
</g>
<!-- utils/slowOperations.ts -->
<g id="node50" class="node">
<title>utils/slowOperations.ts</title>
<polygon fill="#ffff99" stroke="black" points="1609.12,-1040.51 1497.12,-1040.51 1497.12,-1004.51 1609.12,-1004.51 1609.12,-1040.51"/>
<text text-anchor="middle" x="1553.12" y="-1020.34" font-family="Times,serif" font-size="9.00">utils/slowOperations.ts</text>
</g>
<!-- services/analytics/growthbook.ts&#45;&gt;utils/slowOperations.ts -->
<g id="edge16" class="edge">
<title>services/analytics/growthbook.ts&#45;&gt;utils/slowOperations.ts</title>
<path fill="none" stroke="black" d="M270.87,-2074.33C338.94,-2078.72 441.27,-2085.56 530.25,-2092.51 611.43,-2098.85 632.33,-2095.77 712.75,-2108.51 849.37,-2130.16 878.57,-2162.85 1016,-2178.51 1076.39,-2185.39 1092.74,-2188.15 1152.75,-2178.51 1229.8,-2166.13 1258.3,-2171.94 1319.5,-2123.51 1411.1,-2051.02 1419.23,-2010.05 1457,-1899.51 1512.53,-1737.02 1543.77,-1186.26 1550.66,-1052.14"/>
<polygon fill="black" stroke="black" points="1554.15,-1052.5 1551.16,-1042.33 1547.16,-1052.14 1554.15,-1052.5"/>
</g>
<!-- utils/user.ts -->
<g id="node55" class="node">
<title>utils/user.ts</title>
<polygon fill="#ffff99" stroke="black" points="457.12,-1931.51 393.88,-1931.51 393.88,-1895.51 457.12,-1895.51 457.12,-1931.51"/>
<text text-anchor="middle" x="425.5" y="-1911.34" font-family="Times,serif" font-size="9.00">utils/user.ts</text>
</g>
<!-- services/analytics/growthbook.ts&#45;&gt;utils/user.ts -->
<g id="edge17" class="edge">
<title>services/analytics/growthbook.ts&#45;&gt;utils/user.ts</title>
<path fill="none" stroke="black" d="M270.81,-2052.64C275.85,-2049.77 280.57,-2046.43 284.75,-2042.51 318.3,-2011.06 287.33,-1977.1 320.75,-1945.51 337.39,-1929.78 361.61,-1921.77 382.46,-1917.7"/>
<polygon fill="black" stroke="black" points="382.85,-1921.18 392.13,-1916.07 381.69,-1914.28 382.85,-1921.18"/>
</g>
<!-- services/analytics/index.ts -->
<g id="node6" class="node">
<title>services/analytics/index.ts</title>
<polygon fill="#ffff99" stroke="black" points="1147.5,-1509.51 1021.25,-1509.51 1021.25,-1473.51 1147.5,-1473.51 1147.5,-1509.51"/>
<text text-anchor="middle" x="1084.38" y="-1489.34" font-family="Times,serif" font-size="9.00">services/analytics/index.ts</text>
</g>
<!-- services/mockRateLimits.ts -->
<g id="node7" class="node">
<title>services/mockRateLimits.ts</title>
<polygon fill="#ffff99" stroke="black" points="258.12,-2033.51 128.88,-2033.51 128.88,-1997.51 258.12,-1997.51 258.12,-2033.51"/>
<text text-anchor="middle" x="193.5" y="-2013.34" font-family="Times,serif" font-size="9.00">services/mockRateLimits.ts</text>
</g>
<!-- services/oauth/client.ts -->
<g id="node8" class="node">
<title>services/oauth/client.ts</title>
<polygon fill="#ffff99" stroke="black" points="249.88,-1759.51 137.12,-1759.51 137.12,-1723.51 249.88,-1723.51 249.88,-1759.51"/>
<text text-anchor="middle" x="193.5" y="-1739.34" font-family="Times,serif" font-size="9.00">services/oauth/client.ts</text>
</g>
<!-- services/oauth/client.ts&#45;&gt;constants/oauth.ts -->
<g id="edge18" class="edge">
<title>services/oauth/client.ts&#45;&gt;constants/oauth.ts</title>
<path fill="none" stroke="black" d="M202.64,-1759.91C219.97,-1797.48 263.62,-1884.23 320.75,-1940.51 400.62,-2019.2 517.9,-2080.69 585.38,-2112.22"/>
<polygon fill="black" stroke="black" points="583.85,-2115.37 594.4,-2116.38 586.79,-2109.01 583.85,-2115.37"/>
</g>
<!-- services/oauth/client.ts&#45;&gt;services/analytics/index.ts -->
<g id="edge19" class="edge">
<title>services/oauth/client.ts&#45;&gt;services/analytics/index.ts</title>
<path fill="none" stroke="black" d="M207.09,-1723.38C227.66,-1695.04 271.21,-1640.34 320.75,-1609.51 490.1,-1504.14 551.61,-1504.86 748.75,-1474.51 850.33,-1458.87 877.56,-1466.14 980,-1474.51 989.68,-1475.3 999.82,-1476.5 1009.81,-1477.91"/>
<polygon fill="black" stroke="black" points="1009.08,-1481.34 1019.49,-1479.35 1010.11,-1474.41 1009.08,-1481.34"/>
</g>
<!-- services/oauth/getOauthProfile.ts -->
<g id="node10" class="node">
<title>services/oauth/getOauthProfile.ts</title>
<polygon fill="#ffff99" stroke="black" points="503.62,-1839.51 347.38,-1839.51 347.38,-1803.51 503.62,-1803.51 503.62,-1839.51"/>
<text text-anchor="middle" x="425.5" y="-1819.34" font-family="Times,serif" font-size="9.00">services/oauth/getOauthProfile.ts</text>
</g>
<!-- services/oauth/client.ts&#45;&gt;services/oauth/getOauthProfile.ts -->
<g id="edge20" class="edge">
<title>services/oauth/client.ts&#45;&gt;services/oauth/getOauthProfile.ts</title>
<path fill="none" stroke="black" d="M241.01,-1760.01C264.74,-1769.24 294.14,-1780.36 320.75,-1789.51 330.67,-1792.92 341.18,-1796.36 351.56,-1799.66"/>
<polygon fill="black" stroke="black" points="350.26,-1802.92 360.85,-1802.58 352.36,-1796.24 350.26,-1802.92"/>
</g>
<!-- services/oauth/client.ts&#45;&gt;utils/config.ts -->
<g id="edge21" class="edge">
<title>services/oauth/client.ts&#45;&gt;utils/config.ts</title>
<path fill="none" stroke="black" d="M250.3,-1732.44C272.21,-1729.17 297.61,-1725.74 320.75,-1723.51 416.82,-1714.26 529.78,-1710.19 591.82,-1708.53"/>
<polygon fill="black" stroke="black" points="591.74,-1712.03 601.64,-1708.28 591.56,-1705.03 591.74,-1712.03"/>
</g>
<!-- services/oauth/client.ts&#45;&gt;utils/debug.ts -->
<g id="edge22" class="edge">
<title>services/oauth/client.ts&#45;&gt;utils/debug.ts</title>
<path fill="none" stroke="black" d="M250.29,-1723.94C272.08,-1717.63 297.41,-1710.98 320.75,-1706.51 324.65,-1705.76 1454.14,-1586.26 1457,-1583.51 1536,-1507.51 1453.01,-1441.58 1493,-1339.51 1533.33,-1236.56 1617.72,-1134.06 1659.49,-1087.09"/>
<polygon fill="black" stroke="black" points="1661.92,-1089.62 1666,-1079.84 1656.72,-1084.94 1661.92,-1089.62"/>
</g>
<!-- services/oauth/codex&#45;client.ts -->
<g id="node9" class="node">
<title>services/oauth/codex&#45;client.ts</title>
<polygon fill="#ffff99" stroke="black" points="934.62,-1519.51 794.12,-1519.51 794.12,-1483.51 934.62,-1483.51 934.62,-1519.51"/>
<text text-anchor="middle" x="864.38" y="-1499.34" font-family="Times,serif" font-size="9.00">services/oauth/codex&#45;client.ts</text>
</g>
<!-- services/oauth/codex&#45;client.ts&#45;&gt;services/analytics/index.ts -->
<g id="edge23" class="edge">
<title>services/oauth/codex&#45;client.ts&#45;&gt;services/analytics/index.ts</title>
<path fill="none" stroke="black" d="M934.95,-1498.32C958.83,-1497.22 985.63,-1495.99 1009.82,-1494.89"/>
<polygon fill="black" stroke="black" points="1009.75,-1498.39 1019.58,-1494.44 1009.43,-1491.4 1009.75,-1498.39"/>
</g>
<!-- services/oauth/codex&#45;client.ts&#45;&gt;utils/log.ts -->
<g id="edge24" class="edge">
<title>services/oauth/codex&#45;client.ts&#45;&gt;utils/log.ts</title>
<path fill="none" stroke="black" d="M935.07,-1514.98C1000.35,-1526.95 1100.76,-1543.73 1188.75,-1551.51 1250.03,-1556.93 1321.41,-1557.47 1364.96,-1557.15"/>
<polygon fill="black" stroke="black" points="1364.99,-1560.65 1374.95,-1557.05 1364.92,-1553.65 1364.99,-1560.65"/>
</g>
<!-- services/oauth/getOauthProfile.ts&#45;&gt;constants/oauth.ts -->
<g id="edge25" class="edge">
<title>services/oauth/getOauthProfile.ts&#45;&gt;constants/oauth.ts</title>
<path fill="none" stroke="black" d="M467.86,-1840C488.78,-1851.04 513.27,-1866.78 530.25,-1886.51 588.03,-1953.66 619.32,-2056.41 631.87,-2106.3"/>
<polygon fill="black" stroke="black" points="628.4,-2106.88 634.17,-2115.77 635.21,-2105.22 628.4,-2106.88"/>
</g>
<!-- services/oauth/getOauthProfile.ts&#45;&gt;utils/config.ts -->
<g id="edge26" class="edge">
<title>services/oauth/getOauthProfile.ts&#45;&gt;utils/config.ts</title>
<path fill="none" stroke="black" d="M455.67,-1803.08C483.57,-1785.77 527.08,-1759.6 566.25,-1739.51 574.76,-1735.15 583.99,-1730.79 592.93,-1726.75"/>
<polygon fill="black" stroke="black" points="594.11,-1730.06 601.83,-1722.8 591.27,-1723.66 594.11,-1730.06"/>
</g>
<!-- services/oauth/getOauthProfile.ts&#45;&gt;utils/log.ts -->
<g id="edge27" class="edge">
<title>services/oauth/getOauthProfile.ts&#45;&gt;utils/log.ts</title>
<path fill="none" stroke="black" d="M472.81,-1803.11C499.74,-1792.96 534.53,-1780.77 566.25,-1772.51 746.88,-1725.47 796.86,-1736.57 980,-1700.51 1057.13,-1685.32 1076.44,-1681.41 1152.75,-1662.51 1227.37,-1644.02 1249.94,-1649.25 1319.5,-1616.51 1339.15,-1607.26 1359.15,-1593.57 1374.88,-1581.6"/>
<polygon fill="black" stroke="black" points="1376.68,-1584.63 1382.42,-1575.72 1372.38,-1579.11 1376.68,-1584.63"/>
</g>
<!-- services/remoteManagedSettings/syncCacheState.ts -->
<g id="node11" class="node">
<title>services/remoteManagedSettings/syncCacheState.ts</title>
<polygon fill="#ffff99" stroke="black" points="980,-483.51 748.75,-483.51 748.75,-447.51 980,-447.51 980,-483.51"/>
<text text-anchor="middle" x="864.38" y="-463.34" font-family="Times,serif" font-size="9.00">services/remoteManagedSettings/syncCacheState.ts</text>
</g>
<!-- utils/fileRead.ts -->
<g id="node25" class="node">
<title>utils/fileRead.ts</title>
<polygon fill="#ffff99" stroke="black" points="1124.62,-584.51 1044.12,-584.51 1044.12,-548.51 1124.62,-548.51 1124.62,-584.51"/>
<text text-anchor="middle" x="1084.38" y="-564.34" font-family="Times,serif" font-size="9.00">utils/fileRead.ts</text>
</g>
<!-- services/remoteManagedSettings/syncCacheState.ts&#45;&gt;utils/fileRead.ts -->
<g id="edge28" class="edge">
<title>services/remoteManagedSettings/syncCacheState.ts&#45;&gt;utils/fileRead.ts</title>
<path fill="none" stroke="black" d="M951.03,-483.97C961.13,-487.72 971.03,-492.19 980,-497.51 999.73,-509.22 997.34,-521.16 1016,-534.51 1021.6,-538.52 1027.77,-542.24 1034.05,-545.62"/>
<polygon fill="black" stroke="black" points="1032.08,-548.55 1042.58,-549.97 1035.25,-542.31 1032.08,-548.55"/>
</g>
<!-- services/remoteManagedSettings/syncCacheState.ts&#45;&gt;utils/settings/settingsCache.ts -->
<g id="edge29" class="edge">
<title>services/remoteManagedSettings/syncCacheState.ts&#45;&gt;utils/settings/settingsCache.ts</title>
<path fill="none" stroke="black" d="M980.44,-466.57C988.55,-466.64 996.62,-466.72 1004.47,-466.79"/>
<polygon fill="black" stroke="black" points="1004.23,-470.28 1014.27,-466.88 1004.3,-463.29 1004.23,-470.28"/>
</g>
<!-- services/remoteManagedSettings/syncCacheState.ts&#45;&gt;utils/settings/types.ts -->
<g id="edge30" class="edge">
<title>services/remoteManagedSettings/syncCacheState.ts&#45;&gt;utils/settings/types.ts</title>
<path fill="none" stroke="black" d="M966.84,-447.07C983.24,-444.55 1000.06,-442.24 1016,-440.51 1131.28,-427.98 1266.74,-425.06 1343.64,-424.49"/>
<polygon fill="black" stroke="black" points="1343.52,-427.99 1353.5,-424.43 1343.48,-420.99 1343.52,-427.99"/>
</g>
<!-- services/remoteManagedSettings/syncCacheState.ts&#45;&gt;utils/slowOperations.ts -->
<g id="edge31" class="edge">
<title>services/remoteManagedSettings/syncCacheState.ts&#45;&gt;utils/slowOperations.ts</title>
<path fill="none" stroke="black" d="M955.06,-483.98C1012.42,-496.92 1087.96,-516.06 1152.75,-539.51 1229.86,-567.42 1255.12,-567.71 1319.5,-618.51 1450.08,-721.54 1520.92,-919.5 1543.78,-993.58"/>
<polygon fill="black" stroke="black" points="1540.37,-994.37 1546.61,-1002.93 1547.07,-992.34 1540.37,-994.37"/>
</g>
<!-- utils/array.ts -->
<g id="node12" class="node">
<title>utils/array.ts</title>
<polygon fill="#ffff99" stroke="black" points="1587.75,-347.51 1518.5,-347.51 1518.5,-311.51 1587.75,-311.51 1587.75,-347.51"/>
<text text-anchor="middle" x="1553.12" y="-327.34" font-family="Times,serif" font-size="9.00">utils/array.ts</text>
</g>
<!-- utils/auth.ts -->
<g id="node13" class="node">
<title>utils/auth.ts</title>
<polygon fill="#ffcc99" stroke="black" points="66.25,-2083.51 0,-2083.51 0,-2047.51 66.25,-2047.51 66.25,-2083.51"/>
<text text-anchor="middle" x="33.12" y="-2063.34" font-family="Times,serif" font-size="9.00">utils/auth.ts</text>
</g>
<!-- utils/auth.ts&#45;&gt;bootstrap/state.ts -->
<g id="edge32" class="edge">
<title>utils/auth.ts&#45;&gt;bootstrap/state.ts</title>
<path fill="none" stroke="black" d="M46.98,-2047.07C59.53,-2030.12 79.94,-2005.18 102.25,-1988.51 188.11,-1924.37 216.12,-1909.73 320.75,-1886.51 405.91,-1867.61 641.15,-1857.68 712.75,-1907.51 741.79,-1927.72 720.94,-1956.64 748.75,-1978.51 765.9,-1992 788.68,-1998.94 809.41,-2002.44"/>
<polygon fill="black" stroke="black" points="808.77,-2005.88 819.16,-2003.83 809.76,-1998.95 808.77,-2005.88"/>
</g>
<!-- utils/auth.ts&#45;&gt;constants/oauth.ts -->
<g id="edge33" class="edge">
<title>utils/auth.ts&#45;&gt;constants/oauth.ts</title>
<path fill="none" stroke="black" d="M35.72,-2083.65C41.42,-2144.66 62.57,-2341.2 102.25,-2388.51 110.66,-2398.54 307.9,-2474.02 320.75,-2476.51 412.16,-2494.23 455.11,-2531.5 530.25,-2476.51 543.36,-2466.92 607.34,-2245.26 630.29,-2164.56"/>
<polygon fill="black" stroke="black" points="633.59,-2165.75 632.95,-2155.17 626.85,-2163.84 633.59,-2165.75"/>
</g>
<!-- utils/auth.ts&#45;&gt;services/analytics/index.ts -->
<g id="edge34" class="edge">
<title>utils/auth.ts&#45;&gt;services/analytics/index.ts</title>
<path fill="none" stroke="black" d="M34.78,-2047.05C38.44,-1948.55 57.88,-1487.76 102.25,-1444.51 205.17,-1344.2 280.78,-1417.51 424.5,-1417.51 424.5,-1417.51 424.5,-1417.51 640.5,-1417.51 792.59,-1417.51 831.2,-1429 980,-1460.51 992.07,-1463.07 1004.77,-1466.36 1016.98,-1469.84"/>
<polygon fill="black" stroke="black" points="1015.98,-1473.19 1026.56,-1472.65 1017.95,-1466.48 1015.98,-1473.19"/>
</g>
<!-- utils/auth.ts&#45;&gt;services/mockRateLimits.ts -->
<g id="edge35" class="edge">
<title>utils/auth.ts&#45;&gt;services/mockRateLimits.ts</title>
<path fill="none" stroke="black" d="M66.62,-2054.28C77.88,-2050.46 90.59,-2046.22 102.25,-2042.51 107.66,-2040.79 113.27,-2039.04 118.91,-2037.29"/>
<polygon fill="black" stroke="black" points="119.8,-2040.68 128.34,-2034.41 117.75,-2033.99 119.8,-2040.68"/>
</g>
<!-- utils/auth.ts&#45;&gt;services/oauth/client.ts -->
<g id="edge36" class="edge">
<title>utils/auth.ts&#45;&gt;services/oauth/client.ts</title>
<path fill="none" stroke="black" d="M35.08,-2047.28C38.17,-2003.19 50.95,-1888.7 102.25,-1811.51 114.38,-1793.26 132.86,-1777.72 149.95,-1765.95"/>
<polygon fill="black" stroke="black" points="151.57,-1769.07 157.98,-1760.64 147.71,-1763.23 151.57,-1769.07"/>
</g>
<!-- utils/auth.ts&#45;&gt;services/oauth/codex&#45;client.ts -->
<g id="edge37" class="edge">
<title>utils/auth.ts&#45;&gt;services/oauth/codex&#45;client.ts</title>
<path fill="none" stroke="black" d="M34.89,-2047.29C39.01,-1954.04 59.86,-1533.14 102.25,-1495.51 200.77,-1408.07 607.48,-1460.46 782.59,-1487.92"/>
<polygon fill="black" stroke="black" points="781.86,-1491.35 792.29,-1489.46 782.96,-1484.44 781.86,-1491.35"/>
</g>
<!-- utils/auth.ts&#45;&gt;services/oauth/getOauthProfile.ts -->
<g id="edge38" class="edge">
<title>utils/auth.ts&#45;&gt;services/oauth/getOauthProfile.ts</title>
<path fill="none" stroke="black" d="M33.84,-2047.12C34.28,-2005.18 41.8,-1902.34 102.25,-1853.51 167.12,-1801.12 264.99,-1798.69 335.85,-1805.92"/>
<polygon fill="black" stroke="black" points="335.15,-1809.37 345.47,-1806.99 335.92,-1802.41 335.15,-1809.37"/>
</g>
<!-- utils/authFileDescriptor.ts -->
<g id="node14" class="node">
<title>utils/authFileDescriptor.ts</title>
<polygon fill="#ffff99" stroke="black" points="702.25,-2521.51 576.75,-2521.51 576.75,-2485.51 702.25,-2485.51 702.25,-2521.51"/>
<text text-anchor="middle" x="639.5" y="-2501.34" font-family="Times,serif" font-size="9.00">utils/authFileDescriptor.ts</text>
</g>
<!-- utils/auth.ts&#45;&gt;utils/authFileDescriptor.ts -->
<g id="edge39" class="edge">
<title>utils/auth.ts&#45;&gt;utils/authFileDescriptor.ts</title>
<path fill="none" stroke="black" d="M34.42,-2083.91C36.01,-2157.89 45.66,-2432.6 102.25,-2493.51 158.97,-2554.56 204.3,-2514.77 284.75,-2536.51 300.9,-2540.88 304.2,-2545.04 320.75,-2547.51 412.84,-2561.27 438.87,-2565.37 530.25,-2547.51 551.49,-2543.36 573.82,-2535.03 592.65,-2526.72"/>
<polygon fill="black" stroke="black" points="593.98,-2529.96 601.63,-2522.63 591.07,-2523.59 593.98,-2529.96"/>
</g>
<!-- utils/authPortable.ts -->
<g id="node15" class="node">
<title>utils/authPortable.ts</title>
<polygon fill="#ffff99" stroke="black" points="244.62,-2179.51 142.38,-2179.51 142.38,-2143.51 244.62,-2143.51 244.62,-2179.51"/>
<text text-anchor="middle" x="193.5" y="-2159.34" font-family="Times,serif" font-size="9.00">utils/authPortable.ts</text>
</g>
<!-- utils/auth.ts&#45;&gt;utils/authPortable.ts -->
<g id="edge40" class="edge">
<title>utils/auth.ts&#45;&gt;utils/authPortable.ts</title>
<path fill="none" stroke="black" d="M49.84,-2083.97C62.71,-2098.1 82.02,-2117.18 102.25,-2129.51 111.31,-2135.03 121.46,-2139.79 131.6,-2143.82"/>
<polygon fill="black" stroke="black" points="130.1,-2147 140.69,-2147.23 132.56,-2140.45 130.1,-2147"/>
</g>
<!-- utils/aws.ts -->
<g id="node16" class="node">
<title>utils/aws.ts</title>
<polygon fill="#ffff99" stroke="black" points="1437.5,-51.51 1375,-51.51 1375,-15.51 1437.5,-15.51 1437.5,-51.51"/>
<text text-anchor="middle" x="1406.25" y="-31.34" font-family="Times,serif" font-size="9.00">utils/aws.ts</text>
</g>
<!-- utils/auth.ts&#45;&gt;utils/aws.ts -->
<g id="edge41" class="edge">
<title>utils/auth.ts&#45;&gt;utils/aws.ts</title>
<path fill="none" stroke="black" d="M34.05,-2047.31C33.34,-1850.88 29.21,-129.57 102.25,-53.51 201.73,50.08 280.88,-29.51 424.5,-29.51 424.5,-29.51 424.5,-29.51 1085.38,-29.51 1185.08,-29.51 1302.26,-31.48 1363.37,-32.65"/>
<polygon fill="black" stroke="black" points="1363.24,-36.15 1373.31,-32.85 1363.38,-29.15 1363.24,-36.15"/>
</g>
<!-- utils/awsAuthStatusManager.ts -->
<g id="node17" class="node">
<title>utils/awsAuthStatusManager.ts</title>
<polygon fill="#ffff99" stroke="black" points="712.75,-2467.51 566.25,-2467.51 566.25,-2431.51 712.75,-2431.51 712.75,-2467.51"/>
<text text-anchor="middle" x="639.5" y="-2447.34" font-family="Times,serif" font-size="9.00">utils/awsAuthStatusManager.ts</text>
</g>
<!-- utils/auth.ts&#45;&gt;utils/awsAuthStatusManager.ts -->
<g id="edge42" class="edge">
<title>utils/auth.ts&#45;&gt;utils/awsAuthStatusManager.ts</title>
<path fill="none" stroke="black" d="M35.09,-2083.74C39.96,-2172.47 63.2,-2556.2 102.25,-2590.51 174.06,-2653.6 453.43,-2604.4 530.25,-2547.51 558.68,-2526.45 539.88,-2500.09 566.25,-2476.51 567.04,-2475.81 567.84,-2475.12 568.67,-2474.45"/>
<polygon fill="black" stroke="black" points="570.61,-2477.36 576.85,-2468.8 566.63,-2471.6 570.61,-2477.36"/>
</g>
<!-- utils/betas.ts -->
<g id="node18" class="node">
<title>utils/betas.ts</title>
<polygon fill="#ffff99" stroke="black" points="459.38,-2299.51 391.62,-2299.51 391.62,-2263.51 459.38,-2263.51 459.38,-2299.51"/>
<text text-anchor="middle" x="425.5" y="-2279.34" font-family="Times,serif" font-size="9.00">utils/betas.ts</text>
</g>
<!-- utils/auth.ts&#45;&gt;utils/betas.ts -->
<g id="edge43" class="edge">
<title>utils/auth.ts&#45;&gt;utils/betas.ts</title>
<path fill="none" stroke="black" d="M66.46,-2082C77.59,-2087.19 90.27,-2092.59 102.25,-2096.51 180.99,-2122.27 223.7,-2078.5 284.75,-2134.51 325.78,-2172.15 280.66,-2215.87 320.75,-2254.51 336.51,-2269.7 359.68,-2276.63 380.12,-2279.69"/>
<polygon fill="black" stroke="black" points="379.61,-2283.15 389.95,-2280.86 380.44,-2276.2 379.61,-2283.15"/>
</g>
<!-- utils/auth.ts&#45;&gt;utils/config.ts -->
<g id="edge44" class="edge">
<title>utils/auth.ts&#45;&gt;utils/config.ts</title>
<path fill="none" stroke="black" d="M34.8,-2047.06C37.65,-1981.08 50.96,-1758.4 102.25,-1714.51 243.39,-1593.73 490.26,-1656.96 592.32,-1690.75"/>
<polygon fill="black" stroke="black" points="591.15,-1694.04 601.74,-1693.92 593.39,-1687.41 591.15,-1694.04"/>
</g>
<!-- utils/auth.ts&#45;&gt;utils/debug.ts -->
<g id="edge45" class="edge">
<title>utils/auth.ts&#45;&gt;utils/debug.ts</title>
<path fill="none" stroke="black" d="M34.13,-2047.21C34.26,-1855.03 37.26,-212.82 102.25,-135.51 196.44,-23.47 278.12,-67.51 424.5,-67.51 424.5,-67.51 424.5,-67.51 640.5,-67.51 844.28,-67.51 1612,-187.19 1613.25,-188.51 1672.33,-250.97 1682.25,-884.97 1683.75,-1030.74"/>
<polygon fill="black" stroke="black" points="1680.25,-1030.74 1683.85,-1040.7 1687.25,-1030.67 1680.25,-1030.74"/>
</g>
<!-- utils/auth.ts&#45;&gt;utils/errors.ts -->
<g id="edge46" class="edge">
<title>utils/auth.ts&#45;&gt;utils/errors.ts</title>
<path fill="none" stroke="black" d="M34.96,-2083.95C39.4,-2178.35 61.61,-2604.6 102.25,-2645.51 203.96,-2747.9 280.18,-2685.51 424.5,-2685.51 424.5,-2685.51 424.5,-2685.51 1686,-2685.51 1793.17,-2685.51 1807.07,-2609.85 1856,-2514.51 1892.07,-2444.24 1917.1,-2201.57 1924.91,-2116.92"/>
<polygon fill="black" stroke="black" points="1928.38,-2117.4 1925.8,-2107.12 1921.41,-2116.76 1928.38,-2117.4"/>
</g>
<!-- utils/execFileNoThrow.ts -->
<g id="node23" class="node">
<title>utils/execFileNoThrow.ts</title>
<polygon fill="#ffff99" stroke="black" points="1314.62,-1433.51 1193.62,-1433.51 1193.62,-1397.51 1314.62,-1397.51 1314.62,-1433.51"/>
<text text-anchor="middle" x="1254.12" y="-1413.34" font-family="Times,serif" font-size="9.00">utils/execFileNoThrow.ts</text>
</g>
<!-- utils/auth.ts&#45;&gt;utils/execFileNoThrow.ts -->
<g id="edge47" class="edge">
<title>utils/auth.ts&#45;&gt;utils/execFileNoThrow.ts</title>
<path fill="none" stroke="black" d="M33.75,-2047.08C32.51,-1966.12 32.08,-1643.15 102.25,-1578.51 174.1,-1512.33 882.47,-1534.11 980,-1528.51 1056.78,-1524.1 1089.4,-1562.12 1152.75,-1518.51 1181.98,-1498.39 1164.09,-1470.53 1186.44,-1442.35"/>
<polygon fill="black" stroke="black" points="1188.96,-1444.78 1193.27,-1435.11 1183.87,-1439.98 1188.96,-1444.78"/>
</g>
<!-- utils/lockfile.ts -->
<g id="node30" class="node">
<title>utils/lockfile.ts</title>
<polygon fill="#ffff99" stroke="black" points="903.12,-1611.51 825.62,-1611.51 825.62,-1575.51 903.12,-1575.51 903.12,-1611.51"/>
<text text-anchor="middle" x="864.38" y="-1591.34" font-family="Times,serif" font-size="9.00">utils/lockfile.ts</text>
</g>
<!-- utils/auth.ts&#45;&gt;utils/lockfile.ts -->
<g id="edge48" class="edge">
<title>utils/auth.ts&#45;&gt;utils/lockfile.ts</title>
<path fill="none" stroke="black" d="M34.31,-2047.15C35.44,-1973.32 43.59,-1699.36 102.25,-1641.51 202.51,-1542.63 661.63,-1574.93 814.04,-1588.68"/>
<polygon fill="black" stroke="black" points="813.53,-1592.15 823.81,-1589.58 814.17,-1585.18 813.53,-1592.15"/>
</g>
<!-- utils/auth.ts&#45;&gt;utils/log.ts -->
<g id="edge49" class="edge">
<title>utils/auth.ts&#45;&gt;utils/log.ts</title>
<path fill="none" stroke="black" d="M34.97,-2083.79C39.37,-2175.46 61.13,-2582.14 102.25,-2618.51 189.81,-2695.94 524.92,-2582.23 712.75,-2530.51 1015.94,-2447.02 1195.82,-2455.64 1319.5,-2166.51 1365.32,-2059.41 1395.25,-1692.84 1403.16,-1585.97"/>
<polygon fill="black" stroke="black" points="1406.63,-1586.54 1403.86,-1576.31 1399.64,-1586.03 1406.63,-1586.54"/>
</g>
<!-- utils/memoize.ts -->
<g id="node32" class="node">
<title>utils/memoize.ts</title>
<polygon fill="#ffff99" stroke="black" points="1296.25,-1151.51 1212,-1151.51 1212,-1115.51 1296.25,-1115.51 1296.25,-1151.51"/>
<text text-anchor="middle" x="1254.12" y="-1131.34" font-family="Times,serif" font-size="9.00">utils/memoize.ts</text>
</g>
<!-- utils/auth.ts&#45;&gt;utils/memoize.ts -->
<g id="edge50" class="edge">
<title>utils/auth.ts&#45;&gt;utils/memoize.ts</title>
<path fill="none" stroke="black" d="M34.8,-2047.27C38.76,-1944.55 60.23,-1440.91 102.25,-1387.51 376.9,-1038.43 1013.3,-1098.73 1200.46,-1125.13"/>
<polygon fill="black" stroke="black" points="1199.72,-1128.56 1210.11,-1126.53 1200.72,-1121.63 1199.72,-1128.56"/>
</g>
<!-- utils/auth.ts&#45;&gt;utils/model/modelStrings.ts -->
<g id="edge51" class="edge">
<title>utils/auth.ts&#45;&gt;utils/model/modelStrings.ts</title>
<path fill="none" stroke="black" d="M34.98,-2083.78C38.51,-2151.34 54.08,-2385.86 102.25,-2439.51 158.76,-2502.45 203.75,-2469.15 284.75,-2493.51 300.77,-2498.33 304.2,-2502.04 320.75,-2504.51 412.84,-2518.27 452.29,-2555.43 530.25,-2504.51 563.57,-2482.75 534.4,-2446.38 566.25,-2422.51 671.43,-2343.71 1048.84,-2426.98 1152.75,-2346.51 1223.25,-2291.92 1244.41,-2179.98 1250.62,-2126.39"/>
<polygon fill="black" stroke="black" points="1254.1,-2126.8 1251.66,-2116.49 1247.14,-2126.07 1254.1,-2126.8"/>
</g>
<!-- utils/secureStorage/index.ts -->
<g id="node37" class="node">
<title>utils/secureStorage/index.ts</title>
<polygon fill="#ffff99" stroke="black" points="259.25,-2581.51 127.75,-2581.51 127.75,-2545.51 259.25,-2545.51 259.25,-2581.51"/>
<text text-anchor="middle" x="193.5" y="-2561.34" font-family="Times,serif" font-size="9.00">utils/secureStorage/index.ts</text>
</g>
<!-- utils/auth.ts&#45;&gt;utils/secureStorage/index.ts -->
<g id="edge52" class="edge">
<title>utils/auth.ts&#45;&gt;utils/secureStorage/index.ts</title>
<path fill="none" stroke="black" d="M34.35,-2083.75C35.68,-2161.1 44.52,-2461.22 102.25,-2531.51 106.51,-2536.7 111.67,-2541.04 117.34,-2544.68"/>
<polygon fill="black" stroke="black" points="115.52,-2547.68 125.97,-2549.44 118.9,-2541.55 115.52,-2547.68"/>
</g>
<!-- utils/secureStorage/keychainPrefetch.ts -->
<g id="node38" class="node">
<title>utils/secureStorage/keychainPrefetch.ts</title>
<polygon fill="#ffff99" stroke="black" points="284.75,-2325.51 102.25,-2325.51 102.25,-2289.51 284.75,-2289.51 284.75,-2325.51"/>
<text text-anchor="middle" x="193.5" y="-2305.34" font-family="Times,serif" font-size="9.00">utils/secureStorage/keychainPrefetch.ts</text>
</g>
<!-- utils/auth.ts&#45;&gt;utils/secureStorage/keychainPrefetch.ts -->
<g id="edge53" class="edge">
<title>utils/auth.ts&#45;&gt;utils/secureStorage/keychainPrefetch.ts</title>
<path fill="none" stroke="black" d="M34.84,-2083.98C37.39,-2124.28 49.05,-2220.85 102.25,-2275.51 104.86,-2278.19 107.71,-2280.65 110.73,-2282.9"/>
<polygon fill="black" stroke="black" points="108.7,-2285.75 119,-2288.23 112.49,-2279.87 108.7,-2285.75"/>
</g>
<!-- utils/secureStorage/macOsKeychainHelpers.ts -->
<g id="node39" class="node">
<title>utils/secureStorage/macOsKeychainHelpers.ts</title>
<polygon fill="#ffff99" stroke="black" points="530.25,-2467.51 320.75,-2467.51 320.75,-2431.51 530.25,-2431.51 530.25,-2467.51"/>
<text text-anchor="middle" x="425.5" y="-2447.34" font-family="Times,serif" font-size="9.00">utils/secureStorage/macOsKeychainHelpers.ts</text>
</g>
<!-- utils/auth.ts&#45;&gt;utils/secureStorage/macOsKeychainHelpers.ts -->
<g id="edge54" class="edge">
<title>utils/auth.ts&#45;&gt;utils/secureStorage/macOsKeychainHelpers.ts</title>
<path fill="none" stroke="black" d="M35.55,-2083.79C39.41,-2120 53.32,-2200.94 102.25,-2242.51 165.39,-2296.16 224.67,-2223.46 284.75,-2280.51 330.4,-2323.86 277.18,-2372.06 320.75,-2417.51 323.36,-2420.23 326.19,-2422.72 329.2,-2425"/>
<polygon fill="black" stroke="black" points="327.15,-2427.85 337.44,-2430.4 330.99,-2421.99 327.15,-2427.85"/>
</g>
<!-- utils/sleep.ts -->
<g id="node49" class="node">
<title>utils/sleep.ts</title>
<polygon fill="#ffff99" stroke="black" points="227,-2379.51 160,-2379.51 160,-2343.51 227,-2343.51 227,-2379.51"/>
<text text-anchor="middle" x="193.5" y="-2359.34" font-family="Times,serif" font-size="9.00">utils/sleep.ts</text>
</g>
<!-- utils/auth.ts&#45;&gt;utils/sleep.ts -->
<g id="edge55" class="edge">
<title>utils/auth.ts&#45;&gt;utils/sleep.ts</title>
<path fill="none" stroke="black" d="M36.39,-2083.74C43.5,-2138.11 67,-2297.73 102.25,-2334.51 114.29,-2347.08 131.92,-2353.86 148.41,-2357.5"/>
<polygon fill="black" stroke="black" points="147.61,-2360.91 158.07,-2359.28 148.87,-2354.03 147.61,-2360.91"/>
</g>
<!-- utils/auth.ts&#45;&gt;utils/slowOperations.ts -->
<g id="edge56" class="edge">
<title>utils/auth.ts&#45;&gt;utils/slowOperations.ts</title>
<path fill="none" stroke="black" d="M34.28,-2047.02C35.57,-1904.94 46.02,-985.07 102.25,-713.51 164.26,-414.03 118.67,-105.51 424.5,-105.51 424.5,-105.51 424.5,-105.51 640.5,-105.51 1025.9,-105.51 1217.47,-95.59 1457,-397.51 1494.64,-444.95 1538.08,-875.08 1549.34,-992.83"/>
<polygon fill="black" stroke="black" points="1545.84,-992.99 1550.27,-1002.62 1552.81,-992.33 1545.84,-992.99"/>
</g>
<!-- utils/toolSchemaCache.ts -->
<g id="node54" class="node">
<title>utils/toolSchemaCache.ts</title>
<polygon fill="#ffff99" stroke="black" points="254.38,-2233.51 132.62,-2233.51 132.62,-2197.51 254.38,-2197.51 254.38,-2233.51"/>
<text text-anchor="middle" x="193.5" y="-2213.34" font-family="Times,serif" font-size="9.00">utils/toolSchemaCache.ts</text>
</g>
<!-- utils/auth.ts&#45;&gt;utils/toolSchemaCache.ts -->
<g id="edge57" class="edge">
<title>utils/auth.ts&#45;&gt;utils/toolSchemaCache.ts</title>
<path fill="none" stroke="black" d="M39.38,-2083.86C48.03,-2110.79 67.83,-2160.8 102.25,-2188.51 108.16,-2193.27 114.88,-2197.18 121.94,-2200.41"/>
<polygon fill="black" stroke="black" points="120.47,-2203.59 131.05,-2204.1 123.09,-2197.1 120.47,-2203.59"/>
</g>
<!-- utils/authFileDescriptor.ts&#45;&gt;bootstrap/state.ts -->
<g id="edge58" class="edge">
<title>utils/authFileDescriptor.ts&#45;&gt;bootstrap/state.ts</title>
<path fill="none" stroke="black" d="M702.52,-2485.02C706.24,-2482.53 709.7,-2479.71 712.75,-2476.51 775.94,-2410.2 838.45,-2127.16 857.5,-2034.79"/>
<polygon fill="black" stroke="black" points="860.87,-2035.76 859.45,-2025.26 854.02,-2034.36 860.87,-2035.76"/>
</g>
<!-- utils/authFileDescriptor.ts&#45;&gt;utils/debug.ts -->
<g id="edge59" class="edge">
<title>utils/authFileDescriptor.ts&#45;&gt;utils/debug.ts</title>
<path fill="none" stroke="black" d="M688.86,-2485.1C707.43,-2478.42 728.92,-2471.13 748.75,-2465.51 925.56,-2415.43 977.54,-2432.93 1152.75,-2377.51 1170.23,-2371.98 1442.74,-2261.04 1457,-2249.51 1551.39,-2173.19 1572.64,-2139.9 1613.25,-2025.51 1676.73,-1846.69 1683.27,-1231.96 1683.93,-1089.95"/>
<polygon fill="black" stroke="black" points="1687.43,-1090.29 1683.97,-1080.27 1680.43,-1090.26 1687.43,-1090.29"/>
</g>
<!-- utils/authFileDescriptor.ts&#45;&gt;utils/errors.ts -->
<g id="edge60" class="edge">
<title>utils/authFileDescriptor.ts&#45;&gt;utils/errors.ts</title>
<path fill="none" stroke="black" d="M702.46,-2506.71C788.08,-2510.84 947.41,-2517.51 1083.38,-2517.51 1083.38,-2517.51 1083.38,-2517.51 1686,-2517.51 1869.92,-2517.51 1915.22,-2214.74 1925.04,-2117.32"/>
<polygon fill="black" stroke="black" points="1928.51,-2117.78 1925.97,-2107.49 1921.54,-2117.12 1928.51,-2117.78"/>
</g>
<!-- utils/fsOperations.ts -->
<g id="node26" class="node">
<title>utils/fsOperations.ts</title>
<polygon fill="#ffff99" stroke="black" points="1856,-1162.51 1756.75,-1162.51 1756.75,-1126.51 1856,-1126.51 1856,-1162.51"/>
<text text-anchor="middle" x="1806.38" y="-1142.34" font-family="Times,serif" font-size="9.00">utils/fsOperations.ts</text>
</g>
<!-- utils/authFileDescriptor.ts&#45;&gt;utils/fsOperations.ts -->
<g id="edge61" class="edge">
<title>utils/authFileDescriptor.ts&#45;&gt;utils/fsOperations.ts</title>
<path fill="none" stroke="black" d="M702.54,-2497.1C770.91,-2489.49 883.94,-2475.29 980,-2455.51 1288.86,-2391.92 1462.44,-2412.45 1613.25,-2135.51 1799.4,-1793.67 1807.16,-1299.04 1805.95,-1174.05"/>
<polygon fill="black" stroke="black" points="1809.46,-1174.28 1805.83,-1164.33 1802.46,-1174.37 1809.46,-1174.28"/>
</g>
<!-- utils/authPortable.ts&#45;&gt;utils/secureStorage/macOsKeychainHelpers.ts -->
<g id="edge62" class="edge">
<title>utils/authPortable.ts&#45;&gt;utils/secureStorage/macOsKeychainHelpers.ts</title>
<path fill="none" stroke="black" d="M245.03,-2166.35C259.78,-2170.22 274.64,-2176.93 284.75,-2188.51 352.53,-2266.1 253.3,-2339.63 320.75,-2417.51 322.95,-2420.05 325.34,-2422.39 327.9,-2424.55"/>
<polygon fill="black" stroke="black" points="325.74,-2427.31 335.9,-2430.31 329.83,-2421.63 325.74,-2427.31"/>
</g>
<!-- utils/aws.ts&#45;&gt;utils/debug.ts -->
<g id="edge63" class="edge">
<title>utils/aws.ts&#45;&gt;utils/debug.ts</title>
<path fill="none" stroke="black" d="M1437.93,-37.99C1484.55,-46.59 1572.17,-70.13 1613.25,-129.51 1665.67,-205.28 1680.78,-880.8 1683.51,-1031"/>
<polygon fill="black" stroke="black" points="1680.01,-1030.95 1683.68,-1040.89 1687.01,-1030.83 1680.01,-1030.95"/>
</g>
<!-- utils/awsAuthStatusManager.ts&#45;&gt;utils/signal.ts -->
<g id="edge64" class="edge">
<title>utils/awsAuthStatusManager.ts&#45;&gt;utils/signal.ts</title>
<path fill="none" stroke="black" d="M703.48,-2431.02C793.8,-2404.51 957.98,-2356.32 1037.61,-2332.94"/>
<polygon fill="black" stroke="black" points="1038.21,-2336.42 1046.82,-2330.24 1036.24,-2329.7 1038.21,-2336.42"/>
</g>
<!-- utils/betas.ts&#45;&gt;bootstrap/state.ts -->
<g id="edge65" class="edge">
<title>utils/betas.ts&#45;&gt;bootstrap/state.ts</title>
<path fill="none" stroke="black" d="M459.57,-2277.58C480.87,-2273.96 508.53,-2267.14 530.25,-2254.51 550.08,-2242.97 547.05,-2230.07 566.25,-2217.51 624.46,-2179.45 654.68,-2200.78 712.75,-2162.51 767.38,-2126.51 817.04,-2067.35 843.45,-2032.85"/>
<polygon fill="black" stroke="black" points="846.12,-2035.12 849.35,-2025.02 840.54,-2030.9 846.12,-2035.12"/>
</g>
<!-- utils/betas.ts&#45;&gt;constants/oauth.ts -->
<g id="edge66" class="edge">
<title>utils/betas.ts&#45;&gt;constants/oauth.ts</title>
<path fill="none" stroke="black" d="M459.78,-2280.12C481.97,-2277.59 510.59,-2271.04 530.25,-2254.51 559.79,-2229.69 540.05,-2203.84 566.25,-2175.51 571.74,-2169.58 578.31,-2164.32 585.23,-2159.72"/>
<polygon fill="black" stroke="black" points="586.81,-2162.86 593.51,-2154.66 583.15,-2156.89 586.81,-2162.86"/>
</g>
<!-- utils/betas.ts&#45;&gt;utils/model/model.ts -->
<g id="edge67" class="edge">
<title>utils/betas.ts&#45;&gt;utils/model/model.ts</title>
<path fill="none" stroke="black" d="M459.52,-2274.98C563.78,-2254.34 887.01,-2190.37 1022.56,-2163.55"/>
<polygon fill="black" stroke="black" points="1022.93,-2167.04 1032.06,-2161.67 1021.57,-2160.17 1022.93,-2167.04"/>
</g>
<!-- utils/config.ts&#45;&gt;bootstrap/state.ts -->
<g id="edge68" class="edge">
<title>utils/config.ts&#45;&gt;bootstrap/state.ts</title>
<path fill="none" stroke="black" d="M668.78,-1725.84C684.23,-1737.37 702.29,-1753.62 712.75,-1772.51 757.76,-1853.83 684.97,-1910.9 748.75,-1978.51 764.21,-1994.9 787.6,-2002.18 809.23,-2005.16"/>
<polygon fill="black" stroke="black" points="808.84,-2008.64 819.15,-2006.22 809.58,-2001.68 808.84,-2008.64"/>
</g>
<!-- utils/config.ts&#45;&gt;services/analytics/index.ts -->
<g id="edge69" class="edge">
<title>utils/config.ts&#45;&gt;services/analytics/index.ts</title>
<path fill="none" stroke="black" d="M675.9,-1705.74C741.06,-1700.98 882.22,-1683.6 980,-1620.51 1019.69,-1594.9 1051.08,-1548.9 1068.43,-1519.31"/>
<polygon fill="black" stroke="black" points="1071.31,-1521.32 1073.22,-1510.9 1065.23,-1517.86 1071.31,-1521.32"/>
</g>
<!-- utils/config.ts&#45;&gt;utils/debug.ts -->
<g id="edge70" class="edge">
<title>utils/config.ts&#45;&gt;utils/debug.ts</title>
<path fill="none" stroke="black" d="M670.52,-1725.77C691.59,-1737.53 720.87,-1751.83 748.75,-1758.51 995.69,-1817.66 1084.67,-1829.13 1319.5,-1732.51 1387.04,-1704.72 1410.99,-1699.23 1457,-1642.51 1602.01,-1463.77 1662.59,-1181.41 1679.08,-1090.07"/>
<polygon fill="black" stroke="black" points="1682.49,-1090.89 1680.77,-1080.44 1675.59,-1089.68 1682.49,-1090.89"/>
</g>
<!-- utils/diagLogs.ts -->
<g id="node21" class="node">
<title>utils/diagLogs.ts</title>
<polygon fill="#ffff99" stroke="black" points="905.75,-1075.51 823,-1075.51 823,-1039.51 905.75,-1039.51 905.75,-1075.51"/>
<text text-anchor="middle" x="864.38" y="-1055.34" font-family="Times,serif" font-size="9.00">utils/diagLogs.ts</text>
</g>
<!-- utils/config.ts&#45;&gt;utils/diagLogs.ts -->
<g id="edge71" class="edge">
<title>utils/config.ts&#45;&gt;utils/diagLogs.ts</title>
<path fill="none" stroke="black" d="M640.07,-1689.09C639.19,-1616.55 643.47,-1345.64 748.75,-1160.51 767.07,-1128.3 799.11,-1100.8 824.67,-1082.33"/>
<polygon fill="black" stroke="black" points="826.35,-1085.43 832.52,-1076.82 822.32,-1079.71 826.35,-1085.43"/>
</g>
<!-- utils/config.ts&#45;&gt;utils/errors.ts -->
<g id="edge72" class="edge">
<title>utils/config.ts&#45;&gt;utils/errors.ts</title>
<path fill="none" stroke="black" d="M664.75,-1726.01C679.71,-1738.18 698.66,-1755.04 712.75,-1772.51 732.99,-1797.61 724.28,-1814.5 748.75,-1835.51 832.3,-1907.26 877.96,-1883.1 980,-1924.51 1132.03,-1986.21 1187.96,-1971.45 1319.5,-2069.51 1449.21,-2166.21 1390.34,-2349.51 1552.12,-2349.51 1552.12,-2349.51 1552.12,-2349.51 1686,-2349.51 1811.7,-2349.51 1890,-2184.46 1916.96,-2116.36"/>
<polygon fill="black" stroke="black" points="1920.1,-2117.94 1920.43,-2107.35 1913.57,-2115.42 1920.1,-2117.94"/>
</g>
<!-- utils/file.ts -->
<g id="node24" class="node">
<title>utils/file.ts</title>
<polygon fill="#ffff99" stroke="black" points="894.12,-1335.51 834.62,-1335.51 834.62,-1299.51 894.12,-1299.51 894.12,-1335.51"/>
<text text-anchor="middle" x="864.38" y="-1315.34" font-family="Times,serif" font-size="9.00">utils/file.ts</text>
</g>
<!-- utils/config.ts&#45;&gt;utils/file.ts -->
<g id="edge73" class="edge">
<title>utils/config.ts&#45;&gt;utils/file.ts</title>
<path fill="none" stroke="black" d="M640.02,-1689.2C639.51,-1629.86 646.37,-1441.07 748.75,-1344.51 768.43,-1325.95 798.4,-1319.36 822.76,-1317.33"/>
<polygon fill="black" stroke="black" points="822.9,-1320.83 832.68,-1316.75 822.5,-1313.84 822.9,-1320.83"/>
</g>
<!-- utils/config.ts&#45;&gt;utils/fsOperations.ts -->
<g id="edge74" class="edge">
<title>utils/config.ts&#45;&gt;utils/fsOperations.ts</title>
<path fill="none" stroke="black" d="M660.27,-1725.63C685.76,-1748.55 729.15,-1785.97 748.75,-1793.51 985.69,-1884.72 1083.07,-1862.03 1319.5,-1769.51 1384.52,-1744.07 1404.57,-1739.63 1457,-1693.51 1636.66,-1535.49 1757.64,-1262.79 1793.94,-1173.63"/>
<polygon fill="black" stroke="black" points="1797.17,-1174.98 1797.66,-1164.4 1790.68,-1172.37 1797.17,-1174.98"/>
</g>
<!-- utils/json.ts -->
<g id="node29" class="node">
<title>utils/json.ts</title>
<polygon fill="#ffff99" stroke="black" points="896.38,-1021.51 832.38,-1021.51 832.38,-985.51 896.38,-985.51 896.38,-1021.51"/>
<text text-anchor="middle" x="864.38" y="-1001.34" font-family="Times,serif" font-size="9.00">utils/json.ts</text>
</g>
<!-- utils/config.ts&#45;&gt;utils/json.ts -->
<g id="edge75" class="edge">
<title>utils/config.ts&#45;&gt;utils/json.ts</title>
<path fill="none" stroke="black" d="M640.77,-1689.2C642.61,-1591.27 656.15,-1130.1 748.75,-1030.51 766.9,-1010.99 796.28,-1004.35 820.76,-1002.53"/>
<polygon fill="black" stroke="black" points="820.62,-1006.04 830.44,-1002.07 820.29,-999.05 820.62,-1006.04"/>
</g>
<!-- utils/config.ts&#45;&gt;utils/lockfile.ts -->
<g id="edge76" class="edge">
<title>utils/config.ts&#45;&gt;utils/lockfile.ts</title>
<path fill="none" stroke="black" d="M675.82,-1689.45C714.06,-1669.88 775.22,-1638.6 817.24,-1617.11"/>
<polygon fill="black" stroke="black" points="818.83,-1620.23 826.14,-1612.56 815.64,-1613.99 818.83,-1620.23"/>
</g>
<!-- utils/config.ts&#45;&gt;utils/log.ts -->
<g id="edge77" class="edge">
<title>utils/config.ts&#45;&gt;utils/log.ts</title>
<path fill="none" stroke="black" d="M675.96,-1705.77C738.03,-1702.29 870.2,-1693 980,-1672.51 1124.36,-1645.57 1291.24,-1593.84 1365.77,-1569.62"/>
<polygon fill="black" stroke="black" points="1366.64,-1573.02 1375.06,-1566.58 1364.47,-1566.36 1366.64,-1573.02"/>
</g>
<!-- utils/settings/managedPath.ts -->
<g id="node42" class="node">
<title>utils/settings/managedPath.ts</title>
<polygon fill="#ffff99" stroke="black" points="933.5,-1205.51 795.25,-1205.51 795.25,-1169.51 933.5,-1169.51 933.5,-1205.51"/>
<text text-anchor="middle" x="864.38" y="-1185.34" font-family="Times,serif" font-size="9.00">utils/settings/managedPath.ts</text>
</g>
<!-- utils/config.ts&#45;&gt;utils/settings/managedPath.ts -->
<g id="edge78" class="edge">
<title>utils/config.ts&#45;&gt;utils/settings/managedPath.ts</title>
<path fill="none" stroke="black" d="M641.51,-1689.42C645.63,-1628.65 665.19,-1427.91 748.75,-1290.51 768.04,-1258.79 800.1,-1231.19 825.42,-1212.57"/>
<polygon fill="black" stroke="black" points="827.43,-1215.43 833.52,-1206.76 823.35,-1209.74 827.43,-1215.43"/>
</g>
<!-- utils/config.ts&#45;&gt;utils/slowOperations.ts -->
<g id="edge79" class="edge">
<title>utils/config.ts&#45;&gt;utils/slowOperations.ts</title>
<path fill="none" stroke="black" d="M676.05,-1716.6C808.12,-1748.01 1272.46,-1836.67 1457,-1583.51 1519.98,-1497.12 1544.46,-1155.76 1550.52,-1052.36"/>
<polygon fill="black" stroke="black" points="1554.01,-1052.65 1551.09,-1042.47 1547.02,-1052.25 1554.01,-1052.65"/>
</g>
<!-- utils/theme.ts -->
<g id="node52" class="node">
<title>utils/theme.ts</title>
<polygon fill="#ffff99" stroke="black" points="900.5,-1969.51 828.25,-1969.51 828.25,-1933.51 900.5,-1933.51 900.5,-1969.51"/>
<text text-anchor="middle" x="864.38" y="-1949.34" font-family="Times,serif" font-size="9.00">utils/theme.ts</text>
</g>
<!-- utils/config.ts&#45;&gt;utils/theme.ts -->
<g id="edge80" class="edge">
<title>utils/config.ts&#45;&gt;utils/theme.ts</title>
<path fill="none" stroke="black" d="M667.95,-1725.84C683.32,-1737.47 701.58,-1753.83 712.75,-1772.51 747.29,-1830.23 701.96,-1871.19 748.75,-1919.51 766.35,-1937.69 793.34,-1945.8 816.71,-1949.31"/>
<polygon fill="black" stroke="black" points="815.98,-1952.75 826.34,-1950.5 816.84,-1945.8 815.98,-1952.75"/>
</g>
<!-- utils/debug.ts&#45;&gt;bootstrap/state.ts -->
<g id="edge81" class="edge">
<title>utils/debug.ts&#45;&gt;bootstrap/state.ts</title>
<path fill="none" stroke="black" d="M1683.54,-1078.86C1680.49,-1193.4 1661.99,-1807.35 1613.25,-1873.51 1451.27,-2093.4 1061.78,-2043.87 919,-2016.95"/>
<polygon fill="black" stroke="black" points="919.92,-2013.56 909.44,-2015.11 918.6,-2020.44 919.92,-2013.56"/>
</g>
<!-- utils/debug.ts&#45;&gt;utils/fsOperations.ts -->
<g id="edge82" class="edge">
<title>utils/debug.ts&#45;&gt;utils/fsOperations.ts</title>
<path fill="none" stroke="black" d="M1712.2,-1078.95C1729.15,-1090.87 1751.42,-1106.55 1769.94,-1119.58"/>
<polygon fill="black" stroke="black" points="1767.81,-1122.36 1778,-1125.25 1771.84,-1116.63 1767.81,-1122.36"/>
</g>
<!-- utils/debug.ts&#45;&gt;utils/slowOperations.ts -->
<g id="edge83" class="edge">
<title>utils/debug.ts&#45;&gt;utils/slowOperations.ts</title>
<path fill="none" stroke="black" d="M1649.04,-1056.35C1635.91,-1053.15 1620.69,-1048.89 1606.34,-1044.42"/>
<polygon fill="black" stroke="black" points="1607.61,-1041.15 1597.02,-1041.44 1605.48,-1047.82 1607.61,-1041.15"/>
</g>
<!-- utils/diagLogs.ts&#45;&gt;utils/fsOperations.ts -->
<g id="edge84" class="edge">
<title>utils/diagLogs.ts&#45;&gt;utils/fsOperations.ts</title>
<path fill="none" stroke="black" d="M906.1,-1061.93C1006.01,-1072.7 1271.29,-1100.87 1493,-1120.51 1580.6,-1128.27 1682.15,-1135.8 1745.09,-1140.3"/>
<polygon fill="black" stroke="black" points="1744.65,-1143.78 1754.87,-1140.99 1745.14,-1136.79 1744.65,-1143.78"/>
</g>
<!-- utils/diagLogs.ts&#45;&gt;utils/slowOperations.ts -->
<g id="edge85" class="edge">
<title>utils/diagLogs.ts&#45;&gt;utils/slowOperations.ts</title>
<path fill="none" stroke="black" d="M906.19,-1054.31C967.5,-1049.6 1087.04,-1040.79 1188.75,-1035.51 1292.27,-1030.14 1412.5,-1026.31 1485.41,-1024.25"/>
<polygon fill="black" stroke="black" points="1485.28,-1027.76 1495.18,-1023.98 1485.09,-1020.76 1485.28,-1027.76"/>
</g>
<!-- utils/execFileNoThrow.ts&#45;&gt;utils/log.ts -->
<g id="edge86" class="edge">
<title>utils/execFileNoThrow.ts&#45;&gt;utils/log.ts</title>
<path fill="none" stroke="black" d="M1274.75,-1433.94C1300.94,-1458.54 1347.46,-1502.24 1377.3,-1530.26"/>
<polygon fill="black" stroke="black" points="1374.83,-1532.74 1384.52,-1537.04 1379.62,-1527.64 1374.83,-1532.74"/>
</g>
<!-- utils/file.ts&#45;&gt;services/analytics/index.ts -->
<g id="edge87" class="edge">
<title>utils/file.ts&#45;&gt;services/analytics/index.ts</title>
<path fill="none" stroke="black" d="M894.49,-1316.74C920.15,-1317.65 956.95,-1323.06 980,-1344.51 1019.21,-1380.99 980.87,-1419.08 1016,-1459.51 1018.15,-1461.99 1020.53,-1464.28 1023.08,-1466.41"/>
<polygon fill="black" stroke="black" points="1020.91,-1469.16 1031.07,-1472.16 1024.99,-1463.48 1020.91,-1469.16"/>
</g>
<!-- utils/file.ts&#45;&gt;utils/debug.ts -->
<g id="edge88" class="edge">
<title>utils/file.ts&#45;&gt;utils/debug.ts</title>
<path fill="none" stroke="black" d="M883.39,-1299.09C909.85,-1273.26 961.96,-1226.96 1016,-1204.51 1141.87,-1152.21 1186.08,-1188.37 1319.5,-1160.51 1435.56,-1136.27 1569.38,-1096.43 1638.06,-1075.09"/>
<polygon fill="black" stroke="black" points="1638.96,-1078.47 1647.47,-1072.15 1636.88,-1071.79 1638.96,-1078.47"/>
</g>
<!-- utils/file.ts&#45;&gt;utils/errors.ts -->
<g id="edge89" class="edge">
<title>utils/file.ts&#45;&gt;utils/errors.ts</title>
<path fill="none" stroke="black" d="M894.32,-1317.53C919.52,-1318.99 955.72,-1324.78 980,-1344.51 1009.32,-1368.34 987.57,-1396.63 1016,-1421.51 1063.94,-1463.48 1105.02,-1422.31 1152.75,-1464.51 1181.66,-1490.07 1167.55,-1511.27 1188.75,-1543.51 1299.44,-1711.83 1349.92,-1737.69 1493,-1879.51 1559.01,-1944.94 1571.17,-1968.08 1649.25,-2018.51 1693.2,-2046.9 1706.34,-2052.5 1756.75,-2066.51 1797.6,-2077.87 1845.65,-2083.09 1880.35,-2085.48"/>
<polygon fill="black" stroke="black" points="1879.87,-2088.96 1890.07,-2086.1 1880.31,-2081.97 1879.87,-2088.96"/>
</g>
<!-- utils/file.ts&#45;&gt;utils/fileRead.ts -->
<g id="edge90" class="edge">
<title>utils/file.ts&#45;&gt;utils/fileRead.ts</title>
<path fill="none" stroke="black" d="M894.53,-1299.77C921.36,-1281.78 959.92,-1251.4 980,-1214.51 1039.65,-1104.93 1072.9,-708.48 1081.26,-596.28"/>
<polygon fill="black" stroke="black" points="1084.75,-596.63 1081.99,-586.4 1077.77,-596.12 1084.75,-596.63"/>
</g>
<!-- utils/file.ts&#45;&gt;utils/fsOperations.ts -->
<g id="edge91" class="edge">
<title>utils/file.ts&#45;&gt;utils/fsOperations.ts</title>
<path fill="none" stroke="black" d="M894.55,-1319.28C959.13,-1323.05 1119.08,-1331.51 1253.12,-1331.51 1253.12,-1331.51 1253.12,-1331.51 1554.12,-1331.51 1659.61,-1331.51 1749.51,-1224.12 1786.86,-1172.11"/>
<polygon fill="black" stroke="black" points="1789.66,-1174.21 1792.55,-1164.02 1783.93,-1170.19 1789.66,-1174.21"/>
</g>
<!-- utils/file.ts&#45;&gt;utils/log.ts -->
<g id="edge92" class="edge">
<title>utils/file.ts&#45;&gt;utils/log.ts</title>
<path fill="none" stroke="black" d="M894.43,-1319.61C918.71,-1322.44 953.51,-1329.05 980,-1344.51 1000.37,-1356.4 996.29,-1370.55 1016,-1383.51 1069.83,-1418.89 1105.5,-1387.73 1152.75,-1431.51 1181.94,-1458.56 1157.72,-1488.59 1188.75,-1513.51 1215.4,-1534.91 1310.06,-1547.37 1364.99,-1552.95"/>
<polygon fill="black" stroke="black" points="1364.59,-1556.43 1374.89,-1553.92 1365.28,-1549.47 1364.59,-1556.43"/>
</g>
<!-- utils/platform.ts -->
<g id="node36" class="node">
<title>utils/platform.ts</title>
<polygon fill="#ffff99" stroke="black" points="1126.12,-1303.51 1042.62,-1303.51 1042.62,-1267.51 1126.12,-1267.51 1126.12,-1303.51"/>
<text text-anchor="middle" x="1084.38" y="-1283.34" font-family="Times,serif" font-size="9.00">utils/platform.ts</text>
</g>
<!-- utils/file.ts&#45;&gt;utils/platform.ts -->
<g id="edge93" class="edge">
<title>utils/file.ts&#45;&gt;utils/platform.ts</title>
<path fill="none" stroke="black" d="M894.32,-1313.26C929.12,-1308.15 988.18,-1299.48 1031.04,-1293.19"/>
<polygon fill="black" stroke="black" points="1031.51,-1296.66 1040.9,-1291.75 1030.5,-1289.74 1031.51,-1296.66"/>
</g>
<!-- utils/fileRead.ts&#45;&gt;utils/debug.ts -->
<g id="edge94" class="edge">
<title>utils/fileRead.ts&#45;&gt;utils/debug.ts</title>
<path fill="none" stroke="black" d="M1124.94,-569.88C1235.67,-580.15 1545.07,-614.71 1613.25,-685.51 1661,-735.1 1677.85,-951.33 1682.5,-1030.94"/>
<polygon fill="black" stroke="black" points="1678.99,-1030.78 1683.04,-1040.57 1685.97,-1030.39 1678.99,-1030.78"/>
</g>
<!-- utils/fileRead.ts&#45;&gt;utils/fsOperations.ts -->
<g id="edge95" class="edge">
<title>utils/fileRead.ts&#45;&gt;utils/fsOperations.ts</title>
<path fill="none" stroke="black" d="M1125.02,-565.49C1185.46,-564.03 1304.3,-561.51 1405.25,-561.51 1405.25,-561.51 1405.25,-561.51 1554.12,-561.51 1631.19,-561.51 1669.73,-551.75 1720.75,-609.51 1787.91,-685.53 1801.98,-1013.41 1804.74,-1114.63"/>
<polygon fill="black" stroke="black" points="1801.24,-1114.66 1804.99,-1124.57 1808.24,-1114.48 1801.24,-1114.66"/>
</g>
<!-- utils/fsOperations.ts&#45;&gt;utils/errors.ts -->
<g id="edge96" class="edge">
<title>utils/fsOperations.ts&#45;&gt;utils/errors.ts</title>
<path fill="none" stroke="black" d="M1809.72,-1162.92C1824.55,-1279.35 1905.27,-1912.99 1923.74,-2057.96"/>
<polygon fill="black" stroke="black" points="1920.26,-2058.38 1925,-2067.86 1927.21,-2057.5 1920.26,-2058.38"/>
</g>
<!-- utils/fsOperations.ts&#45;&gt;utils/slowOperations.ts -->
<g id="edge97" class="edge">
<title>utils/fsOperations.ts&#45;&gt;utils/slowOperations.ts</title>
<path fill="none" stroke="black" d="M1797.59,-1126.43C1785.41,-1100.64 1759.18,-1054.14 1720.75,-1033.51 1690.61,-1017.33 1652.85,-1013.73 1620.9,-1014.55"/>
<polygon fill="black" stroke="black" points="1620.77,-1011.05 1610.93,-1014.97 1621.07,-1018.04 1620.77,-1011.05"/>
</g>
<!-- utils/git/gitignore.ts -->
<g id="node27" class="node">
<title>utils/git/gitignore.ts</title>
<polygon fill="#ffff99" stroke="black" points="1132.88,-1249.51 1035.88,-1249.51 1035.88,-1213.51 1132.88,-1213.51 1132.88,-1249.51"/>
<text text-anchor="middle" x="1084.38" y="-1229.34" font-family="Times,serif" font-size="9.00">utils/git/gitignore.ts</text>
</g>
<!-- utils/git/gitignore.ts&#45;&gt;utils/errors.ts -->
<g id="edge98" class="edge">
<title>utils/git/gitignore.ts&#45;&gt;utils/errors.ts</title>
<path fill="none" stroke="black" d="M1132.98,-1221.97C1182.67,-1214.53 1261.33,-1210.1 1319.5,-1241.51 1674.46,-1433.2 1872.42,-1933.04 1917.51,-2058.58"/>
<polygon fill="black" stroke="black" points="1914.14,-2059.54 1920.78,-2067.79 1920.73,-2057.2 1914.14,-2059.54"/>
</g>
<!-- utils/git/gitignore.ts&#45;&gt;utils/execFileNoThrow.ts -->
<g id="edge99" class="edge">
<title>utils/git/gitignore.ts&#45;&gt;utils/execFileNoThrow.ts</title>
<path fill="none" stroke="black" d="M1133.14,-1246.28C1140.13,-1249.64 1146.93,-1253.69 1152.75,-1258.51 1195.36,-1293.79 1225.83,-1351.99 1241.37,-1386.74"/>
<polygon fill="black" stroke="black" points="1238.09,-1387.98 1245.28,-1395.76 1244.51,-1385.19 1238.09,-1387.98"/>
</g>
<!-- utils/git/gitignore.ts&#45;&gt;utils/log.ts -->
<g id="edge100" class="edge">
<title>utils/git/gitignore.ts&#45;&gt;utils/log.ts</title>
<path fill="none" stroke="black" d="M1133.08,-1235.12C1185.48,-1241.58 1268.9,-1259.54 1319.5,-1309.51 1380.5,-1369.75 1398.17,-1475.54 1403.24,-1526.88"/>
<polygon fill="black" stroke="black" points="1399.73,-1526.97 1404.1,-1536.62 1406.7,-1526.35 1399.73,-1526.97"/>
</g>
<!-- utils/http.ts&#45;&gt;constants/oauth.ts -->
<g id="edge101" class="edge">
<title>utils/http.ts&#45;&gt;constants/oauth.ts</title>
<path fill="none" stroke="black" d="M457.33,-2121.84C489.62,-2124.27 541.1,-2128.16 580.95,-2131.17"/>
<polygon fill="black" stroke="black" points="580.63,-2134.65 590.87,-2131.92 581.16,-2127.67 580.63,-2134.65"/>
</g>
<!-- utils/json.ts&#45;&gt;utils/log.ts -->
<g id="edge102" class="edge">
<title>utils/json.ts&#45;&gt;utils/log.ts</title>
<path fill="none" stroke="black" d="M896.66,-999.22C980.89,-989.66 1213.25,-976.7 1319.5,-1106.51 1372.84,-1171.68 1396.61,-1437.01 1403.23,-1526.71"/>
<polygon fill="black" stroke="black" points="1399.74,-1526.93 1403.95,-1536.66 1406.72,-1526.43 1399.74,-1526.93"/>
</g>
<!-- utils/json.ts&#45;&gt;utils/memoize.ts -->
<g id="edge103" class="edge">
<title>utils/json.ts&#45;&gt;utils/memoize.ts</title>
<path fill="none" stroke="black" d="M896.8,-1009.77C920,-1014.66 952.23,-1022.04 980,-1030.51 1058.39,-1054.42 1146.73,-1089.22 1201.17,-1111.62"/>
<polygon fill="black" stroke="black" points="1199.62,-1114.76 1210.2,-1115.35 1202.29,-1108.29 1199.62,-1114.76"/>
</g>
<!-- utils/json.ts&#45;&gt;utils/slowOperations.ts -->
<g id="edge104" class="edge">
<title>utils/json.ts&#45;&gt;utils/slowOperations.ts</title>
<path fill="none" stroke="black" d="M896.76,-999.74C927.19,-996.28 974.68,-991.43 1016,-989.51 1185.3,-981.66 1384.43,-1001.59 1485.71,-1013.81"/>
<polygon fill="black" stroke="black" points="1485.12,-1017.26 1495.47,-1015 1485.97,-1010.32 1485.12,-1017.26"/>
</g>
<!-- utils/log.ts&#45;&gt;bootstrap/state.ts -->
<g id="edge105" class="edge">
<title>utils/log.ts&#45;&gt;bootstrap/state.ts</title>
<path fill="none" stroke="black" d="M1392.16,-1575.01C1376.05,-1597.32 1347.39,-1635.55 1319.5,-1665.51 1195.26,-1798.95 1147.08,-1814.78 1016,-1941.51 999.51,-1957.46 999.97,-1967.21 980,-1978.51 961.55,-1988.96 939.23,-1995.37 919.21,-1999.31"/>
<polygon fill="black" stroke="black" points="918.77,-1995.83 909.54,-2001.03 920,-2002.72 918.77,-1995.83"/>
</g>
<!-- utils/log.ts&#45;&gt;utils/errors.ts -->
<g id="edge106" class="edge">
<title>utils/log.ts&#45;&gt;utils/errors.ts</title>
<path fill="none" stroke="black" d="M1412.35,-1574.64C1431.7,-1640.14 1506.75,-1866.97 1649.25,-1987.51 1684.98,-2017.74 1810.99,-2055.64 1880.53,-2074.95"/>
<polygon fill="black" stroke="black" points="1879.57,-2078.31 1890.14,-2077.59 1881.43,-2071.56 1879.57,-2078.31"/>
</g>
<!-- utils/log.ts&#45;&gt;utils/slowOperations.ts -->
<g id="edge107" class="edge">
<title>utils/log.ts&#45;&gt;utils/slowOperations.ts</title>
<path fill="none" stroke="black" d="M1408.95,-1538.12C1414.93,-1477.96 1437.68,-1282.18 1493,-1130.51 1503.45,-1101.86 1520.61,-1071.61 1533.76,-1050.43"/>
<polygon fill="black" stroke="black" points="1536.65,-1052.41 1539.04,-1042.09 1530.74,-1048.67 1536.65,-1052.41"/>
</g>
<!-- utils/memoize.ts&#45;&gt;utils/log.ts -->
<g id="edge108" class="edge">
<title>utils/memoize.ts&#45;&gt;utils/log.ts</title>
<path fill="none" stroke="black" d="M1268.15,-1151.8C1282.47,-1172.65 1305.33,-1208.16 1319.5,-1241.51 1362.32,-1342.33 1389.36,-1470.44 1400.04,-1527.19"/>
<polygon fill="black" stroke="black" points="1396.54,-1527.49 1401.79,-1536.69 1403.42,-1526.22 1396.54,-1527.49"/>
</g>
<!-- utils/memoize.ts&#45;&gt;utils/slowOperations.ts -->
<g id="edge109" class="edge">
<title>utils/memoize.ts&#45;&gt;utils/slowOperations.ts</title>
<path fill="none" stroke="black" d="M1296.73,-1117.96C1347.61,-1098.95 1434.09,-1066.63 1492.14,-1044.93"/>
<polygon fill="black" stroke="black" points="1493.08,-1048.32 1501.22,-1041.54 1490.63,-1041.76 1493.08,-1048.32"/>
</g>
<!-- utils/model/model.ts&#45;&gt;bootstrap/state.ts -->
<g id="edge110" class="edge">
<title>utils/model/model.ts&#45;&gt;bootstrap/state.ts</title>
<path fill="none" stroke="black" d="M1033.72,-2141.66C1027.29,-2137.99 1021.17,-2133.6 1016,-2128.51 990.23,-2103.12 1007,-2079.58 980,-2055.51 962.94,-2040.3 939.84,-2030.62 918.84,-2023.84"/>
<polygon fill="black" stroke="black" points="920.13,-2020.58 909.54,-2020.99 918.08,-2027.27 920.13,-2020.58"/>
</g>
<!-- utils/model/model.ts&#45;&gt;utils/model/modelStrings.ts -->
<g id="edge111" class="edge">
<title>utils/model/model.ts&#45;&gt;utils/model/modelStrings.ts</title>
<path fill="none" stroke="black" d="M1134.8,-2135.31C1150.97,-2130.01 1169.2,-2124.03 1186.42,-2118.38"/>
<polygon fill="black" stroke="black" points="1187.14,-2121.83 1195.55,-2115.39 1184.96,-2115.18 1187.14,-2121.83"/>
</g>
<!-- utils/model/modelStrings.ts&#45;&gt;bootstrap/state.ts -->
<g id="edge112" class="edge">
<title>utils/model/modelStrings.ts&#45;&gt;bootstrap/state.ts</title>
<path fill="none" stroke="black" d="M1188.35,-2100.24C1140.04,-2097.77 1072.86,-2089.46 1016,-2072.51 999.04,-2067.46 996.35,-2062.28 980,-2055.51 956.78,-2045.9 930.4,-2036.37 908.8,-2028.02"/>
<polygon fill="black" stroke="black" points="910.3,-2024.85 899.72,-2024.45 907.74,-2031.37 910.3,-2024.85"/>
</g>
<!-- utils/model/modelStrings.ts&#45;&gt;utils/log.ts -->
<g id="edge113" class="edge">
<title>utils/model/modelStrings.ts&#45;&gt;utils/log.ts</title>
<path fill="none" stroke="black" d="M1261.34,-2078.15C1273.27,-2042.66 1299.91,-1962.13 1319.5,-1893.51 1351.75,-1780.55 1384.52,-1644.6 1398.38,-1585.88"/>
<polygon fill="black" stroke="black" points="1401.74,-1586.89 1400.63,-1576.35 1394.93,-1585.28 1401.74,-1586.89"/>
</g>
<!-- utils/model/providers.ts -->
<g id="node35" class="node">
<title>utils/model/providers.ts</title>
<polygon fill="#ffcc99" stroke="black" points="922.25,-1389.51 806.5,-1389.51 806.5,-1353.51 922.25,-1353.51 922.25,-1389.51"/>
<text text-anchor="middle" x="864.38" y="-1369.34" font-family="Times,serif" font-size="9.00">utils/model/providers.ts</text>
</g>
<!-- utils/model/providers.ts&#45;&gt;services/analytics/index.ts -->
<g id="edge114" class="edge">
<title>utils/model/providers.ts&#45;&gt;services/analytics/index.ts</title>
<path fill="none" stroke="black" d="M922.67,-1379.01C942.25,-1383.67 963.38,-1391.24 980,-1403.51 1003.81,-1421.08 993.78,-1439.97 1016,-1459.51 1019.15,-1462.28 1022.58,-1464.87 1026.18,-1467.26"/>
<polygon fill="black" stroke="black" points="1024.31,-1470.22 1034.68,-1472.39 1027.93,-1464.23 1024.31,-1470.22"/>
</g>
<!-- utils/platform.ts&#45;&gt;utils/fsOperations.ts -->
<g id="edge115" class="edge">
<title>utils/platform.ts&#45;&gt;utils/fsOperations.ts</title>
<path fill="none" stroke="black" d="M1126.52,-1285.51C1229.73,-1284.28 1506.66,-1273.47 1720.75,-1196.51 1738.85,-1190 1757.25,-1179.29 1772.25,-1169.28"/>
<polygon fill="black" stroke="black" points="1774.08,-1172.26 1780.33,-1163.71 1770.11,-1166.5 1774.08,-1172.26"/>
</g>
<!-- utils/platform.ts&#45;&gt;utils/log.ts -->
<g id="edge116" class="edge">
<title>utils/platform.ts&#45;&gt;utils/log.ts</title>
<path fill="none" stroke="black" d="M1126.52,-1294.57C1177.37,-1307.61 1263.96,-1336.08 1319.5,-1388.51 1360.65,-1427.36 1385.31,-1490.3 1397,-1527.12"/>
<polygon fill="black" stroke="black" points="1393.64,-1528.1 1399.91,-1536.64 1400.34,-1526.06 1393.64,-1528.1"/>
</g>
<!-- utils/secureStorage/keychainPrefetch.ts&#45;&gt;utils/secureStorage/macOsKeychainHelpers.ts -->
<g id="edge117" class="edge">
<title>utils/secureStorage/keychainPrefetch.ts&#45;&gt;utils/secureStorage/macOsKeychainHelpers.ts</title>
<path fill="none" stroke="black" d="M272.74,-2325.87C277.03,-2328.39 281.08,-2331.25 284.75,-2334.51 314.82,-2361.21 290.8,-2390.69 320.75,-2417.51 323.92,-2420.35 327.34,-2422.94 330.94,-2425.3"/>
<polygon fill="black" stroke="black" points="329.11,-2428.28 339.52,-2430.26 332.62,-2422.22 329.11,-2428.28"/>
</g>
<!-- utils/secureStorage/macOsKeychainHelpers.ts&#45;&gt;constants/oauth.ts -->
<g id="edge118" class="edge">
<title>utils/secureStorage/macOsKeychainHelpers.ts&#45;&gt;constants/oauth.ts</title>
<path fill="none" stroke="black" d="M440.72,-2431.13C461.14,-2404.52 499.68,-2353.51 530.25,-2308.51 564.32,-2258.36 601.2,-2197.97 621.92,-2163.42"/>
<polygon fill="black" stroke="black" points="624.66,-2165.66 626.79,-2155.28 618.65,-2162.07 624.66,-2165.66"/>
</g>
<!-- utils/settings/constants.ts&#45;&gt;bootstrap/state.ts -->
<g id="edge119" class="edge">
<title>utils/settings/constants.ts&#45;&gt;bootstrap/state.ts</title>
<path fill="none" stroke="black" d="M1550.09,-503.71C1541.81,-570.78 1510.37,-808.29 1493,-1004.51 1481.46,-1134.91 1506.61,-1471.36 1457,-1592.51 1383.61,-1771.75 1312.96,-1795.66 1152.75,-1904.51 1082.29,-1952.38 1060.31,-1959.14 980,-1987.51 960.5,-1994.4 938.52,-2000.06 919.05,-2003.83"/>
<polygon fill="black" stroke="black" points="918.64,-2000.35 909.41,-2005.56 919.88,-2007.24 918.64,-2000.35"/>
</g>
<!-- utils/settings/internalWrites.ts -->
<g id="node41" class="node">
<title>utils/settings/internalWrites.ts</title>
<polygon fill="#ffff99" stroke="black" points="497.25,-731.51 353.75,-731.51 353.75,-695.51 497.25,-695.51 497.25,-731.51"/>
<text text-anchor="middle" x="425.5" y="-711.34" font-family="Times,serif" font-size="9.00">utils/settings/internalWrites.ts</text>
</g>
<!-- utils/settings/managedPath.ts&#45;&gt;utils/platform.ts -->
<g id="edge120" class="edge">
<title>utils/settings/managedPath.ts&#45;&gt;utils/platform.ts</title>
<path fill="none" stroke="black" d="M933.72,-1199.95C949.62,-1204.61 965.99,-1210.94 980,-1219.51 1000.12,-1231.82 996.57,-1245.13 1016,-1258.51 1020.99,-1261.95 1026.49,-1265.05 1032.13,-1267.82"/>
<polygon fill="black" stroke="black" points="1030.41,-1270.88 1040.96,-1271.82 1033.29,-1264.51 1030.41,-1270.88"/>
</g>
<!-- utils/settings/mdm/settings.ts -->
<g id="node43" class="node">
<title>utils/settings/mdm/settings.ts</title>
<polygon fill="#ffff99" stroke="black" points="493.12,-785.51 357.88,-785.51 357.88,-749.51 493.12,-749.51 493.12,-785.51"/>
<text text-anchor="middle" x="425.5" y="-765.34" font-family="Times,serif" font-size="9.00">utils/settings/mdm/settings.ts</text>
</g>
<!-- utils/settings/mdm/settings.ts&#45;&gt;utils/debug.ts -->
<g id="edge121" class="edge">
<title>utils/settings/mdm/settings.ts&#45;&gt;utils/debug.ts</title>
<path fill="none" stroke="black" d="M493.45,-761.77C673.31,-747.1 1163.93,-712.17 1319.5,-753.51 1464.85,-792.14 1509.52,-812.61 1613.25,-921.51 1643.72,-953.5 1664.09,-1001.18 1674.86,-1031.55"/>
<polygon fill="black" stroke="black" points="1671.48,-1032.5 1678.02,-1040.84 1678.11,-1030.24 1671.48,-1032.5"/>
</g>
<!-- utils/settings/mdm/settings.ts&#45;&gt;utils/diagLogs.ts -->
<g id="edge122" class="edge">
<title>utils/settings/mdm/settings.ts&#45;&gt;utils/diagLogs.ts</title>
<path fill="none" stroke="black" d="M442.03,-785.79C485.01,-834.98 611.46,-970.48 748.75,-1030.51 768.49,-1039.14 791.41,-1045.24 811.54,-1049.44"/>
<polygon fill="black" stroke="black" points="810.74,-1052.84 821.23,-1051.34 812.09,-1045.98 810.74,-1052.84"/>
</g>
<!-- utils/settings/mdm/settings.ts&#45;&gt;utils/fileRead.ts -->
<g id="edge123" class="edge">
<title>utils/settings/mdm/settings.ts&#45;&gt;utils/fileRead.ts</title>
<path fill="none" stroke="black" d="M493.48,-758.42C506.57,-754.43 519.53,-748.71 530.25,-740.51 555.86,-720.91 540.22,-696.55 566.25,-677.51 710.08,-572.3 933.02,-562.82 1032.47,-564.38"/>
<polygon fill="black" stroke="black" points="1032.11,-567.88 1042.18,-564.59 1032.25,-560.88 1032.11,-567.88"/>
</g>
<!-- utils/settings/mdm/settings.ts&#45;&gt;utils/fsOperations.ts -->
<g id="edge124" class="edge">
<title>utils/settings/mdm/settings.ts&#45;&gt;utils/fsOperations.ts</title>
<path fill="none" stroke="black" d="M493.47,-754.84C660.01,-725.92 1104.82,-664.57 1457,-759.51 1527.94,-778.64 1551.97,-772.97 1613.25,-813.51 1672.69,-852.83 1683.06,-872.02 1720.75,-932.51 1758.39,-992.92 1784.87,-1072.92 1797.32,-1115.29"/>
<polygon fill="black" stroke="black" points="1793.91,-1116.09 1800.04,-1124.73 1800.64,-1114.16 1793.91,-1116.09"/>
</g>
<!-- utils/settings/mdm/settings.ts&#45;&gt;utils/json.ts -->
<g id="edge125" class="edge">
<title>utils/settings/mdm/settings.ts&#45;&gt;utils/json.ts</title>
<path fill="none" stroke="black" d="M453.54,-785.96C481.31,-804.61 526.03,-833.84 566.25,-856.51 655.22,-906.66 763.61,-957.92 821.75,-984.65"/>
<polygon fill="black" stroke="black" points="820.08,-987.73 830.63,-988.72 823,-981.37 820.08,-987.73"/>
</g>
<!-- utils/settings/mdm/settings.ts&#45;&gt;utils/settings/managedPath.ts -->
<g id="edge126" class="edge">
<title>utils/settings/mdm/settings.ts&#45;&gt;utils/settings/managedPath.ts</title>
<path fill="none" stroke="black" d="M435.83,-785.77C455.95,-824.01 506.51,-914.06 566.25,-975.51 645.34,-1056.85 759.12,-1128.11 820.4,-1163.6"/>
<polygon fill="black" stroke="black" points="818.4,-1166.49 828.82,-1168.44 821.89,-1160.42 818.4,-1166.49"/>
</g>
<!-- utils/settings/mdm/settings.ts&#45;&gt;utils/settings/types.ts -->
<g id="edge127" class="edge">
<title>utils/settings/mdm/settings.ts&#45;&gt;utils/settings/types.ts</title>
<path fill="none" stroke="black" d="M493.42,-761.08C507.05,-756.96 520.25,-750.52 530.25,-740.51 575.35,-695.36 533.02,-656 566.25,-601.51 622.87,-508.66 648.11,-479.74 748.75,-438.51 953.14,-354.78 1224.2,-389.77 1343.93,-411.74"/>
<polygon fill="black" stroke="black" points="1343.08,-415.14 1353.55,-413.54 1344.37,-408.26 1343.08,-415.14"/>
</g>
<!-- utils/settings/validation.ts -->
<g id="node47" class="node">
<title>utils/settings/validation.ts</title>
<polygon fill="#ffff99" stroke="black" points="1316.12,-663.51 1192.12,-663.51 1192.12,-627.51 1316.12,-627.51 1316.12,-663.51"/>
<text text-anchor="middle" x="1254.12" y="-643.34" font-family="Times,serif" font-size="9.00">utils/settings/validation.ts</text>
</g>
<!-- utils/settings/mdm/settings.ts&#45;&gt;utils/settings/validation.ts -->
<g id="edge128" class="edge">
<title>utils/settings/mdm/settings.ts&#45;&gt;utils/settings/validation.ts</title>
<path fill="none" stroke="black" d="M493.57,-753.76C506.04,-750.18 518.75,-745.8 530.25,-740.51 547.95,-732.38 548.35,-723.21 566.25,-715.51 774.95,-625.76 1051.12,-630.53 1180.46,-639.07"/>
<polygon fill="black" stroke="black" points="1180.04,-642.54 1190.25,-639.74 1180.52,-635.56 1180.04,-642.54"/>
</g>
<!-- utils/startupProfiler.ts -->
<g id="node51" class="node">
<title>utils/startupProfiler.ts</title>
<polygon fill="#ffff99" stroke="black" points="693.62,-847.51 585.38,-847.51 585.38,-811.51 693.62,-811.51 693.62,-847.51"/>
<text text-anchor="middle" x="639.5" y="-827.34" font-family="Times,serif" font-size="9.00">utils/startupProfiler.ts</text>
</g>
<!-- utils/settings/mdm/settings.ts&#45;&gt;utils/startupProfiler.ts -->
<g id="edge129" class="edge">
<title>utils/settings/mdm/settings.ts&#45;&gt;utils/startupProfiler.ts</title>
<path fill="none" stroke="black" d="M489.53,-785.95C516.24,-793.76 547.34,-802.85 574.19,-810.7"/>
<polygon fill="black" stroke="black" points="572.99,-814 583.57,-813.45 574.95,-807.28 572.99,-814"/>
</g>
<!-- utils/settings/settings.ts -->
<g id="node44" class="node">
<title>utils/settings/settings.ts</title>
<polygon fill="#ffcc99" stroke="black" points="249.12,-758.51 137.88,-758.51 137.88,-722.51 249.12,-722.51 249.12,-758.51"/>
<text text-anchor="middle" x="193.5" y="-738.34" font-family="Times,serif" font-size="9.00">utils/settings/settings.ts</text>
</g>
<!-- utils/settings/settings.ts&#45;&gt;bootstrap/state.ts -->
<g id="edge130" class="edge">
<title>utils/settings/settings.ts&#45;&gt;bootstrap/state.ts</title>
<path fill="none" stroke="black" d="M194.38,-758.72C194.68,-875.79 212.56,-1527.22 566.25,-1826.51 618.05,-1870.34 663.97,-1822.34 712.75,-1869.51 749.42,-1904.98 711.13,-1944.05 748.75,-1978.51 765.17,-1993.55 788.37,-2000.68 809.61,-2003.91"/>
<polygon fill="black" stroke="black" points="808.96,-2007.36 819.31,-2005.11 809.82,-2000.41 808.96,-2007.36"/>
</g>
<!-- utils/settings/settings.ts&#45;&gt;services/remoteManagedSettings/syncCacheState.ts -->
<g id="edge131" class="edge">
<title>utils/settings/settings.ts&#45;&gt;services/remoteManagedSettings/syncCacheState.ts</title>
<path fill="none" stroke="black" d="M197.23,-722.32C205.54,-674.06 235.43,-542.71 320.75,-487.51 461.14,-396.69 667.43,-421.14 780.94,-444.74"/>
<polygon fill="black" stroke="black" points="779.97,-448.12 790.48,-446.78 781.43,-441.27 779.97,-448.12"/>
</g>
<!-- utils/settings/settings.ts&#45;&gt;utils/array.ts -->
<g id="edge132" class="edge">
<title>utils/settings/settings.ts&#45;&gt;utils/array.ts</title>
<path fill="none" stroke="black" d="M196.41,-722.01C205.26,-640.01 245.18,-310.51 320.75,-246.51 428.91,-154.92 496.77,-219.51 638.5,-219.51 638.5,-219.51 638.5,-219.51 1255.12,-219.51 1345.59,-219.51 1374.61,-208.15 1457,-245.51 1485.88,-258.61 1512.36,-283.54 1530.01,-302.85"/>
<polygon fill="black" stroke="black" points="1527.21,-304.97 1536.47,-310.13 1532.45,-300.33 1527.21,-304.97"/>
</g>
<!-- utils/settings/settings.ts&#45;&gt;utils/debug.ts -->
<g id="edge133" class="edge">
<title>utils/settings/settings.ts&#45;&gt;utils/debug.ts</title>
<path fill="none" stroke="black" d="M195.86,-722.13C202.73,-635.07 236.54,-265.52 320.75,-195.51 375.1,-150.32 567.82,-181.51 638.5,-181.51 638.5,-181.51 638.5,-181.51 1407.25,-181.51 1513.43,-181.51 1556.27,-212.91 1613.25,-302.51 1652.97,-364.97 1677.35,-898.5 1682.82,-1030.88"/>
<polygon fill="black" stroke="black" points="1679.31,-1030.72 1683.22,-1040.57 1686.31,-1030.43 1679.31,-1030.72"/>
</g>
<!-- utils/settings/settings.ts&#45;&gt;utils/diagLogs.ts -->
<g id="edge134" class="edge">
<title>utils/settings/settings.ts&#45;&gt;utils/diagLogs.ts</title>
<path fill="none" stroke="black" d="M200.6,-758.83C214.84,-798.69 254.24,-893.54 320.75,-941.51 472.91,-1051.25 707.58,-1061.16 811.18,-1059.61"/>
<polygon fill="black" stroke="black" points="811.11,-1063.12 821.04,-1059.42 810.98,-1056.12 811.11,-1063.12"/>
</g>
<!-- utils/settings/settings.ts&#45;&gt;utils/errors.ts -->
<g id="edge135" class="edge">
<title>utils/settings/settings.ts&#45;&gt;utils/errors.ts</title>
<path fill="none" stroke="black" d="M201.15,-722.18C217.77,-675.7 261.41,-549.26 284.75,-440.51 297.64,-380.47 274.58,-207.01 320.75,-166.51 374.73,-119.16 1556.17,-122.95 1613.25,-166.51 1929.8,-408.1 1929.85,-1832.88 1927.86,-2057.66"/>
<polygon fill="black" stroke="black" points="1924.36,-2057.56 1927.76,-2067.59 1931.36,-2057.63 1924.36,-2057.56"/>
</g>
<!-- utils/settings/settings.ts&#45;&gt;utils/file.ts -->
<g id="edge136" class="edge">
<title>utils/settings/settings.ts&#45;&gt;utils/file.ts</title>
<path fill="none" stroke="black" d="M195.89,-758.87C202.85,-845.81 237.07,-1214.88 320.75,-1285.51 396.15,-1349.15 710.39,-1330.18 823,-1321.09"/>
<polygon fill="black" stroke="black" points="823,-1324.6 832.67,-1320.29 822.42,-1317.63 823,-1324.6"/>
</g>
<!-- utils/settings/settings.ts&#45;&gt;utils/fileRead.ts -->
<g id="edge137" class="edge">
<title>utils/settings/settings.ts&#45;&gt;utils/fileRead.ts</title>
<path fill="none" stroke="black" d="M200.99,-722.07C215.52,-684.02 254.64,-597.56 320.75,-563.51 561.83,-439.34 905.32,-515.78 1033.02,-551.31"/>
<polygon fill="black" stroke="black" points="1031.96,-554.65 1042.53,-554 1033.86,-547.91 1031.96,-554.65"/>
</g>
<!-- utils/settings/settings.ts&#45;&gt;utils/fsOperations.ts -->
<g id="edge138" class="edge">
<title>utils/settings/settings.ts&#45;&gt;utils/fsOperations.ts</title>
<path fill="none" stroke="black" d="M216.25,-758.69C240.29,-777.81 280.89,-807.32 320.75,-823.51 495.19,-894.36 968.85,-943.17 1152.75,-983.51 1372.28,-1031.66 1630.86,-1098.48 1745.49,-1128.63"/>
<polygon fill="black" stroke="black" points="1744.43,-1131.97 1754.99,-1131.13 1746.21,-1125.2 1744.43,-1131.97"/>
</g>
<!-- utils/settings/settings.ts&#45;&gt;utils/git/gitignore.ts -->
<g id="edge139" class="edge">
<title>utils/settings/settings.ts&#45;&gt;utils/git/gitignore.ts</title>
<path fill="none" stroke="black" d="M197.91,-758.86C207.76,-806.42 240.77,-934.53 320.75,-999.51 554.84,-1189.7 704.4,-1037.98 980,-1160.51 1006.45,-1172.27 1033.31,-1190.96 1053.02,-1206.22"/>
<polygon fill="black" stroke="black" points="1050.61,-1208.78 1060.62,-1212.23 1054.95,-1203.28 1050.61,-1208.78"/>
</g>
<!-- utils/settings/settings.ts&#45;&gt;utils/json.ts -->
<g id="edge140" class="edge">
<title>utils/settings/settings.ts&#45;&gt;utils/json.ts</title>
<path fill="none" stroke="black" d="M204.46,-758.79C222.9,-790.78 265.56,-856.62 320.75,-889.51 486.26,-988.15 724.66,-1002.23 820.8,-1003.69"/>
<polygon fill="black" stroke="black" points="820.52,-1007.18 830.56,-1003.79 820.6,-1000.18 820.52,-1007.18"/>
</g>
<!-- utils/settings/settings.ts&#45;&gt;utils/log.ts -->
<g id="edge141" class="edge">
<title>utils/settings/settings.ts&#45;&gt;utils/log.ts</title>
<path fill="none" stroke="black" d="M196.75,-758.96C206.84,-838.54 250.51,-1151.34 320.75,-1215.51 402.48,-1290.17 456.41,-1243.76 566.25,-1257.51 749.29,-1280.42 804.55,-1233.52 980,-1290.51 997.83,-1296.3 999.67,-1303.3 1016,-1312.51 1075.64,-1346.16 1102.69,-1336.79 1152.75,-1383.51 1175.21,-1404.47 1166.35,-1421.49 1188.75,-1442.51 1195.92,-1449.24 1306.12,-1505.95 1366.46,-1536.76"/>
<polygon fill="black" stroke="black" points="1364.55,-1539.72 1375.05,-1541.15 1367.73,-1533.48 1364.55,-1539.72"/>
</g>
<!-- utils/settings/settings.ts&#45;&gt;utils/platform.ts -->
<g id="edge142" class="edge">
<title>utils/settings/settings.ts&#45;&gt;utils/platform.ts</title>
<path fill="none" stroke="black" d="M193.89,-758.82C192.81,-823.8 198.56,-1045.18 320.75,-1151.51 544.62,-1346.32 689.88,-1195.08 980,-1257.51 996.84,-1261.13 1015.02,-1265.8 1031.38,-1270.28"/>
<polygon fill="black" stroke="black" points="1030.34,-1273.63 1040.91,-1272.93 1032.21,-1266.88 1030.34,-1273.63"/>
</g>
<!-- utils/settings/settings.ts&#45;&gt;utils/settings/constants.ts -->
<g id="edge143" class="edge">
<title>utils/settings/settings.ts&#45;&gt;utils/settings/constants.ts</title>
<path fill="none" stroke="black" d="M193.81,-722.26C192.38,-656.42 196.95,-429.13 320.75,-317.51 427.49,-221.28 494.78,-257.51 638.5,-257.51 638.5,-257.51 638.5,-257.51 1255.12,-257.51 1345.48,-257.51 1383.8,-228.54 1457,-281.51 1458.93,-282.91 1513.37,-401.11 1539.01,-456.92"/>
<polygon fill="black" stroke="black" points="1535.74,-458.2 1543.1,-465.83 1542.11,-455.28 1535.74,-458.2"/>
</g>
<!-- utils/settings/settings.ts&#45;&gt;utils/settings/internalWrites.ts -->
<g id="edge144" class="edge">
<title>utils/settings/settings.ts&#45;&gt;utils/settings/internalWrites.ts</title>
<path fill="none" stroke="black" d="M249.59,-734.04C277.29,-730.79 311.42,-726.79 342.15,-723.18"/>
<polygon fill="black" stroke="black" points="342.28,-726.69 351.8,-722.05 341.46,-719.74 342.28,-726.69"/>
</g>
<!-- utils/settings/settings.ts&#45;&gt;utils/settings/managedPath.ts -->
<g id="edge145" class="edge">
<title>utils/settings/settings.ts&#45;&gt;utils/settings/managedPath.ts</title>
<path fill="none" stroke="black" d="M194.35,-758.74C194.93,-820.48 205.84,-1023.06 320.75,-1117.51 355.85,-1146.36 641.55,-1171.18 783.68,-1181.89"/>
<polygon fill="black" stroke="black" points="783.16,-1185.36 793.4,-1182.61 783.68,-1178.38 783.16,-1185.36"/>
</g>
<!-- utils/settings/settings.ts&#45;&gt;utils/settings/mdm/settings.ts -->
<g id="edge146" class="edge">
<title>utils/settings/settings.ts&#45;&gt;utils/settings/mdm/settings.ts</title>
<path fill="none" stroke="black" d="M249.59,-746.98C278.6,-750.38 314.66,-754.62 346.49,-758.35"/>
<polygon fill="black" stroke="black" points="345.71,-761.79 356.05,-759.48 346.53,-754.83 345.71,-761.79"/>
</g>
<!-- utils/settings/settings.ts&#45;&gt;utils/settings/settingsCache.ts -->
<g id="edge147" class="edge">
<title>utils/settings/settings.ts&#45;&gt;utils/settings/settingsCache.ts</title>
<path fill="none" stroke="black" d="M195.13,-722.15C198.2,-665.41 216.12,-492.34 320.75,-420.51 441.58,-337.57 835.66,-413.12 980,-438.51 991.27,-440.49 1003.08,-443.19 1014.52,-446.15"/>
<polygon fill="black" stroke="black" points="1013.32,-449.45 1023.88,-448.66 1015.13,-442.69 1013.32,-449.45"/>
</g>
<!-- utils/settings/settings.ts&#45;&gt;utils/settings/types.ts -->
<g id="edge148" class="edge">
<title>utils/settings/settings.ts&#45;&gt;utils/settings/types.ts</title>
<path fill="none" stroke="black" d="M194.68,-722.2C196.35,-662.05 210.45,-469.16 320.75,-378.51 430.94,-287.95 495.87,-333.51 638.5,-333.51 638.5,-333.51 638.5,-333.51 1085.38,-333.51 1184.71,-333.51 1295,-374.61 1356.66,-401.57"/>
<polygon fill="black" stroke="black" points="1354.92,-404.63 1365.48,-405.48 1357.75,-398.23 1354.92,-404.63"/>
</g>
<!-- utils/settings/settings.ts&#45;&gt;utils/settings/validation.ts -->
<g id="edge149" class="edge">
<title>utils/settings/settings.ts&#45;&gt;utils/settings/validation.ts</title>
<path fill="none" stroke="black" d="M204.34,-722.06C222.45,-690.33 264.41,-626.45 320.75,-601.51 474.04,-533.66 988.57,-604.22 1180.3,-633.79"/>
<polygon fill="black" stroke="black" points="1179.73,-637.24 1190.14,-635.31 1180.8,-630.32 1179.73,-637.24"/>
</g>
<!-- utils/settings/settings.ts&#45;&gt;utils/slowOperations.ts -->
<g id="edge150" class="edge">
<title>utils/settings/settings.ts&#45;&gt;utils/slowOperations.ts</title>
<path fill="none" stroke="black" d="M227.32,-722.1C252.12,-709.29 287.47,-693.33 320.75,-686.51 411.97,-667.82 437.8,-675.4 530.25,-686.51 740.72,-711.8 1276.12,-801.98 1457,-912.51 1490.66,-933.08 1518.67,-969.52 1535.39,-994.8"/>
<polygon fill="black" stroke="black" points="1532.27,-996.41 1540.62,-1002.93 1538.16,-992.63 1532.27,-996.41"/>
</g>
<!-- utils/settings/settings.ts&#45;&gt;utils/startupProfiler.ts -->
<g id="edge151" class="edge">
<title>utils/settings/settings.ts&#45;&gt;utils/startupProfiler.ts</title>
<path fill="none" stroke="black" d="M229.69,-758.89C254.48,-771 288.82,-786.12 320.75,-794.51 406.45,-817.03 508.85,-825.07 573.78,-827.94"/>
<polygon fill="black" stroke="black" points="573.42,-831.43 583.55,-828.34 573.7,-824.43 573.42,-831.43"/>
</g>
<!-- utils/settings/settingsCache.ts&#45;&gt;utils/settings/constants.ts -->
<g id="edge152" class="edge">
<title>utils/settings/settingsCache.ts&#45;&gt;utils/settings/constants.ts</title>
<path fill="none" stroke="black" d="M1153.24,-470.13C1240.81,-473.51 1392.41,-479.35 1481.36,-482.78"/>
<polygon fill="black" stroke="black" points="1481.04,-486.27 1491.17,-483.16 1481.31,-479.28 1481.04,-486.27"/>
</g>
<!-- utils/settings/settingsCache.ts&#45;&gt;utils/settings/types.ts -->
<g id="edge153" class="edge">
<title>utils/settings/settingsCache.ts&#45;&gt;utils/settings/types.ts</title>
<path fill="none" stroke="black" d="M1153.21,-458.39C1209.71,-450.8 1289.47,-440.07 1344.05,-432.74"/>
<polygon fill="black" stroke="black" points="1344.35,-436.23 1353.79,-431.43 1343.41,-429.29 1344.35,-436.23"/>
</g>
<!-- utils/settings/settingsCache.ts&#45;&gt;utils/settings/validation.ts -->
<g id="edge154" class="edge">
<title>utils/settings/settingsCache.ts&#45;&gt;utils/settings/validation.ts</title>
<path fill="none" stroke="black" d="M1102.7,-485.89C1132.53,-517.55 1193.73,-582.48 1228.16,-619.02"/>
<polygon fill="black" stroke="black" points="1225.46,-621.25 1234.86,-626.13 1230.55,-616.45 1225.46,-621.25"/>
</g>
<!-- utils/settings/types.ts&#45;&gt;utils/array.ts -->
<g id="edge155" class="edge">
<title>utils/settings/types.ts&#45;&gt;utils/array.ts</title>
<path fill="none" stroke="black" d="M1435.18,-406.19C1457.83,-391.34 1489.96,-370.28 1514.81,-353.98"/>
<polygon fill="black" stroke="black" points="1516.57,-357.01 1523.01,-348.6 1512.73,-351.16 1516.57,-357.01"/>
</g>
<!-- utils/settings/types.ts&#45;&gt;utils/settings/constants.ts -->
<g id="edge156" class="edge">
<title>utils/settings/types.ts&#45;&gt;utils/settings/constants.ts</title>
<path fill="none" stroke="black" d="M1451.11,-442.98C1465.86,-449.19 1482.5,-456.19 1497.95,-462.7"/>
<polygon fill="black" stroke="black" points="1496.44,-465.86 1507.02,-466.52 1499.16,-459.41 1496.44,-465.86"/>
</g>
<!-- utils/settings/validation.ts&#45;&gt;utils/settings/types.ts -->
<g id="edge157" class="edge">
<title>utils/settings/validation.ts&#45;&gt;utils/settings/types.ts</title>
<path fill="none" stroke="black" d="M1267.67,-627.05C1294.06,-588.2 1355.46,-497.81 1386.53,-452.07"/>
<polygon fill="black" stroke="black" points="1389.28,-454.26 1392,-444.02 1383.49,-450.32 1389.28,-454.26"/>
</g>
<!-- utils/settings/validation.ts&#45;&gt;utils/slowOperations.ts -->
<g id="edge158" class="edge">
<title>utils/settings/validation.ts&#45;&gt;utils/slowOperations.ts</title>
<path fill="none" stroke="black" d="M1265.8,-663.9C1282.8,-692.4 1317.97,-748.26 1355.5,-789.51 1395.29,-833.24 1417.96,-831.1 1457,-875.51 1490.03,-913.09 1519.91,-963.11 1537.04,-994.04"/>
<polygon fill="black" stroke="black" points="1533.96,-995.71 1541.82,-1002.81 1540.1,-992.35 1533.96,-995.71"/>
</g>
<!-- utils/slowOperations.ts&#45;&gt;bootstrap/state.ts -->
<g id="edge159" class="edge">
<title>utils/slowOperations.ts&#45;&gt;bootstrap/state.ts</title>
<path fill="none" stroke="black" d="M1551.81,-1040.82C1549.69,-1147.74 1535.16,-1691.59 1457,-1835.51 1353.88,-2025.39 1044.6,-2021.38 919.14,-2011.3"/>
<polygon fill="black" stroke="black" points="919.71,-2007.84 909.45,-2010.48 919.11,-2014.81 919.71,-2007.84"/>
</g>
<!-- utils/slowOperations.ts&#45;&gt;utils/debug.ts -->
<g id="edge160" class="edge">
<title>utils/slowOperations.ts&#45;&gt;utils/debug.ts</title>
<path fill="none" stroke="black" d="M1609.58,-1032.05C1619.09,-1034.7 1628.88,-1037.63 1638.1,-1040.6"/>
<polygon fill="black" stroke="black" points="1636.99,-1043.91 1647.58,-1043.73 1639.19,-1037.27 1636.99,-1043.91"/>
</g>
<!-- utils/startupProfiler.ts&#45;&gt;bootstrap/state.ts -->
<g id="edge161" class="edge">
<title>utils/startupProfiler.ts&#45;&gt;bootstrap/state.ts</title>
<path fill="none" stroke="black" d="M642.08,-847.83C654.7,-994.13 739.01,-1967.33 748.75,-1978.51 763.73,-1995.71 787.42,-2003.04 809.39,-2005.85"/>
<polygon fill="black" stroke="black" points="808.87,-2009.31 819.15,-2006.78 809.53,-2002.35 808.87,-2009.31"/>
</g>
<!-- utils/startupProfiler.ts&#45;&gt;services/analytics/index.ts -->
<g id="edge162" class="edge">
<title>utils/startupProfiler.ts&#45;&gt;services/analytics/index.ts</title>
<path fill="none" stroke="black" d="M693.81,-842.63C700.47,-845.36 706.96,-848.62 712.75,-852.51 733.45,-866.4 728.25,-881.33 748.75,-895.51 838.3,-957.48 912.35,-891.17 980,-976.51 1026.65,-1035.36 998.63,-1239.45 1016,-1312.51 1029.03,-1367.31 1054.37,-1428.09 1069.99,-1462.85"/>
<polygon fill="black" stroke="black" points="1066.74,-1464.16 1074.07,-1471.81 1073.11,-1461.26 1066.74,-1464.16"/>
</g>
<!-- utils/startupProfiler.ts&#45;&gt;utils/debug.ts -->
<g id="edge163" class="edge">
<title>utils/startupProfiler.ts&#45;&gt;utils/debug.ts</title>
<path fill="none" stroke="black" d="M693.97,-826.36C827.23,-820.3 1183.08,-815.28 1457,-912.51 1531.1,-938.82 1549.05,-950.1 1613.25,-995.51 1629.34,-1006.89 1645.64,-1021.61 1658.54,-1034.16"/>
<polygon fill="black" stroke="black" points="1655.84,-1036.42 1665.41,-1040.97 1660.77,-1031.45 1655.84,-1036.42"/>
</g>
<!-- utils/startupProfiler.ts&#45;&gt;utils/fsOperations.ts -->
<g id="edge164" class="edge">
<title>utils/startupProfiler.ts&#45;&gt;utils/fsOperations.ts</title>
<path fill="none" stroke="black" d="M693.92,-820.02C809.31,-801.2 1089.96,-764.53 1319.5,-807.51 1515.94,-844.29 1588.78,-860.43 1720.75,-1010.51 1749.91,-1043.67 1775.77,-1087.92 1791,-1116.32"/>
<polygon fill="black" stroke="black" points="1787.84,-1117.83 1795.6,-1125.04 1794.03,-1114.56 1787.84,-1117.83"/>
</g>
<!-- utils/startupProfiler.ts&#45;&gt;utils/slowOperations.ts -->
<g id="edge165" class="edge">
<title>utils/startupProfiler.ts&#45;&gt;utils/slowOperations.ts</title>
<path fill="none" stroke="black" d="M694.09,-845.21C711.4,-849.78 730.77,-854.39 748.75,-857.51 999.71,-901.1 1069.54,-860.49 1319.5,-909.51 1382.2,-921.81 1400,-922.64 1457,-951.51 1481.17,-963.75 1505.61,-982.15 1523.66,-997.15"/>
<polygon fill="black" stroke="black" points="1520.93,-999.43 1530.82,-1003.22 1525.46,-994.08 1520.93,-999.43"/>
</g>
<!-- utils/thinking.ts -->
<g id="node53" class="node">
<title>utils/thinking.ts</title>
<polygon fill="#ffcc99" stroke="black" points="680.88,-1817.51 598.12,-1817.51 598.12,-1781.51 680.88,-1781.51 680.88,-1817.51"/>
<text text-anchor="middle" x="639.5" y="-1797.34" font-family="Times,serif" font-size="9.00">utils/thinking.ts</text>
</g>
<!-- utils/thinking.ts&#45;&gt;utils/model/model.ts -->
<g id="edge166" class="edge">
<title>utils/thinking.ts&#45;&gt;utils/model/model.ts</title>
<path fill="none" stroke="black" d="M643.96,-1817.82C653.11,-1861.3 681.97,-1971.69 748.75,-2032.51 759.3,-2042.12 929.66,-2100.09 1023.12,-2131.43"/>
<polygon fill="black" stroke="black" points="1021.82,-2134.68 1032.41,-2134.54 1024.04,-2128.05 1021.82,-2134.68"/>
</g>
<!-- utils/thinking.ts&#45;&gt;utils/theme.ts -->
<g id="edge167" class="edge">
<title>utils/thinking.ts&#45;&gt;utils/theme.ts</title>
<path fill="none" stroke="black" d="M681.01,-1811.1C692.41,-1815.93 704.05,-1822.56 712.75,-1831.51 742.2,-1861.82 717.19,-1891.41 748.75,-1919.51 767.36,-1936.08 793.89,-1944.14 816.73,-1948.03"/>
<polygon fill="black" stroke="black" points="816.04,-1951.47 826.44,-1949.45 817.05,-1944.54 816.04,-1951.47"/>
</g>
<!-- utils/user.ts&#45;&gt;bootstrap/state.ts -->
<g id="edge168" class="edge">
<title>utils/user.ts&#45;&gt;bootstrap/state.ts</title>
<path fill="none" stroke="black" d="M457.38,-1910.9C511.69,-1907.6 626.71,-1906.4 712.75,-1945.51 732.51,-1954.49 729.56,-1968.36 748.75,-1978.51 767.42,-1988.39 789.68,-1994.69 809.61,-1998.69"/>
<polygon fill="black" stroke="black" points="808.75,-2002.09 819.22,-2000.47 810.02,-1995.21 808.75,-2002.09"/>
</g>
<!-- utils/user.ts&#45;&gt;utils/config.ts -->
<g id="edge169" class="edge">
<title>utils/user.ts&#45;&gt;utils/config.ts</title>
<path fill="none" stroke="black" d="M457.49,-1899.98C480.05,-1888.85 510.05,-1871.23 530.25,-1848.51 555.08,-1820.58 543.92,-1802.48 566.25,-1772.51 577.06,-1758 591.49,-1744.24 604.62,-1733.15"/>
<polygon fill="black" stroke="black" points="606.75,-1735.92 612.26,-1726.88 602.31,-1730.51 606.75,-1735.92"/>
</g>
</g>
</svg>
