<?xml version="1.0" encoding="UTF-8" standalone="no"?>
<!DOCTYPE svg PUBLIC "-//W3C//DTD SVG 1.1//EN"
 "http://www.w3.org/Graphics/SVG/1.1/DTD/svg11.dtd">
<!-- Generated by graphviz version 9.0.0 (20230911.1827)
 -->
<!-- Title: tool_categories Pages: 1 -->
<svg width="393pt" height="2911pt"
 viewBox="0.00 0.00 393.00 2910.50" xmlns="http://www.w3.org/2000/svg" xmlns:xlink="http://www.w3.org/1999/xlink">
<g id="graph0" class="graph" transform="scale(1 1) rotate(0) translate(4 2906.5)">
<title>tool_categories</title>
<polygon fill="white" stroke="none" points="-4,4 -4,-2906.5 389,-2906.5 389,4 -4,4"/>
<text text-anchor="middle" x="192.5" y="-2885.2" font-family="Times,serif" font-size="14.00">42 Tools Grouped by Category</text>
<g id="clust1" class="cluster">
<title>cluster_file</title>
<polygon fill="#d4edda" stroke="#a8d5ba" points="254.37,-2560 254.37,-2867 367.87,-2867 367.87,-2560 254.37,-2560"/>
<text text-anchor="middle" x="311.12" y="-2852.55" font-family="Times,serif" font-size="11.00">File Operations (5)</text>
<text text-anchor="middle" x="311.12" y="-2836.8" font-family="Times,serif" font-size="11.00">基础文件读写</text>
</g>
<g id="clust2" class="cluster">
<title>cluster_exec</title>
<polygon fill="#f8d7da" stroke="#f5c6cb" points="253.25,-2407 253.25,-2552 370,-2552 370,-2407 253.25,-2407"/>
<text text-anchor="middle" x="311.62" y="-2537.55" font-family="Times,serif" font-size="11.00">Execution (2)</text>
<text text-anchor="middle" x="311.62" y="-2521.8" font-family="Times,serif" font-size="11.00">命令执行（最复杂）</text>
</g>
<g id="clust3" class="cluster">
<title>cluster_search</title>
<polygon fill="#d1ecf1" stroke="#bee5eb" points="262.5,-2200 262.5,-2399 359.75,-2399 359.75,-2200 262.5,-2200"/>
<text text-anchor="middle" x="311.12" y="-2384.55" font-family="Times,serif" font-size="11.00">Search (3)</text>
<text text-anchor="middle" x="311.12" y="-2368.8" font-family="Times,serif" font-size="11.00">搜索能力</text>
</g>
<g id="clust4" class="cluster">
<title>cluster_agent</title>
<polygon fill="#fff3cd" stroke="#ffeaa7" points="256.87,-1938 256.87,-2192 365.37,-2192 365.37,-1938 256.87,-1938"/>
<text text-anchor="middle" x="311.12" y="-2177.55" font-family="Times,serif" font-size="11.00">Agent System (4)</text>
<text text-anchor="middle" x="311.12" y="-2161.8" font-family="Times,serif" font-size="11.00">子 Agent 与团队</text>
</g>
<g id="clust5" class="cluster">
<title>cluster_task</title>
<polygon fill="#e2d4f0" stroke="#d6c9e8" points="247.75,-1568 247.75,-1930 375.5,-1930 375.5,-1568 247.75,-1568"/>
<text text-anchor="middle" x="311.62" y="-1915.55" font-family="Times,serif" font-size="11.00">Task Management (6)</text>
<text text-anchor="middle" x="311.62" y="-1899.8" font-family="Times,serif" font-size="11.00">TodoV2 任务系统</text>
</g>
<g id="clust6" class="cluster">
<title>cluster_todo</title>
<polygon fill="#e2d4f0" stroke="#d6c9e8" points="253.87,-1484 253.87,-1560 368.37,-1560 368.37,-1484 253.87,-1484"/>
<text text-anchor="middle" x="311.12" y="-1545.55" font-family="Times,serif" font-size="11.00">Legacy Todo (1)</text>
</g>
<g id="clust7" class="cluster">
<title>cluster_ui</title>
<polygon fill="#fadfd9" stroke="#fad2cf" points="250.12,-1400 250.12,-1476 372.12,-1476 372.12,-1400 250.12,-1400"/>
<text text-anchor="middle" x="311.12" y="-1461.55" font-family="Times,serif" font-size="11.00">User Interaction (1)</text>
</g>
<g id="clust8" class="cluster">
<title>cluster_plan</title>
<polygon fill="#dcedc8" stroke="#c5e1a5" points="245.25,-1192 245.25,-1392 377,-1392 377,-1192 245.25,-1192"/>
<text text-anchor="middle" x="311.12" y="-1377.55" font-family="Times,serif" font-size="11.00">Plan Mode (3)</text>
<text text-anchor="middle" x="311.12" y="-1361.8" font-family="Times,serif" font-size="11.00">Plan 工作流</text>
</g>
<g id="clust9" class="cluster">
<title>cluster_worktree</title>
<polygon fill="#dcedc8" stroke="#c5e1a5" points="255.75,-1038 255.75,-1184 366.5,-1184 366.5,-1038 255.75,-1038"/>
<text text-anchor="middle" x="311.12" y="-1169.55" font-family="Times,serif" font-size="11.00">Worktree (2)</text>
<text text-anchor="middle" x="311.12" y="-1153.8" font-family="Times,serif" font-size="11.00">Git 隔离</text>
</g>
<g id="clust10" class="cluster">
<title>cluster_cron</title>
<polygon fill="#e1f5fe" stroke="#b3e5fc" points="255.37,-777 255.37,-1030 366.87,-1030 366.87,-777 255.37,-777"/>
<text text-anchor="middle" x="311.12" y="-1015.55" font-family="Times,serif" font-size="11.00">Scheduling (4)</text>
<text text-anchor="middle" x="311.12" y="-999.8" font-family="Times,serif" font-size="11.00">后台任务</text>
</g>
<g id="clust11" class="cluster">
<title>cluster_mcp</title>
<polygon fill="#ffe0b2" stroke="#ffccbc" points="247.5,-570 247.5,-769 374.75,-769 374.75,-570 247.5,-570"/>
<text text-anchor="middle" x="311.12" y="-754.55" font-family="Times,serif" font-size="11.00">MCP Integration (3)</text>
<text text-anchor="middle" x="311.12" y="-738.8" font-family="Times,serif" font-size="11.00">外部协议</text>
</g>
<g id="clust12" class="cluster">
<title>cluster_skill</title>
<polygon fill="#ffe0b2" stroke="#ffccbc" points="276.12,-486 276.12,-562 346.12,-562 346.12,-486 276.12,-486"/>
<text text-anchor="middle" x="311.12" y="-547.55" font-family="Times,serif" font-size="11.00">Skill (1)</text>
</g>
<g id="clust13" class="cluster">
<title>cluster_other</title>
<polygon fill="#e8e8e8" stroke="#d3d3d3" points="248.25,-8 248.25,-478 374,-478 374,-8 248.25,-8"/>
<text text-anchor="middle" x="311.12" y="-463.55" font-family="Times,serif" font-size="11.00">Other (8)</text>
<text text-anchor="middle" x="311.12" y="-447.8" font-family="Times,serif" font-size="11.00">配置 / 测试 / 内部</text>
</g>
<!-- Tool.ts -->
<g id="node1" class="node">
<title>Tool.ts</title>
<ellipse fill="#ff9999" stroke="black" cx="67" cy="-1426" rx="67" ry="30.05"/>
<text text-anchor="middle" x="67" y="-1431.85" font-family="Helvetica,sans-Serif" font-size="12.00">Tool Interface</text>
<text text-anchor="middle" x="67" y="-1414.6" font-family="Helvetica,sans-Serif" font-size="12.00">(Tool.ts)</text>
</g>
<!-- FileReadTool -->
<g id="node2" class="node">
<title>FileReadTool</title>
<polygon fill="#99ff99" stroke="black" points="345.37,-2820 276.87,-2820 276.87,-2784 345.37,-2784 345.37,-2820"/>
<text text-anchor="middle" x="311.12" y="-2799.82" font-family="Helvetica,sans-Serif" font-size="9.00">FileReadTool</text>
</g>
<!-- Tool.ts&#45;&gt;FileReadTool -->
<!-- BashTool -->
<g id="node7" class="node">
<title>BashTool</title>
<polygon fill="#ff9999" stroke="black" points="341.25,-2505 281,-2505 281,-2469 341.25,-2469 341.25,-2505"/>
<text text-anchor="middle" x="311.12" y="-2491.2" font-family="Helvetica,sans-Serif" font-size="9.00">BashTool</text>
<text text-anchor="middle" x="311.12" y="-2478.45" font-family="Helvetica,sans-Serif" font-size="9.00">(CCN 极高)</text>
</g>
<!-- Tool.ts&#45;&gt;BashTool -->
<g id="edge2" class="edge">
<title>Tool.ts&#45;&gt;BashTool</title>
<path fill="none" stroke="#990000" stroke-dasharray="5,2" d="M69.43,-1456.39C74.63,-1557.4 95.28,-1890.79 152,-2160 180.78,-2296.63 151.21,-2356.79 245.25,-2460 251.92,-2467.32 260.89,-2472.72 270.02,-2476.67"/>
<polygon fill="#990000" stroke="#990000" points="268.69,-2479.91 279.28,-2480.15 271.15,-2473.35 268.69,-2479.91"/>
<text text-anchor="middle" x="193.62" y="-2453.2" font-family="Times,serif" font-size="14.00"> implements</text>
</g>
<!-- GrepTool -->
<g id="node9" class="node">
<title>GrepTool</title>
<polygon fill="#99ddee" stroke="black" points="338.25,-2352 284,-2352 284,-2316 338.25,-2316 338.25,-2352"/>
<text text-anchor="middle" x="311.12" y="-2331.82" font-family="Helvetica,sans-Serif" font-size="9.00">GrepTool</text>
</g>
<!-- Tool.ts&#45;&gt;GrepTool -->
<!-- AgentTool -->
<g id="node12" class="node">
<title>AgentTool</title>
<polygon fill="#ffd966" stroke="black" points="349.87,-2144 272.37,-2144 272.37,-2108 349.87,-2108 349.87,-2144"/>
<text text-anchor="middle" x="311.12" y="-2130.3" font-family="Helvetica,sans-Serif" font-size="9.00">AgentTool</text>
<text text-anchor="middle" x="311.12" y="-2117.55" font-family="Helvetica,sans-Serif" font-size="9.00">(子 agent 入口)</text>
</g>
<!-- Tool.ts&#45;&gt;AgentTool -->
<g id="edge4" class="edge">
<title>Tool.ts&#45;&gt;AgentTool</title>
<path fill="none" stroke="#990000" stroke-dasharray="5,2" d="M72.27,-1456.31C89.43,-1574.11 156.66,-1999.92 245.25,-2099 249.89,-2104.19 255.69,-2108.41 261.9,-2111.83"/>
<polygon fill="#990000" stroke="#990000" points="259.98,-2114.8 270.51,-2115.93 262.99,-2108.48 259.98,-2114.8"/>
</g>
<!-- TaskCreateTool -->
<g id="node16" class="node">
<title>TaskCreateTool</title>
<polygon fill="#cc99ff" stroke="black" points="351.37,-1882 270.87,-1882 270.87,-1846 351.37,-1846 351.37,-1882"/>
<text text-anchor="middle" x="311.12" y="-1861.83" font-family="Helvetica,sans-Serif" font-size="9.00">TaskCreateTool</text>
</g>
<!-- Tool.ts&#45;&gt;TaskCreateTool -->
<!-- TodoWriteTool -->
<g id="node22" class="node">
<title>TodoWriteTool</title>
<polygon fill="#cc99ff" stroke="black" points="360.37,-1528 261.87,-1528 261.87,-1492 360.37,-1492 360.37,-1528"/>
<text text-anchor="middle" x="311.12" y="-1514.2" font-family="Helvetica,sans-Serif" font-size="9.00">TodoWriteTool</text>
<text text-anchor="middle" x="311.12" y="-1501.45" font-family="Helvetica,sans-Serif" font-size="9.00">(prompt 最长: 9132)</text>
</g>
<!-- Tool.ts&#45;&gt;TodoWriteTool -->
<!-- AskUserQuestionTool -->
<g id="node23" class="node">
<title>AskUserQuestionTool</title>
<polygon fill="#ff99cc" stroke="black" points="364.12,-1444 258.12,-1444 258.12,-1408 364.12,-1408 364.12,-1444"/>
<text text-anchor="middle" x="311.12" y="-1423.83" font-family="Helvetica,sans-Serif" font-size="9.00">AskUserQuestionTool</text>
</g>
<!-- Tool.ts&#45;&gt;AskUserQuestionTool -->
<!-- EnterPlanModeTool -->
<g id="node24" class="node">
<title>EnterPlanModeTool</title>
<polygon fill="#aed581" stroke="black" points="360,-1344 262.25,-1344 262.25,-1308 360,-1308 360,-1344"/>
<text text-anchor="middle" x="311.12" y="-1323.83" font-family="Helvetica,sans-Serif" font-size="9.00">EnterPlanModeTool</text>
</g>
<!-- Tool.ts&#45;&gt;EnterPlanModeTool -->
<!-- EnterWorktreeTool -->
<g id="node27" class="node">
<title>EnterWorktreeTool</title>
<polygon fill="#aed581" stroke="black" points="358.5,-1136 263.75,-1136 263.75,-1100 358.5,-1100 358.5,-1136"/>
<text text-anchor="middle" x="311.12" y="-1115.83" font-family="Helvetica,sans-Serif" font-size="9.00">EnterWorktreeTool</text>
</g>
<!-- Tool.ts&#45;&gt;EnterWorktreeTool -->
<!-- CronCreateTool -->
<g id="node29" class="node">
<title>CronCreateTool</title>
<polygon fill="#81d4fa" stroke="black" points="352.12,-983 270.12,-983 270.12,-947 352.12,-947 352.12,-983"/>
<text text-anchor="middle" x="311.12" y="-962.83" font-family="Helvetica,sans-Serif" font-size="9.00">CronCreateTool</text>
</g>
<!-- Tool.ts&#45;&gt;CronCreateTool -->
<!-- MCPTool -->
<g id="node33" class="node">
<title>MCPTool</title>
<polygon fill="#ffab91" stroke="black" points="338.12,-722 284.12,-722 284.12,-686 338.12,-686 338.12,-722"/>
<text text-anchor="middle" x="311.12" y="-701.83" font-family="Helvetica,sans-Serif" font-size="9.00">MCPTool</text>
</g>
<!-- Tool.ts&#45;&gt;MCPTool -->
<!-- SkillTool -->
<g id="node36" class="node">
<title>SkillTool</title>
<polygon fill="#ffab91" stroke="black" points="338.12,-530 284.12,-530 284.12,-494 338.12,-494 338.12,-530"/>
<text text-anchor="middle" x="311.12" y="-509.82" font-family="Helvetica,sans-Serif" font-size="9.00">SkillTool</text>
</g>
<!-- Tool.ts&#45;&gt;SkillTool -->
<!-- BriefTool -->
<g id="node37" class="node">
<title>BriefTool</title>
<polygon fill="#bbbbbb" stroke="black" points="338.12,-430 284.12,-430 284.12,-394 338.12,-394 338.12,-430"/>
<text text-anchor="middle" x="311.12" y="-409.82" font-family="Helvetica,sans-Serif" font-size="9.00">BriefTool</text>
</g>
<!-- Tool.ts&#45;&gt;BriefTool -->
<!-- FileWriteTool -->
<g id="node3" class="node">
<title>FileWriteTool</title>
<polygon fill="#99ff99" stroke="black" points="346.12,-2766 276.12,-2766 276.12,-2730 346.12,-2730 346.12,-2766"/>
<text text-anchor="middle" x="311.12" y="-2745.82" font-family="Helvetica,sans-Serif" font-size="9.00">FileWriteTool</text>
</g>
<!-- FileEditTool -->
<g id="node4" class="node">
<title>FileEditTool</title>
<polygon fill="#99ff99" stroke="black" points="342.75,-2712 279.5,-2712 279.5,-2676 342.75,-2676 342.75,-2712"/>
<text text-anchor="middle" x="311.12" y="-2691.82" font-family="Helvetica,sans-Serif" font-size="9.00">FileEditTool</text>
</g>
<!-- NotebookEditTool -->
<g id="node5" class="node">
<title>NotebookEditTool</title>
<polygon fill="#99ff99" stroke="black" points="355.87,-2658 266.37,-2658 266.37,-2622 355.87,-2622 355.87,-2658"/>
<text text-anchor="middle" x="311.12" y="-2637.82" font-family="Helvetica,sans-Serif" font-size="9.00">NotebookEditTool</text>
</g>
<!-- GlobTool -->
<g id="node6" class="node">
<title>GlobTool</title>
<polygon fill="#99ff99" stroke="black" points="338.12,-2604 284.12,-2604 284.12,-2568 338.12,-2568 338.12,-2604"/>
<text text-anchor="middle" x="311.12" y="-2583.82" font-family="Helvetica,sans-Serif" font-size="9.00">GlobTool</text>
</g>
<!-- PowerShellTool -->
<g id="node8" class="node">
<title>PowerShellTool</title>
<polygon fill="#ff9999" stroke="black" points="351,-2451 271.25,-2451 271.25,-2415 351,-2415 351,-2451"/>
<text text-anchor="middle" x="311.12" y="-2437.2" font-family="Helvetica,sans-Serif" font-size="9.00">PowerShellTool</text>
<text text-anchor="middle" x="311.12" y="-2424.45" font-family="Helvetica,sans-Serif" font-size="9.00">(Windows)</text>
</g>
<!-- WebSearchTool -->
<g id="node10" class="node">
<title>WebSearchTool</title>
<polygon fill="#99ddee" stroke="black" points="351.75,-2298 270.5,-2298 270.5,-2262 351.75,-2262 351.75,-2298"/>
<text text-anchor="middle" x="311.12" y="-2277.82" font-family="Helvetica,sans-Serif" font-size="9.00">WebSearchTool</text>
</g>
<!-- WebFetchTool -->
<g id="node11" class="node">
<title>WebFetchTool</title>
<polygon fill="#99ddee" stroke="black" points="348.37,-2244 273.87,-2244 273.87,-2208 348.37,-2208 348.37,-2244"/>
<text text-anchor="middle" x="311.12" y="-2223.82" font-family="Helvetica,sans-Serif" font-size="9.00">WebFetchTool</text>
</g>
<!-- TeamCreateTool -->
<g id="node13" class="node">
<title>TeamCreateTool</title>
<polygon fill="#ffd966" stroke="black" points="353.62,-2090 268.62,-2090 268.62,-2054 353.62,-2054 353.62,-2090"/>
<text text-anchor="middle" x="311.12" y="-2069.82" font-family="Helvetica,sans-Serif" font-size="9.00">TeamCreateTool</text>
</g>
<!-- TeamDeleteTool -->
<g id="node14" class="node">
<title>TeamDeleteTool</title>
<polygon fill="#ffd966" stroke="black" points="353.25,-2036 269,-2036 269,-2000 353.25,-2000 353.25,-2036"/>
<text text-anchor="middle" x="311.12" y="-2015.83" font-family="Helvetica,sans-Serif" font-size="9.00">TeamDeleteTool</text>
</g>
<!-- SendMessageTool -->
<g id="node15" class="node">
<title>SendMessageTool</title>
<polygon fill="#ffd966" stroke="black" points="357.37,-1982 264.87,-1982 264.87,-1946 357.37,-1946 357.37,-1982"/>
<text text-anchor="middle" x="311.12" y="-1961.83" font-family="Helvetica,sans-Serif" font-size="9.00">SendMessageTool</text>
</g>
<!-- TaskGetTool -->
<g id="node17" class="node">
<title>TaskGetTool</title>
<polygon fill="#cc99ff" stroke="black" points="344.62,-1828 277.62,-1828 277.62,-1792 344.62,-1792 344.62,-1828"/>
<text text-anchor="middle" x="311.12" y="-1807.83" font-family="Helvetica,sans-Serif" font-size="9.00">TaskGetTool</text>
</g>
<!-- TaskListTool -->
<g id="node18" class="node">
<title>TaskListTool</title>
<polygon fill="#cc99ff" stroke="black" points="344.25,-1774 278,-1774 278,-1738 344.25,-1738 344.25,-1774"/>
<text text-anchor="middle" x="311.12" y="-1753.83" font-family="Helvetica,sans-Serif" font-size="9.00">TaskListTool</text>
</g>
<!-- TaskUpdateTool -->
<g id="node19" class="node">
<title>TaskUpdateTool</title>
<polygon fill="#cc99ff" stroke="black" points="352.5,-1720 269.75,-1720 269.75,-1684 352.5,-1684 352.5,-1720"/>
<text text-anchor="middle" x="311.12" y="-1699.83" font-family="Helvetica,sans-Serif" font-size="9.00">TaskUpdateTool</text>
</g>
<!-- TaskOutputTool -->
<g id="node20" class="node">
<title>TaskOutputTool</title>
<polygon fill="#cc99ff" stroke="black" points="351.37,-1666 270.87,-1666 270.87,-1630 351.37,-1630 351.37,-1666"/>
<text text-anchor="middle" x="311.12" y="-1645.83" font-family="Helvetica,sans-Serif" font-size="9.00">TaskOutputTool</text>
</g>
<!-- TaskStopTool -->
<g id="node21" class="node">
<title>TaskStopTool</title>
<polygon fill="#cc99ff" stroke="black" points="346.5,-1612 275.75,-1612 275.75,-1576 346.5,-1576 346.5,-1612"/>
<text text-anchor="middle" x="311.12" y="-1591.83" font-family="Helvetica,sans-Serif" font-size="9.00">TaskStopTool</text>
</g>
<!-- ExitPlanModeV2Tool -->
<g id="node25" class="node">
<title>ExitPlanModeV2Tool</title>
<polygon fill="#aed581" stroke="black" points="361.5,-1290 260.75,-1290 260.75,-1254 361.5,-1254 361.5,-1290"/>
<text text-anchor="middle" x="311.12" y="-1269.83" font-family="Helvetica,sans-Serif" font-size="9.00">ExitPlanModeV2Tool</text>
</g>
<!-- VerifyPlanExecutionTool -->
<g id="node26" class="node">
<title>VerifyPlanExecutionTool</title>
<polygon fill="#aed581" stroke="black" points="369,-1236 253.25,-1236 253.25,-1200 369,-1200 369,-1236"/>
<text text-anchor="middle" x="311.12" y="-1215.83" font-family="Helvetica,sans-Serif" font-size="9.00">VerifyPlanExecutionTool</text>
</g>
<!-- ExitWorktreeTool -->
<g id="node28" class="node">
<title>ExitWorktreeTool</title>
<polygon fill="#aed581" stroke="black" points="354.75,-1082 267.5,-1082 267.5,-1046 354.75,-1046 354.75,-1082"/>
<text text-anchor="middle" x="311.12" y="-1061.83" font-family="Helvetica,sans-Serif" font-size="9.00">ExitWorktreeTool</text>
</g>
<!-- CronListTool -->
<g id="node30" class="node">
<title>CronListTool</title>
<polygon fill="#81d4fa" stroke="black" points="345,-929 277.25,-929 277.25,-893 345,-893 345,-929"/>
<text text-anchor="middle" x="311.12" y="-908.83" font-family="Helvetica,sans-Serif" font-size="9.00">CronListTool</text>
</g>
<!-- CronDeleteTool -->
<g id="node31" class="node">
<title>CronDeleteTool</title>
<polygon fill="#81d4fa" stroke="black" points="351.75,-875 270.5,-875 270.5,-839 351.75,-839 351.75,-875"/>
<text text-anchor="middle" x="311.12" y="-854.83" font-family="Helvetica,sans-Serif" font-size="9.00">CronDeleteTool</text>
</g>
<!-- RemoteTriggerTool -->
<g id="node32" class="node">
<title>RemoteTriggerTool</title>
<polygon fill="#81d4fa" stroke="black" points="358.87,-821 263.37,-821 263.37,-785 358.87,-785 358.87,-821"/>
<text text-anchor="middle" x="311.12" y="-800.83" font-family="Helvetica,sans-Serif" font-size="9.00">RemoteTriggerTool</text>
</g>
<!-- ListMcpResourcesTool -->
<g id="node34" class="node">
<title>ListMcpResourcesTool</title>
<polygon fill="#ffab91" stroke="black" points="365.62,-668 256.62,-668 256.62,-632 365.62,-632 365.62,-668"/>
<text text-anchor="middle" x="311.12" y="-647.83" font-family="Helvetica,sans-Serif" font-size="9.00">ListMcpResourcesTool</text>
</g>
<!-- ReadMcpResourceTool -->
<g id="node35" class="node">
<title>ReadMcpResourceTool</title>
<polygon fill="#ffab91" stroke="black" points="366.75,-614 255.5,-614 255.5,-578 366.75,-578 366.75,-614"/>
<text text-anchor="middle" x="311.12" y="-593.83" font-family="Helvetica,sans-Serif" font-size="9.00">ReadMcpResourceTool</text>
</g>
<!-- ConfigTool -->
<g id="node38" class="node">
<title>ConfigTool</title>
<polygon fill="#bbbbbb" stroke="black" points="341.25,-376 281,-376 281,-340 341.25,-340 341.25,-376"/>
<text text-anchor="middle" x="311.12" y="-355.82" font-family="Helvetica,sans-Serif" font-size="9.00">ConfigTool</text>
</g>
<!-- LSPTool -->
<g id="node39" class="node">
<title>LSPTool</title>
<polygon fill="#bbbbbb" stroke="black" points="338.12,-322 284.12,-322 284.12,-286 338.12,-286 338.12,-322"/>
<text text-anchor="middle" x="311.12" y="-301.82" font-family="Helvetica,sans-Serif" font-size="9.00">LSPTool</text>
</g>
<!-- ToolSearchTool -->
<g id="node40" class="node">
<title>ToolSearchTool</title>
<polygon fill="#bbbbbb" stroke="black" points="351,-268 271.25,-268 271.25,-232 351,-232 351,-268"/>
<text text-anchor="middle" x="311.12" y="-247.82" font-family="Helvetica,sans-Serif" font-size="9.00">ToolSearchTool</text>
</g>
<!-- SyntheticOutputTool -->
<g id="node41" class="node">
<title>SyntheticOutputTool</title>
<polygon fill="#bbbbbb" stroke="black" points="361.12,-214 261.12,-214 261.12,-178 361.12,-178 361.12,-214"/>
<text text-anchor="middle" x="311.12" y="-193.82" font-family="Helvetica,sans-Serif" font-size="9.00">SyntheticOutputTool</text>
</g>
<!-- TungstenTool -->
<g id="node42" class="node">
<title>TungstenTool</title>
<polygon fill="#bbbbbb" stroke="black" points="346.87,-160 275.37,-160 275.37,-124 346.87,-124 346.87,-160"/>
<text text-anchor="middle" x="311.12" y="-139.82" font-family="Helvetica,sans-Serif" font-size="9.00">TungstenTool</text>
</g>
<!-- TestingPermissionTool -->
<g id="node43" class="node">
<title>TestingPermissionTool</title>
<polygon fill="#bbbbbb" stroke="black" points="366,-106 256.25,-106 256.25,-70 366,-70 366,-106"/>
<text text-anchor="middle" x="311.12" y="-85.83" font-family="Helvetica,sans-Serif" font-size="9.00">TestingPermissionTool</text>
</g>
<!-- SleepTool -->
<g id="node44" class="node">
<title>SleepTool</title>
<polygon fill="#bbbbbb" stroke="black" points="339.37,-52 282.87,-52 282.87,-16 339.37,-16 339.37,-52"/>
<text text-anchor="middle" x="311.12" y="-31.82" font-family="Helvetica,sans-Serif" font-size="9.00">SleepTool</text>
</g>
</g>
</svg>
