<?xml version="1.0" encoding="UTF-8" standalone="no"?>
<!DOCTYPE svg PUBLIC "-//W3C//DTD SVG 1.1//EN"
 "http://www.w3.org/Graphics/SVG/1.1/DTD/svg11.dtd">
<!-- Generated by graphviz version 9.0.0 (20230911.1827)
 -->
<!-- Title: tool_system Pages: 1 -->
<svg width="2941pt" height="857pt"
 viewBox="0.00 0.00 2941.00 856.77" xmlns="http://www.w3.org/2000/svg" xmlns:xlink="http://www.w3.org/1999/xlink">
<g id="graph0" class="graph" transform="scale(1 1) rotate(0) translate(4 852.77)">
<title>tool_system</title>
<polygon fill="white" stroke="none" points="-4,4 -4,-852.77 2937,-852.77 2937,4 -4,4"/>
<text text-anchor="middle" x="1466.5" y="-831.47" font-family="Times,serif" font-size="14.00">Tool System Architecture (free&#45;code45)</text>
<g id="clust1" class="cluster">
<title>cluster_interface</title>
<polygon fill="#fae8e8" stroke="#e0d0d0" points="8,-8 8,-476.27 326,-476.27 326,-8 8,-8"/>
<text text-anchor="middle" x="167" y="-458.97" font-family="Times,serif" font-size="14.00">Layer 1: Tool Interface (Tool.ts)</text>
</g>
<g id="clust2" class="cluster">
<title>cluster_registry</title>
<polygon fill="#e8e8fa" stroke="#d0d0e0" points="2059,-218.62 2059,-470 2329,-470 2329,-218.62 2059,-218.62"/>
<text text-anchor="middle" x="2194" y="-452.7" font-family="Times,serif" font-size="14.00">Layer 2: Tool Registration (tools.ts)</text>
</g>
<g id="clust3" class="cluster">
<title>cluster_categories</title>
<polygon fill="#e8fae8" stroke="#d0e0d0" points="334,-30.62 334,-181.12 2925,-181.12 2925,-30.62 334,-30.62"/>
<text text-anchor="middle" x="1629.5" y="-163.82" font-family="Times,serif" font-size="14.00">Layer 3: Tool Categories (42 tools)</text>
</g>
<g id="clust4" class="cluster">
<title>cluster_file_ops</title>
<polygon fill="#d4edda" stroke="#d0e0d0" points="2308,-38.62 2308,-145.62 2741,-145.62 2741,-38.62 2308,-38.62"/>
<text text-anchor="middle" x="2524.5" y="-128.32" font-family="Times,serif" font-size="14.00">File Ops (5)</text>
</g>
<g id="clust5" class="cluster">
<title>cluster_exec</title>
<polygon fill="#d4edda" stroke="#d0e0d0" points="2749,-38.62 2749,-145.62 2917,-145.62 2917,-38.62 2749,-38.62"/>
<text text-anchor="middle" x="2833" y="-128.32" font-family="Times,serif" font-size="14.00">Execution (2)</text>
</g>
<g id="clust6" class="cluster">
<title>cluster_search</title>
<polygon fill="#d4edda" stroke="#d0e0d0" points="2038,-38.62 2038,-145.62 2300,-145.62 2300,-38.62 2038,-38.62"/>
<text text-anchor="middle" x="2169" y="-128.32" font-family="Times,serif" font-size="14.00">Search (3)</text>
</g>
<g id="clust7" class="cluster">
<title>cluster_agent</title>
<polygon fill="#d4edda" stroke="#d0e0d0" points="1742,-38.62 1742,-145.62 2030,-145.62 2030,-38.62 1742,-38.62"/>
<text text-anchor="middle" x="1886" y="-128.32" font-family="Times,serif" font-size="14.00">Agent (3)</text>
</g>
<g id="clust8" class="cluster">
<title>cluster_task</title>
<polygon fill="#d4edda" stroke="#d0e0d0" points="1359,-38.62 1359,-145.62 1734,-145.62 1734,-38.62 1359,-38.62"/>
<text text-anchor="middle" x="1546.5" y="-128.32" font-family="Times,serif" font-size="14.00">Task &amp; Todo (7)</text>
</g>
<g id="clust9" class="cluster">
<title>cluster_mcp</title>
<polygon fill="#d4edda" stroke="#d0e0d0" points="1111,-38.62 1111,-145.62 1351,-145.62 1351,-38.62 1111,-38.62"/>
<text text-anchor="middle" x="1231" y="-128.32" font-family="Times,serif" font-size="14.00">MCP &amp; Skill (4)</text>
</g>
<g id="clust10" class="cluster">
<title>cluster_planmode</title>
<polygon fill="#d4edda" stroke="#d0e0d0" points="758,-38.62 758,-145.62 1103,-145.62 1103,-38.62 758,-38.62"/>
<text text-anchor="middle" x="930.5" y="-128.32" font-family="Times,serif" font-size="14.00">Plan &amp; Worktree (5)</text>
</g>
<g id="clust11" class="cluster">
<title>cluster_other</title>
<polygon fill="#d4edda" stroke="#d0e0d0" points="342,-38.62 342,-145.62 750,-145.62 750,-38.62 342,-38.62"/>
<text text-anchor="middle" x="546" y="-128.32" font-family="Times,serif" font-size="14.00">Other (~13)</text>
</g>
<g id="clust12" class="cluster">
<title>cluster_dispatch</title>
<polygon fill="#fafae8" stroke="#e0e0d0" points="1804,-513.02 1804,-813.27 2049,-813.27 2049,-513.02 1804,-513.02"/>
<text text-anchor="middle" x="1926.5" y="-795.97" font-family="Times,serif" font-size="14.00">Layer 4: Dispatch &amp; Execution</text>
</g>
<!-- Tool&lt;Input,Output,P&gt; -->
<g id="node1" class="node">
<title>Tool&lt;Input,Output,P&gt;</title>
<polygon fill="#ff9999" stroke="black" points="179.5,-100.5 16.5,-100.5 16.5,-28.75 179.5,-28.75 179.5,-100.5"/>
<text text-anchor="middle" x="98" y="-87.95" font-family="Helvetica,sans-Serif" font-size="9.00">Tool&lt;Input,Output,P&gt;</text>
<text text-anchor="middle" x="98" y="-75.2" font-family="Helvetica,sans-Serif" font-size="9.00">[Tool.ts:362]</text>
<text text-anchor="middle" x="98" y="-62.45" font-family="Helvetica,sans-Serif" font-size="9.00">name + inputSchema + call()</text>
<text text-anchor="middle" x="98" y="-49.7" font-family="Helvetica,sans-Serif" font-size="9.00">+ isReadOnly + isConcurrencySafe</text>
<text text-anchor="middle" x="98" y="-36.95" font-family="Helvetica,sans-Serif" font-size="9.00">+ isDestructive + checkPermissions</text>
</g>
<!-- ToolDef -->
<g id="node2" class="node">
<title>ToolDef</title>
<polygon fill="#ffb3b3" stroke="black" points="317.5,-407 232.5,-407 232.5,-347.8 317.5,-347.8 317.5,-407"/>
<text text-anchor="middle" x="275" y="-394.45" font-family="Helvetica,sans-Serif" font-size="9.00">ToolDef</text>
<text text-anchor="middle" x="275" y="-381.7" font-family="Helvetica,sans-Serif" font-size="9.00">[Tool.ts:721]</text>
<text text-anchor="middle" x="275" y="-368.95" font-family="Helvetica,sans-Serif" font-size="9.00">Partial&lt;Tool&gt;</text>
<text text-anchor="middle" x="275" y="-356.2" font-family="Helvetica,sans-Serif" font-size="9.00">(可省略默认方法)</text>
</g>
<!-- buildTool() -->
<g id="node3" class="node">
<title>buildTool()</title>
<polygon fill="#ffb3b3" stroke="black" points="315.88,-285.92 242.12,-285.92 242.12,-226.72 315.88,-226.72 315.88,-285.92"/>
<text text-anchor="middle" x="279" y="-273.37" font-family="Helvetica,sans-Serif" font-size="9.00">buildTool(def)</text>
<text text-anchor="middle" x="279" y="-260.62" font-family="Helvetica,sans-Serif" font-size="9.00">[Tool.ts:783]</text>
<text text-anchor="middle" x="279" y="-247.87" font-family="Helvetica,sans-Serif" font-size="9.00">填充默认值</text>
<text text-anchor="middle" x="279" y="-235.12" font-family="Helvetica,sans-Serif" font-size="9.00">→ 完整 Tool</text>
</g>
<!-- ToolDef&#45;&gt;buildTool() -->
<g id="edge1" class="edge">
<title>ToolDef&#45;&gt;buildTool()</title>
<path fill="none" stroke="black" d="M275.97,-347.57C276.47,-332.62 277.09,-314.1 277.64,-297.75"/>
<polygon fill="black" stroke="black" points="281.14,-297.92 277.98,-287.81 274.14,-297.68 281.14,-297.92"/>
<text text-anchor="middle" x="293.12" y="-309.85" font-family="Times,serif" font-size="14.00"> 输入</text>
</g>
<!-- buildTool()&#45;&gt;Tool&lt;Input,Output,P&gt; -->
<g id="edge2" class="edge">
<title>buildTool()&#45;&gt;Tool&lt;Input,Output,P&gt;</title>
<path fill="none" stroke="black" d="M241.99,-227.74C225.1,-214.44 205.28,-197.77 189,-181.12 167.52,-159.17 146.13,-132.34 129.49,-110.07"/>
<polygon fill="black" stroke="black" points="132.32,-108.01 123.57,-102.04 126.69,-112.17 132.32,-108.01"/>
<text text-anchor="middle" x="233.12" y="-194.95" font-family="Times,serif" font-size="14.00"> 输出</text>
</g>
<!-- TOOL_DEFAULTS -->
<g id="node4" class="node">
<title>TOOL_DEFAULTS</title>
<polygon fill="#ffcccc" stroke="black" points="318.12,-113.25 197.88,-113.25 197.88,-16 318.12,-16 318.12,-113.25"/>
<text text-anchor="middle" x="258" y="-100.7" font-family="Helvetica,sans-Serif" font-size="9.00">TOOL_DEFAULTS</text>
<text text-anchor="middle" x="258" y="-87.95" font-family="Helvetica,sans-Serif" font-size="9.00">[Tool.ts:757]</text>
<text text-anchor="middle" x="258" y="-75.2" font-family="Helvetica,sans-Serif" font-size="9.00">isEnabled=true</text>
<text text-anchor="middle" x="258" y="-62.45" font-family="Helvetica,sans-Serif" font-size="9.00">isConcurrencySafe=false</text>
<text text-anchor="middle" x="258" y="-49.7" font-family="Helvetica,sans-Serif" font-size="9.00">isReadOnly=false</text>
<text text-anchor="middle" x="258" y="-36.95" font-family="Helvetica,sans-Serif" font-size="9.00">isDestructive=false</text>
<text text-anchor="middle" x="258" y="-24.2" font-family="Helvetica,sans-Serif" font-size="9.00">checkPermissions=allow</text>
</g>
<!-- buildTool()&#45;&gt;TOOL_DEFAULTS -->
<g id="edge3" class="edge">
<title>buildTool()&#45;&gt;TOOL_DEFAULTS</title>
<path fill="none" stroke="black" stroke-dasharray="5,2" d="M275.81,-226.51C272.83,-199.6 268.29,-158.61 264.54,-124.74"/>
<polygon fill="black" stroke="black" points="268.05,-124.61 263.47,-115.06 261.09,-125.38 268.05,-124.61"/>
<text text-anchor="middle" x="310.5" y="-194.95" font-family="Times,serif" font-size="14.00"> 注入默认值</text>
</g>
<!-- FileReadTool -->
<g id="node10" class="node">
<title>FileReadTool</title>
<polygon fill="#99ff99" stroke="black" points="2733.25,-82.62 2664.75,-82.62 2664.75,-46.62 2733.25,-46.62 2733.25,-82.62"/>
<text text-anchor="middle" x="2699" y="-62.45" font-family="Helvetica,sans-Serif" font-size="9.00">FileReadTool</text>
</g>
<!-- buildTool()&#45;&gt;FileReadTool -->
<g id="edge5" class="edge">
<title>buildTool()&#45;&gt;FileReadTool</title>
<path fill="none" stroke="#666666" stroke-dasharray="5,2" d="M316.28,-254.62C478.93,-251.46 1142.65,-237.37 1687,-208.62 1806.7,-202.3 1836.24,-194.15 1956,-189.12 1965.71,-188.72 2648.05,-186.72 2656,-181.12 2683.9,-161.5 2693.73,-121.53 2697.17,-94.16"/>
<polygon fill="#666666" stroke="#666666" points="2700.63,-94.76 2698.16,-84.46 2693.66,-94.05 2700.63,-94.76"/>
</g>
<!-- FileEditTool -->
<g id="node12" class="node">
<title>FileEditTool</title>
<polygon fill="#99ff99" stroke="black" points="2558.62,-82.62 2495.38,-82.62 2495.38,-46.62 2558.62,-46.62 2558.62,-82.62"/>
<text text-anchor="middle" x="2527" y="-62.45" font-family="Helvetica,sans-Serif" font-size="9.00">FileEditTool</text>
</g>
<!-- buildTool()&#45;&gt;FileEditTool -->
<g id="edge6" class="edge">
<title>buildTool()&#45;&gt;FileEditTool</title>
<path fill="none" stroke="#666666" stroke-dasharray="5,2" d="M316.2,-251.68C439.04,-239.84 842.97,-202.47 1178,-189.12 1196.17,-188.4 2472.22,-191.71 2487,-181.12 2514.5,-161.42 2523.26,-121.47 2525.96,-94.13"/>
<polygon fill="#666666" stroke="#666666" points="2529.43,-94.67 2526.68,-84.44 2522.45,-94.15 2529.43,-94.67"/>
</g>
<!-- BashTool -->
<g id="node15" class="node">
<title>BashTool</title>
<polygon fill="#99ff99" stroke="black" points="2909.12,-82.62 2854.88,-82.62 2854.88,-46.62 2909.12,-46.62 2909.12,-82.62"/>
<text text-anchor="middle" x="2882" y="-62.45" font-family="Helvetica,sans-Serif" font-size="9.00">BashTool</text>
</g>
<!-- buildTool()&#45;&gt;BashTool -->
<g id="edge4" class="edge">
<title>buildTool()&#45;&gt;BashTool</title>
<path fill="none" stroke="#666666" stroke-dasharray="5,2" d="M316.09,-255.22C488.56,-254.53 1229.29,-249.24 1835,-208.62 1918.37,-203.03 1938.57,-193.87 2022,-189.12 2033.43,-188.48 2836.81,-187.95 2846,-181.12 2872.87,-161.15 2880.24,-121.27 2881.97,-94.01"/>
<polygon fill="#666666" stroke="#666666" points="2885.45,-94.49 2882.35,-84.36 2878.46,-94.22 2885.45,-94.49"/>
</g>
<!-- ToolUseContext -->
<g id="node5" class="node">
<title>ToolUseContext</title>
<polygon fill="#ffcccc" stroke="black" points="214,-413.27 84,-413.27 84,-341.52 214,-341.52 214,-413.27"/>
<text text-anchor="middle" x="149" y="-400.72" font-family="Helvetica,sans-Serif" font-size="9.00">ToolUseContext</text>
<text text-anchor="middle" x="149" y="-387.97" font-family="Helvetica,sans-Serif" font-size="9.00">[Tool.ts:158]</text>
<text text-anchor="middle" x="149" y="-375.22" font-family="Helvetica,sans-Serif" font-size="9.00">options, abortController,</text>
<text text-anchor="middle" x="149" y="-362.47" font-family="Helvetica,sans-Serif" font-size="9.00">readFileState, getAppState,</text>
<text text-anchor="middle" x="149" y="-349.72" font-family="Helvetica,sans-Serif" font-size="9.00">setAppState, ...</text>
</g>
<!-- getAllBaseTools() -->
<g id="node6" class="node">
<title>getAllBaseTools()</title>
<polygon fill="#99ccff" stroke="black" points="2190.62,-286.02 2067.38,-286.02 2067.38,-226.62 2190.62,-226.62 2190.62,-286.02"/>
<text text-anchor="middle" x="2129" y="-273.47" font-family="Helvetica,sans-Serif" font-size="9.00">getAllBaseTools()</text>
<text text-anchor="middle" x="2129" y="-260.72" font-family="Helvetica,sans-Serif" font-size="9.00">[tools.ts:193]</text>
<text text-anchor="middle" x="2129" y="-247.97" font-family="Helvetica,sans-Serif" font-size="9.00">返回所有可用 Tool 数组</text>
<text text-anchor="middle" x="2129" y="-235.02" font-family="Helvetica,sans-Serif" font-size="9.00">根据 feature flag 条件包含</text>
</g>
<!-- getAllBaseTools()&#45;&gt;FileReadTool -->
<g id="edge8" class="edge">
<title>getAllBaseTools()&#45;&gt;FileReadTool</title>
<path fill="none" stroke="black" stroke-dasharray="1,5" d="M2179.58,-226.17C2186.29,-223.21 2193.2,-220.58 2200,-218.62 2297.73,-190.57 2574.95,-242.51 2656,-181.12 2683.04,-160.64 2693.08,-121.23 2696.81,-94.19"/>
<polygon fill="black" stroke="black" points="2700.24,-94.94 2697.91,-84.61 2693.29,-94.14 2700.24,-94.94"/>
</g>
<!-- getAllBaseTools()&#45;&gt;BashTool -->
<g id="edge7" class="edge">
<title>getAllBaseTools()&#45;&gt;BashTool</title>
<path fill="none" stroke="black" stroke-dasharray="1,5" d="M2178.69,-226.13C2185.66,-223.09 2192.88,-220.45 2200,-218.62 2269.65,-200.8 2790.75,-227.13 2846,-181.12 2871.47,-159.91 2879.22,-120.96 2881.42,-94.2"/>
<polygon fill="black" stroke="black" points="2884.9,-94.56 2881.99,-84.38 2877.91,-94.16 2884.9,-94.56"/>
</g>
<!-- AgentTool -->
<g id="node20" class="node">
<title>AgentTool</title>
<polygon fill="#99ff99" stroke="black" points="2022,-82.62 1964,-82.62 1964,-46.62 2022,-46.62 2022,-82.62"/>
<text text-anchor="middle" x="1993" y="-62.45" font-family="Helvetica,sans-Serif" font-size="9.00">AgentTool</text>
</g>
<!-- getAllBaseTools()&#45;&gt;AgentTool -->
<g id="edge9" class="edge">
<title>getAllBaseTools()&#45;&gt;AgentTool</title>
<path fill="none" stroke="black" stroke-dasharray="1,5" d="M2117.45,-226.34C2110.6,-212.89 2100.57,-197.97 2087,-189.12 2067.04,-176.12 2052.38,-196.28 2034,-181.12 2008.09,-159.75 1998.55,-120.83 1995.03,-94.13"/>
<polygon fill="black" stroke="black" points="1998.53,-93.89 1993.97,-84.33 1991.57,-94.64 1998.53,-93.89"/>
</g>
<!-- ... -->
<g id="node36" class="node">
<title>...</title>
<polygon fill="#cccccc" stroke="black" points="404,-82.62 350,-82.62 350,-46.62 404,-46.62 404,-82.62"/>
<text text-anchor="middle" x="377" y="-62.55" font-family="Helvetica,sans-Serif" font-size="9.00">...其他</text>
</g>
<!-- getAllBaseTools()&#45;&gt;... -->
<g id="edge10" class="edge">
<title>getAllBaseTools()&#45;&gt;...</title>
<path fill="none" stroke="black" stroke-dasharray="1,5" d="M2067.1,-243.2C1981.91,-227.18 1823.54,-199.72 1687,-189.12 1669.36,-187.76 427.22,-191.66 413,-181.12 386.09,-161.2 378.74,-121.3 377.02,-94.03"/>
<polygon fill="black" stroke="black" points="380.53,-94.23 376.64,-84.38 373.53,-94.51 380.53,-94.23"/>
</g>
<!-- getTools(permCtx) -->
<g id="node7" class="node">
<title>getTools(permCtx)</title>
<polygon fill="#99ccff" stroke="black" points="2320.5,-407 2193.5,-407 2193.5,-347.8 2320.5,-347.8 2320.5,-407"/>
<text text-anchor="middle" x="2257" y="-394.45" font-family="Helvetica,sans-Serif" font-size="9.00">getTools(permCtx)</text>
<text text-anchor="middle" x="2257" y="-381.7" font-family="Helvetica,sans-Serif" font-size="9.00">[tools.ts:271]</text>
<text text-anchor="middle" x="2257" y="-368.95" font-family="Helvetica,sans-Serif" font-size="9.00">按 permission context 过滤</text>
<text text-anchor="middle" x="2257" y="-356" font-family="Helvetica,sans-Serif" font-size="9.00">+ filterToolsByDenyRules</text>
</g>
<!-- getTools(permCtx)&#45;&gt;getAllBaseTools() -->
<g id="edge11" class="edge">
<title>getTools(permCtx)&#45;&gt;getAllBaseTools()</title>
<path fill="none" stroke="black" d="M2210.18,-347.55C2199.85,-340.28 2189.3,-332.08 2180.25,-323.52 2171.37,-315.12 2162.79,-305.09 2155.27,-295.41"/>
<polygon fill="black" stroke="black" points="2158.14,-293.4 2149.33,-287.52 2152.55,-297.61 2158.14,-293.4"/>
<text text-anchor="middle" x="2217.88" y="-310.22" font-family="Times,serif" font-size="14.00"> 1. 获取全部</text>
</g>
<!-- filterToolsByDenyRules -->
<g id="node8" class="node">
<title>filterToolsByDenyRules</title>
<polygon fill="#b3d9ff" stroke="black" points="2321,-279.55 2209,-279.55 2209,-233.1 2321,-233.1 2321,-279.55"/>
<text text-anchor="middle" x="2265" y="-267" font-family="Helvetica,sans-Serif" font-size="9.00">filterToolsByDenyRules</text>
<text text-anchor="middle" x="2265" y="-254.25" font-family="Helvetica,sans-Serif" font-size="9.00">[tools.ts:262]</text>
<text text-anchor="middle" x="2265" y="-241.5" font-family="Helvetica,sans-Serif" font-size="9.00">按 deny 规则筛选</text>
</g>
<!-- getTools(permCtx)&#45;&gt;filterToolsByDenyRules -->
<g id="edge12" class="edge">
<title>getTools(permCtx)&#45;&gt;filterToolsByDenyRules</title>
<path fill="none" stroke="black" d="M2258.94,-347.57C2260.08,-330.6 2261.52,-309.05 2262.72,-291.26"/>
<polygon fill="black" stroke="black" points="2266.2,-291.65 2263.38,-281.44 2259.22,-291.18 2266.2,-291.65"/>
<text text-anchor="middle" x="2284.62" y="-310.22" font-family="Times,serif" font-size="14.00"> 2. 过滤</text>
</g>
<!-- findToolByName -->
<g id="node9" class="node">
<title>findToolByName</title>
<polygon fill="#b3d9ff" stroke="black" points="2159.25,-400.62 2066.75,-400.62 2066.75,-354.17 2159.25,-354.17 2159.25,-400.62"/>
<text text-anchor="middle" x="2113" y="-388.07" font-family="Helvetica,sans-Serif" font-size="9.00">findToolByName</text>
<text text-anchor="middle" x="2113" y="-375.32" font-family="Helvetica,sans-Serif" font-size="9.00">[Tool.ts:358]</text>
<text text-anchor="middle" x="2113" y="-362.57" font-family="Helvetica,sans-Serif" font-size="9.00">按名字 + alias 查找</text>
</g>
<!-- FileReadTool&#45;&gt;Tool&lt;Input,Output,P&gt; -->
<g id="edge23" class="edge">
<title>FileReadTool&#45;&gt;Tool&lt;Input,Output,P&gt;</title>
<path fill="none" stroke="#990000" stroke-dasharray="5,2" d="M2696.68,-93.98C2692.85,-120.44 2682.73,-157.92 2656,-176.27 2599.5,-215.05 250.9,-205.67 189,-176.27 156.36,-160.77 131.58,-127.19 116.18,-100.89"/>
<polygon fill="none" stroke="#990000" points="2700.13,-94.56 2697.85,-84.21 2693.18,-93.72 2700.13,-94.56"/>
<text text-anchor="middle" x="1224" y="-195.32" font-family="Times,serif" font-size="14.00"> implements</text>
</g>
<!-- FileWriteTool -->
<g id="node11" class="node">
<title>FileWriteTool</title>
<polygon fill="#99ff99" stroke="black" points="2647,-82.62 2577,-82.62 2577,-46.62 2647,-46.62 2647,-82.62"/>
<text text-anchor="middle" x="2612" y="-62.45" font-family="Helvetica,sans-Serif" font-size="9.00">FileWriteTool</text>
</g>
<!-- NotebookEditTool -->
<g id="node13" class="node">
<title>NotebookEditTool</title>
<polygon fill="#99ff99" stroke="black" points="2477.75,-82.62 2388.25,-82.62 2388.25,-46.62 2477.75,-46.62 2477.75,-82.62"/>
<text text-anchor="middle" x="2433" y="-62.45" font-family="Helvetica,sans-Serif" font-size="9.00">NotebookEditTool</text>
</g>
<!-- GlobTool -->
<g id="node14" class="node">
<title>GlobTool</title>
<polygon fill="#99ff99" stroke="black" points="2370,-82.62 2316,-82.62 2316,-46.62 2370,-46.62 2370,-82.62"/>
<text text-anchor="middle" x="2343" y="-62.45" font-family="Helvetica,sans-Serif" font-size="9.00">GlobTool</text>
</g>
<!-- BashTool&#45;&gt;Tool&lt;Input,Output,P&gt; -->
<g id="edge22" class="edge">
<title>BashTool&#45;&gt;Tool&lt;Input,Output,P&gt;</title>
<path fill="none" stroke="#990000" stroke-dasharray="5,2" d="M2881.54,-94.25C2879.35,-120.57 2871.55,-157.66 2846,-176.27 2786.34,-219.72 255.67,-207.94 189,-176.27 156.36,-160.77 131.58,-127.19 116.18,-100.89"/>
<polygon fill="none" stroke="#990000" points="2885.01,-94.72 2882.1,-84.54 2878.03,-94.32 2885.01,-94.72"/>
<text text-anchor="middle" x="1641" y="-195.32" font-family="Times,serif" font-size="14.00"> implements</text>
</g>
<!-- PowerShellTool -->
<g id="node16" class="node">
<title>PowerShellTool</title>
<polygon fill="#99ff99" stroke="black" points="2836.88,-82.62 2757.12,-82.62 2757.12,-46.62 2836.88,-46.62 2836.88,-82.62"/>
<text text-anchor="middle" x="2797" y="-62.45" font-family="Helvetica,sans-Serif" font-size="9.00">PowerShellTool</text>
</g>
<!-- GrepTool -->
<g id="node17" class="node">
<title>GrepTool</title>
<polygon fill="#99ff99" stroke="black" points="2292.12,-82.62 2237.88,-82.62 2237.88,-46.62 2292.12,-46.62 2292.12,-82.62"/>
<text text-anchor="middle" x="2265" y="-62.45" font-family="Helvetica,sans-Serif" font-size="9.00">GrepTool</text>
</g>
<!-- WebSearchTool -->
<g id="node18" class="node">
<title>WebSearchTool</title>
<polygon fill="#99ff99" stroke="black" points="2219.62,-82.62 2138.38,-82.62 2138.38,-46.62 2219.62,-46.62 2219.62,-82.62"/>
<text text-anchor="middle" x="2179" y="-62.45" font-family="Helvetica,sans-Serif" font-size="9.00">WebSearchTool</text>
</g>
<!-- WebFetchTool -->
<g id="node19" class="node">
<title>WebFetchTool</title>
<polygon fill="#99ff99" stroke="black" points="2120.25,-82.62 2045.75,-82.62 2045.75,-46.62 2120.25,-46.62 2120.25,-82.62"/>
<text text-anchor="middle" x="2083" y="-62.45" font-family="Helvetica,sans-Serif" font-size="9.00">WebFetchTool</text>
</g>
<!-- TeamCreateTool -->
<g id="node21" class="node">
<title>TeamCreateTool</title>
<polygon fill="#99ff99" stroke="black" points="1945.5,-82.62 1860.5,-82.62 1860.5,-46.62 1945.5,-46.62 1945.5,-82.62"/>
<text text-anchor="middle" x="1903" y="-62.45" font-family="Helvetica,sans-Serif" font-size="9.00">TeamCreateTool</text>
</g>
<!-- SendMessageTool -->
<g id="node22" class="node">
<title>SendMessageTool</title>
<polygon fill="#99ff99" stroke="black" points="1842.25,-82.62 1749.75,-82.62 1749.75,-46.62 1842.25,-46.62 1842.25,-82.62"/>
<text text-anchor="middle" x="1796" y="-62.45" font-family="Helvetica,sans-Serif" font-size="9.00">SendMessageTool</text>
</g>
<!-- TaskCreateTool -->
<g id="node23" class="node">
<title>TaskCreateTool</title>
<polygon fill="#99ff99" stroke="black" points="1726.25,-82.62 1645.75,-82.62 1645.75,-46.62 1726.25,-46.62 1726.25,-82.62"/>
<text text-anchor="middle" x="1686" y="-62.45" font-family="Helvetica,sans-Serif" font-size="9.00">TaskCreateTool</text>
</g>
<!-- TaskListTool -->
<g id="node24" class="node">
<title>TaskListTool</title>
<polygon fill="#99ff99" stroke="black" points="1628.12,-82.62 1561.88,-82.62 1561.88,-46.62 1628.12,-46.62 1628.12,-82.62"/>
<text text-anchor="middle" x="1595" y="-62.45" font-family="Helvetica,sans-Serif" font-size="9.00">TaskListTool</text>
</g>
<!-- TaskUpdateTool -->
<g id="node25" class="node">
<title>TaskUpdateTool</title>
<polygon fill="#99ff99" stroke="black" points="1543.38,-82.62 1460.62,-82.62 1460.62,-46.62 1543.38,-46.62 1543.38,-82.62"/>
<text text-anchor="middle" x="1502" y="-62.45" font-family="Helvetica,sans-Serif" font-size="9.00">TaskUpdateTool</text>
</g>
<!-- TodoWriteTool -->
<g id="node26" class="node">
<title>TodoWriteTool</title>
<polygon fill="#99ff99" stroke="black" points="1443,-82.62 1367,-82.62 1367,-46.62 1443,-46.62 1443,-82.62"/>
<text text-anchor="middle" x="1405" y="-62.45" font-family="Helvetica,sans-Serif" font-size="9.00">TodoWriteTool</text>
</g>
<!-- MCPTool -->
<g id="node27" class="node">
<title>MCPTool</title>
<polygon fill="#99ff99" stroke="black" points="1343,-82.62 1289,-82.62 1289,-46.62 1343,-46.62 1343,-82.62"/>
<text text-anchor="middle" x="1316" y="-62.45" font-family="Helvetica,sans-Serif" font-size="9.00">MCPTool</text>
</g>
<!-- SkillTool -->
<g id="node28" class="node">
<title>SkillTool</title>
<polygon fill="#99ff99" stroke="black" points="1271,-82.62 1217,-82.62 1217,-46.62 1271,-46.62 1271,-82.62"/>
<text text-anchor="middle" x="1244" y="-62.45" font-family="Helvetica,sans-Serif" font-size="9.00">SkillTool</text>
</g>
<!-- ToolSearchTool -->
<g id="node29" class="node">
<title>ToolSearchTool</title>
<polygon fill="#99ff99" stroke="black" points="1198.88,-82.62 1119.12,-82.62 1119.12,-46.62 1198.88,-46.62 1198.88,-82.62"/>
<text text-anchor="middle" x="1159" y="-62.45" font-family="Helvetica,sans-Serif" font-size="9.00">ToolSearchTool</text>
</g>
<!-- EnterPlanModeTool -->
<g id="node30" class="node">
<title>EnterPlanModeTool</title>
<polygon fill="#99ff99" stroke="black" points="1094.88,-82.62 997.12,-82.62 997.12,-46.62 1094.88,-46.62 1094.88,-82.62"/>
<text text-anchor="middle" x="1046" y="-62.45" font-family="Helvetica,sans-Serif" font-size="9.00">EnterPlanModeTool</text>
</g>
<!-- ExitPlanModeV2Tool -->
<g id="node31" class="node">
<title>ExitPlanModeV2Tool</title>
<polygon fill="#99ff99" stroke="black" points="979.38,-82.62 878.62,-82.62 878.62,-46.62 979.38,-46.62 979.38,-82.62"/>
<text text-anchor="middle" x="929" y="-62.45" font-family="Helvetica,sans-Serif" font-size="9.00">ExitPlanModeV2Tool</text>
</g>
<!-- EnterWorktreeTool -->
<g id="node32" class="node">
<title>EnterWorktreeTool</title>
<polygon fill="#99ff99" stroke="black" points="860.38,-82.62 765.62,-82.62 765.62,-46.62 860.38,-46.62 860.38,-82.62"/>
<text text-anchor="middle" x="813" y="-62.45" font-family="Helvetica,sans-Serif" font-size="9.00">EnterWorktreeTool</text>
</g>
<!-- AskUserQuestionTool -->
<g id="node33" class="node">
<title>AskUserQuestionTool</title>
<polygon fill="#99ff99" stroke="black" points="742,-82.62 636,-82.62 636,-46.62 742,-46.62 742,-82.62"/>
<text text-anchor="middle" x="689" y="-62.45" font-family="Helvetica,sans-Serif" font-size="9.00">AskUserQuestionTool</text>
</g>
<!-- CronCreateTool -->
<g id="node34" class="node">
<title>CronCreateTool</title>
<polygon fill="#99ff99" stroke="black" points="618,-82.62 536,-82.62 536,-46.62 618,-46.62 618,-82.62"/>
<text text-anchor="middle" x="577" y="-62.45" font-family="Helvetica,sans-Serif" font-size="9.00">CronCreateTool</text>
</g>
<!-- RemoteTriggerTool -->
<g id="node35" class="node">
<title>RemoteTriggerTool</title>
<polygon fill="#99ff99" stroke="black" points="517.75,-82.62 422.25,-82.62 422.25,-46.62 517.75,-46.62 517.75,-82.62"/>
<text text-anchor="middle" x="470" y="-62.45" font-family="Helvetica,sans-Serif" font-size="9.00">RemoteTriggerTool</text>
</g>
<!-- query.ts queryLoop -->
<g id="node37" class="node">
<title>query.ts queryLoop</title>
<polygon fill="#ffff99" stroke="black" points="2034.12,-750.27 1967.88,-750.27 1967.88,-714.27 2034.12,-714.27 2034.12,-750.27"/>
<text text-anchor="middle" x="2001" y="-736.47" font-family="Helvetica,sans-Serif" font-size="9.00">query.ts</text>
<text text-anchor="middle" x="2001" y="-723.72" font-family="Helvetica,sans-Serif" font-size="9.00">queryLoop()</text>
</g>
<!-- query.ts queryLoop&#45;&gt;getTools(permCtx) -->
<g id="edge13" class="edge">
<title>query.ts queryLoop&#45;&gt;getTools(permCtx)</title>
<path fill="none" stroke="#0066ff" d="M2034.35,-731.31C2093.06,-730.6 2211.23,-725.48 2238,-696.27 2308.1,-619.8 2285.64,-484.65 2268.65,-417.93"/>
<polygon fill="#0066ff" stroke="#0066ff" points="2272.11,-417.29 2266.17,-408.52 2265.34,-419.09 2272.11,-417.29"/>
<text text-anchor="middle" x="2320.5" y="-591.1" font-family="Times,serif" font-size="14.00"> 启动时获取</text>
</g>
<!-- StreamingToolExecutor -->
<g id="node38" class="node">
<title>StreamingToolExecutor</title>
<polygon fill="#ffff99" stroke="black" points="2006.38,-658.77 1887.62,-658.77 1887.62,-622.77 2006.38,-622.77 2006.38,-658.77"/>
<text text-anchor="middle" x="1947" y="-644.97" font-family="Helvetica,sans-Serif" font-size="9.00">StreamingToolExecutor</text>
<text text-anchor="middle" x="1947" y="-632.22" font-family="Helvetica,sans-Serif" font-size="9.00">addTool() / executeTool()</text>
</g>
<!-- query.ts queryLoop&#45;&gt;StreamingToolExecutor -->
<g id="edge16" class="edge">
<title>query.ts queryLoop&#45;&gt;StreamingToolExecutor</title>
<path fill="none" stroke="black" d="M1967.65,-725.87C1950.24,-721.17 1930.39,-712.44 1919.75,-696.27 1913.97,-687.48 1916.79,-677.3 1922.4,-668.13"/>
<polygon fill="black" stroke="black" points="1925.07,-670.41 1928.13,-660.26 1919.42,-666.29 1925.07,-670.41"/>
<text text-anchor="middle" x="1942.62" y="-682.97" font-family="Times,serif" font-size="14.00"> 6. 分发</text>
</g>
<!-- Claude API -->
<g id="node41" class="node">
<title>Claude API</title>
<path fill="#f0f0f0" stroke="black" d="M2133.88,-655.5C2133.88,-657.31 2120.04,-658.77 2103,-658.77 2085.96,-658.77 2072.12,-657.31 2072.12,-655.5 2072.12,-655.5 2072.12,-626.04 2072.12,-626.04 2072.12,-624.24 2085.96,-622.77 2103,-622.77 2120.04,-622.77 2133.88,-624.24 2133.88,-626.04 2133.88,-626.04 2133.88,-655.5 2133.88,-655.5"/>
<path fill="none" stroke="black" d="M2133.88,-655.5C2133.88,-653.69 2120.04,-652.23 2103,-652.23 2085.96,-652.23 2072.12,-653.69 2072.12,-655.5"/>
<text text-anchor="middle" x="2103" y="-638.6" font-family="Helvetica,sans-Serif" font-size="9.00">Claude API</text>
</g>
<!-- query.ts queryLoop&#45;&gt;Claude API -->
<g id="edge14" class="edge">
<title>query.ts queryLoop&#45;&gt;Claude API</title>
<path fill="none" stroke="black" d="M2034.24,-727.46C2054.88,-723.28 2080.22,-714.55 2095,-696.27 2100.81,-689.09 2103.38,-679.56 2104.32,-670.48"/>
<polygon fill="black" stroke="black" points="2107.81,-670.68 2104.69,-660.55 2100.82,-670.41 2107.81,-670.68"/>
<text text-anchor="middle" x="2168.62" y="-682.97" font-family="Times,serif" font-size="14.00"> tools schema → API</text>
</g>
<!-- StreamingToolExecutor&#45;&gt;findToolByName -->
<g id="edge17" class="edge">
<title>StreamingToolExecutor&#45;&gt;findToolByName</title>
<path fill="none" stroke="black" stroke-dasharray="5,2" d="M1990.28,-622.45C2000.21,-617.49 2010.37,-611.56 2019,-604.77 2036,-591.41 2039.51,-586.18 2050,-567.27 2078.17,-516.48 2096.5,-451 2105.77,-411.99"/>
<polygon fill="black" stroke="black" points="2109.13,-413.02 2107.97,-402.49 2102.31,-411.45 2109.13,-413.02"/>
<text text-anchor="middle" x="2097.62" y="-540.6" font-family="Times,serif" font-size="14.00"> 7. 查找</text>
</g>
<!-- canUseTool() -->
<g id="node39" class="node">
<title>canUseTool()</title>
<polygon fill="#ffffcc" stroke="black" points="1913.75,-567.27 1812.25,-567.27 1812.25,-521.02 1913.75,-521.02 1913.75,-567.27"/>
<text text-anchor="middle" x="1863" y="-554.72" font-family="Helvetica,sans-Serif" font-size="9.00">canUseTool()</text>
<text text-anchor="middle" x="1863" y="-541.97" font-family="Helvetica,sans-Serif" font-size="9.00">[useCanUseTool.tsx]</text>
<text text-anchor="middle" x="1863" y="-529.22" font-family="Helvetica,sans-Serif" font-size="9.00">allow/deny/ask</text>
</g>
<!-- StreamingToolExecutor&#45;&gt;canUseTool() -->
<g id="edge18" class="edge">
<title>StreamingToolExecutor&#45;&gt;canUseTool()</title>
<path fill="none" stroke="black" d="M1927.51,-622.5C1921.62,-617.01 1915.26,-610.8 1909.75,-604.77 1901.69,-595.96 1893.48,-585.91 1886.22,-576.59"/>
<polygon fill="black" stroke="black" points="1889.11,-574.61 1880.25,-568.8 1883.56,-578.87 1889.11,-574.61"/>
<text text-anchor="middle" x="1932.62" y="-591.47" font-family="Times,serif" font-size="14.00"> 8. 权限</text>
</g>
<!-- tool.call() -->
<g id="node40" class="node">
<title>tool.call()</title>
<polygon fill="#ffffcc" stroke="black" points="2040.5,-562.15 1931.5,-562.15 1931.5,-526.15 2040.5,-526.15 2040.5,-562.15"/>
<text text-anchor="middle" x="1986" y="-548.35" font-family="Helvetica,sans-Serif" font-size="9.00">tool.call(args, ctx, ...)</text>
<text text-anchor="middle" x="1986" y="-535.6" font-family="Helvetica,sans-Serif" font-size="9.00">→ ToolResult&lt;Output&gt;</text>
</g>
<!-- StreamingToolExecutor&#45;&gt;tool.call() -->
<g id="edge19" class="edge">
<title>StreamingToolExecutor&#45;&gt;tool.call()</title>
<path fill="none" stroke="black" d="M1954.15,-622.42C1959.87,-608.54 1967.99,-588.84 1974.6,-572.79"/>
<polygon fill="black" stroke="black" points="1977.74,-574.37 1978.32,-563.79 1971.27,-571.7 1977.74,-574.37"/>
<text text-anchor="middle" x="1991.62" y="-591.47" font-family="Times,serif" font-size="14.00"> 9. 执行</text>
</g>
<!-- tool.call()&#45;&gt;ToolUseContext -->
<g id="edge20" class="edge">
<title>tool.call()&#45;&gt;ToolUseContext</title>
<path fill="none" stroke="black" stroke-dasharray="5,2" d="M1956.2,-525.71C1946.01,-520.63 1934.32,-515.72 1923,-513.02 1831.16,-491.15 308.2,-518.97 224,-476.27 201.52,-464.87 183.86,-443.26 171.33,-423.23"/>
<polygon fill="black" stroke="black" points="174.49,-421.69 166.37,-414.88 168.47,-425.27 174.49,-421.69"/>
<text text-anchor="middle" x="1371.12" y="-489.72" font-family="Times,serif" font-size="14.00"> 读取</text>
</g>
<!-- tool.call()&#45;&gt;BashTool -->
<g id="edge21" class="edge">
<title>tool.call()&#45;&gt;BashTool</title>
<path fill="none" stroke="#cccccc" stroke-dasharray="5,2" d="M1983.33,-525.88C1975.93,-470.82 1961.39,-298.38 2055,-218.62 2104.88,-176.13 2578.54,-192.06 2644,-189.12 2655.22,-188.62 2837.09,-187.96 2846,-181.12 2872.45,-160.84 2879.94,-121.32 2881.82,-94.21"/>
<polygon fill="#cccccc" stroke="#cccccc" points="2885.31,-94.4 2882.26,-84.25 2878.32,-94.08 2885.31,-94.4"/>
</g>
<!-- Claude API&#45;&gt;query.ts queryLoop -->
<g id="edge15" class="edge">
<title>Claude API&#45;&gt;query.ts queryLoop</title>
<path fill="none" stroke="#006600" d="M2071.63,-652.79C2065.48,-654.85 2059.05,-656.93 2053,-658.77 2023.5,-667.74 2004.76,-652.3 1986,-676.77 1980.08,-684.5 1981,-694.42 1984.34,-703.67"/>
<polygon fill="#006600" stroke="#006600" points="1981.13,-705.06 1988.49,-712.68 1987.49,-702.14 1981.13,-705.06"/>
<text text-anchor="middle" x="2038.5" y="-682.97" font-family="Times,serif" font-size="14.00"> tool_use blocks</text>
</g>
</g>
</svg>
