<?xml version="1.0" encoding="UTF-8" standalone="no"?>
<!DOCTYPE svg PUBLIC "-//W3C//DTD SVG 1.1//EN"
 "http://www.w3.org/Graphics/SVG/1.1/DTD/svg11.dtd">
<!-- Generated by graphviz version 9.0.0 (20230911.1827)
 -->
<!-- Pages: 1 -->
<svg width="1106pt" height="1499pt"
 viewBox="0.00 0.00 1105.50 1498.50" xmlns="http://www.w3.org/2000/svg" xmlns:xlink="http://www.w3.org/1999/xlink">
<g id="graph0" class="graph" transform="scale(1 1) rotate(0) translate(4 1494.5)">
<polygon fill="white" stroke="none" points="-4,4 -4,-1494.5 1101.5,-1494.5 1101.5,4 -4,4"/>
<text text-anchor="middle" x="548.75" y="-1473.2" font-family="Times,serif" font-size="14.00">Layer 1: 9 files</text>
<!-- bootstrap/state.ts -->
<g id="node1" class="node">
<title>bootstrap/state.ts</title>
<polygon fill="#ffcc99" stroke="black" points="873,-1220 786.5,-1220 786.5,-1184 873,-1184 873,-1220"/>
<text text-anchor="middle" x="829.75" y="-1199.83" font-family="Times,serif" font-size="9.00">bootstrap/state.ts</text>
</g>
<!-- entrypoints/agentSdkTypes.ts -->
<g id="node6" class="node">
<title>entrypoints/agentSdkTypes.ts</title>
<polygon fill="#ffff99" stroke="black" points="1079.5,-1409 939.75,-1409 939.75,-1373 1079.5,-1373 1079.5,-1409"/>
<text text-anchor="middle" x="1009.62" y="-1388.83" font-family="Times,serif" font-size="9.00">entrypoints/agentSdkTypes.ts</text>
</g>
<!-- bootstrap/state.ts&#45;&gt;entrypoints/agentSdkTypes.ts -->
<g id="edge1" class="edge">
<title>bootstrap/state.ts&#45;&gt;entrypoints/agentSdkTypes.ts</title>
<path fill="none" stroke="black" d="M836.02,-1220.27C846.63,-1253.77 873.72,-1325.15 921.75,-1364 924.28,-1366.05 926.97,-1367.94 929.77,-1369.69"/>
<polygon fill="black" stroke="black" points="927.9,-1372.66 938.35,-1374.38 931.26,-1366.52 927.9,-1372.66"/>
</g>
<!-- tools/AgentTool/agentColorManager.ts -->
<g id="node12" class="node">
<title>tools/AgentTool/agentColorManager.ts</title>
<polygon fill="#ffff99" stroke="black" points="1097.5,-1355 921.75,-1355 921.75,-1319 1097.5,-1319 1097.5,-1355"/>
<text text-anchor="middle" x="1009.62" y="-1334.83" font-family="Times,serif" font-size="9.00">tools/AgentTool/agentColorManager.ts</text>
</g>
<!-- bootstrap/state.ts&#45;&gt;tools/AgentTool/agentColorManager.ts -->
<g id="edge2" class="edge">
<title>bootstrap/state.ts&#45;&gt;tools/AgentTool/agentColorManager.ts</title>
<path fill="none" stroke="black" d="M841.58,-1220.47C856.6,-1244.52 886,-1286.27 921.75,-1310 923.58,-1311.21 925.46,-1312.37 927.39,-1313.48"/>
<polygon fill="black" stroke="black" points="925.52,-1316.46 936.01,-1317.93 928.73,-1310.24 925.52,-1316.46"/>
</g>
<!-- types/hooks.ts -->
<g id="node13" class="node">
<title>types/hooks.ts</title>
<polygon fill="#ffff99" stroke="black" points="1046.88,-1301 972.38,-1301 972.38,-1265 1046.88,-1265 1046.88,-1301"/>
<text text-anchor="middle" x="1009.62" y="-1280.83" font-family="Times,serif" font-size="9.00">types/hooks.ts</text>
</g>
<!-- bootstrap/state.ts&#45;&gt;types/hooks.ts -->
<g id="edge3" class="edge">
<title>bootstrap/state.ts&#45;&gt;types/hooks.ts</title>
<path fill="none" stroke="black" d="M857.73,-1220.29C875.38,-1231.67 899.26,-1246 921.75,-1256 934.26,-1261.57 948.27,-1266.46 961.32,-1270.5"/>
<polygon fill="black" stroke="black" points="959.97,-1273.75 970.55,-1273.25 961.97,-1267.04 959.97,-1273.75"/>
</g>
<!-- types/ids.ts -->
<g id="node14" class="node">
<title>types/ids.ts</title>
<polygon fill="#ffff99" stroke="black" points="1040.12,-1247 979.12,-1247 979.12,-1211 1040.12,-1211 1040.12,-1247"/>
<text text-anchor="middle" x="1009.62" y="-1226.83" font-family="Times,serif" font-size="9.00">types/ids.ts</text>
</g>
<!-- bootstrap/state.ts&#45;&gt;types/ids.ts -->
<g id="edge4" class="edge">
<title>bootstrap/state.ts&#45;&gt;types/ids.ts</title>
<path fill="none" stroke="black" d="M873.36,-1208.47C901.99,-1212.81 939.52,-1218.51 967.78,-1222.8"/>
<polygon fill="black" stroke="black" points="966.98,-1226.22 977.39,-1224.26 968.03,-1219.3 966.98,-1226.22"/>
</g>
<!-- utils/crypto.ts -->
<g id="node19" class="node">
<title>utils/crypto.ts</title>
<polygon fill="#ffff99" stroke="black" points="1046.5,-1193 972.75,-1193 972.75,-1157 1046.5,-1157 1046.5,-1193"/>
<text text-anchor="middle" x="1009.62" y="-1172.83" font-family="Times,serif" font-size="9.00">utils/crypto.ts</text>
</g>
<!-- bootstrap/state.ts&#45;&gt;utils/crypto.ts -->
<g id="edge5" class="edge">
<title>bootstrap/state.ts&#45;&gt;utils/crypto.ts</title>
<path fill="none" stroke="black" d="M873.36,-1195.53C899.8,-1191.52 933.81,-1186.36 961.12,-1182.21"/>
<polygon fill="black" stroke="black" points="961.52,-1185.69 970.88,-1180.73 960.46,-1178.77 961.52,-1185.69"/>
</g>
<!-- utils/model/model.ts -->
<g id="node40" class="node">
<title>utils/model/model.ts</title>
<polygon fill="#ffff99" stroke="black" points="1060,-1139 959.25,-1139 959.25,-1103 1060,-1103 1060,-1139"/>
<text text-anchor="middle" x="1009.62" y="-1118.83" font-family="Times,serif" font-size="9.00">utils/model/model.ts</text>
</g>
<!-- bootstrap/state.ts&#45;&gt;utils/model/model.ts -->
<g id="edge6" class="edge">
<title>bootstrap/state.ts&#45;&gt;utils/model/model.ts</title>
<path fill="none" stroke="black" d="M857.73,-1183.71C875.38,-1172.33 899.26,-1158 921.75,-1148 930.16,-1144.26 939.25,-1140.82 948.27,-1137.74"/>
<polygon fill="black" stroke="black" points="949.33,-1141.08 957.74,-1134.64 947.15,-1134.43 949.33,-1141.08"/>
</g>
<!-- utils/model/modelStrings.ts -->
<g id="node41" class="node">
<title>utils/model/modelStrings.ts</title>
<polygon fill="#ffff99" stroke="black" points="1075,-1085 944.25,-1085 944.25,-1049 1075,-1049 1075,-1085"/>
<text text-anchor="middle" x="1009.62" y="-1064.83" font-family="Times,serif" font-size="9.00">utils/model/modelStrings.ts</text>
</g>
<!-- bootstrap/state.ts&#45;&gt;utils/model/modelStrings.ts -->
<g id="edge7" class="edge">
<title>bootstrap/state.ts&#45;&gt;utils/model/modelStrings.ts</title>
<path fill="none" stroke="black" d="M841.58,-1183.53C856.6,-1159.48 886,-1117.73 921.75,-1094 925.49,-1091.52 929.47,-1089.25 933.6,-1087.19"/>
<polygon fill="black" stroke="black" points="935.03,-1090.38 942.7,-1083.08 932.15,-1084 935.03,-1090.38"/>
</g>
<!-- utils/settings/constants.ts -->
<g id="node45" class="node">
<title>utils/settings/constants.ts</title>
<polygon fill="#ffff99" stroke="black" points="1069.75,-1463 949.5,-1463 949.5,-1427 1069.75,-1427 1069.75,-1463"/>
<text text-anchor="middle" x="1009.62" y="-1442.83" font-family="Times,serif" font-size="9.00">utils/settings/constants.ts</text>
</g>
<!-- bootstrap/state.ts&#45;&gt;utils/settings/constants.ts -->
<g id="edge8" class="edge">
<title>bootstrap/state.ts&#45;&gt;utils/settings/constants.ts</title>
<path fill="none" stroke="black" d="M833.21,-1220.33C839.73,-1261.74 861.32,-1363.19 921.75,-1418 926.89,-1422.67 932.83,-1426.53 939.14,-1429.72"/>
<polygon fill="black" stroke="black" points="937.36,-1432.75 947.92,-1433.59 940.19,-1426.35 937.36,-1432.75"/>
</g>
<!-- utils/settings/settingsCache.ts -->
<g id="node47" class="node">
<title>utils/settings/settingsCache.ts</title>
<polygon fill="#ffff99" stroke="black" points="1078,-1031 941.25,-1031 941.25,-995 1078,-995 1078,-1031"/>
<text text-anchor="middle" x="1009.62" y="-1010.83" font-family="Times,serif" font-size="9.00">utils/settings/settingsCache.ts</text>
</g>
<!-- bootstrap/state.ts&#45;&gt;utils/settings/settingsCache.ts -->
<g id="edge9" class="edge">
<title>bootstrap/state.ts&#45;&gt;utils/settings/settingsCache.ts</title>
<path fill="none" stroke="black" d="M836.02,-1183.73C846.63,-1150.23 873.72,-1078.85 921.75,-1040 924.64,-1037.67 927.72,-1035.53 930.95,-1033.58"/>
<polygon fill="black" stroke="black" points="932.46,-1036.75 939.66,-1028.98 929.19,-1030.56 932.46,-1036.75"/>
</g>
<!-- utils/settings/types.ts -->
<g id="node48" class="node">
<title>utils/settings/types.ts</title>
<polygon fill="#ffff99" stroke="black" points="1060.38,-977 958.88,-977 958.88,-941 1060.38,-941 1060.38,-977"/>
<text text-anchor="middle" x="1009.62" y="-956.83" font-family="Times,serif" font-size="9.00">utils/settings/types.ts</text>
</g>
<!-- bootstrap/state.ts&#45;&gt;utils/settings/types.ts -->
<g id="edge10" class="edge">
<title>bootstrap/state.ts&#45;&gt;utils/settings/types.ts</title>
<path fill="none" stroke="black" d="M833.21,-1183.67C839.73,-1142.26 861.32,-1040.81 921.75,-986 929.23,-979.22 938.39,-974.14 947.93,-970.33"/>
<polygon fill="black" stroke="black" points="949.06,-973.64 957.36,-967.05 946.77,-967.03 949.06,-973.64"/>
</g>
<!-- utils/signal.ts -->
<g id="node49" class="node">
<title>utils/signal.ts</title>
<polygon fill="#ffff99" stroke="black" points="1045.38,-923 973.88,-923 973.88,-887 1045.38,-887 1045.38,-923"/>
<text text-anchor="middle" x="1009.62" y="-902.83" font-family="Times,serif" font-size="9.00">utils/signal.ts</text>
</g>
<!-- bootstrap/state.ts&#45;&gt;utils/signal.ts -->
<g id="edge11" class="edge">
<title>bootstrap/state.ts&#45;&gt;utils/signal.ts</title>
<path fill="none" stroke="black" d="M831.44,-1183.62C834.28,-1135.28 848.67,-1003.37 921.75,-932 932.74,-921.27 947.91,-914.8 962.5,-910.89"/>
<polygon fill="black" stroke="black" points="963.03,-914.37 971.99,-908.72 961.46,-907.54 963.03,-914.37"/>
</g>
<!-- constants/common.ts -->
<g id="node2" class="node">
<title>constants/common.ts</title>
<polygon fill="#ffcc99" stroke="black" points="197.75,-854 92.5,-854 92.5,-818 197.75,-818 197.75,-854"/>
<text text-anchor="middle" x="145.12" y="-833.83" font-family="Times,serif" font-size="9.00">constants/common.ts</text>
</g>
<!-- constants/files.ts -->
<g id="node3" class="node">
<title>constants/files.ts</title>
<polygon fill="#ffff99" stroke="black" points="526.75,-432 441.75,-432 441.75,-396 526.75,-396 526.75,-432"/>
<text text-anchor="middle" x="484.25" y="-411.82" font-family="Times,serif" font-size="9.00">constants/files.ts</text>
</g>
<!-- constants/xml.ts -->
<g id="node4" class="node">
<title>constants/xml.ts</title>
<polygon fill="#ffff99" stroke="black" points="871.88,-406 787.62,-406 787.62,-370 871.88,-370 871.88,-406"/>
<text text-anchor="middle" x="829.75" y="-385.82" font-family="Times,serif" font-size="9.00">constants/xml.ts</text>
</g>
<!-- context.ts -->
<g id="node5" class="node">
<title>context.ts</title>
<polygon fill="#ff9999" stroke="black" points="56.5,-405 0,-405 0,-369 56.5,-369 56.5,-405"/>
<text text-anchor="middle" x="28.25" y="-384.82" font-family="Times,serif" font-size="9.00">context.ts</text>
</g>
<!-- context.ts&#45;&gt;bootstrap/state.ts -->
<g id="edge12" class="edge">
<title>context.ts&#45;&gt;bootstrap/state.ts</title>
<path fill="none" stroke="black" d="M30.67,-405.33C35.8,-469.08 55.16,-686.84 92.5,-863 142.74,-1100.03 67.46,-1363 309.75,-1363 309.75,-1363 309.75,-1363 485.25,-1363 611.27,-1363 740.81,-1273.05 798.2,-1227.62"/>
<polygon fill="black" stroke="black" points="800.32,-1230.41 805.92,-1221.42 795.94,-1224.95 800.32,-1230.41"/>
</g>
<!-- context.ts&#45;&gt;constants/common.ts -->
<g id="edge13" class="edge">
<title>context.ts&#45;&gt;constants/common.ts</title>
<path fill="none" stroke="black" d="M29.83,-405.26C32.44,-477.47 45.12,-742.47 92.5,-809 92.65,-809.21 92.8,-809.41 92.95,-809.61"/>
<polygon fill="black" stroke="black" points="90.37,-811.98 99.85,-816.72 95.39,-807.11 90.37,-811.98"/>
</g>
<!-- utils/claudemd.ts -->
<g id="node17" class="node">
<title>utils/claudemd.ts</title>
<polygon fill="#ffcc99" stroke="black" points="189.12,-800 101.12,-800 101.12,-764 189.12,-764 189.12,-800"/>
<text text-anchor="middle" x="145.12" y="-779.83" font-family="Times,serif" font-size="9.00">utils/claudemd.ts</text>
</g>
<!-- context.ts&#45;&gt;utils/claudemd.ts -->
<g id="edge14" class="edge">
<title>context.ts&#45;&gt;utils/claudemd.ts</title>
<path fill="none" stroke="black" d="M34.56,-405.26C52.86,-468.18 113.4,-676.34 135.74,-753.18"/>
<polygon fill="black" stroke="black" points="132.3,-753.86 138.45,-762.48 139.02,-751.9 132.3,-753.86"/>
</g>
<!-- utils/diagLogs.ts -->
<g id="node23" class="node">
<title>utils/diagLogs.ts</title>
<polygon fill="#ffcc99" stroke="black" points="525.62,-670 442.88,-670 442.88,-634 525.62,-634 525.62,-670"/>
<text text-anchor="middle" x="484.25" y="-649.83" font-family="Times,serif" font-size="9.00">utils/diagLogs.ts</text>
</g>
<!-- context.ts&#45;&gt;utils/diagLogs.ts -->
<g id="edge15" class="edge">
<title>context.ts&#45;&gt;utils/diagLogs.ts</title>
<path fill="none" stroke="black" d="M56.94,-393.3C136.88,-411.71 363.88,-465.67 387.75,-490 431.24,-534.33 383.62,-577.61 423.75,-625 426.44,-628.17 429.58,-630.99 432.98,-633.49"/>
<polygon fill="black" stroke="black" points="430.86,-636.29 441.2,-638.59 434.55,-630.34 430.86,-636.29"/>
</g>
<!-- utils/envUtils.ts -->
<g id="node25" class="node">
<title>utils/envUtils.ts</title>
<polygon fill="#ffcc99" stroke="black" points="870.38,-75 789.12,-75 789.12,-39 870.38,-39 870.38,-75"/>
<text text-anchor="middle" x="829.75" y="-54.83" font-family="Times,serif" font-size="9.00">utils/envUtils.ts</text>
</g>
<!-- context.ts&#45;&gt;utils/envUtils.ts -->
<g id="edge16" class="edge">
<title>context.ts&#45;&gt;utils/envUtils.ts</title>
<path fill="none" stroke="black" d="M31.21,-368.82C37.54,-312.94 59.02,-144.95 92.5,-103 159.16,-19.48 202.89,0 309.75,0 309.75,0 309.75,0 485.25,0 590.25,0 710.91,-26.24 777.63,-43.11"/>
<polygon fill="black" stroke="black" points="776.63,-46.47 787.19,-45.57 778.37,-39.69 776.63,-46.47"/>
</g>
<!-- utils/execFileNoThrow.ts -->
<g id="node27" class="node">
<title>utils/execFileNoThrow.ts</title>
<polygon fill="#ffcc99" stroke="black" points="544.75,-140 423.75,-140 423.75,-104 544.75,-104 544.75,-140"/>
<text text-anchor="middle" x="484.25" y="-119.83" font-family="Times,serif" font-size="9.00">utils/execFileNoThrow.ts</text>
</g>
<!-- context.ts&#45;&gt;utils/execFileNoThrow.ts -->
<g id="edge17" class="edge">
<title>context.ts&#45;&gt;utils/execFileNoThrow.ts</title>
<path fill="none" stroke="black" d="M31.5,-368.8C38.08,-318.93 58.9,-181.94 92.5,-154 182.03,-79.55 326.39,-90.31 412.32,-105.65"/>
<polygon fill="black" stroke="black" points="411.58,-109.07 422.05,-107.45 412.86,-102.18 411.58,-109.07"/>
</g>
<!-- utils/git.ts -->
<g id="node33" class="node">
<title>utils/git.ts</title>
<polygon fill="#ffcc99" stroke="black" points="339,-405 282.5,-405 282.5,-369 339,-369 339,-405"/>
<text text-anchor="middle" x="310.75" y="-384.82" font-family="Times,serif" font-size="9.00">utils/git.ts</text>
</g>
<!-- context.ts&#45;&gt;utils/git.ts -->
<g id="edge18" class="edge">
<title>context.ts&#45;&gt;utils/git.ts</title>
<path fill="none" stroke="black" d="M56.91,-387C107.11,-387 213.3,-387 270.8,-387"/>
<polygon fill="black" stroke="black" points="270.78,-390.5 280.78,-387 270.78,-383.5 270.78,-390.5"/>
</g>
<!-- utils/gitSettings.ts -->
<g id="node35" class="node">
<title>utils/gitSettings.ts</title>
<polygon fill="#ffcc99" stroke="black" points="189.88,-232 100.38,-232 100.38,-196 189.88,-196 189.88,-232"/>
<text text-anchor="middle" x="145.12" y="-211.82" font-family="Times,serif" font-size="9.00">utils/gitSettings.ts</text>
</g>
<!-- context.ts&#45;&gt;utils/gitSettings.ts -->
<g id="edge19" class="edge">
<title>context.ts&#45;&gt;utils/gitSettings.ts</title>
<path fill="none" stroke="black" d="M41.33,-368.81C61.44,-338.52 101.93,-277.54 125.65,-241.82"/>
<polygon fill="black" stroke="black" points="128.41,-243.99 131.03,-233.72 122.58,-240.12 128.41,-243.99"/>
</g>
<!-- utils/log.ts -->
<g id="node37" class="node">
<title>utils/log.ts</title>
<polygon fill="#ffcc99" stroke="black" points="688.62,-520 629.88,-520 629.88,-484 688.62,-484 688.62,-520"/>
<text text-anchor="middle" x="659.25" y="-499.82" font-family="Times,serif" font-size="9.00">utils/log.ts</text>
</g>
<!-- context.ts&#45;&gt;utils/log.ts -->
<g id="edge20" class="edge">
<title>context.ts&#45;&gt;utils/log.ts</title>
<path fill="none" stroke="black" d="M28.57,-368.65C28.19,-327.9 33.74,-230.04 92.5,-187 198.36,-109.45 257.45,-171.46 387.75,-187 459.04,-195.5 490.29,-178.22 544.75,-225 621.12,-290.6 646.9,-415.54 654.93,-472.44"/>
<polygon fill="black" stroke="black" points="651.41,-472.55 656.18,-482.01 658.35,-471.64 651.41,-472.55"/>
</g>
<!-- memdir/memdir.ts -->
<g id="node7" class="node">
<title>memdir/memdir.ts</title>
<polygon fill="#ffff99" stroke="black" points="357.38,-935 264.12,-935 264.12,-899 357.38,-899 357.38,-935"/>
<text text-anchor="middle" x="310.75" y="-914.83" font-family="Times,serif" font-size="9.00">memdir/memdir.ts</text>
</g>
<!-- memdir/paths.ts -->
<g id="node8" class="node">
<title>memdir/paths.ts</title>
<polygon fill="#ffff99" stroke="black" points="352.88,-881 268.62,-881 268.62,-845 352.88,-845 352.88,-881"/>
<text text-anchor="middle" x="310.75" y="-860.83" font-family="Times,serif" font-size="9.00">memdir/paths.ts</text>
</g>
<!-- memdir/teamMemPaths.ts -->
<g id="node9" class="node">
<title>memdir/teamMemPaths.ts</title>
<polygon fill="#ffff99" stroke="black" points="373.88,-827 247.62,-827 247.62,-791 373.88,-791 373.88,-827"/>
<text text-anchor="middle" x="310.75" y="-806.83" font-family="Times,serif" font-size="9.00">memdir/teamMemPaths.ts</text>
</g>
<!-- services/analytics/growthbook.ts -->
<g id="node10" class="node">
<title>services/analytics/growthbook.ts</title>
<polygon fill="#ffff99" stroke="black" points="387.75,-773 233.75,-773 233.75,-737 387.75,-737 387.75,-773"/>
<text text-anchor="middle" x="310.75" y="-752.83" font-family="Times,serif" font-size="9.00">services/analytics/growthbook.ts</text>
</g>
<!-- services/analytics/index.ts -->
<g id="node11" class="node">
<title>services/analytics/index.ts</title>
<polygon fill="#ffff99" stroke="black" points="373.88,-719 247.62,-719 247.62,-683 373.88,-683 373.88,-719"/>
<text text-anchor="middle" x="310.75" y="-698.83" font-family="Times,serif" font-size="9.00">services/analytics/index.ts</text>
</g>
<!-- types/logs.ts -->
<g id="node15" class="node">
<title>types/logs.ts</title>
<polygon fill="#ffff99" stroke="black" points="862.5,-622 797,-622 797,-586 862.5,-586 862.5,-622"/>
<text text-anchor="middle" x="829.75" y="-601.83" font-family="Times,serif" font-size="9.00">types/logs.ts</text>
</g>
<!-- utils/cachePaths.ts -->
<g id="node16" class="node">
<title>utils/cachePaths.ts</title>
<polygon fill="#ffff99" stroke="black" points="876.75,-568 782.75,-568 782.75,-532 876.75,-532 876.75,-568"/>
<text text-anchor="middle" x="829.75" y="-547.83" font-family="Times,serif" font-size="9.00">utils/cachePaths.ts</text>
</g>
<!-- utils/claudemd.ts&#45;&gt;bootstrap/state.ts -->
<g id="edge21" class="edge">
<title>utils/claudemd.ts&#45;&gt;bootstrap/state.ts</title>
<path fill="none" stroke="black" d="M189.55,-800.05C192.69,-802.67 195.5,-805.64 197.75,-809 246.09,-881.11 169.79,-1139.29 233.75,-1198 273.03,-1234.05 635.9,-1214.56 774.91,-1205.66"/>
<polygon fill="black" stroke="black" points="774.83,-1209.17 784.58,-1205.03 774.38,-1202.19 774.83,-1209.17"/>
</g>
<!-- utils/claudemd.ts&#45;&gt;memdir/memdir.ts -->
<g id="edge22" class="edge">
<title>utils/claudemd.ts&#45;&gt;memdir/memdir.ts</title>
<path fill="none" stroke="black" d="M187.69,-800.38C191.34,-802.96 194.77,-805.83 197.75,-809 224.71,-837.73 204.84,-863.23 233.75,-890 239.41,-895.24 246.15,-899.48 253.25,-902.9"/>
<polygon fill="black" stroke="black" points="251.85,-906.11 262.43,-906.76 254.57,-899.65 251.85,-906.11"/>
</g>
<!-- utils/claudemd.ts&#45;&gt;memdir/paths.ts -->
<g id="edge23" class="edge">
<title>utils/claudemd.ts&#45;&gt;memdir/paths.ts</title>
<path fill="none" stroke="black" d="M183.2,-800.46C188.16,-803.2 193.13,-806.09 197.75,-809 214.67,-819.67 216.13,-826.54 233.75,-836 241.21,-840 249.39,-843.62 257.54,-846.82"/>
<polygon fill="black" stroke="black" points="256.14,-850.03 266.73,-850.24 258.58,-843.47 256.14,-850.03"/>
</g>
<!-- utils/claudemd.ts&#45;&gt;memdir/teamMemPaths.ts -->
<g id="edge24" class="edge">
<title>utils/claudemd.ts&#45;&gt;memdir/teamMemPaths.ts</title>
<path fill="none" stroke="black" d="M189.54,-789.16C203.93,-791.54 220.36,-794.25 236.36,-796.89"/>
<polygon fill="black" stroke="black" points="235.41,-800.28 245.84,-798.45 236.55,-793.37 235.41,-800.28"/>
</g>
<!-- utils/claudemd.ts&#45;&gt;services/analytics/growthbook.ts -->
<g id="edge25" class="edge">
<title>utils/claudemd.ts&#45;&gt;services/analytics/growthbook.ts</title>
<path fill="none" stroke="black" d="M189.54,-774.84C199.7,-773.16 210.87,-771.32 222.19,-769.45"/>
<polygon fill="black" stroke="black" points="222.74,-772.9 232.04,-767.82 221.6,-766 222.74,-772.9"/>
</g>
<!-- utils/claudemd.ts&#45;&gt;services/analytics/index.ts -->
<g id="edge26" class="edge">
<title>utils/claudemd.ts&#45;&gt;services/analytics/index.ts</title>
<path fill="none" stroke="black" d="M172.53,-763.69C189.5,-752.44 212.32,-738.27 233.75,-728 236.81,-726.53 239.97,-725.1 243.18,-723.72"/>
<polygon fill="black" stroke="black" points="244.27,-727.06 252.18,-720.01 241.6,-720.58 244.27,-727.06"/>
</g>
<!-- utils/config.ts -->
<g id="node18" class="node">
<title>utils/config.ts</title>
<polygon fill="#ffff99" stroke="black" points="346.88,-665 274.62,-665 274.62,-629 346.88,-629 346.88,-665"/>
<text text-anchor="middle" x="310.75" y="-644.83" font-family="Times,serif" font-size="9.00">utils/config.ts</text>
</g>
<!-- utils/claudemd.ts&#45;&gt;utils/config.ts -->
<g id="edge27" class="edge">
<title>utils/claudemd.ts&#45;&gt;utils/config.ts</title>
<path fill="none" stroke="black" d="M156.53,-763.73C170.97,-739.9 199.24,-698.39 233.75,-674 242.66,-667.7 253.19,-662.74 263.52,-658.88"/>
<polygon fill="black" stroke="black" points="264.39,-662.28 272.72,-655.73 262.12,-655.66 264.39,-662.28"/>
</g>
<!-- utils/debug.ts -->
<g id="node21" class="node">
<title>utils/debug.ts</title>
<polygon fill="#ffff99" stroke="black" points="520,-616 448.5,-616 448.5,-580 520,-580 520,-616"/>
<text text-anchor="middle" x="484.25" y="-595.83" font-family="Times,serif" font-size="9.00">utils/debug.ts</text>
</g>
<!-- utils/claudemd.ts&#45;&gt;utils/debug.ts -->
<g id="edge28" class="edge">
<title>utils/claudemd.ts&#45;&gt;utils/debug.ts</title>
<path fill="none" stroke="black" d="M148.76,-763.73C157.61,-705.14 188.31,-523.8 233.75,-490 288.66,-449.15 329.91,-453.4 387.75,-490 419.33,-509.99 398,-538.91 423.75,-566 428.04,-570.52 433.12,-574.54 438.46,-578.07"/>
<polygon fill="black" stroke="black" points="436.58,-581.03 446.96,-583.14 440.17,-575.01 436.58,-581.03"/>
</g>
<!-- utils/claudemd.ts&#45;&gt;utils/diagLogs.ts -->
<g id="edge29" class="edge">
<title>utils/claudemd.ts&#45;&gt;utils/diagLogs.ts</title>
<path fill="none" stroke="black" d="M147.96,-763.57C153.09,-723.18 171.58,-627.22 233.75,-587 291.22,-549.82 324.88,-559.96 387.75,-587 409.12,-596.19 404.8,-611.5 423.75,-625 426.52,-626.98 429.47,-628.86 432.5,-630.65"/>
<polygon fill="black" stroke="black" points="430.61,-633.6 441.07,-635.29 433.94,-627.45 430.61,-633.6"/>
</g>
<!-- utils/claudemd.ts&#45;&gt;utils/envUtils.ts -->
<g id="edge30" class="edge">
<title>utils/claudemd.ts&#45;&gt;utils/envUtils.ts</title>
<path fill="none" stroke="black" d="M145.59,-763.92C144.61,-702.3 148.26,-496.72 233.75,-360 279.61,-286.66 340.54,-313.48 387.75,-241 424.23,-185 373.12,-138.63 423.75,-95 450.02,-72.36 674.42,-62.09 777.43,-58.54"/>
<polygon fill="black" stroke="black" points="777.4,-62.04 787.27,-58.21 777.16,-55.04 777.4,-62.04"/>
</g>
<!-- utils/errors.ts -->
<g id="node26" class="node">
<title>utils/errors.ts</title>
<polygon fill="#ffff99" stroke="black" points="866.25,-856 793.25,-856 793.25,-820 866.25,-820 866.25,-856"/>
<text text-anchor="middle" x="829.75" y="-835.83" font-family="Times,serif" font-size="9.00">utils/errors.ts</text>
</g>
<!-- utils/claudemd.ts&#45;&gt;utils/errors.ts -->
<g id="edge31" class="edge">
<title>utils/claudemd.ts&#45;&gt;utils/errors.ts</title>
<path fill="none" stroke="black" d="M188.96,-800.48C192.22,-803.01 195.22,-805.84 197.75,-809 236.54,-857.49 184.51,-906.17 233.75,-944 320.17,-1010.39 658.12,-899.24 782.48,-854.97"/>
<polygon fill="black" stroke="black" points="783.49,-858.32 791.72,-851.66 781.13,-851.73 783.49,-858.32"/>
</g>
<!-- utils/file.ts -->
<g id="node29" class="node">
<title>utils/file.ts</title>
<polygon fill="#ffff99" stroke="black" points="340.5,-535 281,-535 281,-499 340.5,-499 340.5,-535"/>
<text text-anchor="middle" x="310.75" y="-514.83" font-family="Times,serif" font-size="9.00">utils/file.ts</text>
</g>
<!-- utils/claudemd.ts&#45;&gt;utils/file.ts -->
<g id="edge32" class="edge">
<title>utils/claudemd.ts&#45;&gt;utils/file.ts</title>
<path fill="none" stroke="black" d="M148.1,-763.67C153.66,-720.61 173.23,-611.92 233.75,-549 243.52,-538.84 257.01,-531.77 269.92,-526.9"/>
<polygon fill="black" stroke="black" points="270.75,-530.32 279.1,-523.8 268.51,-523.69 270.75,-530.32"/>
</g>
<!-- utils/fileStateCache.ts -->
<g id="node30" class="node">
<title>utils/fileStateCache.ts</title>
<polygon fill="#ffff99" stroke="black" points="363.75,-1335 257.75,-1335 257.75,-1299 363.75,-1299 363.75,-1335"/>
<text text-anchor="middle" x="310.75" y="-1314.83" font-family="Times,serif" font-size="9.00">utils/fileStateCache.ts</text>
</g>
<!-- utils/claudemd.ts&#45;&gt;utils/fileStateCache.ts -->
<g id="edge33" class="edge">
<title>utils/claudemd.ts&#45;&gt;utils/fileStateCache.ts</title>
<path fill="none" stroke="black" d="M189.61,-800.01C192.74,-802.64 195.53,-805.62 197.75,-809 256.65,-898.55 168.7,-1204.8 233.75,-1290 237.52,-1294.94 242.27,-1298.98 247.54,-1302.28"/>
<polygon fill="black" stroke="black" points="245.67,-1305.25 256.15,-1306.76 248.9,-1299.04 245.67,-1305.25"/>
</g>
<!-- utils/frontmatterParser.ts -->
<g id="node31" class="node">
<title>utils/frontmatterParser.ts</title>
<polygon fill="#ffff99" stroke="black" points="372,-1281 249.5,-1281 249.5,-1245 372,-1245 372,-1281"/>
<text text-anchor="middle" x="310.75" y="-1260.83" font-family="Times,serif" font-size="9.00">utils/frontmatterParser.ts</text>
</g>
<!-- utils/claudemd.ts&#45;&gt;utils/frontmatterParser.ts -->
<g id="edge34" class="edge">
<title>utils/claudemd.ts&#45;&gt;utils/frontmatterParser.ts</title>
<path fill="none" stroke="black" d="M189.58,-800.03C192.71,-802.66 195.51,-805.63 197.75,-809 249.88,-887.36 178.4,-1154.88 233.75,-1231 235.68,-1233.66 237.88,-1236.1 240.28,-1238.34"/>
<polygon fill="black" stroke="black" points="237.89,-1240.91 247.93,-1244.27 242.17,-1235.38 237.89,-1240.91"/>
</g>
<!-- utils/fsOperations.ts -->
<g id="node32" class="node">
<title>utils/fsOperations.ts</title>
<polygon fill="#ffff99" stroke="black" points="708.88,-630 609.62,-630 609.62,-594 708.88,-594 708.88,-630"/>
<text text-anchor="middle" x="659.25" y="-609.83" font-family="Times,serif" font-size="9.00">utils/fsOperations.ts</text>
</g>
<!-- utils/claudemd.ts&#45;&gt;utils/fsOperations.ts -->
<g id="edge35" class="edge">
<title>utils/claudemd.ts&#45;&gt;utils/fsOperations.ts</title>
<path fill="none" stroke="black" d="M149.68,-763.68C157.62,-728.42 180.46,-651.76 233.75,-620 292.54,-584.96 328.06,-586.5 387.75,-620 414.54,-635.04 396.96,-663.96 423.75,-679 470.65,-705.32 492.87,-693.17 544.75,-679 574.75,-670.81 604.88,-652.43 626.55,-637"/>
<polygon fill="black" stroke="black" points="628.37,-640 634.37,-631.27 624.23,-634.36 628.37,-640"/>
</g>
<!-- utils/claudemd.ts&#45;&gt;utils/git.ts -->
<g id="edge36" class="edge">
<title>utils/claudemd.ts&#45;&gt;utils/git.ts</title>
<path fill="none" stroke="black" d="M148.32,-763.94C156.62,-698.22 187.98,-472.84 233.75,-419 243.41,-407.64 257.79,-400.23 271.45,-395.43"/>
<polygon fill="black" stroke="black" points="272.18,-398.86 280.7,-392.56 270.11,-392.18 272.18,-398.86"/>
</g>
<!-- utils/hooks.ts -->
<g id="node36" class="node">
<title>utils/hooks.ts</title>
<polygon fill="#ffff99" stroke="black" points="346.5,-1189 275,-1189 275,-1153 346.5,-1153 346.5,-1189"/>
<text text-anchor="middle" x="310.75" y="-1168.83" font-family="Times,serif" font-size="9.00">utils/hooks.ts</text>
</g>
<!-- utils/claudemd.ts&#45;&gt;utils/hooks.ts -->
<g id="edge37" class="edge">
<title>utils/claudemd.ts&#45;&gt;utils/hooks.ts</title>
<path fill="none" stroke="black" d="M189.5,-800.09C192.65,-802.7 195.47,-805.66 197.75,-809 282.05,-932.76 140.97,-1026.46 233.75,-1144 241.25,-1153.49 252.34,-1159.66 263.74,-1163.65"/>
<polygon fill="black" stroke="black" points="262.64,-1166.98 273.22,-1166.43 264.61,-1160.26 262.64,-1166.98"/>
</g>
<!-- utils/memory/types.ts -->
<g id="node39" class="node">
<title>utils/memory/types.ts</title>
<polygon fill="#ffff99" stroke="black" points="363.75,-1135 257.75,-1135 257.75,-1099 363.75,-1099 363.75,-1135"/>
<text text-anchor="middle" x="310.75" y="-1114.83" font-family="Times,serif" font-size="9.00">utils/memory/types.ts</text>
</g>
<!-- utils/claudemd.ts&#45;&gt;utils/memory/types.ts -->
<g id="edge38" class="edge">
<title>utils/claudemd.ts&#45;&gt;utils/memory/types.ts</title>
<path fill="none" stroke="black" d="M189.43,-800.14C192.59,-802.74 195.44,-805.68 197.75,-809 269.69,-912.33 154.73,-991.97 233.75,-1090 237.59,-1094.77 242.34,-1098.7 247.58,-1101.93"/>
<polygon fill="black" stroke="black" points="245.6,-1104.85 256.09,-1106.34 248.82,-1098.63 245.6,-1104.85"/>
</g>
<!-- utils/path.ts -->
<g id="node42" class="node">
<title>utils/path.ts</title>
<polygon fill="#ffff99" stroke="black" points="343.5,-1081 278,-1081 278,-1045 343.5,-1045 343.5,-1081"/>
<text text-anchor="middle" x="310.75" y="-1060.83" font-family="Times,serif" font-size="9.00">utils/path.ts</text>
</g>
<!-- utils/claudemd.ts&#45;&gt;utils/path.ts -->
<g id="edge39" class="edge">
<title>utils/claudemd.ts&#45;&gt;utils/path.ts</title>
<path fill="none" stroke="black" d="M189.32,-800.21C192.51,-802.8 195.39,-805.71 197.75,-809 257.36,-891.95 168.46,-957.44 233.75,-1036 242.13,-1046.08 254.53,-1052.4 266.91,-1056.36"/>
<polygon fill="black" stroke="black" points="265.64,-1059.64 276.21,-1058.87 267.47,-1052.88 265.64,-1059.64"/>
</g>
<!-- utils/permissions/filesystem.ts -->
<g id="node43" class="node">
<title>utils/permissions/filesystem.ts</title>
<polygon fill="#ffff99" stroke="black" points="381.38,-1027 240.12,-1027 240.12,-991 381.38,-991 381.38,-1027"/>
<text text-anchor="middle" x="310.75" y="-1006.83" font-family="Times,serif" font-size="9.00">utils/permissions/filesystem.ts</text>
</g>
<!-- utils/claudemd.ts&#45;&gt;utils/permissions/filesystem.ts -->
<g id="edge40" class="edge">
<title>utils/claudemd.ts&#45;&gt;utils/permissions/filesystem.ts</title>
<path fill="none" stroke="black" d="M189.13,-800.35C192.36,-802.91 195.3,-805.78 197.75,-809 243.96,-869.79 185.04,-918.19 233.75,-977 235.85,-979.53 238.18,-981.87 240.69,-984.02"/>
<polygon fill="black" stroke="black" points="238.45,-986.72 248.59,-989.77 242.57,-981.06 238.45,-986.72"/>
</g>
<!-- utils/claudemd.ts&#45;&gt;utils/settings/constants.ts -->
<g id="edge41" class="edge">
<title>utils/claudemd.ts&#45;&gt;utils/settings/constants.ts</title>
<path fill="none" stroke="black" d="M189.17,-799.6C192.48,-802.32 195.43,-805.44 197.75,-809 262.86,-908.8 158.96,-1251.24 233.75,-1344 306.19,-1433.85 367.84,-1416 483.25,-1416 483.25,-1416 483.25,-1416 660.25,-1416 756.69,-1416 867.63,-1427.17 937.91,-1435.65"/>
<polygon fill="black" stroke="black" points="937.41,-1439.11 947.76,-1436.85 938.26,-1432.17 937.41,-1439.11"/>
</g>
<!-- utils/settings/settings.ts -->
<g id="node46" class="node">
<title>utils/settings/settings.ts</title>
<polygon fill="#ffff99" stroke="black" points="366.38,-232 255.12,-232 255.12,-196 366.38,-196 366.38,-232"/>
<text text-anchor="middle" x="310.75" y="-211.82" font-family="Times,serif" font-size="9.00">utils/settings/settings.ts</text>
</g>
<!-- utils/claudemd.ts&#45;&gt;utils/settings/settings.ts -->
<g id="edge42" class="edge">
<title>utils/claudemd.ts&#45;&gt;utils/settings/settings.ts</title>
<path fill="none" stroke="black" d="M146.79,-763.71C150.21,-679.45 168.19,-329.24 233.75,-246 237.06,-241.79 241.03,-238.13 245.39,-234.95"/>
<polygon fill="black" stroke="black" points="246.9,-238.13 253.53,-229.86 243.19,-232.2 246.9,-238.13"/>
</g>
<!-- utils/cwd.ts -->
<g id="node20" class="node">
<title>utils/cwd.ts</title>
<polygon fill="#ffff99" stroke="black" points="690.88,-209 627.62,-209 627.62,-173 690.88,-173 690.88,-209"/>
<text text-anchor="middle" x="659.25" y="-188.82" font-family="Times,serif" font-size="9.00">utils/cwd.ts</text>
</g>
<!-- utils/detectRepository.ts -->
<g id="node22" class="node">
<title>utils/detectRepository.ts</title>
<polygon fill="#ffff99" stroke="black" points="542.12,-378 426.38,-378 426.38,-342 542.12,-342 542.12,-378"/>
<text text-anchor="middle" x="484.25" y="-357.82" font-family="Times,serif" font-size="9.00">utils/detectRepository.ts</text>
</g>
<!-- utils/diagLogs.ts&#45;&gt;utils/fsOperations.ts -->
<g id="edge43" class="edge">
<title>utils/diagLogs.ts&#45;&gt;utils/fsOperations.ts</title>
<path fill="none" stroke="black" d="M525.81,-642.62C547.36,-637.64 574.28,-631.42 598.21,-625.88"/>
<polygon fill="black" stroke="black" points="598.89,-629.32 607.84,-623.66 597.31,-622.5 598.89,-629.32"/>
</g>
<!-- utils/slowOperations.ts -->
<g id="node50" class="node">
<title>utils/slowOperations.ts</title>
<polygon fill="#ffff99" stroke="black" points="885.75,-676 773.75,-676 773.75,-640 885.75,-640 885.75,-676"/>
<text text-anchor="middle" x="829.75" y="-655.83" font-family="Times,serif" font-size="9.00">utils/slowOperations.ts</text>
</g>
<!-- utils/diagLogs.ts&#45;&gt;utils/slowOperations.ts -->
<g id="edge44" class="edge">
<title>utils/diagLogs.ts&#45;&gt;utils/slowOperations.ts</title>
<path fill="none" stroke="black" d="M526,-652.71C584.25,-653.73 691.98,-655.61 761.98,-656.83"/>
<polygon fill="black" stroke="black" points="761.73,-660.33 771.79,-657.01 761.85,-653.33 761.73,-660.33"/>
</g>
<!-- utils/displayTags.ts -->
<g id="node24" class="node">
<title>utils/displayTags.ts</title>
<polygon fill="#ffff99" stroke="black" points="877.5,-514 782,-514 782,-478 877.5,-478 877.5,-514"/>
<text text-anchor="middle" x="829.75" y="-493.82" font-family="Times,serif" font-size="9.00">utils/displayTags.ts</text>
</g>
<!-- utils/execFileNoThrow.ts&#45;&gt;utils/cwd.ts -->
<g id="edge45" class="edge">
<title>utils/execFileNoThrow.ts&#45;&gt;utils/cwd.ts</title>
<path fill="none" stroke="black" d="M531.61,-140.49C558.15,-151.07 591.16,-164.24 616.82,-174.48"/>
<polygon fill="black" stroke="black" points="615.34,-177.65 625.93,-178.11 617.93,-171.15 615.34,-177.65"/>
</g>
<!-- utils/execFileNoThrowPortable.ts -->
<g id="node28" class="node">
<title>utils/execFileNoThrowPortable.ts</title>
<polygon fill="#ffff99" stroke="black" points="737.75,-140 580.75,-140 580.75,-104 737.75,-104 737.75,-140"/>
<text text-anchor="middle" x="659.25" y="-119.83" font-family="Times,serif" font-size="9.00">utils/execFileNoThrowPortable.ts</text>
</g>
<!-- utils/execFileNoThrow.ts&#45;&gt;utils/execFileNoThrowPortable.ts -->
<g id="edge46" class="edge">
<title>utils/execFileNoThrow.ts&#45;&gt;utils/execFileNoThrowPortable.ts</title>
<path fill="none" stroke="black" d="M544.79,-122C552.56,-122 560.65,-122 568.78,-122"/>
<polygon fill="black" stroke="black" points="568.76,-125.5 578.76,-122 568.76,-118.5 568.76,-125.5"/>
</g>
<!-- utils/execFileNoThrow.ts&#45;&gt;utils/log.ts -->
<g id="edge47" class="edge">
<title>utils/execFileNoThrow.ts&#45;&gt;utils/log.ts</title>
<path fill="none" stroke="black" d="M529.14,-140.45C534.95,-144.28 540.39,-148.78 544.75,-154 586.73,-204.21 634.63,-398.92 651.75,-473.09"/>
<polygon fill="black" stroke="black" points="648.25,-473.47 653.89,-482.44 655.07,-471.91 648.25,-473.47"/>
</g>
<!-- utils/git.ts&#45;&gt;constants/files.ts -->
<g id="edge48" class="edge">
<title>utils/git.ts&#45;&gt;constants/files.ts</title>
<path fill="none" stroke="black" d="M339.3,-391.34C363.74,-395.18 400.1,-400.91 430.17,-405.64"/>
<polygon fill="black" stroke="black" points="429.43,-409.07 439.85,-407.17 430.52,-402.15 429.43,-409.07"/>
</g>
<!-- utils/git.ts&#45;&gt;utils/cwd.ts -->
<g id="edge49" class="edge">
<title>utils/git.ts&#45;&gt;utils/cwd.ts</title>
<path fill="none" stroke="black" d="M324.11,-368.72C352.47,-326.82 420.08,-227.27 423.75,-225 482.82,-188.38 566.06,-185.29 615.84,-187.42"/>
<polygon fill="black" stroke="black" points="615.46,-190.9 625.63,-187.94 615.83,-183.91 615.46,-190.9"/>
</g>
<!-- utils/git.ts&#45;&gt;utils/debug.ts -->
<g id="edge50" class="edge">
<title>utils/git.ts&#45;&gt;utils/debug.ts</title>
<path fill="none" stroke="black" d="M339.34,-392.13C355.66,-396.56 375.49,-404.62 387.75,-419 431.4,-470.18 382.58,-512.81 423.75,-566 427.8,-571.23 432.95,-575.71 438.52,-579.51"/>
<polygon fill="black" stroke="black" points="436.5,-582.38 446.87,-584.51 440.09,-576.37 436.5,-582.38"/>
</g>
<!-- utils/git.ts&#45;&gt;utils/detectRepository.ts -->
<g id="edge51" class="edge">
<title>utils/git.ts&#45;&gt;utils/detectRepository.ts</title>
<path fill="none" stroke="black" d="M339.3,-382.66C359.69,-379.45 388.37,-374.94 414.78,-370.78"/>
<polygon fill="black" stroke="black" points="415.09,-374.27 424.43,-369.26 414.01,-367.36 415.09,-374.27"/>
</g>
<!-- utils/git.ts&#45;&gt;utils/diagLogs.ts -->
<g id="edge52" class="edge">
<title>utils/git.ts&#45;&gt;utils/diagLogs.ts</title>
<path fill="none" stroke="black" d="M338.96,-405.32C355.57,-417.92 375.83,-436.13 387.75,-457 425.61,-523.31 375.86,-565.52 423.75,-625 426.4,-628.29 429.53,-631.19 432.95,-633.74"/>
<polygon fill="black" stroke="black" points="430.93,-636.61 441.27,-638.94 434.64,-630.68 430.93,-636.61"/>
</g>
<!-- utils/git.ts&#45;&gt;utils/execFileNoThrow.ts -->
<g id="edge53" class="edge">
<title>utils/git.ts&#45;&gt;utils/execFileNoThrow.ts</title>
<path fill="none" stroke="black" d="M325.44,-368.85C341.54,-347.04 368.49,-309.01 387.75,-274 406.93,-239.13 402.64,-225.74 423.75,-192 433.37,-176.62 446.19,-161.09 457.47,-148.57"/>
<polygon fill="black" stroke="black" points="459.74,-151.27 463.94,-141.55 454.59,-146.53 459.74,-151.27"/>
</g>
<!-- utils/git.ts&#45;&gt;utils/fsOperations.ts -->
<g id="edge54" class="edge">
<title>utils/git.ts&#45;&gt;utils/fsOperations.ts</title>
<path fill="none" stroke="black" d="M335.96,-405.43C351.95,-418.4 372.66,-436.81 387.75,-456 408.41,-482.26 398.61,-499.99 423.75,-522 430.72,-528.1 531.74,-565.75 598.89,-590.38"/>
<polygon fill="black" stroke="black" points="597.34,-593.54 607.94,-593.69 599.75,-586.97 597.34,-593.54"/>
</g>
<!-- utils/git/gitFilesystem.ts -->
<g id="node34" class="node">
<title>utils/git/gitFilesystem.ts</title>
<polygon fill="#ffff99" stroke="black" points="541,-324 427.5,-324 427.5,-288 541,-288 541,-324"/>
<text text-anchor="middle" x="484.25" y="-303.82" font-family="Times,serif" font-size="9.00">utils/git/gitFilesystem.ts</text>
</g>
<!-- utils/git.ts&#45;&gt;utils/git/gitFilesystem.ts -->
<g id="edge55" class="edge">
<title>utils/git.ts&#45;&gt;utils/git/gitFilesystem.ts</title>
<path fill="none" stroke="black" d="M339.28,-373.51C361.9,-362.47 394.81,-346.54 423.75,-333 426.45,-331.74 429.22,-330.45 432.03,-329.15"/>
<polygon fill="black" stroke="black" points="433.22,-332.45 440.85,-325.1 430.3,-326.09 433.22,-332.45"/>
</g>
<!-- utils/git.ts&#45;&gt;utils/log.ts -->
<g id="edge56" class="edge">
<title>utils/git.ts&#45;&gt;utils/log.ts</title>
<path fill="none" stroke="black" d="M339.45,-393.38C355.21,-398.2 374.41,-406.23 387.75,-419 414.75,-444.84 392.47,-474.54 423.75,-495 482.57,-533.47 568.64,-523.26 618.5,-512.51"/>
<polygon fill="black" stroke="black" points="619.01,-515.99 627.99,-510.35 617.46,-509.16 619.01,-515.99"/>
</g>
<!-- utils/memoize.ts -->
<g id="node38" class="node">
<title>utils/memoize.ts</title>
<polygon fill="#ffff99" stroke="black" points="526.38,-270 442.12,-270 442.12,-234 526.38,-234 526.38,-270"/>
<text text-anchor="middle" x="484.25" y="-249.82" font-family="Times,serif" font-size="9.00">utils/memoize.ts</text>
</g>
<!-- utils/git.ts&#45;&gt;utils/memoize.ts -->
<g id="edge57" class="edge">
<title>utils/git.ts&#45;&gt;utils/memoize.ts</title>
<path fill="none" stroke="black" d="M327.24,-368.58C347.53,-345.35 385.09,-305.26 423.75,-279 426.39,-277.21 429.17,-275.48 432.02,-273.83"/>
<polygon fill="black" stroke="black" points="433.43,-277.05 440.59,-269.24 430.12,-270.88 433.43,-277.05"/>
</g>
<!-- utils/which.ts -->
<g id="node51" class="node">
<title>utils/which.ts</title>
<polygon fill="#ffff99" stroke="black" points="520.75,-486 447.75,-486 447.75,-450 520.75,-450 520.75,-486"/>
<text text-anchor="middle" x="484.25" y="-465.82" font-family="Times,serif" font-size="9.00">utils/which.ts</text>
</g>
<!-- utils/git.ts&#45;&gt;utils/which.ts -->
<g id="edge58" class="edge">
<title>utils/git.ts&#45;&gt;utils/which.ts</title>
<path fill="none" stroke="black" d="M339.29,-397.43C353.92,-403.27 372.08,-410.97 387.75,-419 404.44,-427.55 407.18,-432.22 423.75,-441 428.1,-443.3 432.68,-445.6 437.29,-447.83"/>
<polygon fill="black" stroke="black" points="435.44,-450.83 445.98,-451.92 438.43,-444.5 435.44,-450.83"/>
</g>
<!-- utils/gitSettings.ts&#45;&gt;utils/envUtils.ts -->
<g id="edge59" class="edge">
<title>utils/gitSettings.ts&#45;&gt;utils/envUtils.ts</title>
<path fill="none" stroke="black" d="M170.01,-195.54C216.01,-161.27 321.44,-88.85 423.75,-62 547.32,-29.57 699.47,-40.65 777.4,-49.82"/>
<polygon fill="black" stroke="black" points="776.95,-53.29 787.3,-51.03 777.8,-46.34 776.95,-53.29"/>
</g>
<!-- utils/gitSettings.ts&#45;&gt;utils/settings/settings.ts -->
<g id="edge60" class="edge">
<title>utils/gitSettings.ts&#45;&gt;utils/settings/settings.ts</title>
<path fill="none" stroke="black" d="M189.97,-214C206.36,-214 225.35,-214 243.32,-214"/>
<polygon fill="black" stroke="black" points="243.13,-217.5 253.13,-214 243.13,-210.5 243.13,-217.5"/>
</g>
<!-- utils/log.ts&#45;&gt;bootstrap/state.ts -->
<g id="edge61" class="edge">
<title>utils/log.ts&#45;&gt;bootstrap/state.ts</title>
<path fill="none" stroke="black" d="M684.1,-520.38C702.02,-535.62 725.5,-558.95 737.75,-585 791.14,-698.54 755.64,-740.84 773.75,-865 790.36,-978.91 813.42,-1113.92 823.58,-1172.47"/>
<polygon fill="black" stroke="black" points="820.13,-1173.03 825.29,-1182.28 827.03,-1171.83 820.13,-1173.03"/>
</g>
<!-- utils/log.ts&#45;&gt;constants/xml.ts -->
<g id="edge62" class="edge">
<title>utils/log.ts&#45;&gt;constants/xml.ts</title>
<path fill="none" stroke="black" d="M681.51,-483.65C703.65,-465.05 739.78,-436.07 773.75,-415 775.4,-413.98 777.09,-412.97 778.81,-411.97"/>
<polygon fill="black" stroke="black" points="780.5,-415.03 787.56,-407.13 777.11,-408.9 780.5,-415.03"/>
</g>
<!-- utils/log.ts&#45;&gt;types/logs.ts -->
<g id="edge63" class="edge">
<title>utils/log.ts&#45;&gt;types/logs.ts</title>
<path fill="none" stroke="black" d="M685.8,-520.24C708.43,-536.06 742.6,-559.16 773.75,-577 777.85,-579.35 782.19,-581.7 786.55,-583.97"/>
<polygon fill="black" stroke="black" points="784.84,-587.03 795.34,-588.43 788,-580.78 784.84,-587.03"/>
</g>
<!-- utils/log.ts&#45;&gt;utils/cachePaths.ts -->
<g id="edge64" class="edge">
<title>utils/log.ts&#45;&gt;utils/cachePaths.ts</title>
<path fill="none" stroke="black" d="M688.83,-510.14C711.46,-516.59 743.79,-525.8 771.67,-533.74"/>
<polygon fill="black" stroke="black" points="770.47,-537.04 781.05,-536.41 772.39,-530.31 770.47,-537.04"/>
</g>
<!-- utils/log.ts&#45;&gt;utils/displayTags.ts -->
<g id="edge65" class="edge">
<title>utils/log.ts&#45;&gt;utils/displayTags.ts</title>
<path fill="none" stroke="black" d="M688.83,-500.98C711.02,-500.19 742.52,-499.07 770.02,-498.09"/>
<polygon fill="black" stroke="black" points="770.13,-501.59 780,-497.74 769.88,-494.59 770.13,-501.59"/>
</g>
<!-- utils/log.ts&#45;&gt;utils/envUtils.ts -->
<g id="edge66" class="edge">
<title>utils/log.ts&#45;&gt;utils/envUtils.ts</title>
<path fill="none" stroke="black" d="M667.17,-483.73C693.28,-414.77 785.96,-170.01 817.86,-85.75"/>
<polygon fill="black" stroke="black" points="821.06,-87.19 821.33,-76.6 814.52,-84.71 821.06,-87.19"/>
</g>
<!-- utils/log.ts&#45;&gt;utils/errors.ts -->
<g id="edge67" class="edge">
<title>utils/log.ts&#45;&gt;utils/errors.ts</title>
<path fill="none" stroke="black" d="M681.53,-520.24C698.7,-535.93 722.44,-559.93 737.75,-585 737.94,-585.31 794.66,-743.12 818.44,-809.31"/>
<polygon fill="black" stroke="black" points="815.03,-810.18 821.71,-818.41 821.62,-807.81 815.03,-810.18"/>
</g>
<!-- utils/privacyLevel.ts -->
<g id="node44" class="node">
<title>utils/privacyLevel.ts</title>
<polygon fill="#ffff99" stroke="black" points="880.5,-460 779,-460 779,-424 880.5,-424 880.5,-460"/>
<text text-anchor="middle" x="829.75" y="-439.82" font-family="Times,serif" font-size="9.00">utils/privacyLevel.ts</text>
</g>
<!-- utils/log.ts&#45;&gt;utils/privacyLevel.ts -->
<g id="edge68" class="edge">
<title>utils/log.ts&#45;&gt;utils/privacyLevel.ts</title>
<path fill="none" stroke="black" d="M688.83,-491.82C710.47,-484.12 740.97,-473.26 767.97,-463.64"/>
<polygon fill="black" stroke="black" points="768.84,-467.05 777.08,-460.4 766.49,-460.45 768.84,-467.05"/>
</g>
<!-- utils/log.ts&#45;&gt;utils/slowOperations.ts -->
<g id="edge69" class="edge">
<title>utils/log.ts&#45;&gt;utils/slowOperations.ts</title>
<path fill="none" stroke="black" d="M678.27,-520.36C694.29,-536.91 718.14,-562.08 737.75,-585 754.62,-604.73 753.59,-614.64 773.75,-631 774.7,-631.77 775.68,-632.53 776.67,-633.27"/>
<polygon fill="black" stroke="black" points="774.58,-636.08 784.85,-638.69 778.45,-630.25 774.58,-636.08"/>
</g>
</g>
</svg>
