<?xml version="1.0" encoding="UTF-8" standalone="no"?>
<!DOCTYPE svg PUBLIC "-//W3C//DTD SVG 1.1//EN"
 "http://www.w3.org/Graphics/SVG/1.1/DTD/svg11.dtd">
<!-- Generated by graphviz version 9.0.0 (20230911.1827)
 -->
<!-- Pages: 1 -->
<svg width="262pt" height="1044pt"
 viewBox="0.00 0.00 261.75 1043.50" xmlns="http://www.w3.org/2000/svg" xmlns:xlink="http://www.w3.org/1999/xlink">
<g id="graph0" class="graph" transform="scale(1 1) rotate(0) translate(4 1039.5)">
<polygon fill="white" stroke="none" points="-4,4 -4,-1039.5 257.75,-1039.5 257.75,4 -4,4"/>
<text text-anchor="middle" x="126.88" y="-1018.2" font-family="Times,serif" font-size="14.00">Layer 0: 1 files</text>
<!-- Tool.ts -->
<g id="node1" class="node">
<title>Tool.ts</title>
<polygon fill="#ff9999" stroke="black" points="54,-522 0,-522 0,-486 54,-486 54,-522"/>
<text text-anchor="middle" x="27" y="-501.82" font-family="Times,serif" font-size="9.00">Tool.ts</text>
</g>
<!-- commands.ts -->
<g id="node2" class="node">
<title>commands.ts</title>
<polygon fill="#ffcc99" stroke="black" points="207.62,-1008 136.12,-1008 136.12,-972 207.62,-972 207.62,-1008"/>
<text text-anchor="middle" x="171.88" y="-987.83" font-family="Times,serif" font-size="9.00">commands.ts</text>
</g>
<!-- Tool.ts&#45;&gt;commands.ts -->
<g id="edge1" class="edge">
<title>Tool.ts&#45;&gt;commands.ts</title>
<path fill="none" stroke="black" d="M27.98,-522.24C28.25,-598.9 33.02,-894.16 90,-963 98.77,-973.6 111.84,-980.06 124.93,-983.99"/>
<polygon fill="black" stroke="black" points="123.81,-987.32 134.36,-986.37 125.52,-980.53 123.81,-987.32"/>
</g>
<!-- components/Spinner.tsx -->
<g id="node3" class="node">
<title>components/Spinner.tsx</title>
<polygon fill="#ffcc99" stroke="black" points="230.5,-954 113.25,-954 113.25,-918 230.5,-918 230.5,-954"/>
<text text-anchor="middle" x="171.88" y="-933.83" font-family="Times,serif" font-size="9.00">components/Spinner.tsx</text>
</g>
<!-- Tool.ts&#45;&gt;components/Spinner.tsx -->
<g id="edge2" class="edge">
<title>Tool.ts&#45;&gt;components/Spinner.tsx</title>
<path fill="none" stroke="black" d="M28.34,-522.22C30.03,-593.07 39.58,-849.17 90,-909 93.72,-913.41 98.18,-917.11 103.08,-920.2"/>
<polygon fill="black" stroke="black" points="101.13,-923.13 111.6,-924.73 104.41,-916.95 101.13,-923.13"/>
</g>
<!-- context/notifications.tsx -->
<g id="node4" class="node">
<title>context/notifications.tsx</title>
<polygon fill="#ffcc99" stroke="black" points="230.88,-900 112.88,-900 112.88,-864 230.88,-864 230.88,-900"/>
<text text-anchor="middle" x="171.88" y="-879.83" font-family="Times,serif" font-size="9.00">context/notifications.tsx</text>
</g>
<!-- Tool.ts&#45;&gt;context/notifications.tsx -->
<g id="edge3" class="edge">
<title>Tool.ts&#45;&gt;context/notifications.tsx</title>
<path fill="none" stroke="black" d="M28.83,-522.42C32.09,-587.31 46.15,-804.16 90,-855 93.62,-859.19 97.9,-862.74 102.59,-865.73"/>
<polygon fill="black" stroke="black" points="100.87,-868.78 111.34,-870.43 104.18,-862.61 100.87,-868.78"/>
</g>
<!-- entrypoints/agentSdkTypes.ts -->
<g id="node5" class="node">
<title>entrypoints/agentSdkTypes.ts</title>
<polygon fill="#ffcc99" stroke="black" points="241.75,-846 102,-846 102,-810 241.75,-810 241.75,-846"/>
<text text-anchor="middle" x="171.88" y="-825.83" font-family="Times,serif" font-size="9.00">entrypoints/agentSdkTypes.ts</text>
</g>
<!-- Tool.ts&#45;&gt;entrypoints/agentSdkTypes.ts -->
<g id="edge4" class="edge">
<title>Tool.ts&#45;&gt;entrypoints/agentSdkTypes.ts</title>
<path fill="none" stroke="black" d="M29.47,-522.37C34.47,-580.48 52.62,-758.99 90,-801 90.97,-802.09 91.98,-803.13 93.04,-804.14"/>
<polygon fill="black" stroke="black" points="90.6,-806.68 100.63,-810.1 94.92,-801.17 90.6,-806.68"/>
</g>
<!-- hooks/useCanUseTool.tsx -->
<g id="node6" class="node">
<title>hooks/useCanUseTool.tsx</title>
<polygon fill="#ffcc99" stroke="black" points="233.12,-792 110.62,-792 110.62,-756 233.12,-756 233.12,-792"/>
<text text-anchor="middle" x="171.88" y="-771.83" font-family="Times,serif" font-size="9.00">hooks/useCanUseTool.tsx</text>
</g>
<!-- Tool.ts&#45;&gt;hooks/useCanUseTool.tsx -->
<g id="edge5" class="edge">
<title>Tool.ts&#45;&gt;hooks/useCanUseTool.tsx</title>
<path fill="none" stroke="black" d="M30.37,-522.2C37.3,-572.8 59.01,-713.68 90,-747 93.09,-750.32 96.59,-753.23 100.37,-755.78"/>
<polygon fill="black" stroke="black" points="98.52,-758.76 108.94,-760.67 101.99,-752.68 98.52,-758.76"/>
</g>
<!-- services/mcp/types.ts -->
<g id="node7" class="node">
<title>services/mcp/types.ts</title>
<polygon fill="#ffcc99" stroke="black" points="223.38,-738 120.38,-738 120.38,-702 223.38,-702 223.38,-738"/>
<text text-anchor="middle" x="171.88" y="-717.83" font-family="Times,serif" font-size="9.00">services/mcp/types.ts</text>
</g>
<!-- Tool.ts&#45;&gt;services/mcp/types.ts -->
<g id="edge6" class="edge">
<title>Tool.ts&#45;&gt;services/mcp/types.ts</title>
<path fill="none" stroke="black" d="M28.75,-522.37C31.28,-559.72 42.27,-645.01 90,-693 95.67,-698.7 102.57,-703.2 109.93,-706.74"/>
<polygon fill="black" stroke="black" points="108.21,-709.81 118.78,-710.43 110.9,-703.35 108.21,-709.81"/>
</g>
<!-- state/AppState.tsx -->
<g id="node8" class="node">
<title>state/AppState.tsx</title>
<polygon fill="#ffcc99" stroke="black" points="216.62,-684 127.12,-684 127.12,-648 216.62,-648 216.62,-684"/>
<text text-anchor="middle" x="171.88" y="-663.83" font-family="Times,serif" font-size="9.00">state/AppState.tsx</text>
</g>
<!-- Tool.ts&#45;&gt;state/AppState.tsx -->
<g id="edge7" class="edge">
<title>Tool.ts&#45;&gt;state/AppState.tsx</title>
<path fill="none" stroke="black" d="M31.47,-522.04C37.92,-550.82 54.48,-607.14 90,-639 97.45,-645.68 106.59,-650.71 116.03,-654.51"/>
<polygon fill="black" stroke="black" points="114.71,-657.75 125.3,-657.78 117.04,-651.15 114.71,-657.75"/>
</g>
<!-- tools/AgentTool/loadAgentsDir.ts -->
<g id="node9" class="node">
<title>tools/AgentTool/loadAgentsDir.ts</title>
<polygon fill="#ffcc99" stroke="black" points="247.75,-630 96,-630 96,-594 247.75,-594 247.75,-630"/>
<text text-anchor="middle" x="171.88" y="-609.83" font-family="Times,serif" font-size="9.00">tools/AgentTool/loadAgentsDir.ts</text>
</g>
<!-- Tool.ts&#45;&gt;tools/AgentTool/loadAgentsDir.ts -->
<g id="edge8" class="edge">
<title>Tool.ts&#45;&gt;tools/AgentTool/loadAgentsDir.ts</title>
<path fill="none" stroke="black" d="M37.69,-522.34C48.25,-540.67 66.79,-568.44 90,-585 91.53,-586.09 93.11,-587.15 94.73,-588.16"/>
<polygon fill="black" stroke="black" points="92.6,-590.98 103.04,-592.78 96.01,-584.86 92.6,-590.98"/>
</g>
<!-- types/hooks.ts -->
<g id="node10" class="node">
<title>types/hooks.ts</title>
<polygon fill="#ffcc99" stroke="black" points="209.12,-576 134.62,-576 134.62,-540 209.12,-540 209.12,-576"/>
<text text-anchor="middle" x="171.88" y="-555.83" font-family="Times,serif" font-size="9.00">types/hooks.ts</text>
</g>
<!-- Tool.ts&#45;&gt;types/hooks.ts -->
<g id="edge9" class="edge">
<title>Tool.ts&#45;&gt;types/hooks.ts</title>
<path fill="none" stroke="black" d="M54.34,-516.08C65.28,-520.94 78.16,-526.46 90,-531 100.78,-535.14 112.5,-539.26 123.58,-542.99"/>
<polygon fill="black" stroke="black" points="122.37,-546.28 132.96,-546.1 124.57,-539.63 122.37,-546.28"/>
</g>
<!-- types/ids.ts -->
<g id="node11" class="node">
<title>types/ids.ts</title>
<polygon fill="#ffcc99" stroke="black" points="202.38,-522 141.38,-522 141.38,-486 202.38,-486 202.38,-522"/>
<text text-anchor="middle" x="171.88" y="-501.82" font-family="Times,serif" font-size="9.00">types/ids.ts</text>
</g>
<!-- Tool.ts&#45;&gt;types/ids.ts -->
<g id="edge10" class="edge">
<title>Tool.ts&#45;&gt;types/ids.ts</title>
<path fill="none" stroke="black" d="M54.21,-504C75.25,-504 105.2,-504 129.48,-504"/>
<polygon fill="black" stroke="black" points="129.37,-507.5 139.37,-504 129.37,-500.5 129.37,-507.5"/>
</g>
<!-- types/permissions.ts -->
<g id="node12" class="node">
<title>types/permissions.ts</title>
<polygon fill="#ffcc99" stroke="black" points="221.88,-468 121.88,-468 121.88,-432 221.88,-432 221.88,-468"/>
<text text-anchor="middle" x="171.88" y="-447.82" font-family="Times,serif" font-size="9.00">types/permissions.ts</text>
</g>
<!-- Tool.ts&#45;&gt;types/permissions.ts -->
<g id="edge11" class="edge">
<title>Tool.ts&#45;&gt;types/permissions.ts</title>
<path fill="none" stroke="black" d="M54.34,-491.92C65.28,-487.06 78.16,-481.54 90,-477 96.62,-474.46 103.6,-471.92 110.56,-469.48"/>
<polygon fill="black" stroke="black" points="111.7,-472.79 120.01,-466.22 109.42,-466.17 111.7,-472.79"/>
</g>
<!-- utils/commitAttribution.ts -->
<g id="node13" class="node">
<title>utils/commitAttribution.ts</title>
<polygon fill="#ffcc99" stroke="black" points="235,-414 108.75,-414 108.75,-378 235,-378 235,-414"/>
<text text-anchor="middle" x="171.88" y="-393.82" font-family="Times,serif" font-size="9.00">utils/commitAttribution.ts</text>
</g>
<!-- Tool.ts&#45;&gt;utils/commitAttribution.ts -->
<g id="edge12" class="edge">
<title>Tool.ts&#45;&gt;utils/commitAttribution.ts</title>
<path fill="none" stroke="black" d="M37.69,-485.66C48.25,-467.33 66.79,-439.56 90,-423 92.65,-421.11 95.45,-419.34 98.35,-417.69"/>
<polygon fill="black" stroke="black" points="99.82,-420.86 107.15,-413.21 96.65,-414.62 99.82,-420.86"/>
</g>
<!-- utils/fileHistory.ts -->
<g id="node14" class="node">
<title>utils/fileHistory.ts</title>
<polygon fill="#ffcc99" stroke="black" points="217.38,-360 126.38,-360 126.38,-324 217.38,-324 217.38,-360"/>
<text text-anchor="middle" x="171.88" y="-339.82" font-family="Times,serif" font-size="9.00">utils/fileHistory.ts</text>
</g>
<!-- Tool.ts&#45;&gt;utils/fileHistory.ts -->
<g id="edge13" class="edge">
<title>Tool.ts&#45;&gt;utils/fileHistory.ts</title>
<path fill="none" stroke="black" d="M31.47,-485.96C37.92,-457.18 54.48,-400.86 90,-369 97.21,-362.53 106.01,-357.61 115.12,-353.86"/>
<polygon fill="black" stroke="black" points="116.24,-357.18 124.46,-350.49 113.87,-350.59 116.24,-357.18"/>
</g>
<!-- utils/fileStateCache.ts -->
<g id="node15" class="node">
<title>utils/fileStateCache.ts</title>
<polygon fill="#ffcc99" stroke="black" points="224.88,-306 118.88,-306 118.88,-270 224.88,-270 224.88,-306"/>
<text text-anchor="middle" x="171.88" y="-285.82" font-family="Times,serif" font-size="9.00">utils/fileStateCache.ts</text>
</g>
<!-- Tool.ts&#45;&gt;utils/fileStateCache.ts -->
<g id="edge14" class="edge">
<title>Tool.ts&#45;&gt;utils/fileStateCache.ts</title>
<path fill="none" stroke="black" d="M28.75,-485.63C31.28,-448.28 42.27,-362.99 90,-315 95.26,-309.71 101.58,-305.46 108.35,-302.04"/>
<polygon fill="black" stroke="black" points="109.35,-305.42 117.11,-298.21 106.55,-299.01 109.35,-305.42"/>
</g>
<!-- utils/permissions/denialTracking.ts -->
<g id="node16" class="node">
<title>utils/permissions/denialTracking.ts</title>
<polygon fill="#ffcc99" stroke="black" points="253.75,-252 90,-252 90,-216 253.75,-216 253.75,-252"/>
<text text-anchor="middle" x="171.88" y="-231.82" font-family="Times,serif" font-size="9.00">utils/permissions/denialTracking.ts</text>
</g>
<!-- Tool.ts&#45;&gt;utils/permissions/denialTracking.ts -->
<g id="edge15" class="edge">
<title>Tool.ts&#45;&gt;utils/permissions/denialTracking.ts</title>
<path fill="none" stroke="black" d="M30.37,-485.8C37.3,-435.2 59.01,-294.32 90,-261 90.47,-260.49 90.95,-259.99 91.45,-259.5"/>
<polygon fill="black" stroke="black" points="93.46,-262.38 98.97,-253.33 89.02,-256.97 93.46,-262.38"/>
</g>
<!-- utils/systemPromptType.ts -->
<g id="node17" class="node">
<title>utils/systemPromptType.ts</title>
<polygon fill="#ffcc99" stroke="black" points="235,-198 108.75,-198 108.75,-162 235,-162 235,-198"/>
<text text-anchor="middle" x="171.88" y="-177.82" font-family="Times,serif" font-size="9.00">utils/systemPromptType.ts</text>
</g>
<!-- Tool.ts&#45;&gt;utils/systemPromptType.ts -->
<g id="edge16" class="edge">
<title>Tool.ts&#45;&gt;utils/systemPromptType.ts</title>
<path fill="none" stroke="black" d="M29.47,-485.63C34.47,-427.52 52.62,-249.01 90,-207 92.64,-204.04 95.61,-201.39 98.82,-199.04"/>
<polygon fill="black" stroke="black" points="100.43,-202.17 107.11,-193.95 96.76,-196.2 100.43,-202.17"/>
</g>
<!-- utils/theme.ts -->
<g id="node18" class="node">
<title>utils/theme.ts</title>
<polygon fill="#ffcc99" stroke="black" points="208,-144 135.75,-144 135.75,-108 208,-108 208,-144"/>
<text text-anchor="middle" x="171.88" y="-123.83" font-family="Times,serif" font-size="9.00">utils/theme.ts</text>
</g>
<!-- Tool.ts&#45;&gt;utils/theme.ts -->
<g id="edge17" class="edge">
<title>Tool.ts&#45;&gt;utils/theme.ts</title>
<path fill="none" stroke="black" d="M28.83,-485.58C32.09,-420.69 46.15,-203.84 90,-153 98.91,-142.67 111.89,-136.27 124.86,-132.32"/>
<polygon fill="black" stroke="black" points="125.37,-135.81 134.19,-129.93 123.63,-129.03 125.37,-135.81"/>
</g>
<!-- utils/thinking.ts -->
<g id="node19" class="node">
<title>utils/thinking.ts</title>
<polygon fill="#ffcc99" stroke="black" points="213.25,-90 130.5,-90 130.5,-54 213.25,-54 213.25,-90"/>
<text text-anchor="middle" x="171.88" y="-69.83" font-family="Times,serif" font-size="9.00">utils/thinking.ts</text>
</g>
<!-- Tool.ts&#45;&gt;utils/thinking.ts -->
<g id="edge18" class="edge">
<title>Tool.ts&#45;&gt;utils/thinking.ts</title>
<path fill="none" stroke="black" d="M28.34,-485.78C30.03,-414.93 39.58,-158.83 90,-99 97.59,-89.99 108.28,-83.98 119.4,-79.96"/>
<polygon fill="black" stroke="black" points="120.12,-83.4 128.66,-77.14 118.08,-76.71 120.12,-83.4"/>
</g>
<!-- utils/toolResultStorage.ts -->
<g id="node20" class="node">
<title>utils/toolResultStorage.ts</title>
<polygon fill="#ffcc99" stroke="black" points="232,-36 111.75,-36 111.75,0 232,0 232,-36"/>
<text text-anchor="middle" x="171.88" y="-15.82" font-family="Times,serif" font-size="9.00">utils/toolResultStorage.ts</text>
</g>
<!-- Tool.ts&#45;&gt;utils/toolResultStorage.ts -->
<g id="edge19" class="edge">
<title>Tool.ts&#45;&gt;utils/toolResultStorage.ts</title>
<path fill="none" stroke="black" d="M27.98,-485.76C28.25,-409.1 33.02,-113.84 90,-45 93.33,-40.98 97.27,-37.55 101.61,-34.63"/>
<polygon fill="black" stroke="black" points="103.28,-37.71 110.29,-29.76 99.86,-31.6 103.28,-37.71"/>
</g>
</g>
</svg>
