<?xml version="1.0" encoding="UTF-8" standalone="no"?>
<!DOCTYPE svg PUBLIC "-//W3C//DTD SVG 1.1//EN"
 "http://www.w3.org/Graphics/SVG/1.1/DTD/svg11.dtd">
<!-- Generated by graphviz version 9.0.0 (20230911.1827)
 -->
<!-- Title: cot_architecture Pages: 1 -->
<svg width="1715pt" height="595pt"
 viewBox="0.00 0.00 1715.25 594.62" xmlns="http://www.w3.org/2000/svg" xmlns:xlink="http://www.w3.org/1999/xlink">
<g id="graph0" class="graph" transform="scale(1 1) rotate(0) translate(4 590.62)">
<title>cot_architecture</title>
<polygon fill="white" stroke="none" points="-4,4 -4,-590.62 1711.25,-590.62 1711.25,4 -4,4"/>
<text text-anchor="middle" x="853.62" y="-569.33" font-family="Times,serif" font-size="14.00">CoT / Extended Thinking Architecture</text>
<g id="clust1" class="cluster">
<title>cluster_core</title>
<polygon fill="#f8f8f8" stroke="#e0e0e0" points="572,-8 572,-225 936,-225 936,-8 572,-8"/>
<text text-anchor="middle" x="754" y="-207.7" font-family="Times,serif" font-size="14.00">Core: Three&#45;Layer Thinking System</text>
</g>
<g id="clust2" class="cluster">
<title>cluster_api</title>
<polygon fill="#f0f0fa" stroke="#d0d0e0" points="1263,-288.38 1263,-551.12 1618,-551.12 1618,-288.38 1263,-288.38"/>
<text text-anchor="middle" x="1440.5" y="-533.83" font-family="Times,serif" font-size="14.00">API Layer: Request &amp; Response</text>
</g>
<g id="clust3" class="cluster">
<title>cluster_consumers</title>
<polygon fill="#f0faf0" stroke="#d0e0d0" points="566,-287.62 566,-378.88 1255,-378.88 1255,-287.62 566,-287.62"/>
<text text-anchor="middle" x="910.5" y="-361.57" font-family="Times,serif" font-size="14.00">Consumers: UI &amp; Agents</text>
</g>
<g id="clust4" class="cluster">
<title>cluster_support</title>
<polygon fill="#faf0fa" stroke="#e0d0e0" points="8,-282 8,-538.38 223,-538.38 223,-282 8,-282"/>
<text text-anchor="middle" x="115.5" y="-521.08" font-family="Times,serif" font-size="14.00">Support: Messages &amp; Compact</text>
</g>
<!-- utils/thinking.ts -->
<g id="node1" class="node">
<title>utils/thinking.ts</title>
<polygon fill="#ff9999" stroke="black" points="888.25,-75 759.75,-75 759.75,-16 888.25,-16 888.25,-75"/>
<text text-anchor="middle" x="824" y="-62.45" font-family="Times,serif" font-size="9.00">thinking.ts</text>
<text text-anchor="middle" x="824" y="-49.7" font-family="Times,serif" font-size="9.00">(ThinkingConfig type</text>
<text text-anchor="middle" x="824" y="-36.95" font-family="Times,serif" font-size="9.00">model capability detection</text>
<text text-anchor="middle" x="824" y="-24.2" font-family="Times,serif" font-size="9.00">ultrathink keyword)</text>
</g>
<!-- utils/effort.ts -->
<g id="node2" class="node">
<title>utils/effort.ts</title>
<polygon fill="#ffcc99" stroke="black" points="875.25,-189.5 722.75,-189.5 722.75,-130.5 875.25,-130.5 875.25,-189.5"/>
<text text-anchor="middle" x="799" y="-176.95" font-family="Times,serif" font-size="9.00">effort.ts</text>
<text text-anchor="middle" x="799" y="-164.2" font-family="Times,serif" font-size="9.00">(Effort levels: low/med/high/max</text>
<text text-anchor="middle" x="799" y="-151.45" font-family="Times,serif" font-size="9.00">priority chain</text>
<text text-anchor="middle" x="799" y="-138.7" font-family="Times,serif" font-size="9.00">model defaults)</text>
</g>
<!-- utils/effort.ts&#45;&gt;utils/thinking.ts -->
<g id="edge1" class="edge">
<title>utils/effort.ts&#45;&gt;utils/thinking.ts</title>
<path fill="none" stroke="black" d="M786.04,-130.25C782.49,-118.49 780.67,-104.89 785,-93 785.99,-90.27 787.22,-87.59 788.63,-84.98"/>
<polygon fill="black" stroke="black" points="791.56,-86.89 793.98,-76.58 785.66,-83.13 791.56,-86.89"/>
<text text-anchor="middle" x="857" y="-99.2" font-family="Times,serif" font-size="14.00">isUltrathinkEnabled()</text>
</g>
<!-- utils/attachments.ts -->
<g id="node3" class="node">
<title>utils/attachments.ts</title>
<polygon fill="#ffff99" stroke="black" points="704.38,-183.12 579.62,-183.12 579.62,-136.88 704.38,-136.88 704.38,-183.12"/>
<text text-anchor="middle" x="642" y="-170.57" font-family="Times,serif" font-size="9.00">attachments.ts</text>
<text text-anchor="middle" x="642" y="-157.82" font-family="Times,serif" font-size="9.00">(ultrathink attachment</text>
<text text-anchor="middle" x="642" y="-145.07" font-family="Times,serif" font-size="9.00">effort → system reminder)</text>
</g>
<!-- utils/attachments.ts&#45;&gt;utils/thinking.ts -->
<g id="edge2" class="edge">
<title>utils/attachments.ts&#45;&gt;utils/thinking.ts</title>
<path fill="none" stroke="black" d="M622.07,-136.51C612.47,-122.88 605.04,-105.73 615.25,-93 631.91,-72.22 695.46,-60.13 748.12,-53.51"/>
<polygon fill="black" stroke="black" points="748.49,-56.99 758,-52.32 747.66,-50.04 748.49,-56.99"/>
<text text-anchor="middle" x="696.38" y="-99.2" font-family="Times,serif" font-size="14.00">hasUltrathinkKeyword()</text>
</g>
<!-- services/api/claude.ts -->
<g id="node4" class="node">
<title>services/api/claude.ts</title>
<polygon fill="#99ccff" stroke="black" points="1398.5,-515.62 1271.5,-515.62 1271.5,-443.88 1398.5,-443.88 1398.5,-515.62"/>
<text text-anchor="middle" x="1335" y="-503.07" font-family="Times,serif" font-size="9.00">claude.ts</text>
<text text-anchor="middle" x="1335" y="-490.32" font-family="Times,serif" font-size="9.00">(thinking param assembly</text>
<text text-anchor="middle" x="1335" y="-477.57" font-family="Times,serif" font-size="9.00">effort param assembly</text>
<text text-anchor="middle" x="1335" y="-464.82" font-family="Times,serif" font-size="9.00">streaming handler</text>
<text text-anchor="middle" x="1335" y="-452.07" font-family="Times,serif" font-size="9.00">signature handling)</text>
</g>
<!-- services/api/claude.ts&#45;&gt;utils/thinking.ts -->
<g id="edge3" class="edge">
<title>services/api/claude.ts&#45;&gt;utils/thinking.ts</title>
<path fill="none" stroke="black" d="M1398.76,-475.56C1471.22,-470.45 1582.86,-457.54 1609,-425.88 1647.49,-379.25 1579.63,-310.14 1549,-282 1360.89,-109.17 1044.28,-63.08 899.89,-50.87"/>
<polygon fill="black" stroke="black" points="900.3,-47.39 890.05,-50.07 899.73,-54.37 900.3,-47.39"/>
<text text-anchor="middle" x="1622.12" y="-258.7" font-family="Times,serif" font-size="14.00">modelSupportsThinking()</text>
<text text-anchor="middle" x="1622.12" y="-239.2" font-family="Times,serif" font-size="14.00">modelSupportsAdaptive()</text>
</g>
<!-- services/api/claude.ts&#45;&gt;utils/effort.ts -->
<g id="edge4" class="edge">
<title>services/api/claude.ts&#45;&gt;utils/effort.ts</title>
<path fill="none" stroke="black" d="M1271.34,-476.66C1072.28,-469.49 471.5,-442.67 414.25,-378.88 385.49,-346.83 386.98,-315.32 414.25,-282 483.95,-196.82 548.53,-251.68 657,-233 681.78,-228.73 689.75,-234.58 713,-225 729.52,-218.2 745.74,-207.5 759.56,-196.78"/>
<polygon fill="black" stroke="black" points="761.49,-199.72 767.1,-190.73 757.11,-194.26 761.49,-199.72"/>
<text text-anchor="middle" x="488.88" y="-315.95" font-family="Times,serif" font-size="14.00">resolveAppliedEffort()</text>
</g>
<!-- utils/context.ts -->
<g id="node5" class="node">
<title>utils/context.ts</title>
<polygon fill="#99ccff" stroke="black" points="1383.38,-342.62 1270.62,-342.62 1270.62,-296.38 1383.38,-296.38 1383.38,-342.62"/>
<text text-anchor="middle" x="1327" y="-330.07" font-family="Times,serif" font-size="9.00">utils/context.ts</text>
<text text-anchor="middle" x="1327" y="-317.32" font-family="Times,serif" font-size="9.00">(thinking token budget</text>
<text text-anchor="middle" x="1327" y="-304.57" font-family="Times,serif" font-size="9.00">model output limits)</text>
</g>
<!-- services/api/claude.ts&#45;&gt;utils/context.ts -->
<g id="edge5" class="edge">
<title>services/api/claude.ts&#45;&gt;utils/context.ts</title>
<path fill="none" stroke="black" d="M1299.96,-443.61C1296.11,-438.05 1292.76,-432.07 1290.5,-425.88 1281.55,-401.34 1292.17,-373.39 1304.22,-352.45"/>
<polygon fill="black" stroke="black" points="1307.12,-354.42 1309.38,-344.07 1301.16,-350.75 1307.12,-354.42"/>
<text text-anchor="middle" x="1373.25" y="-402.82" font-family="Times,serif" font-size="14.00">getMaxThinkingTokens()</text>
</g>
<!-- utils/betas.ts -->
<g id="node6" class="node">
<title>utils/betas.ts</title>
<polygon fill="#99ccff" stroke="black" points="1540.25,-342.62 1417.75,-342.62 1417.75,-296.38 1540.25,-296.38 1540.25,-342.62"/>
<text text-anchor="middle" x="1479" y="-330.07" font-family="Times,serif" font-size="9.00">betas.ts</text>
<text text-anchor="middle" x="1479" y="-317.32" font-family="Times,serif" font-size="9.00">(REDACT_THINKING beta</text>
<text text-anchor="middle" x="1479" y="-304.57" font-family="Times,serif" font-size="9.00">EFFORT beta header)</text>
</g>
<!-- services/api/claude.ts&#45;&gt;utils/betas.ts -->
<g id="edge6" class="edge">
<title>services/api/claude.ts&#45;&gt;utils/betas.ts</title>
<path fill="none" stroke="black" d="M1398.82,-463.95C1420.17,-455.99 1442.27,-443.95 1457,-425.88 1473.31,-405.86 1478.43,-376.75 1479.68,-354.2"/>
<polygon fill="black" stroke="black" points="1483.17,-354.38 1479.97,-344.28 1476.18,-354.17 1483.17,-354.38"/>
<text text-anchor="middle" x="1539.62" y="-412.57" font-family="Times,serif" font-size="14.00">REDACT_THINKING</text>
<text text-anchor="middle" x="1539.62" y="-393.07" font-family="Times,serif" font-size="14.00">EFFORT beta</text>
</g>
<!-- utils/messages.ts -->
<g id="node12" class="node">
<title>utils/messages.ts</title>
<polygon fill="#cc99ff" stroke="black" points="214.5,-349 99.5,-349 99.5,-290 214.5,-290 214.5,-349"/>
<text text-anchor="middle" x="157" y="-336.45" font-family="Times,serif" font-size="9.00">messages.ts</text>
<text text-anchor="middle" x="157" y="-323.7" font-family="Times,serif" font-size="9.00">(thinking block filter</text>
<text text-anchor="middle" x="157" y="-310.95" font-family="Times,serif" font-size="9.00">signature cleanup</text>
<text text-anchor="middle" x="157" y="-298.2" font-family="Times,serif" font-size="9.00">ultrathink → reminder)</text>
</g>
<!-- services/api/claude.ts&#45;&gt;utils/messages.ts -->
<g id="edge12" class="edge">
<title>services/api/claude.ts&#45;&gt;utils/messages.ts</title>
<path fill="none" stroke="black" stroke-dasharray="5,2" d="M1271.37,-479.26C1047.92,-480.58 307.69,-480.72 217.75,-425.88 217.33,-425.62 196.41,-389.25 179.24,-359.31"/>
<polygon fill="black" stroke="black" points="182.36,-357.72 174.34,-350.78 176.28,-361.2 182.36,-357.72"/>
<text text-anchor="middle" x="306.12" y="-402.82" font-family="Times,serif" font-size="14.00">normalize thinking blocks</text>
</g>
<!-- components/PromptInput -->
<g id="node7" class="node">
<title>components/PromptInput</title>
<polygon fill="#99ff99" stroke="black" points="813.75,-342.62 694.25,-342.62 694.25,-296.38 813.75,-296.38 813.75,-342.62"/>
<text text-anchor="middle" x="754" y="-330.07" font-family="Times,serif" font-size="9.00">PromptInput.tsx</text>
<text text-anchor="middle" x="754" y="-317.32" font-family="Times,serif" font-size="9.00">(ultrathink rainbow text</text>
<text text-anchor="middle" x="754" y="-304.57" font-family="Times,serif" font-size="9.00">effort notification)</text>
</g>
<!-- components/PromptInput&#45;&gt;utils/thinking.ts -->
<g id="edge7" class="edge">
<title>components/PromptInput&#45;&gt;utils/thinking.ts</title>
<path fill="none" stroke="black" d="M792.18,-295.9C801.98,-290.77 812.68,-285.74 823,-282 843.08,-274.71 853.85,-285.97 870,-272 927.17,-222.56 915.68,-186.9 929,-112.5 930.53,-103.97 933.73,-100.26 929,-93 921.61,-81.64 910.74,-73.04 898.76,-66.53"/>
<polygon fill="black" stroke="black" points="900.38,-63.42 889.85,-62.19 897.32,-69.71 900.38,-63.42"/>
<text text-anchor="middle" x="975.25" y="-156.45" font-family="Times,serif" font-size="14.00">rainbow detect</text>
</g>
<!-- components/PromptInput&#45;&gt;utils/effort.ts -->
<g id="edge8" class="edge">
<title>components/PromptInput&#45;&gt;utils/effort.ts</title>
<path fill="none" stroke="black" d="M760.45,-295.93C767.52,-271.2 778.99,-231.02 787.59,-200.93"/>
<polygon fill="black" stroke="black" points="790.93,-201.98 790.31,-191.4 784.2,-200.05 790.93,-201.98"/>
<text text-anchor="middle" x="821.25" y="-248.95" font-family="Times,serif" font-size="14.00">effort display</text>
</g>
<!-- components/AssistantThinkingMessage -->
<g id="node8" class="node">
<title>components/AssistantThinkingMessage</title>
<polygon fill="#99ff99" stroke="black" points="1104.5,-342.62 977.5,-342.62 977.5,-296.38 1104.5,-296.38 1104.5,-342.62"/>
<text text-anchor="middle" x="1041" y="-330.07" font-family="Times,serif" font-size="9.00">AssistantThinkingMessage</text>
<text text-anchor="middle" x="1041" y="-317.32" font-family="Times,serif" font-size="9.00">(thinking block render</text>
<text text-anchor="middle" x="1041" y="-304.57" font-family="Times,serif" font-size="9.00">∴ Thinking / Ctrl+O)</text>
</g>
<!-- components/AssistantRedactedThinking -->
<g id="node9" class="node">
<title>components/AssistantRedactedThinking</title>
<polygon fill="#99ff99" stroke="black" points="959.88,-343.38 832.12,-343.38 832.12,-295.62 959.88,-295.62 959.88,-343.38"/>
<text text-anchor="middle" x="896" y="-330.82" font-family="Times,serif" font-size="9.00">RedactedThinkingMessage</text>
<text text-anchor="middle" x="896" y="-318.07" font-family="Times,serif" font-size="9.00">(✻ Thinking…</text>
<text text-anchor="middle" x="896" y="-303.82" font-family="Times,serif" font-size="9.00">content hidden)</text>
</g>
<!-- tools/AgentTool/runAgent.ts -->
<g id="node10" class="node">
<title>tools/AgentTool/runAgent.ts</title>
<polygon fill="#99ff99" stroke="black" points="1247.38,-342.62 1122.62,-342.62 1122.62,-296.38 1247.38,-296.38 1247.38,-342.62"/>
<text text-anchor="middle" x="1185" y="-330.07" font-family="Times,serif" font-size="9.00">AgentTool/runAgent.ts</text>
<text text-anchor="middle" x="1185" y="-317.32" font-family="Times,serif" font-size="9.00">(fork: inherit thinking</text>
<text text-anchor="middle" x="1185" y="-304.57" font-family="Times,serif" font-size="9.00">normal: disable thinking)</text>
</g>
<!-- tools/AgentTool/runAgent.ts&#45;&gt;utils/thinking.ts -->
<g id="edge11" class="edge">
<title>tools/AgentTool/runAgent.ts&#45;&gt;utils/thinking.ts</title>
<path fill="none" stroke="black" d="M1171.44,-295.89C1147.32,-257.33 1093.49,-178.39 1030,-130.5 991.08,-101.14 940.46,-80.31 899.14,-66.74"/>
<polygon fill="black" stroke="black" points="900.33,-63.45 889.74,-63.74 898.2,-70.12 900.33,-63.45"/>
<text text-anchor="middle" x="1169.75" y="-156.45" font-family="Times,serif" font-size="14.00">inherit/disable</text>
</g>
<!-- screens/REPL.tsx -->
<g id="node11" class="node">
<title>screens/REPL.tsx</title>
<polygon fill="#99ff99" stroke="black" points="676.12,-342.62 573.88,-342.62 573.88,-296.38 676.12,-296.38 676.12,-342.62"/>
<text text-anchor="middle" x="625" y="-330.07" font-family="Times,serif" font-size="9.00">REPL.tsx</text>
<text text-anchor="middle" x="625" y="-317.32" font-family="Times,serif" font-size="9.00">(ThinkingConfig init</text>
<text text-anchor="middle" x="625" y="-304.57" font-family="Times,serif" font-size="9.00">session lifecycle)</text>
</g>
<!-- screens/REPL.tsx&#45;&gt;utils/thinking.ts -->
<g id="edge9" class="edge">
<title>screens/REPL.tsx&#45;&gt;utils/thinking.ts</title>
<path fill="none" stroke="black" d="M585.68,-295.91C577.26,-291.22 568.38,-286.37 560,-282 508.36,-255.06 472.96,-274.33 442,-225 419.68,-189.42 415.82,-163.34 442,-130.5 479.5,-83.46 648.06,-61.3 748.31,-52.11"/>
<polygon fill="black" stroke="black" points="748.43,-55.61 758.08,-51.24 747.81,-48.64 748.43,-55.61"/>
<text text-anchor="middle" x="506.5" y="-156.45" font-family="Times,serif" font-size="14.00">init ThinkingConfig</text>
</g>
<!-- screens/REPL.tsx&#45;&gt;utils/effort.ts -->
<g id="edge10" class="edge">
<title>screens/REPL.tsx&#45;&gt;utils/effort.ts</title>
<path fill="none" stroke="black" d="M640.65,-296.19C654.4,-277.69 675.71,-251.52 698.5,-233 704.21,-228.36 706.81,-228.98 713,-225 726.47,-216.33 740.61,-206.25 753.45,-196.69"/>
<polygon fill="black" stroke="black" points="755.44,-199.57 761.32,-190.76 751.23,-193.98 755.44,-199.57"/>
<text text-anchor="middle" x="730.25" y="-248.95" font-family="Times,serif" font-size="14.00">init effort</text>
</g>
<!-- utils/messages.ts&#45;&gt;utils/attachments.ts -->
<g id="edge13" class="edge">
<title>utils/messages.ts&#45;&gt;utils/attachments.ts</title>
<path fill="none" stroke="black" stroke-dasharray="5,2" d="M183.63,-289.62C204.1,-269.62 234.27,-244.58 266.5,-233 297.83,-221.75 534.88,-236.83 566,-225 584.56,-217.94 601.79,-204.29 615.14,-191.41"/>
<polygon fill="black" stroke="black" points="617.31,-194.19 621.87,-184.62 612.34,-189.26 617.31,-194.19"/>
<text text-anchor="middle" x="330.75" y="-258.7" font-family="Times,serif" font-size="14.00">ultrathink_effort</text>
<text text-anchor="middle" x="330.75" y="-239.2" font-family="Times,serif" font-size="14.00">→ system reminder</text>
</g>
<!-- services/compact/ -->
<g id="node13" class="node">
<title>services/compact/</title>
<polygon fill="#cc99ff" stroke="black" points="128,-502.88 16,-502.88 16,-456.62 128,-456.62 128,-502.88"/>
<text text-anchor="middle" x="72" y="-490.32" font-family="Times,serif" font-size="9.00">compact/</text>
<text text-anchor="middle" x="72" y="-477.57" font-family="Times,serif" font-size="9.00">(thinking token count</text>
<text text-anchor="middle" x="72" y="-464.82" font-family="Times,serif" font-size="9.00">post&#45;compact cleanup)</text>
</g>
<!-- services/compact/&#45;&gt;utils/messages.ts -->
<g id="edge14" class="edge">
<title>services/compact/&#45;&gt;utils/messages.ts</title>
<path fill="none" stroke="black" stroke-dasharray="5,2" d="M59.65,-456.32C50.74,-436.89 42.17,-408.57 54,-386.88 62.19,-371.86 75.39,-359.73 89.65,-350.15"/>
<polygon fill="black" stroke="black" points="91.22,-353.3 97.85,-345.03 87.51,-347.36 91.22,-353.3"/>
<text text-anchor="middle" x="124.5" y="-402.82" font-family="Times,serif" font-size="14.00">thinking token count</text>
</g>
</g>
</svg>
