<?xml version="1.0" encoding="UTF-8" standalone="no"?>
<!DOCTYPE svg PUBLIC "-//W3C//DTD SVG 1.1//EN"
 "http://www.w3.org/Graphics/SVG/1.1/DTD/svg11.dtd">
<!-- Generated by graphviz version 9.0.0 (20230911.1827)
 -->
<!-- Pages: 1 -->
<svg width="777pt" height="1638pt"
 viewBox="0.00 0.00 777.00 1637.50" xmlns="http://www.w3.org/2000/svg" xmlns:xlink="http://www.w3.org/1999/xlink">
<g id="graph0" class="graph" transform="scale(1 1) rotate(0) translate(4 1633.5)">
<polygon fill="white" stroke="none" points="-4,4 -4,-1633.5 773,-1633.5 773,4 -4,4"/>
<text text-anchor="middle" x="384.5" y="-1612.2" font-family="Times,serif" font-size="14.00">Layer 1: 6 files</text>
<!-- bootstrap/state.ts -->
<g id="node1" class="node">
<title>bootstrap/state.ts</title>
<polygon fill="#ffff99" stroke="black" points="696.62,-1278 610.12,-1278 610.12,-1242 696.62,-1242 696.62,-1278"/>
<text text-anchor="middle" x="653.38" y="-1257.83" font-family="Times,serif" font-size="9.00">bootstrap/state.ts</text>
</g>
<!-- constants/figures.ts -->
<g id="node2" class="node">
<title>constants/figures.ts</title>
<polygon fill="#ffff99" stroke="black" points="465.38,-1343 368.38,-1343 368.38,-1307 465.38,-1307 465.38,-1343"/>
<text text-anchor="middle" x="416.88" y="-1322.83" font-family="Times,serif" font-size="9.00">constants/figures.ts</text>
</g>
<!-- constants/keys.ts -->
<g id="node3" class="node">
<title>constants/keys.ts</title>
<polygon fill="#ffff99" stroke="black" points="696.62,-1602 610.12,-1602 610.12,-1566 696.62,-1566 696.62,-1602"/>
<text text-anchor="middle" x="653.38" y="-1581.83" font-family="Times,serif" font-size="9.00">constants/keys.ts</text>
</g>
<!-- services/analytics/firstPartyEventLogger.ts -->
<g id="node4" class="node">
<title>services/analytics/firstPartyEventLogger.ts</title>
<polygon fill="#ffff99" stroke="black" points="750.25,-1548 556.5,-1548 556.5,-1512 750.25,-1512 750.25,-1548"/>
<text text-anchor="middle" x="653.38" y="-1527.83" font-family="Times,serif" font-size="9.00">services/analytics/firstPartyEventLogger.ts</text>
</g>
<!-- services/analytics/growthbook.ts -->
<g id="node5" class="node">
<title>services/analytics/growthbook.ts</title>
<polygon fill="#ffcc99" stroke="black" points="493.88,-1397 339.88,-1397 339.88,-1361 493.88,-1361 493.88,-1397"/>
<text text-anchor="middle" x="416.88" y="-1376.83" font-family="Times,serif" font-size="9.00">services/analytics/growthbook.ts</text>
</g>
<!-- services/analytics/growthbook.ts&#45;&gt;bootstrap/state.ts -->
<g id="edge1" class="edge">
<title>services/analytics/growthbook.ts&#45;&gt;bootstrap/state.ts</title>
<path fill="none" stroke="black" d="M489.05,-1360.53C493.56,-1358.03 497.85,-1355.21 501.75,-1352 527.26,-1331.02 511.42,-1306.94 537.75,-1287 555.15,-1273.83 577.96,-1266.94 598.65,-1263.4"/>
<polygon fill="black" stroke="black" points="599,-1266.88 608.39,-1261.97 597.98,-1259.96 599,-1266.88"/>
</g>
<!-- services/analytics/growthbook.ts&#45;&gt;constants/keys.ts -->
<g id="edge2" class="edge">
<title>services/analytics/growthbook.ts&#45;&gt;constants/keys.ts</title>
<path fill="none" stroke="black" d="M424.87,-1397.47C439.71,-1434.04 477.98,-1515.7 537.75,-1557 555.56,-1569.31 578.25,-1576.05 598.73,-1579.73"/>
<polygon fill="black" stroke="black" points="597.92,-1583.15 608.34,-1581.24 599.01,-1576.23 597.92,-1583.15"/>
</g>
<!-- services/analytics/growthbook.ts&#45;&gt;services/analytics/firstPartyEventLogger.ts -->
<g id="edge3" class="edge">
<title>services/analytics/growthbook.ts&#45;&gt;services/analytics/firstPartyEventLogger.ts</title>
<path fill="none" stroke="black" d="M430.26,-1397.34C449.77,-1424.76 490.37,-1476.07 537.75,-1503 540.28,-1504.44 542.88,-1505.8 545.53,-1507.08"/>
<polygon fill="black" stroke="black" points="544.08,-1510.27 554.65,-1511.09 546.9,-1503.86 544.08,-1510.27"/>
</g>
<!-- utils/config.ts -->
<g id="node10" class="node">
<title>utils/config.ts</title>
<polygon fill="#ffff99" stroke="black" points="689.5,-1494 617.25,-1494 617.25,-1458 689.5,-1458 689.5,-1494"/>
<text text-anchor="middle" x="653.38" y="-1473.83" font-family="Times,serif" font-size="9.00">utils/config.ts</text>
</g>
<!-- services/analytics/growthbook.ts&#45;&gt;utils/config.ts -->
<g id="edge4" class="edge">
<title>services/analytics/growthbook.ts&#45;&gt;utils/config.ts</title>
<path fill="none" stroke="black" d="M443.85,-1397.24C467.38,-1412.99 503.51,-1435.33 537.75,-1449 559.48,-1457.68 584.68,-1463.99 605.92,-1468.32"/>
<polygon fill="black" stroke="black" points="604.97,-1471.7 615.45,-1470.18 606.31,-1464.83 604.97,-1471.7"/>
</g>
<!-- utils/debug.ts -->
<g id="node12" class="node">
<title>utils/debug.ts</title>
<polygon fill="#ffff99" stroke="black" points="689.12,-1008 617.62,-1008 617.62,-972 689.12,-972 689.12,-1008"/>
<text text-anchor="middle" x="653.38" y="-987.83" font-family="Times,serif" font-size="9.00">utils/debug.ts</text>
</g>
<!-- services/analytics/growthbook.ts&#45;&gt;utils/debug.ts -->
<g id="edge5" class="edge">
<title>services/analytics/growthbook.ts&#45;&gt;utils/debug.ts</title>
<path fill="none" stroke="black" d="M492.89,-1360.53C496.15,-1358.03 499.14,-1355.2 501.75,-1352 596.28,-1235.86 438.64,-1129.26 537.75,-1017 554.55,-997.97 582.03,-991.05 605.86,-988.97"/>
<polygon fill="black" stroke="black" points="605.92,-992.47 615.7,-988.39 605.51,-985.48 605.92,-992.47"/>
</g>
<!-- utils/errors.ts -->
<g id="node16" class="node">
<title>utils/errors.ts</title>
<polygon fill="#ffff99" stroke="black" points="689.88,-1224 616.88,-1224 616.88,-1188 689.88,-1188 689.88,-1224"/>
<text text-anchor="middle" x="653.38" y="-1203.83" font-family="Times,serif" font-size="9.00">utils/errors.ts</text>
</g>
<!-- services/analytics/growthbook.ts&#45;&gt;utils/errors.ts -->
<g id="edge6" class="edge">
<title>services/analytics/growthbook.ts&#45;&gt;utils/errors.ts</title>
<path fill="none" stroke="black" d="M491.04,-1360.68C494.92,-1358.15 498.53,-1355.27 501.75,-1352 540.48,-1312.58 497.48,-1270.83 537.75,-1233 555.72,-1216.11 582.21,-1209.15 605.19,-1206.5"/>
<polygon fill="black" stroke="black" points="605.32,-1210 614.98,-1205.63 604.71,-1203.03 605.32,-1210"/>
</g>
<!-- utils/http.ts -->
<g id="node21" class="node">
<title>utils/http.ts</title>
<polygon fill="#ffff99" stroke="black" points="685,-1440 621.75,-1440 621.75,-1404 685,-1404 685,-1440"/>
<text text-anchor="middle" x="653.38" y="-1419.83" font-family="Times,serif" font-size="9.00">utils/http.ts</text>
</g>
<!-- services/analytics/growthbook.ts&#45;&gt;utils/http.ts -->
<g id="edge7" class="edge">
<title>services/analytics/growthbook.ts&#45;&gt;utils/http.ts</title>
<path fill="none" stroke="black" d="M494.33,-1393.02C532.78,-1400.07 577.92,-1408.35 610.09,-1414.25"/>
<polygon fill="black" stroke="black" points="609.36,-1417.67 619.83,-1416.03 610.62,-1410.79 609.36,-1417.67"/>
</g>
<!-- utils/log.ts -->
<g id="node23" class="node">
<title>utils/log.ts</title>
<polygon fill="#ffff99" stroke="black" points="682.75,-1116 624,-1116 624,-1080 682.75,-1080 682.75,-1116"/>
<text text-anchor="middle" x="653.38" y="-1095.83" font-family="Times,serif" font-size="9.00">utils/log.ts</text>
</g>
<!-- services/analytics/growthbook.ts&#45;&gt;utils/log.ts -->
<g id="edge8" class="edge">
<title>services/analytics/growthbook.ts&#45;&gt;utils/log.ts</title>
<path fill="none" stroke="black" d="M492.33,-1360.64C495.78,-1358.12 498.96,-1355.25 501.75,-1352 568.2,-1274.42 468.24,-1199.86 537.75,-1125 556.48,-1104.82 587.23,-1098.4 612.16,-1096.85"/>
<polygon fill="black" stroke="black" points="612.12,-1100.35 621.99,-1096.5 611.87,-1093.36 612.12,-1100.35"/>
</g>
<!-- utils/signal.ts -->
<g id="node42" class="node">
<title>utils/signal.ts</title>
<polygon fill="#ffff99" stroke="black" points="689.12,-1386 617.62,-1386 617.62,-1350 689.12,-1350 689.12,-1386"/>
<text text-anchor="middle" x="653.38" y="-1365.83" font-family="Times,serif" font-size="9.00">utils/signal.ts</text>
</g>
<!-- services/analytics/growthbook.ts&#45;&gt;utils/signal.ts -->
<g id="edge9" class="edge">
<title>services/analytics/growthbook.ts&#45;&gt;utils/signal.ts</title>
<path fill="none" stroke="black" d="M494.33,-1375.41C531.24,-1373.68 574.3,-1371.66 606.14,-1370.17"/>
<polygon fill="black" stroke="black" points="606,-1373.68 615.82,-1369.71 605.67,-1366.69 606,-1373.68"/>
</g>
<!-- utils/slowOperations.ts -->
<g id="node43" class="node">
<title>utils/slowOperations.ts</title>
<polygon fill="#ffff99" stroke="black" points="709.38,-1062 597.38,-1062 597.38,-1026 709.38,-1026 709.38,-1062"/>
<text text-anchor="middle" x="653.38" y="-1041.83" font-family="Times,serif" font-size="9.00">utils/slowOperations.ts</text>
</g>
<!-- services/analytics/growthbook.ts&#45;&gt;utils/slowOperations.ts -->
<g id="edge10" class="edge">
<title>services/analytics/growthbook.ts&#45;&gt;utils/slowOperations.ts</title>
<path fill="none" stroke="black" d="M492.44,-1360.74C495.87,-1358.19 499.01,-1355.29 501.75,-1352 582.23,-1255.17 453.46,-1164.54 537.75,-1071 550.1,-1057.29 568,-1049.89 585.99,-1046.06"/>
<polygon fill="black" stroke="black" points="586.41,-1049.54 595.66,-1044.37 585.21,-1042.64 586.41,-1049.54"/>
</g>
<!-- utils/user.ts -->
<g id="node48" class="node">
<title>utils/user.ts</title>
<polygon fill="#ffff99" stroke="black" points="685,-1332 621.75,-1332 621.75,-1296 685,-1296 685,-1332"/>
<text text-anchor="middle" x="653.38" y="-1311.83" font-family="Times,serif" font-size="9.00">utils/user.ts</text>
</g>
<!-- services/analytics/growthbook.ts&#45;&gt;utils/user.ts -->
<g id="edge11" class="edge">
<title>services/analytics/growthbook.ts&#45;&gt;utils/user.ts</title>
<path fill="none" stroke="black" d="M475.42,-1360.55C502.9,-1351.77 531.23,-1342.8 537.75,-1341 561.64,-1334.41 588.6,-1328.01 610.38,-1323.09"/>
<polygon fill="black" stroke="black" points="611.09,-1326.52 620.09,-1320.92 609.56,-1319.69 611.09,-1326.52"/>
</g>
<!-- services/analytics/index.ts -->
<g id="node6" class="node">
<title>services/analytics/index.ts</title>
<polygon fill="#ffff99" stroke="black" points="716.5,-1170 590.25,-1170 590.25,-1134 716.5,-1134 716.5,-1170"/>
<text text-anchor="middle" x="653.38" y="-1149.83" font-family="Times,serif" font-size="9.00">services/analytics/index.ts</text>
</g>
<!-- services/remoteManagedSettings/syncCacheState.ts -->
<g id="node7" class="node">
<title>services/remoteManagedSettings/syncCacheState.ts</title>
<polygon fill="#ffff99" stroke="black" points="769,-630 537.75,-630 537.75,-594 769,-594 769,-630"/>
<text text-anchor="middle" x="653.38" y="-609.83" font-family="Times,serif" font-size="9.00">services/remoteManagedSettings/syncCacheState.ts</text>
</g>
<!-- utils/array.ts -->
<g id="node8" class="node">
<title>utils/array.ts</title>
<polygon fill="#ffff99" stroke="black" points="688,-576 618.75,-576 618.75,-540 688,-540 688,-576"/>
<text text-anchor="middle" x="653.38" y="-555.83" font-family="Times,serif" font-size="9.00">utils/array.ts</text>
</g>
<!-- utils/auth.ts -->
<g id="node9" class="node">
<title>utils/auth.ts</title>
<polygon fill="#ffff99" stroke="black" points="450,-1289 383.75,-1289 383.75,-1253 450,-1253 450,-1289"/>
<text text-anchor="middle" x="416.88" y="-1268.83" font-family="Times,serif" font-size="9.00">utils/auth.ts</text>
</g>
<!-- utils/context.ts -->
<g id="node11" class="node">
<title>utils/context.ts</title>
<polygon fill="#ffff99" stroke="black" points="455.62,-1235 378.12,-1235 378.12,-1199 455.62,-1199 455.62,-1235"/>
<text text-anchor="middle" x="416.88" y="-1214.83" font-family="Times,serif" font-size="9.00">utils/context.ts</text>
</g>
<!-- utils/diagLogs.ts -->
<g id="node13" class="node">
<title>utils/diagLogs.ts</title>
<polygon fill="#ffff99" stroke="black" points="694.75,-522 612,-522 612,-486 694.75,-486 694.75,-522"/>
<text text-anchor="middle" x="653.38" y="-501.82" font-family="Times,serif" font-size="9.00">utils/diagLogs.ts</text>
</g>
<!-- utils/env.ts -->
<g id="node14" class="node">
<title>utils/env.ts</title>
<polygon fill="#ffff99" stroke="black" points="447.38,-619 386.38,-619 386.38,-583 447.38,-583 447.38,-619"/>
<text text-anchor="middle" x="416.88" y="-598.83" font-family="Times,serif" font-size="9.00">utils/env.ts</text>
</g>
<!-- utils/envUtils.ts -->
<g id="node15" class="node">
<title>utils/envUtils.ts</title>
<polygon fill="#ffff99" stroke="black" points="694,-954 612.75,-954 612.75,-918 694,-918 694,-954"/>
<text text-anchor="middle" x="653.38" y="-933.83" font-family="Times,serif" font-size="9.00">utils/envUtils.ts</text>
</g>
<!-- utils/file.ts -->
<g id="node17" class="node">
<title>utils/file.ts</title>
<polygon fill="#ffff99" stroke="black" points="683.12,-468 623.62,-468 623.62,-432 683.12,-432 683.12,-468"/>
<text text-anchor="middle" x="653.38" y="-447.82" font-family="Times,serif" font-size="9.00">utils/file.ts</text>
</g>
<!-- utils/fileRead.ts -->
<g id="node18" class="node">
<title>utils/fileRead.ts</title>
<polygon fill="#ffff99" stroke="black" points="693.62,-414 613.12,-414 613.12,-378 693.62,-378 693.62,-414"/>
<text text-anchor="middle" x="653.38" y="-393.82" font-family="Times,serif" font-size="9.00">utils/fileRead.ts</text>
</g>
<!-- utils/fsOperations.ts -->
<g id="node19" class="node">
<title>utils/fsOperations.ts</title>
<polygon fill="#ffff99" stroke="black" points="703,-360 603.75,-360 603.75,-324 703,-324 703,-360"/>
<text text-anchor="middle" x="653.38" y="-339.82" font-family="Times,serif" font-size="9.00">utils/fsOperations.ts</text>
</g>
<!-- utils/git/gitignore.ts -->
<g id="node20" class="node">
<title>utils/git/gitignore.ts</title>
<polygon fill="#ffff99" stroke="black" points="701.88,-306 604.88,-306 604.88,-270 701.88,-270 701.88,-306"/>
<text text-anchor="middle" x="653.38" y="-285.82" font-family="Times,serif" font-size="9.00">utils/git/gitignore.ts</text>
</g>
<!-- utils/json.ts -->
<g id="node22" class="node">
<title>utils/json.ts</title>
<polygon fill="#ffff99" stroke="black" points="685.38,-252 621.38,-252 621.38,-216 685.38,-216 685.38,-252"/>
<text text-anchor="middle" x="653.38" y="-231.82" font-family="Times,serif" font-size="9.00">utils/json.ts</text>
</g>
<!-- utils/model/aliases.ts -->
<g id="node24" class="node">
<title>utils/model/aliases.ts</title>
<polygon fill="#ffff99" stroke="black" points="468.38,-1143 365.38,-1143 365.38,-1107 468.38,-1107 468.38,-1143"/>
<text text-anchor="middle" x="416.88" y="-1122.83" font-family="Times,serif" font-size="9.00">utils/model/aliases.ts</text>
</g>
<!-- utils/model/antModels.ts -->
<g id="node25" class="node">
<title>utils/model/antModels.ts</title>
<polygon fill="#ffff99" stroke="black" points="476.25,-1089 357.5,-1089 357.5,-1053 476.25,-1053 476.25,-1089"/>
<text text-anchor="middle" x="416.88" y="-1068.83" font-family="Times,serif" font-size="9.00">utils/model/antModels.ts</text>
</g>
<!-- utils/model/model.ts -->
<g id="node26" class="node">
<title>utils/model/model.ts</title>
<polygon fill="#ffcc99" stroke="black" points="257.75,-981 157,-981 157,-945 257.75,-945 257.75,-981"/>
<text text-anchor="middle" x="207.38" y="-960.83" font-family="Times,serif" font-size="9.00">utils/model/model.ts</text>
</g>
<!-- utils/model/model.ts&#45;&gt;bootstrap/state.ts -->
<g id="edge12" class="edge">
<title>utils/model/model.ts&#45;&gt;bootstrap/state.ts</title>
<path fill="none" stroke="black" d="M214.93,-981.48C229.53,-1019.8 268.51,-1108.01 332,-1152 395.55,-1196.03 435.72,-1149.79 501.75,-1190 523.04,-1202.96 516.53,-1219.92 537.75,-1233 555.95,-1244.22 578.4,-1250.78 598.6,-1254.61"/>
<polygon fill="black" stroke="black" points="597.93,-1258.05 608.37,-1256.27 599.1,-1251.15 597.93,-1258.05"/>
</g>
<!-- utils/model/model.ts&#45;&gt;constants/figures.ts -->
<g id="edge13" class="edge">
<title>utils/model/model.ts&#45;&gt;constants/figures.ts</title>
<path fill="none" stroke="black" d="M216.43,-981.37C232.57,-1018.5 269.58,-1105.31 296,-1180 314.28,-1231.69 293.53,-1258.93 332,-1298 339.02,-1305.13 347.92,-1310.38 357.3,-1314.24"/>
<polygon fill="black" stroke="black" points="355.98,-1317.48 366.57,-1317.53 358.32,-1310.89 355.98,-1317.48"/>
</g>
<!-- utils/model/model.ts&#45;&gt;utils/auth.ts -->
<g id="edge14" class="edge">
<title>utils/model/model.ts&#45;&gt;utils/auth.ts</title>
<path fill="none" stroke="black" d="M215.39,-981.25C238.33,-1040.51 310.78,-1224.86 332,-1244 343.2,-1254.11 358.23,-1260.43 372.46,-1264.39"/>
<polygon fill="black" stroke="black" points="371.6,-1267.79 382.15,-1266.73 373.25,-1260.98 371.6,-1267.79"/>
</g>
<!-- utils/model/model.ts&#45;&gt;utils/context.ts -->
<g id="edge15" class="edge">
<title>utils/model/model.ts&#45;&gt;utils/context.ts</title>
<path fill="none" stroke="black" d="M213.76,-981.3C226.98,-1023.2 264.96,-1126.96 332,-1185 342.02,-1193.68 354.65,-1200.12 367.04,-1204.86"/>
<polygon fill="black" stroke="black" points="365.77,-1208.13 376.37,-1208.1 368.07,-1201.51 365.77,-1208.13"/>
</g>
<!-- utils/model/model.ts&#45;&gt;utils/envUtils.ts -->
<g id="edge16" class="edge">
<title>utils/model/model.ts&#45;&gt;utils/envUtils.ts</title>
<path fill="none" stroke="black" d="M213.82,-944.58C226.74,-904.73 263.37,-811.12 332,-774 398.36,-738.11 441.92,-728.04 501.75,-774 550.99,-811.83 493.2,-865.74 537.75,-909 554.49,-925.25 579.08,-932.38 601.19,-935.29"/>
<polygon fill="black" stroke="black" points="600.67,-938.75 610.97,-936.3 601.39,-931.79 600.67,-938.75"/>
</g>
<!-- utils/model/model.ts&#45;&gt;utils/model/aliases.ts -->
<g id="edge17" class="edge">
<title>utils/model/model.ts&#45;&gt;utils/model/aliases.ts</title>
<path fill="none" stroke="black" d="M220.21,-981.07C239.99,-1009.89 282.51,-1066.25 332,-1098 338.9,-1102.43 346.6,-1106.19 354.44,-1109.36"/>
<polygon fill="black" stroke="black" points="353.17,-1112.62 363.76,-1112.81 355.6,-1106.06 353.17,-1112.62"/>
</g>
<!-- utils/model/model.ts&#45;&gt;utils/model/antModels.ts -->
<g id="edge18" class="edge">
<title>utils/model/model.ts&#45;&gt;utils/model/antModels.ts</title>
<path fill="none" stroke="black" d="M232.32,-981.5C256.41,-999.42 295.19,-1026.41 332,-1044 336.75,-1046.27 341.75,-1048.42 346.83,-1050.44"/>
<polygon fill="black" stroke="black" points="345.32,-1053.61 355.92,-1053.86 347.79,-1047.06 345.32,-1053.61"/>
</g>
<!-- utils/model/modelAllowlist.ts -->
<g id="node27" class="node">
<title>utils/model/modelAllowlist.ts</title>
<polygon fill="#ffff99" stroke="black" points="486,-1035 347.75,-1035 347.75,-999 486,-999 486,-1035"/>
<text text-anchor="middle" x="416.88" y="-1014.83" font-family="Times,serif" font-size="9.00">utils/model/modelAllowlist.ts</text>
</g>
<!-- utils/model/model.ts&#45;&gt;utils/model/modelAllowlist.ts -->
<g id="edge19" class="edge">
<title>utils/model/model.ts&#45;&gt;utils/model/modelAllowlist.ts</title>
<path fill="none" stroke="black" d="M258.08,-975.93C281.47,-982.02 309.95,-989.43 336.25,-996.28"/>
<polygon fill="black" stroke="black" points="335.34,-999.66 345.9,-998.79 337.1,-992.88 335.34,-999.66"/>
</g>
<!-- utils/model/modelStrings.ts -->
<g id="node28" class="node">
<title>utils/model/modelStrings.ts</title>
<polygon fill="#ffff99" stroke="black" points="482.25,-981 351.5,-981 351.5,-945 482.25,-945 482.25,-981"/>
<text text-anchor="middle" x="416.88" y="-960.83" font-family="Times,serif" font-size="9.00">utils/model/modelStrings.ts</text>
</g>
<!-- utils/model/model.ts&#45;&gt;utils/model/modelStrings.ts -->
<g id="edge20" class="edge">
<title>utils/model/model.ts&#45;&gt;utils/model/modelStrings.ts</title>
<path fill="none" stroke="black" d="M258.08,-963C282.52,-963 312.52,-963 339.77,-963"/>
<polygon fill="black" stroke="black" points="339.74,-966.5 349.74,-963 339.74,-959.5 339.74,-966.5"/>
</g>
<!-- utils/model/providers.ts -->
<g id="node30" class="node">
<title>utils/model/providers.ts</title>
<polygon fill="#ffcc99" stroke="black" points="474.75,-727 359,-727 359,-691 474.75,-691 474.75,-727"/>
<text text-anchor="middle" x="416.88" y="-706.83" font-family="Times,serif" font-size="9.00">utils/model/providers.ts</text>
</g>
<!-- utils/model/model.ts&#45;&gt;utils/model/providers.ts -->
<g id="edge21" class="edge">
<title>utils/model/model.ts&#45;&gt;utils/model/providers.ts</title>
<path fill="none" stroke="black" d="M213.76,-944.7C226.98,-902.8 264.96,-799.04 332,-741 336.98,-736.69 342.61,-732.93 348.52,-729.65"/>
<polygon fill="black" stroke="black" points="349.95,-732.85 357.35,-725.26 346.83,-726.58 349.95,-732.85"/>
</g>
<!-- utils/modelCost.ts -->
<g id="node31" class="node">
<title>utils/modelCost.ts</title>
<polygon fill="#ffff99" stroke="black" points="461.62,-927 372.12,-927 372.12,-891 461.62,-891 461.62,-927"/>
<text text-anchor="middle" x="416.88" y="-906.83" font-family="Times,serif" font-size="9.00">utils/modelCost.ts</text>
</g>
<!-- utils/model/model.ts&#45;&gt;utils/modelCost.ts -->
<g id="edge22" class="edge">
<title>utils/model/model.ts&#45;&gt;utils/modelCost.ts</title>
<path fill="none" stroke="black" d="M258.08,-950.07C289.07,-942 329,-931.61 360.93,-923.3"/>
<polygon fill="black" stroke="black" points="361.61,-926.74 370.4,-920.83 359.84,-919.97 361.61,-926.74"/>
</g>
<!-- utils/permissions/PermissionMode.ts -->
<g id="node32" class="node">
<title>utils/permissions/PermissionMode.ts</title>
<polygon fill="#ffff99" stroke="black" points="501.75,-873 332,-873 332,-837 501.75,-837 501.75,-873"/>
<text text-anchor="middle" x="416.88" y="-852.83" font-family="Times,serif" font-size="9.00">utils/permissions/PermissionMode.ts</text>
</g>
<!-- utils/model/model.ts&#45;&gt;utils/permissions/PermissionMode.ts -->
<g id="edge23" class="edge">
<title>utils/model/model.ts&#45;&gt;utils/permissions/PermissionMode.ts</title>
<path fill="none" stroke="black" d="M232.32,-944.5C256.41,-926.58 295.19,-899.59 332,-882 335.24,-880.45 338.6,-878.96 342.02,-877.52"/>
<polygon fill="black" stroke="black" points="343,-880.9 351.01,-873.96 340.42,-874.39 343,-880.9"/>
</g>
<!-- utils/settings/settings.ts -->
<g id="node38" class="node">
<title>utils/settings/settings.ts</title>
<polygon fill="#ffcc99" stroke="black" points="472.5,-673 361.25,-673 361.25,-637 472.5,-637 472.5,-673"/>
<text text-anchor="middle" x="416.88" y="-652.83" font-family="Times,serif" font-size="9.00">utils/settings/settings.ts</text>
</g>
<!-- utils/model/model.ts&#45;&gt;utils/settings/settings.ts -->
<g id="edge24" class="edge">
<title>utils/model/model.ts&#45;&gt;utils/settings/settings.ts</title>
<path fill="none" stroke="black" d="M217.76,-944.7C234.42,-911.91 269.9,-840.76 296,-779 313.9,-736.64 298.78,-713.79 332,-682 337.42,-676.81 343.84,-672.62 350.68,-669.24"/>
<polygon fill="black" stroke="black" points="351.74,-672.59 359.55,-665.43 348.98,-666.16 351.74,-672.59"/>
</g>
<!-- utils/stringUtils.ts -->
<g id="node45" class="node">
<title>utils/stringUtils.ts</title>
<polygon fill="#ffff99" stroke="black" points="462,-819 371.75,-819 371.75,-783 462,-783 462,-819"/>
<text text-anchor="middle" x="416.88" y="-798.83" font-family="Times,serif" font-size="9.00">utils/stringUtils.ts</text>
</g>
<!-- utils/model/model.ts&#45;&gt;utils/stringUtils.ts -->
<g id="edge25" class="edge">
<title>utils/model/model.ts&#45;&gt;utils/stringUtils.ts</title>
<path fill="none" stroke="black" d="M220.21,-944.93C239.99,-916.11 282.51,-859.75 332,-828 340.7,-822.42 350.65,-817.9 360.58,-814.28"/>
<polygon fill="black" stroke="black" points="361.49,-817.67 369.86,-811.17 359.27,-811.03 361.49,-817.67"/>
</g>
<!-- utils/model/modelSupportOverrides.ts -->
<g id="node29" class="node">
<title>utils/model/modelSupportOverrides.ts</title>
<polygon fill="#ffcc99" stroke="black" points="296,-770 118.75,-770 118.75,-734 296,-734 296,-770"/>
<text text-anchor="middle" x="207.38" y="-749.83" font-family="Times,serif" font-size="9.00">utils/model/modelSupportOverrides.ts</text>
</g>
<!-- utils/model/modelSupportOverrides.ts&#45;&gt;utils/model/providers.ts -->
<g id="edge26" class="edge">
<title>utils/model/modelSupportOverrides.ts&#45;&gt;utils/model/providers.ts</title>
<path fill="none" stroke="black" d="M296.37,-733.76C313.52,-730.21 331.24,-726.54 347.63,-723.14"/>
<polygon fill="black" stroke="black" points="348.17,-726.6 357.25,-721.15 346.75,-719.75 348.17,-726.6"/>
</g>
<!-- utils/model/providers.ts&#45;&gt;services/analytics/index.ts -->
<g id="edge27" class="edge">
<title>utils/model/providers.ts&#45;&gt;services/analytics/index.ts</title>
<path fill="none" stroke="black" d="M453.36,-727.36C470.96,-738.41 490.75,-754.19 501.75,-774 539.81,-842.55 486,-1066.09 537.75,-1125 548.38,-1137.11 563.34,-1144.32 578.94,-1148.5"/>
<polygon fill="black" stroke="black" points="577.8,-1151.83 588.32,-1150.6 579.33,-1145 577.8,-1151.83"/>
</g>
<!-- utils/model/providers.ts&#45;&gt;utils/envUtils.ts -->
<g id="edge28" class="edge">
<title>utils/model/providers.ts&#45;&gt;utils/envUtils.ts</title>
<path fill="none" stroke="black" d="M475.12,-722.01C485.16,-726.57 494.65,-732.72 501.75,-741 551.45,-798.97 484.3,-854.46 537.75,-909 554.14,-925.72 578.81,-932.89 601.07,-935.7"/>
<polygon fill="black" stroke="black" points="600.63,-939.17 610.92,-936.65 601.31,-932.21 600.63,-939.17"/>
</g>
<!-- utils/platform.ts -->
<g id="node33" class="node">
<title>utils/platform.ts</title>
<polygon fill="#ffff99" stroke="black" points="695.12,-198 611.62,-198 611.62,-162 695.12,-162 695.12,-198"/>
<text text-anchor="middle" x="653.38" y="-177.82" font-family="Times,serif" font-size="9.00">utils/platform.ts</text>
</g>
<!-- utils/settings/constants.ts -->
<g id="node34" class="node">
<title>utils/settings/constants.ts</title>
<polygon fill="#ffff99" stroke="black" points="713.5,-144 593.25,-144 593.25,-108 713.5,-108 713.5,-144"/>
<text text-anchor="middle" x="653.38" y="-123.83" font-family="Times,serif" font-size="9.00">utils/settings/constants.ts</text>
</g>
<!-- utils/settings/internalWrites.ts -->
<g id="node35" class="node">
<title>utils/settings/internalWrites.ts</title>
<polygon fill="#ffff99" stroke="black" points="725.12,-90 581.62,-90 581.62,-54 725.12,-54 725.12,-90"/>
<text text-anchor="middle" x="653.38" y="-69.83" font-family="Times,serif" font-size="9.00">utils/settings/internalWrites.ts</text>
</g>
<!-- utils/settings/managedPath.ts -->
<g id="node36" class="node">
<title>utils/settings/managedPath.ts</title>
<polygon fill="#ffff99" stroke="black" points="722.5,-36 584.25,-36 584.25,0 722.5,0 722.5,-36"/>
<text text-anchor="middle" x="653.38" y="-15.82" font-family="Times,serif" font-size="9.00">utils/settings/managedPath.ts</text>
</g>
<!-- utils/settings/mdm/settings.ts -->
<g id="node37" class="node">
<title>utils/settings/mdm/settings.ts</title>
<polygon fill="#ffff99" stroke="black" points="721,-900 585.75,-900 585.75,-864 721,-864 721,-900"/>
<text text-anchor="middle" x="653.38" y="-879.83" font-family="Times,serif" font-size="9.00">utils/settings/mdm/settings.ts</text>
</g>
<!-- utils/settings/settings.ts&#45;&gt;bootstrap/state.ts -->
<g id="edge29" class="edge">
<title>utils/settings/settings.ts&#45;&gt;bootstrap/state.ts</title>
<path fill="none" stroke="black" d="M472.93,-662.52C484.03,-666.57 494.51,-672.71 501.75,-682 577.21,-778.76 458.48,-1139.34 537.75,-1233 552.54,-1250.48 576.32,-1257.83 598.4,-1260.57"/>
<polygon fill="black" stroke="black" points="597.95,-1264.04 608.23,-1261.48 598.59,-1257.07 597.95,-1264.04"/>
</g>
<!-- utils/settings/settings.ts&#45;&gt;services/remoteManagedSettings/syncCacheState.ts -->
<g id="edge30" class="edge">
<title>utils/settings/settings.ts&#45;&gt;services/remoteManagedSettings/syncCacheState.ts</title>
<path fill="none" stroke="black" d="M472.85,-644.92C493.19,-641.19 517.04,-636.82 540.6,-632.5"/>
<polygon fill="black" stroke="black" points="541.07,-635.97 550.27,-630.72 539.8,-629.08 541.07,-635.97"/>
</g>
<!-- utils/settings/settings.ts&#45;&gt;utils/array.ts -->
<g id="edge31" class="edge">
<title>utils/settings/settings.ts&#45;&gt;utils/array.ts</title>
<path fill="none" stroke="black" d="M472.74,-642.26C482.87,-638.57 492.99,-633.9 501.75,-628 522.42,-614.08 516.53,-598.08 537.75,-585 558.57,-572.16 584.97,-565.43 607.18,-561.89"/>
<polygon fill="black" stroke="black" points="607.45,-565.39 616.86,-560.53 606.47,-558.46 607.45,-565.39"/>
</g>
<!-- utils/settings/settings.ts&#45;&gt;utils/debug.ts -->
<g id="edge32" class="edge">
<title>utils/settings/settings.ts&#45;&gt;utils/debug.ts</title>
<path fill="none" stroke="black" d="M472.94,-663.01C483.91,-667.05 494.32,-673.06 501.75,-682 582.23,-778.83 453.46,-869.46 537.75,-963 554.75,-981.86 582.22,-988.78 606.02,-990.9"/>
<polygon fill="black" stroke="black" points="605.63,-994.38 615.83,-991.49 606.06,-987.39 605.63,-994.38"/>
</g>
<!-- utils/settings/settings.ts&#45;&gt;utils/diagLogs.ts -->
<g id="edge33" class="edge">
<title>utils/settings/settings.ts&#45;&gt;utils/diagLogs.ts</title>
<path fill="none" stroke="black" d="M472.81,-645.17C483.4,-641.23 493.68,-635.72 501.75,-628 534.97,-596.21 503.28,-561.44 537.75,-531 554.83,-515.92 578.77,-508.85 600.36,-505.68"/>
<polygon fill="black" stroke="black" points="600.69,-509.16 610.21,-504.5 599.86,-502.21 600.69,-509.16"/>
</g>
<!-- utils/settings/settings.ts&#45;&gt;utils/envUtils.ts -->
<g id="edge34" class="edge">
<title>utils/settings/settings.ts&#45;&gt;utils/envUtils.ts</title>
<path fill="none" stroke="black" d="M472.74,-663.18C483.72,-667.2 494.19,-673.17 501.75,-682 568.2,-759.58 468.24,-834.14 537.75,-909 553.74,-926.22 578.49,-933.42 600.9,-936.13"/>
<polygon fill="black" stroke="black" points="600.56,-939.61 610.84,-937.03 601.19,-932.64 600.56,-939.61"/>
</g>
<!-- utils/settings/settings.ts&#45;&gt;utils/errors.ts -->
<g id="edge35" class="edge">
<title>utils/settings/settings.ts&#45;&gt;utils/errors.ts</title>
<path fill="none" stroke="black" d="M472.88,-662.56C483.99,-666.6 494.47,-672.74 501.75,-682 570.15,-769.08 465.92,-1094.73 537.75,-1179 554.11,-1198.19 581.3,-1205.15 605.1,-1207.22"/>
<polygon fill="black" stroke="black" points="604.75,-1210.71 614.94,-1207.79 605.15,-1203.72 604.75,-1210.71"/>
</g>
<!-- utils/settings/settings.ts&#45;&gt;utils/file.ts -->
<g id="edge36" class="edge">
<title>utils/settings/settings.ts&#45;&gt;utils/file.ts</title>
<path fill="none" stroke="black" d="M472.68,-646.22C483.53,-642.22 493.96,-636.42 501.75,-628 548.61,-577.36 488.9,-525.72 537.75,-477 557.06,-457.74 587.36,-451.22 611.96,-449.4"/>
<polygon fill="black" stroke="black" points="611.83,-452.91 621.64,-448.92 611.48,-445.92 611.83,-452.91"/>
</g>
<!-- utils/settings/settings.ts&#45;&gt;utils/fileRead.ts -->
<g id="edge37" class="edge">
<title>utils/settings/settings.ts&#45;&gt;utils/fileRead.ts</title>
<path fill="none" stroke="black" d="M472.64,-646.73C483.62,-642.71 494.11,-636.77 501.75,-628 562.51,-558.25 474.25,-490.26 537.75,-423 553.94,-405.85 578.83,-398.67 601.28,-395.96"/>
<polygon fill="black" stroke="black" points="601.58,-399.45 611.23,-395.06 600.95,-392.48 601.58,-399.45"/>
</g>
<!-- utils/settings/settings.ts&#45;&gt;utils/fsOperations.ts -->
<g id="edge38" class="edge">
<title>utils/settings/settings.ts&#45;&gt;utils/fsOperations.ts</title>
<path fill="none" stroke="black" d="M472.87,-646.93C483.84,-642.9 494.27,-636.9 501.75,-628 576.51,-539.02 459.49,-454.92 537.75,-369 551.57,-353.83 572.17,-346.41 592.11,-342.98"/>
<polygon fill="black" stroke="black" points="592.46,-346.47 601.89,-341.64 591.51,-339.53 592.46,-346.47"/>
</g>
<!-- utils/settings/settings.ts&#45;&gt;utils/git/gitignore.ts -->
<g id="edge39" class="edge">
<title>utils/settings/settings.ts&#45;&gt;utils/git/gitignore.ts</title>
<path fill="none" stroke="black" d="M472.59,-647.22C483.72,-643.18 494.28,-637.11 501.75,-628 590.55,-519.73 444.68,-419.63 537.75,-315 551.74,-299.28 573.01,-291.83 593.45,-288.55"/>
<polygon fill="black" stroke="black" points="593.68,-292.05 603.16,-287.32 592.8,-285.1 593.68,-292.05"/>
</g>
<!-- utils/settings/settings.ts&#45;&gt;utils/json.ts -->
<g id="edge40" class="edge">
<title>utils/settings/settings.ts&#45;&gt;utils/json.ts</title>
<path fill="none" stroke="black" d="M472.71,-647.31C483.82,-643.27 494.36,-637.17 501.75,-628 553.19,-564.21 483.8,-322.68 537.75,-261 555.41,-240.81 585.08,-234.22 609.81,-232.6"/>
<polygon fill="black" stroke="black" points="609.75,-236.1 619.61,-232.22 609.48,-229.11 609.75,-236.1"/>
</g>
<!-- utils/settings/settings.ts&#45;&gt;utils/log.ts -->
<g id="edge41" class="edge">
<title>utils/settings/settings.ts&#45;&gt;utils/log.ts</title>
<path fill="none" stroke="black" d="M472.74,-662.66C483.86,-666.71 494.38,-672.81 501.75,-682 556.06,-749.73 480.78,-1005.5 537.75,-1071 555.94,-1091.91 586.99,-1098.25 612.2,-1099.58"/>
<polygon fill="black" stroke="black" points="612.06,-1103.08 622.14,-1099.84 612.24,-1096.08 612.06,-1103.08"/>
</g>
<!-- utils/settings/settings.ts&#45;&gt;utils/platform.ts -->
<g id="edge42" class="edge">
<title>utils/settings/settings.ts&#45;&gt;utils/platform.ts</title>
<path fill="none" stroke="black" d="M472.79,-647.38C483.9,-643.33 494.41,-637.22 501.75,-628 560.23,-554.54 476.38,-278.06 537.75,-207 553,-189.34 577.43,-182.06 599.82,-179.42"/>
<polygon fill="black" stroke="black" points="600.12,-182.9 609.78,-178.56 599.52,-175.93 600.12,-182.9"/>
</g>
<!-- utils/settings/settings.ts&#45;&gt;utils/settings/constants.ts -->
<g id="edge43" class="edge">
<title>utils/settings/settings.ts&#45;&gt;utils/settings/constants.ts</title>
<path fill="none" stroke="black" d="M472.86,-647.43C483.97,-643.38 494.46,-637.25 501.75,-628 567.28,-544.86 468.94,-233.45 537.75,-153 548.92,-139.94 565.12,-132.54 581.84,-128.5"/>
<polygon fill="black" stroke="black" points="582.25,-131.99 591.37,-126.6 580.88,-125.12 582.25,-131.99"/>
</g>
<!-- utils/settings/settings.ts&#45;&gt;utils/settings/internalWrites.ts -->
<g id="edge44" class="edge">
<title>utils/settings/settings.ts&#45;&gt;utils/settings/internalWrites.ts</title>
<path fill="none" stroke="black" d="M472.91,-647.47C484.01,-643.42 494.49,-637.28 501.75,-628 574.33,-535.18 461.51,-188.84 537.75,-99 546.33,-88.89 557.91,-82.17 570.44,-77.77"/>
<polygon fill="black" stroke="black" points="571.09,-81.23 579.68,-75.03 569.09,-74.52 571.09,-81.23"/>
</g>
<!-- utils/settings/settings.ts&#45;&gt;utils/settings/managedPath.ts -->
<g id="edge45" class="edge">
<title>utils/settings/settings.ts&#45;&gt;utils/settings/managedPath.ts</title>
<path fill="none" stroke="black" d="M472.95,-647.5C484.06,-643.45 494.52,-637.3 501.75,-628 581.39,-525.5 454.07,-144.23 537.75,-45 546.85,-34.21 559.38,-27.27 572.83,-22.9"/>
<polygon fill="black" stroke="black" points="573.57,-26.33 582.3,-20.32 571.73,-19.57 573.57,-26.33"/>
</g>
<!-- utils/settings/settings.ts&#45;&gt;utils/settings/mdm/settings.ts -->
<g id="edge46" class="edge">
<title>utils/settings/settings.ts&#45;&gt;utils/settings/mdm/settings.ts</title>
<path fill="none" stroke="black" d="M472.87,-663.61C483.7,-667.62 494.08,-673.47 501.75,-682 554.26,-740.4 482.95,-798.74 537.75,-855 547.66,-865.17 560.62,-871.81 574.26,-876.08"/>
<polygon fill="black" stroke="black" points="573.27,-879.44 583.83,-878.64 575.07,-872.68 573.27,-879.44"/>
</g>
<!-- utils/settings/settingsCache.ts -->
<g id="node39" class="node">
<title>utils/settings/settingsCache.ts</title>
<polygon fill="#ffff99" stroke="black" points="721.75,-846 585,-846 585,-810 721.75,-810 721.75,-846"/>
<text text-anchor="middle" x="653.38" y="-825.83" font-family="Times,serif" font-size="9.00">utils/settings/settingsCache.ts</text>
</g>
<!-- utils/settings/settings.ts&#45;&gt;utils/settings/settingsCache.ts -->
<g id="edge47" class="edge">
<title>utils/settings/settings.ts&#45;&gt;utils/settings/settingsCache.ts</title>
<path fill="none" stroke="black" d="M472.75,-664.29C483.46,-668.26 493.82,-673.93 501.75,-682 540.48,-721.42 497.48,-763.17 537.75,-801 547.8,-810.44 560.52,-816.79 573.79,-821"/>
<polygon fill="black" stroke="black" points="572.49,-824.28 583.06,-823.55 574.35,-817.53 572.49,-824.28"/>
</g>
<!-- utils/settings/types.ts -->
<g id="node40" class="node">
<title>utils/settings/types.ts</title>
<polygon fill="#ffff99" stroke="black" points="704.12,-792 602.62,-792 602.62,-756 704.12,-756 704.12,-792"/>
<text text-anchor="middle" x="653.38" y="-771.83" font-family="Times,serif" font-size="9.00">utils/settings/types.ts</text>
</g>
<!-- utils/settings/settings.ts&#45;&gt;utils/settings/types.ts -->
<g id="edge48" class="edge">
<title>utils/settings/settings.ts&#45;&gt;utils/settings/types.ts</title>
<path fill="none" stroke="black" d="M472.83,-666.11C483.17,-669.95 493.36,-675.1 501.75,-682 527.26,-702.98 511.42,-727.06 537.75,-747 553.07,-758.6 572.6,-765.33 591.18,-769.19"/>
<polygon fill="black" stroke="black" points="590.32,-772.59 600.78,-770.92 591.57,-765.7 590.32,-772.59"/>
</g>
<!-- utils/settings/validation.ts -->
<g id="node41" class="node">
<title>utils/settings/validation.ts</title>
<polygon fill="#ffff99" stroke="black" points="715.38,-738 591.38,-738 591.38,-702 715.38,-702 715.38,-738"/>
<text text-anchor="middle" x="653.38" y="-717.83" font-family="Times,serif" font-size="9.00">utils/settings/validation.ts</text>
</g>
<!-- utils/settings/settings.ts&#45;&gt;utils/settings/validation.ts -->
<g id="edge49" class="edge">
<title>utils/settings/settings.ts&#45;&gt;utils/settings/validation.ts</title>
<path fill="none" stroke="black" d="M472.76,-672.61C501.05,-681.64 531.02,-691.14 537.75,-693 551.28,-696.73 565.8,-700.4 579.8,-703.78"/>
<polygon fill="black" stroke="black" points="578.87,-707.16 589.41,-706.07 580.49,-700.35 578.87,-707.16"/>
</g>
<!-- utils/settings/settings.ts&#45;&gt;utils/slowOperations.ts -->
<g id="edge50" class="edge">
<title>utils/settings/settings.ts&#45;&gt;utils/slowOperations.ts</title>
<path fill="none" stroke="black" d="M472.64,-662.74C483.76,-666.78 494.31,-672.86 501.75,-682 596.28,-798.14 438.64,-904.74 537.75,-1017 549.96,-1030.83 567.82,-1038.27 585.81,-1042.1"/>
<polygon fill="black" stroke="black" points="585.04,-1045.52 595.49,-1043.78 586.24,-1038.62 585.04,-1045.52"/>
</g>
<!-- utils/startupProfiler.ts -->
<g id="node44" class="node">
<title>utils/startupProfiler.ts</title>
<polygon fill="#ffff99" stroke="black" points="707.5,-684 599.25,-684 599.25,-648 707.5,-648 707.5,-684"/>
<text text-anchor="middle" x="653.38" y="-663.83" font-family="Times,serif" font-size="9.00">utils/startupProfiler.ts</text>
</g>
<!-- utils/settings/settings.ts&#45;&gt;utils/startupProfiler.ts -->
<g id="edge51" class="edge">
<title>utils/settings/settings.ts&#45;&gt;utils/startupProfiler.ts</title>
<path fill="none" stroke="black" d="M472.85,-657.58C507.18,-659.19 551.54,-661.27 587.57,-662.96"/>
<polygon fill="black" stroke="black" points="587.29,-666.45 597.44,-663.42 587.61,-659.46 587.29,-666.45"/>
</g>
<!-- utils/theme.ts -->
<g id="node46" class="node">
<title>utils/theme.ts</title>
<polygon fill="#ffcc99" stroke="black" points="243.5,-622 171.25,-622 171.25,-586 243.5,-586 243.5,-622"/>
<text text-anchor="middle" x="207.38" y="-601.83" font-family="Times,serif" font-size="9.00">utils/theme.ts</text>
</g>
<!-- utils/theme.ts&#45;&gt;utils/env.ts -->
<g id="edge52" class="edge">
<title>utils/theme.ts&#45;&gt;utils/env.ts</title>
<path fill="none" stroke="black" d="M243.57,-603.49C279.83,-602.97 336.3,-602.15 374.63,-601.6"/>
<polygon fill="black" stroke="black" points="374.44,-605.1 384.39,-601.46 374.34,-598.1 374.44,-605.1"/>
</g>
<!-- utils/thinking.ts -->
<g id="node47" class="node">
<title>utils/thinking.ts</title>
<polygon fill="#ff9999" stroke="black" points="82.75,-747 0,-747 0,-711 82.75,-711 82.75,-747"/>
<text text-anchor="middle" x="41.38" y="-726.83" font-family="Times,serif" font-size="9.00">utils/thinking.ts</text>
</g>
<!-- utils/thinking.ts&#45;&gt;services/analytics/growthbook.ts -->
<g id="edge53" class="edge">
<title>utils/thinking.ts&#45;&gt;services/analytics/growthbook.ts</title>
<path fill="none" stroke="black" d="M46.08,-747.26C55.21,-790.57 80.86,-902.48 118.75,-990 192.93,-1161.36 186.21,-1235.32 332,-1352 333.14,-1352.91 334.32,-1353.8 335.52,-1354.65"/>
<polygon fill="black" stroke="black" points="333.57,-1357.56 343.92,-1359.84 337.25,-1351.61 333.57,-1357.56"/>
</g>
<!-- utils/thinking.ts&#45;&gt;utils/model/model.ts -->
<g id="edge54" class="edge">
<title>utils/thinking.ts&#45;&gt;utils/model/model.ts</title>
<path fill="none" stroke="black" d="M55.24,-747.36C83.93,-788.29 153.23,-887.17 187.1,-935.49"/>
<polygon fill="black" stroke="black" points="184.09,-937.3 192.7,-943.48 189.82,-933.29 184.09,-937.3"/>
</g>
<!-- utils/thinking.ts&#45;&gt;utils/model/modelSupportOverrides.ts -->
<g id="edge55" class="edge">
<title>utils/thinking.ts&#45;&gt;utils/model/modelSupportOverrides.ts</title>
<path fill="none" stroke="black" d="M82.91,-734.69C90.5,-735.75 98.73,-736.9 107.21,-738.09"/>
<polygon fill="black" stroke="black" points="106.59,-741.54 116.98,-739.46 107.56,-734.61 106.59,-741.54"/>
</g>
<!-- utils/thinking.ts&#45;&gt;utils/model/providers.ts -->
<g id="edge56" class="edge">
<title>utils/thinking.ts&#45;&gt;utils/model/providers.ts</title>
<path fill="none" stroke="black" d="M83.06,-726.82C146.58,-723.42 270.05,-716.81 347.43,-712.66"/>
<polygon fill="black" stroke="black" points="347.2,-716.18 356.99,-712.15 346.82,-709.19 347.2,-716.18"/>
</g>
<!-- utils/thinking.ts&#45;&gt;utils/settings/settings.ts -->
<g id="edge57" class="edge">
<title>utils/thinking.ts&#45;&gt;utils/settings/settings.ts</title>
<path fill="none" stroke="black" d="M83.12,-719.04C94.62,-716.32 107.16,-713.46 118.75,-711 197.87,-694.23 289.37,-677.36 349.7,-666.59"/>
<polygon fill="black" stroke="black" points="350.24,-670.05 359.47,-664.85 349.02,-663.16 350.24,-670.05"/>
</g>
<!-- utils/thinking.ts&#45;&gt;utils/theme.ts -->
<g id="edge58" class="edge">
<title>utils/thinking.ts&#45;&gt;utils/theme.ts</title>
<path fill="none" stroke="black" d="M56.34,-710.83C70.61,-693.16 94.1,-666.35 118.75,-648 131.6,-638.43 146.86,-629.95 161,-623.05"/>
<polygon fill="black" stroke="black" points="162.13,-626.38 169.69,-618.95 159.15,-620.05 162.13,-626.38"/>
</g>
</g>
</svg>
