<?xml version="1.0" encoding="UTF-8" standalone="no"?>
<!DOCTYPE svg PUBLIC "-//W3C//DTD SVG 1.1//EN"
 "http://www.w3.org/Graphics/SVG/1.1/DTD/svg11.dtd">
<!-- Generated by graphviz version 9.0.0 (20230911.1827)
 -->
<!-- Pages: 1 -->
<svg width="304pt" height="342pt"
 viewBox="0.00 0.00 304.00 341.50" xmlns="http://www.w3.org/2000/svg" xmlns:xlink="http://www.w3.org/1999/xlink">
<g id="graph0" class="graph" transform="scale(1 1) rotate(0) translate(4 337.5)">
<polygon fill="white" stroke="none" points="-4,4 -4,-337.5 300,-337.5 300,4 -4,4"/>
<text text-anchor="middle" x="148" y="-316.2" font-family="Times,serif" font-size="14.00">Layer 0: 1 files</text>
<!-- services/analytics/growthbook.ts -->
<g id="node1" class="node">
<title>services/analytics/growthbook.ts</title>
<polygon fill="#ffcc99" stroke="black" points="284.38,-306 130.38,-306 130.38,-270 284.38,-270 284.38,-306"/>
<text text-anchor="middle" x="207.38" y="-285.82" font-family="Times,serif" font-size="9.00">services/analytics/growthbook.ts</text>
</g>
<!-- utils/model/model.ts -->
<g id="node2" class="node">
<title>utils/model/model.ts</title>
<polygon fill="#ffcc99" stroke="black" points="257.75,-252 157,-252 157,-216 257.75,-216 257.75,-252"/>
<text text-anchor="middle" x="207.38" y="-231.82" font-family="Times,serif" font-size="9.00">utils/model/model.ts</text>
</g>
<!-- utils/model/modelSupportOverrides.ts -->
<g id="node3" class="node">
<title>utils/model/modelSupportOverrides.ts</title>
<polygon fill="#ffcc99" stroke="black" points="296,-198 118.75,-198 118.75,-162 296,-162 296,-198"/>
<text text-anchor="middle" x="207.38" y="-177.82" font-family="Times,serif" font-size="9.00">utils/model/modelSupportOverrides.ts</text>
</g>
<!-- utils/model/providers.ts -->
<g id="node4" class="node">
<title>utils/model/providers.ts</title>
<polygon fill="#ffcc99" stroke="black" points="265.25,-144 149.5,-144 149.5,-108 265.25,-108 265.25,-144"/>
<text text-anchor="middle" x="207.38" y="-123.83" font-family="Times,serif" font-size="9.00">utils/model/providers.ts</text>
</g>
<!-- utils/settings/settings.ts -->
<g id="node5" class="node">
<title>utils/settings/settings.ts</title>
<polygon fill="#ffcc99" stroke="black" points="263,-90 151.75,-90 151.75,-54 263,-54 263,-90"/>
<text text-anchor="middle" x="207.38" y="-69.83" font-family="Times,serif" font-size="9.00">utils/settings/settings.ts</text>
</g>
<!-- utils/theme.ts -->
<g id="node6" class="node">
<title>utils/theme.ts</title>
<polygon fill="#ffcc99" stroke="black" points="243.5,-36 171.25,-36 171.25,0 243.5,0 243.5,-36"/>
<text text-anchor="middle" x="207.38" y="-15.82" font-family="Times,serif" font-size="9.00">utils/theme.ts</text>
</g>
<!-- utils/thinking.ts -->
<g id="node7" class="node">
<title>utils/thinking.ts</title>
<polygon fill="#ff9999" stroke="black" points="82.75,-171 0,-171 0,-135 82.75,-135 82.75,-171"/>
<text text-anchor="middle" x="41.38" y="-150.82" font-family="Times,serif" font-size="9.00">utils/thinking.ts</text>
</g>
<!-- utils/thinking.ts&#45;&gt;services/analytics/growthbook.ts -->
<g id="edge1" class="edge">
<title>utils/thinking.ts&#45;&gt;services/analytics/growthbook.ts</title>
<path fill="none" stroke="black" d="M50.5,-171.1C62.2,-195.13 86.02,-237.28 118.75,-261 120.3,-262.12 121.9,-263.2 123.54,-264.24"/>
<polygon fill="black" stroke="black" points="121.54,-267.13 131.98,-268.95 124.95,-261.02 121.54,-267.13"/>
</g>
<!-- utils/thinking.ts&#45;&gt;utils/model/model.ts -->
<g id="edge2" class="edge">
<title>utils/thinking.ts&#45;&gt;utils/model/model.ts</title>
<path fill="none" stroke="black" d="M64.25,-171.3C78.92,-182.84 99.08,-197.32 118.75,-207 127.27,-211.19 136.58,-214.9 145.84,-218.11"/>
<polygon fill="black" stroke="black" points="144.62,-221.39 155.21,-221.19 146.81,-214.74 144.62,-221.39"/>
</g>
<!-- utils/thinking.ts&#45;&gt;utils/model/modelSupportOverrides.ts -->
<g id="edge3" class="edge">
<title>utils/thinking.ts&#45;&gt;utils/model/modelSupportOverrides.ts</title>
<path fill="none" stroke="black" d="M82.91,-159.67C90.5,-160.92 98.73,-162.28 107.21,-163.67"/>
<polygon fill="black" stroke="black" points="106.55,-167.11 116.98,-165.28 107.68,-160.21 106.55,-167.11"/>
</g>
<!-- utils/thinking.ts&#45;&gt;utils/model/providers.ts -->
<g id="edge4" class="edge">
<title>utils/thinking.ts&#45;&gt;utils/model/providers.ts</title>
<path fill="none" stroke="black" d="M82.91,-146.33C99.57,-143.58 119.31,-140.33 138.08,-137.24"/>
<polygon fill="black" stroke="black" points="138.5,-140.72 147.79,-135.64 137.36,-133.82 138.5,-140.72"/>
</g>
<!-- utils/thinking.ts&#45;&gt;utils/settings/settings.ts -->
<g id="edge5" class="edge">
<title>utils/thinking.ts&#45;&gt;utils/settings/settings.ts</title>
<path fill="none" stroke="black" d="M64.25,-134.7C78.92,-123.16 99.08,-108.68 118.75,-99 125.74,-95.56 133.26,-92.45 140.85,-89.67"/>
<polygon fill="black" stroke="black" points="141.85,-93.03 150.15,-86.45 139.56,-86.41 141.85,-93.03"/>
</g>
<!-- utils/thinking.ts&#45;&gt;utils/theme.ts -->
<g id="edge6" class="edge">
<title>utils/thinking.ts&#45;&gt;utils/theme.ts</title>
<path fill="none" stroke="black" d="M50.5,-134.9C62.2,-110.87 86.02,-68.72 118.75,-45 130.85,-36.23 145.87,-30.26 160.03,-26.22"/>
<polygon fill="black" stroke="black" points="160.84,-29.62 169.66,-23.75 159.11,-22.84 160.84,-29.62"/>
</g>
</g>
</svg>
