<?xml version="1.0" encoding="UTF-8" standalone="no"?>
<!DOCTYPE svg PUBLIC "-//W3C//DTD SVG 1.1//EN"
 "http://www.w3.org/Graphics/SVG/1.1/DTD/svg11.dtd">
<!-- Generated by graphviz version 9.0.0 (20230911.1827)
 -->
<!-- Pages: 1 -->
<svg width="320pt" height="342pt"
 viewBox="0.00 0.00 319.75 341.50" xmlns="http://www.w3.org/2000/svg" xmlns:xlink="http://www.w3.org/1999/xlink">
<g id="graph0" class="graph" transform="scale(1 1) rotate(0) translate(4 337.5)">
<polygon fill="white" stroke="none" points="-4,4 -4,-337.5 315.75,-337.5 315.75,4 -4,4"/>
<text text-anchor="middle" x="155.88" y="-316.2" font-family="Times,serif" font-size="14.00">Layer 0: 1 files</text>
<!-- memdir/findRelevantMemories.ts -->
<g id="node1" class="node">
<title>memdir/findRelevantMemories.ts</title>
<polygon fill="#ff9999" stroke="black" points="157.75,-171 0,-171 0,-135 157.75,-135 157.75,-171"/>
<text text-anchor="middle" x="78.88" y="-150.82" font-family="Times,serif" font-size="9.00">memdir/findRelevantMemories.ts</text>
</g>
<!-- memdir/memoryScan.ts -->
<g id="node2" class="node">
<title>memdir/memoryScan.ts</title>
<polygon fill="#ffcc99" stroke="black" points="311.75,-306 193.75,-306 193.75,-270 311.75,-270 311.75,-306"/>
<text text-anchor="middle" x="252.75" y="-285.82" font-family="Times,serif" font-size="9.00">memdir/memoryScan.ts</text>
</g>
<!-- memdir/findRelevantMemories.ts&#45;&gt;memdir/memoryScan.ts -->
<g id="edge1" class="edge">
<title>memdir/findRelevantMemories.ts&#45;&gt;memdir/memoryScan.ts</title>
<path fill="none" stroke="black" d="M95.73,-171.34C116.47,-194.49 154.77,-234.49 193.75,-261 195.3,-262.05 196.89,-263.08 198.52,-264.09"/>
<polygon fill="black" stroke="black" points="196.41,-266.91 206.82,-268.84 199.88,-260.84 196.41,-266.91"/>
</g>
<!-- utils/debug.ts -->
<g id="node3" class="node">
<title>utils/debug.ts</title>
<polygon fill="#ffcc99" stroke="black" points="288.5,-252 217,-252 217,-216 288.5,-216 288.5,-252"/>
<text text-anchor="middle" x="252.75" y="-231.82" font-family="Times,serif" font-size="9.00">utils/debug.ts</text>
</g>
<!-- memdir/findRelevantMemories.ts&#45;&gt;utils/debug.ts -->
<g id="edge2" class="edge">
<title>memdir/findRelevantMemories.ts&#45;&gt;utils/debug.ts</title>
<path fill="none" stroke="black" d="M118.58,-171.44C140.6,-181.91 168.7,-195.23 193.75,-207 197.93,-208.97 202.29,-211.01 206.65,-213.05"/>
<polygon fill="black" stroke="black" points="204.85,-216.07 215.4,-217.12 207.81,-209.72 204.85,-216.07"/>
</g>
<!-- utils/errors.ts -->
<g id="node4" class="node">
<title>utils/errors.ts</title>
<polygon fill="#ffcc99" stroke="black" points="289.25,-198 216.25,-198 216.25,-162 289.25,-162 289.25,-198"/>
<text text-anchor="middle" x="252.75" y="-177.82" font-family="Times,serif" font-size="9.00">utils/errors.ts</text>
</g>
<!-- memdir/findRelevantMemories.ts&#45;&gt;utils/errors.ts -->
<g id="edge3" class="edge">
<title>memdir/findRelevantMemories.ts&#45;&gt;utils/errors.ts</title>
<path fill="none" stroke="black" d="M158.02,-165.28C173.97,-167.78 190.29,-170.34 204.74,-172.61"/>
<polygon fill="black" stroke="black" points="203.97,-176.04 214.39,-174.13 205.06,-169.12 203.97,-176.04"/>
</g>
<!-- utils/model/model.ts -->
<g id="node5" class="node">
<title>utils/model/model.ts</title>
<polygon fill="#ffcc99" stroke="black" points="303.12,-144 202.38,-144 202.38,-108 303.12,-108 303.12,-144"/>
<text text-anchor="middle" x="252.75" y="-123.83" font-family="Times,serif" font-size="9.00">utils/model/model.ts</text>
</g>
<!-- memdir/findRelevantMemories.ts&#45;&gt;utils/model/model.ts -->
<g id="edge4" class="edge">
<title>memdir/findRelevantMemories.ts&#45;&gt;utils/model/model.ts</title>
<path fill="none" stroke="black" d="M158.02,-140.72C169.09,-138.99 180.33,-137.22 191.01,-135.54"/>
<polygon fill="black" stroke="black" points="191.5,-139.01 200.84,-134 190.42,-132.09 191.5,-139.01"/>
</g>
<!-- utils/sideQuery.ts -->
<g id="node6" class="node">
<title>utils/sideQuery.ts</title>
<polygon fill="#ffcc99" stroke="black" points="297.12,-90 208.38,-90 208.38,-54 297.12,-54 297.12,-90"/>
<text text-anchor="middle" x="252.75" y="-69.83" font-family="Times,serif" font-size="9.00">utils/sideQuery.ts</text>
</g>
<!-- memdir/findRelevantMemories.ts&#45;&gt;utils/sideQuery.ts -->
<g id="edge5" class="edge">
<title>memdir/findRelevantMemories.ts&#45;&gt;utils/sideQuery.ts</title>
<path fill="none" stroke="black" d="M118.58,-134.56C140.6,-124.09 168.7,-110.77 193.75,-99 196.34,-97.78 199.01,-96.53 201.69,-95.27"/>
<polygon fill="black" stroke="black" points="203.16,-98.45 210.74,-91.05 200.2,-92.11 203.16,-98.45"/>
</g>
<!-- utils/slowOperations.ts -->
<g id="node7" class="node">
<title>utils/slowOperations.ts</title>
<polygon fill="#ffcc99" stroke="black" points="308.75,-36 196.75,-36 196.75,0 308.75,0 308.75,-36"/>
<text text-anchor="middle" x="252.75" y="-15.82" font-family="Times,serif" font-size="9.00">utils/slowOperations.ts</text>
</g>
<!-- memdir/findRelevantMemories.ts&#45;&gt;utils/slowOperations.ts -->
<g id="edge6" class="edge">
<title>memdir/findRelevantMemories.ts&#45;&gt;utils/slowOperations.ts</title>
<path fill="none" stroke="black" d="M95.73,-134.66C116.47,-111.51 154.77,-71.51 193.75,-45 195.3,-43.95 196.89,-42.92 198.52,-41.91"/>
<polygon fill="black" stroke="black" points="199.88,-45.16 206.82,-37.16 196.41,-39.09 199.88,-45.16"/>
</g>
</g>
</svg>
