<?xml version="1.0" encoding="UTF-8" standalone="no"?>
<!DOCTYPE svg PUBLIC "-//W3C//DTD SVG 1.1//EN"
 "http://www.w3.org/Graphics/SVG/1.1/DTD/svg11.dtd">
<!-- Generated by graphviz version 9.0.0 (20230911.1827)
 -->
<!-- Pages: 1 -->
<svg width="704pt" height="1401pt"
 viewBox="0.00 0.00 703.50 1400.50" xmlns="http://www.w3.org/2000/svg" xmlns:xlink="http://www.w3.org/1999/xlink">
<g id="graph0" class="graph" transform="scale(1 1) rotate(0) translate(4 1396.5)">
<polygon fill="white" stroke="none" points="-4,4 -4,-1396.5 699.5,-1396.5 699.5,4 -4,4"/>
<text text-anchor="middle" x="347.75" y="-1375.2" font-family="Times,serif" font-size="14.00">Layer 1: 6 files</text>
<!-- bootstrap/state.ts -->
<g id="node1" class="node">
<title>bootstrap/state.ts</title>
<polygon fill="#ffff99" stroke="black" points="653.88,-1065 567.38,-1065 567.38,-1029 653.88,-1029 653.88,-1065"/>
<text text-anchor="middle" x="610.62" y="-1044.83" font-family="Times,serif" font-size="9.00">bootstrap/state.ts</text>
</g>
<!-- constants/betas.ts -->
<g id="node2" class="node">
<title>constants/betas.ts</title>
<polygon fill="#ffff99" stroke="black" points="463.5,-657 374,-657 374,-621 463.5,-621 463.5,-657"/>
<text text-anchor="middle" x="418.75" y="-636.83" font-family="Times,serif" font-size="9.00">constants/betas.ts</text>
</g>
<!-- constants/figures.ts -->
<g id="node3" class="node">
<title>constants/figures.ts</title>
<polygon fill="#ffff99" stroke="black" points="659.12,-360 562.12,-360 562.12,-324 659.12,-324 659.12,-360"/>
<text text-anchor="middle" x="610.62" y="-339.82" font-family="Times,serif" font-size="9.00">constants/figures.ts</text>
</g>
<!-- constants/system.ts -->
<g id="node4" class="node">
<title>constants/system.ts</title>
<polygon fill="#ffff99" stroke="black" points="466.88,-603 370.62,-603 370.62,-567 466.88,-567 466.88,-603"/>
<text text-anchor="middle" x="418.75" y="-582.83" font-family="Times,serif" font-size="9.00">constants/system.ts</text>
</g>
<!-- memdir/findRelevantMemories.ts -->
<g id="node5" class="node">
<title>memdir/findRelevantMemories.ts</title>
<polygon fill="#ff9999" stroke="black" points="157.75,-757 0,-757 0,-721 157.75,-721 157.75,-757"/>
<text text-anchor="middle" x="78.88" y="-736.83" font-family="Times,serif" font-size="9.00">memdir/findRelevantMemories.ts</text>
</g>
<!-- memdir/memoryScan.ts -->
<g id="node6" class="node">
<title>memdir/memoryScan.ts</title>
<polygon fill="#ffcc99" stroke="black" points="311.75,-884 193.75,-884 193.75,-848 311.75,-848 311.75,-884"/>
<text text-anchor="middle" x="252.75" y="-863.83" font-family="Times,serif" font-size="9.00">memdir/memoryScan.ts</text>
</g>
<!-- memdir/findRelevantMemories.ts&#45;&gt;memdir/memoryScan.ts -->
<g id="edge1" class="edge">
<title>memdir/findRelevantMemories.ts&#45;&gt;memdir/memoryScan.ts</title>
<path fill="none" stroke="black" d="M104.87,-757.47C134.65,-779.48 184.56,-816.36 217.82,-840.93"/>
<polygon fill="black" stroke="black" points="215.39,-843.48 225.51,-846.61 219.55,-837.85 215.39,-843.48"/>
</g>
<!-- utils/debug.ts -->
<g id="node17" class="node">
<title>utils/debug.ts</title>
<polygon fill="#ffcc99" stroke="black" points="288.5,-1192 217,-1192 217,-1156 288.5,-1156 288.5,-1192"/>
<text text-anchor="middle" x="252.75" y="-1171.83" font-family="Times,serif" font-size="9.00">utils/debug.ts</text>
</g>
<!-- memdir/findRelevantMemories.ts&#45;&gt;utils/debug.ts -->
<g id="edge2" class="edge">
<title>memdir/findRelevantMemories.ts&#45;&gt;utils/debug.ts</title>
<path fill="none" stroke="black" d="M87.15,-757.41C114,-825.37 207.66,-1062.41 240.37,-1145.2"/>
<polygon fill="black" stroke="black" points="237.08,-1146.4 244.01,-1154.42 243.59,-1143.83 237.08,-1146.4"/>
</g>
<!-- utils/errors.ts -->
<g id="node20" class="node">
<title>utils/errors.ts</title>
<polygon fill="#ffcc99" stroke="black" points="289.25,-538 216.25,-538 216.25,-502 289.25,-502 289.25,-538"/>
<text text-anchor="middle" x="252.75" y="-517.83" font-family="Times,serif" font-size="9.00">utils/errors.ts</text>
</g>
<!-- memdir/findRelevantMemories.ts&#45;&gt;utils/errors.ts -->
<g id="edge3" class="edge">
<title>memdir/findRelevantMemories.ts&#45;&gt;utils/errors.ts</title>
<path fill="none" stroke="black" d="M87.19,-720.66C102.37,-684.52 140.37,-603.15 193.75,-552 197.6,-548.32 201.95,-544.92 206.5,-541.82"/>
<polygon fill="black" stroke="black" points="208.09,-544.95 214.73,-536.7 204.39,-539.01 208.09,-544.95"/>
</g>
<!-- utils/model/model.ts -->
<g id="node26" class="node">
<title>utils/model/model.ts</title>
<polygon fill="#ffcc99" stroke="black" points="469.12,-333 368.38,-333 368.38,-297 469.12,-297 469.12,-333"/>
<text text-anchor="middle" x="418.75" y="-312.82" font-family="Times,serif" font-size="9.00">utils/model/model.ts</text>
</g>
<!-- memdir/findRelevantMemories.ts&#45;&gt;utils/model/model.ts -->
<g id="edge4" class="edge">
<title>memdir/findRelevantMemories.ts&#45;&gt;utils/model/model.ts</title>
<path fill="none" stroke="black" d="M88.57,-720.66C104.76,-688.48 142.57,-621.76 193.75,-585 238.5,-552.86 275.56,-588.55 311.75,-547 372.51,-477.24 288.99,-413.45 347.75,-342 350.78,-338.32 354.36,-335.14 358.29,-332.4"/>
<polygon fill="black" stroke="black" points="359.8,-335.57 366.67,-327.51 356.27,-329.53 359.8,-335.57"/>
</g>
<!-- utils/sideQuery.ts -->
<g id="node35" class="node">
<title>utils/sideQuery.ts</title>
<polygon fill="#ffcc99" stroke="black" points="297.12,-630 208.38,-630 208.38,-594 297.12,-594 297.12,-630"/>
<text text-anchor="middle" x="252.75" y="-609.83" font-family="Times,serif" font-size="9.00">utils/sideQuery.ts</text>
</g>
<!-- memdir/findRelevantMemories.ts&#45;&gt;utils/sideQuery.ts -->
<g id="edge5" class="edge">
<title>memdir/findRelevantMemories.ts&#45;&gt;utils/sideQuery.ts</title>
<path fill="none" stroke="black" d="M104.87,-720.53C134.65,-698.52 184.56,-661.64 217.82,-637.07"/>
<polygon fill="black" stroke="black" points="219.55,-640.15 225.51,-631.39 215.39,-634.52 219.55,-640.15"/>
</g>
<!-- utils/slowOperations.ts -->
<g id="node36" class="node">
<title>utils/slowOperations.ts</title>
<polygon fill="#ffcc99" stroke="black" points="474.75,-1365 362.75,-1365 362.75,-1329 474.75,-1329 474.75,-1365"/>
<text text-anchor="middle" x="418.75" y="-1344.83" font-family="Times,serif" font-size="9.00">utils/slowOperations.ts</text>
</g>
<!-- memdir/findRelevantMemories.ts&#45;&gt;utils/slowOperations.ts -->
<g id="edge6" class="edge">
<title>memdir/findRelevantMemories.ts&#45;&gt;utils/slowOperations.ts</title>
<path fill="none" stroke="black" d="M79.89,-757.18C80.82,-823.06 91.59,-1053.2 193.75,-1201 234.49,-1259.95 307.55,-1300.89 359.13,-1324.11"/>
<polygon fill="black" stroke="black" points="357.52,-1327.22 368.08,-1328.05 360.34,-1320.82 357.52,-1327.22"/>
</g>
<!-- memdir/memoryTypes.ts -->
<g id="node7" class="node">
<title>memdir/memoryTypes.ts</title>
<polygon fill="#ffff99" stroke="black" points="479.25,-965 358.25,-965 358.25,-929 479.25,-929 479.25,-965"/>
<text text-anchor="middle" x="418.75" y="-944.83" font-family="Times,serif" font-size="9.00">memdir/memoryTypes.ts</text>
</g>
<!-- memdir/memoryScan.ts&#45;&gt;memdir/memoryTypes.ts -->
<g id="edge7" class="edge">
<title>memdir/memoryScan.ts&#45;&gt;memdir/memoryTypes.ts</title>
<path fill="none" stroke="black" d="M283.18,-884.46C301.4,-895.5 325.49,-909.39 347.75,-920 350.67,-921.39 353.68,-922.77 356.74,-924.12"/>
<polygon fill="black" stroke="black" points="355.3,-927.31 365.87,-928 358.04,-920.87 355.3,-927.31"/>
</g>
<!-- utils/frontmatterParser.ts -->
<g id="node22" class="node">
<title>utils/frontmatterParser.ts</title>
<polygon fill="#ffff99" stroke="black" points="480,-911 357.5,-911 357.5,-875 480,-875 480,-911"/>
<text text-anchor="middle" x="418.75" y="-890.83" font-family="Times,serif" font-size="9.00">utils/frontmatterParser.ts</text>
</g>
<!-- memdir/memoryScan.ts&#45;&gt;utils/frontmatterParser.ts -->
<g id="edge8" class="edge">
<title>memdir/memoryScan.ts&#45;&gt;utils/frontmatterParser.ts</title>
<path fill="none" stroke="black" d="M312.03,-875.6C323.01,-877.4 334.61,-879.31 345.95,-881.18"/>
<polygon fill="black" stroke="black" points="345.23,-884.61 355.67,-882.78 346.37,-877.7 345.23,-884.61"/>
</g>
<!-- utils/readFileInRange.ts -->
<g id="node33" class="node">
<title>utils/readFileInRange.ts</title>
<polygon fill="#ffff99" stroke="black" points="477,-857 360.5,-857 360.5,-821 477,-821 477,-857"/>
<text text-anchor="middle" x="418.75" y="-836.83" font-family="Times,serif" font-size="9.00">utils/readFileInRange.ts</text>
</g>
<!-- memdir/memoryScan.ts&#45;&gt;utils/readFileInRange.ts -->
<g id="edge9" class="edge">
<title>memdir/memoryScan.ts&#45;&gt;utils/readFileInRange.ts</title>
<path fill="none" stroke="black" d="M312.03,-856.4C324.02,-854.43 336.74,-852.34 349.05,-850.31"/>
<polygon fill="black" stroke="black" points="349.42,-853.8 358.71,-848.72 348.28,-846.89 349.42,-853.8"/>
</g>
<!-- services/analytics/index.ts -->
<g id="node8" class="node">
<title>services/analytics/index.ts</title>
<polygon fill="#ffff99" stroke="black" points="481.88,-549 355.62,-549 355.62,-513 481.88,-513 481.88,-549"/>
<text text-anchor="middle" x="418.75" y="-528.83" font-family="Times,serif" font-size="9.00">services/analytics/index.ts</text>
</g>
<!-- services/analytics/metadata.ts -->
<g id="node9" class="node">
<title>services/analytics/metadata.ts</title>
<polygon fill="#ffff99" stroke="black" points="489.75,-495 347.75,-495 347.75,-459 489.75,-459 489.75,-495"/>
<text text-anchor="middle" x="418.75" y="-474.82" font-family="Times,serif" font-size="9.00">services/analytics/metadata.ts</text>
</g>
<!-- services/api/claude.ts -->
<g id="node10" class="node">
<title>services/api/claude.ts</title>
<polygon fill="#ffff99" stroke="black" points="471.38,-441 366.12,-441 366.12,-405 471.38,-405 471.38,-441"/>
<text text-anchor="middle" x="418.75" y="-420.82" font-family="Times,serif" font-size="9.00">services/api/claude.ts</text>
</g>
<!-- services/api/client.ts -->
<g id="node11" class="node">
<title>services/api/client.ts</title>
<polygon fill="#ffff99" stroke="black" points="469.12,-387 368.38,-387 368.38,-351 469.12,-351 469.12,-387"/>
<text text-anchor="middle" x="418.75" y="-366.82" font-family="Times,serif" font-size="9.00">services/api/client.ts</text>
</g>
<!-- utils/auth.ts -->
<g id="node12" class="node">
<title>utils/auth.ts</title>
<polygon fill="#ffff99" stroke="black" points="643.75,-306 577.5,-306 577.5,-270 643.75,-270 643.75,-306"/>
<text text-anchor="middle" x="610.62" y="-285.82" font-family="Times,serif" font-size="9.00">utils/auth.ts</text>
</g>
<!-- utils/betas.ts -->
<g id="node13" class="node">
<title>utils/betas.ts</title>
<polygon fill="#ffff99" stroke="black" points="452.62,-765 384.88,-765 384.88,-729 452.62,-729 452.62,-765"/>
<text text-anchor="middle" x="418.75" y="-744.83" font-family="Times,serif" font-size="9.00">utils/betas.ts</text>
</g>
<!-- utils/bufferedWriter.ts -->
<g id="node14" class="node">
<title>utils/bufferedWriter.ts</title>
<polygon fill="#ffff99" stroke="black" points="473.62,-1273 363.88,-1273 363.88,-1237 473.62,-1237 473.62,-1273"/>
<text text-anchor="middle" x="418.75" y="-1252.83" font-family="Times,serif" font-size="9.00">utils/bufferedWriter.ts</text>
</g>
<!-- utils/cleanupRegistry.ts -->
<g id="node15" class="node">
<title>utils/cleanupRegistry.ts</title>
<polygon fill="#ffff99" stroke="black" points="475.88,-1219 361.62,-1219 361.62,-1183 475.88,-1183 475.88,-1219"/>
<text text-anchor="middle" x="418.75" y="-1198.83" font-family="Times,serif" font-size="9.00">utils/cleanupRegistry.ts</text>
</g>
<!-- utils/context.ts -->
<g id="node16" class="node">
<title>utils/context.ts</title>
<polygon fill="#ffff99" stroke="black" points="649.38,-252 571.88,-252 571.88,-216 649.38,-216 649.38,-252"/>
<text text-anchor="middle" x="610.62" y="-231.82" font-family="Times,serif" font-size="9.00">utils/context.ts</text>
</g>
<!-- utils/debug.ts&#45;&gt;bootstrap/state.ts -->
<g id="edge10" class="edge">
<title>utils/debug.ts&#45;&gt;bootstrap/state.ts</title>
<path fill="none" stroke="black" d="M263.16,-1192.43C277.43,-1218.11 307.26,-1263.56 347.75,-1282 405.19,-1308.15 435.93,-1314.96 489.75,-1282 564.03,-1236.5 594.1,-1128.91 604.66,-1076.59"/>
<polygon fill="black" stroke="black" points="608.07,-1077.39 606.5,-1066.91 601.19,-1076.08 608.07,-1077.39"/>
</g>
<!-- utils/debug.ts&#45;&gt;utils/bufferedWriter.ts -->
<g id="edge11" class="edge">
<title>utils/debug.ts&#45;&gt;utils/bufferedWriter.ts</title>
<path fill="none" stroke="black" d="M283.18,-1192.46C301.4,-1203.5 325.49,-1217.39 347.75,-1228 350.67,-1229.39 353.68,-1230.77 356.74,-1232.12"/>
<polygon fill="black" stroke="black" points="355.3,-1235.31 365.87,-1236 358.04,-1228.87 355.3,-1235.31"/>
</g>
<!-- utils/debug.ts&#45;&gt;utils/cleanupRegistry.ts -->
<g id="edge12" class="edge">
<title>utils/debug.ts&#45;&gt;utils/cleanupRegistry.ts</title>
<path fill="none" stroke="black" d="M288.93,-1179.79C306.8,-1182.73 329.14,-1186.41 350.16,-1189.87"/>
<polygon fill="black" stroke="black" points="349.41,-1193.3 359.85,-1191.47 350.55,-1186.39 349.41,-1193.3"/>
</g>
<!-- utils/debugFilter.ts -->
<g id="node18" class="node">
<title>utils/debugFilter.ts</title>
<polygon fill="#ffff99" stroke="black" points="465.38,-1165 372.12,-1165 372.12,-1129 465.38,-1129 465.38,-1165"/>
<text text-anchor="middle" x="418.75" y="-1144.83" font-family="Times,serif" font-size="9.00">utils/debugFilter.ts</text>
</g>
<!-- utils/debug.ts&#45;&gt;utils/debugFilter.ts -->
<g id="edge13" class="edge">
<title>utils/debug.ts&#45;&gt;utils/debugFilter.ts</title>
<path fill="none" stroke="black" d="M288.93,-1168.21C309.81,-1164.77 336.79,-1160.33 360.65,-1156.4"/>
<polygon fill="black" stroke="black" points="360.93,-1159.9 370.22,-1154.82 359.79,-1153 360.93,-1159.9"/>
</g>
<!-- utils/envUtils.ts -->
<g id="node19" class="node">
<title>utils/envUtils.ts</title>
<polygon fill="#ffff99" stroke="black" points="651.25,-707 570,-707 570,-671 651.25,-671 651.25,-707"/>
<text text-anchor="middle" x="610.62" y="-686.83" font-family="Times,serif" font-size="9.00">utils/envUtils.ts</text>
</g>
<!-- utils/debug.ts&#45;&gt;utils/envUtils.ts -->
<g id="edge14" class="edge">
<title>utils/debug.ts&#45;&gt;utils/envUtils.ts</title>
<path fill="none" stroke="black" d="M259.23,-1155.54C270.23,-1121.72 298.3,-1049.85 347.75,-1012 399.63,-972.29 440.51,-1016.93 489.75,-974 568.51,-905.33 596.8,-776.32 605.84,-718.42"/>
<polygon fill="black" stroke="black" points="609.28,-719.1 607.27,-708.7 602.35,-718.08 609.28,-719.1"/>
</g>
<!-- utils/fsOperations.ts -->
<g id="node23" class="node">
<title>utils/fsOperations.ts</title>
<polygon fill="#ffff99" stroke="black" points="468.38,-1111 369.12,-1111 369.12,-1075 468.38,-1075 468.38,-1111"/>
<text text-anchor="middle" x="418.75" y="-1090.83" font-family="Times,serif" font-size="9.00">utils/fsOperations.ts</text>
</g>
<!-- utils/debug.ts&#45;&gt;utils/fsOperations.ts -->
<g id="edge15" class="edge">
<title>utils/debug.ts&#45;&gt;utils/fsOperations.ts</title>
<path fill="none" stroke="black" d="M283.18,-1155.54C301.4,-1144.5 325.49,-1130.61 347.75,-1120 351.21,-1118.35 354.79,-1116.73 358.43,-1115.14"/>
<polygon fill="black" stroke="black" points="359.51,-1118.48 367.37,-1111.38 356.8,-1112.03 359.51,-1118.48"/>
</g>
<!-- utils/process.ts -->
<g id="node32" class="node">
<title>utils/process.ts</title>
<polygon fill="#ffff99" stroke="black" points="457.5,-1057 380,-1057 380,-1021 457.5,-1021 457.5,-1057"/>
<text text-anchor="middle" x="418.75" y="-1036.83" font-family="Times,serif" font-size="9.00">utils/process.ts</text>
</g>
<!-- utils/debug.ts&#45;&gt;utils/process.ts -->
<g id="edge16" class="edge">
<title>utils/debug.ts&#45;&gt;utils/process.ts</title>
<path fill="none" stroke="black" d="M265.33,-1155.9C281.28,-1132.27 312.13,-1090.97 347.75,-1066 354.27,-1061.43 361.68,-1057.5 369.17,-1054.17"/>
<polygon fill="black" stroke="black" points="370.4,-1057.44 378.33,-1050.42 367.75,-1050.96 370.4,-1057.44"/>
</g>
<!-- utils/debug.ts&#45;&gt;utils/slowOperations.ts -->
<g id="edge17" class="edge">
<title>utils/debug.ts&#45;&gt;utils/slowOperations.ts</title>
<path fill="none" stroke="black" d="M264.77,-1192.22C279.7,-1220.2 309.01,-1272.99 347.75,-1306 355.98,-1313.01 366,-1318.79 375.85,-1323.69"/>
<polygon fill="black" stroke="black" points="374.08,-1326.73 384.61,-1327.85 377.08,-1320.4 374.08,-1326.73"/>
</g>
<!-- utils/fingerprint.ts -->
<g id="node21" class="node">
<title>utils/fingerprint.ts</title>
<polygon fill="#ffff99" stroke="black" points="465.38,-711 372.12,-711 372.12,-675 465.38,-675 465.38,-711"/>
<text text-anchor="middle" x="418.75" y="-690.83" font-family="Times,serif" font-size="9.00">utils/fingerprint.ts</text>
</g>
<!-- utils/model/aliases.ts -->
<g id="node24" class="node">
<title>utils/model/aliases.ts</title>
<polygon fill="#ffff99" stroke="black" points="662.12,-198 559.12,-198 559.12,-162 662.12,-162 662.12,-198"/>
<text text-anchor="middle" x="610.62" y="-177.82" font-family="Times,serif" font-size="9.00">utils/model/aliases.ts</text>
</g>
<!-- utils/model/antModels.ts -->
<g id="node25" class="node">
<title>utils/model/antModels.ts</title>
<polygon fill="#ffff99" stroke="black" points="670,-144 551.25,-144 551.25,-108 670,-108 670,-144"/>
<text text-anchor="middle" x="610.62" y="-123.83" font-family="Times,serif" font-size="9.00">utils/model/antModels.ts</text>
</g>
<!-- utils/model/model.ts&#45;&gt;bootstrap/state.ts -->
<g id="edge18" class="edge">
<title>utils/model/model.ts&#45;&gt;bootstrap/state.ts</title>
<path fill="none" stroke="black" d="M469.6,-326.23C477.38,-330.04 484.55,-335.15 489.75,-342 540.23,-408.5 511.45,-633.74 525.75,-716 545.41,-829.11 583.32,-960.51 600.62,-1017.8"/>
<polygon fill="black" stroke="black" points="597.19,-1018.55 603.45,-1027.1 603.89,-1016.52 597.19,-1018.55"/>
</g>
<!-- utils/model/model.ts&#45;&gt;constants/figures.ts -->
<g id="edge19" class="edge">
<title>utils/model/model.ts&#45;&gt;constants/figures.ts</title>
<path fill="none" stroke="black" d="M469.14,-322.02C494.03,-325.56 524.39,-329.88 550.51,-333.59"/>
<polygon fill="black" stroke="black" points="549.9,-337.04 560.29,-334.99 550.89,-330.11 549.9,-337.04"/>
</g>
<!-- utils/model/model.ts&#45;&gt;utils/auth.ts -->
<g id="edge20" class="edge">
<title>utils/model/model.ts&#45;&gt;utils/auth.ts</title>
<path fill="none" stroke="black" d="M469.14,-307.98C499.08,-303.72 536.94,-298.34 565.81,-294.23"/>
<polygon fill="black" stroke="black" points="566.28,-297.7 575.69,-292.83 565.29,-290.77 566.28,-297.7"/>
</g>
<!-- utils/model/model.ts&#45;&gt;utils/context.ts -->
<g id="edge21" class="edge">
<title>utils/model/model.ts&#45;&gt;utils/context.ts</title>
<path fill="none" stroke="black" d="M452.53,-296.58C473.15,-285.43 500.55,-271.4 525.75,-261 536.9,-256.4 549.13,-252.08 560.72,-248.29"/>
<polygon fill="black" stroke="black" points="561.67,-251.66 570.14,-245.29 559.55,-244.99 561.67,-251.66"/>
</g>
<!-- utils/model/model.ts&#45;&gt;utils/envUtils.ts -->
<g id="edge22" class="edge">
<title>utils/model/model.ts&#45;&gt;utils/envUtils.ts</title>
<path fill="none" stroke="black" d="M469.46,-326.33C477.26,-330.14 484.47,-335.22 489.75,-342 571.45,-446.91 453.22,-527.56 525.75,-639 534,-651.68 546.7,-661.6 559.73,-669.14"/>
<polygon fill="black" stroke="black" points="557.89,-672.12 568.36,-673.73 561.18,-665.94 557.89,-672.12"/>
</g>
<!-- utils/model/model.ts&#45;&gt;utils/model/aliases.ts -->
<g id="edge23" class="edge">
<title>utils/model/model.ts&#45;&gt;utils/model/aliases.ts</title>
<path fill="none" stroke="black" d="M433.12,-296.66C451.46,-272.75 486.63,-231.15 525.75,-207 532.64,-202.75 540.27,-199.1 548.03,-195.98"/>
<polygon fill="black" stroke="black" points="549.06,-199.34 557.23,-192.59 546.64,-192.77 549.06,-199.34"/>
</g>
<!-- utils/model/model.ts&#45;&gt;utils/model/antModels.ts -->
<g id="edge24" class="edge">
<title>utils/model/model.ts&#45;&gt;utils/model/antModels.ts</title>
<path fill="none" stroke="black" d="M426.8,-296.76C440.64,-263.32 474.57,-192.02 525.75,-153 530.35,-149.5 535.41,-146.44 540.71,-143.77"/>
<polygon fill="black" stroke="black" points="542.04,-147.01 549.74,-139.73 539.18,-140.62 542.04,-147.01"/>
</g>
<!-- utils/model/modelAllowlist.ts -->
<g id="node27" class="node">
<title>utils/model/modelAllowlist.ts</title>
<polygon fill="#ffff99" stroke="black" points="679.75,-90 541.5,-90 541.5,-54 679.75,-54 679.75,-90"/>
<text text-anchor="middle" x="610.62" y="-69.83" font-family="Times,serif" font-size="9.00">utils/model/modelAllowlist.ts</text>
</g>
<!-- utils/model/model.ts&#45;&gt;utils/model/modelAllowlist.ts -->
<g id="edge25" class="edge">
<title>utils/model/model.ts&#45;&gt;utils/model/modelAllowlist.ts</title>
<path fill="none" stroke="black" d="M423.6,-296.67C433.26,-255.25 462.4,-153.78 525.75,-99 527.63,-97.37 529.61,-95.85 531.67,-94.41"/>
<polygon fill="black" stroke="black" points="533.1,-97.63 539.84,-89.46 529.48,-91.65 533.1,-97.63"/>
</g>
<!-- utils/model/modelStrings.ts -->
<g id="node28" class="node">
<title>utils/model/modelStrings.ts</title>
<polygon fill="#ffff99" stroke="black" points="676,-36 545.25,-36 545.25,0 676,0 676,-36"/>
<text text-anchor="middle" x="610.62" y="-15.82" font-family="Times,serif" font-size="9.00">utils/model/modelStrings.ts</text>
</g>
<!-- utils/model/model.ts&#45;&gt;utils/model/modelStrings.ts -->
<g id="edge26" class="edge">
<title>utils/model/model.ts&#45;&gt;utils/model/modelStrings.ts</title>
<path fill="none" stroke="black" d="M421.6,-296.6C427.47,-248.21 449.95,-116.19 525.75,-45 528.62,-42.3 531.77,-39.87 535.11,-37.68"/>
<polygon fill="black" stroke="black" points="536.62,-40.85 543.61,-32.88 533.18,-34.75 536.62,-40.85"/>
</g>
<!-- utils/model/providers.ts -->
<g id="node29" class="node">
<title>utils/model/providers.ts</title>
<polygon fill="#ffff99" stroke="black" points="668.5,-630 552.75,-630 552.75,-594 668.5,-594 668.5,-630"/>
<text text-anchor="middle" x="610.62" y="-609.83" font-family="Times,serif" font-size="9.00">utils/model/providers.ts</text>
</g>
<!-- utils/model/model.ts&#45;&gt;utils/model/providers.ts -->
<g id="edge27" class="edge">
<title>utils/model/model.ts&#45;&gt;utils/model/providers.ts</title>
<path fill="none" stroke="black" d="M469.31,-326.45C477.12,-330.24 484.38,-335.29 489.75,-342 557.96,-427.25 455.15,-501.72 525.75,-585 530.36,-590.44 536.07,-594.79 542.33,-598.27"/>
<polygon fill="black" stroke="black" points="540.62,-601.34 551.16,-602.42 543.59,-595 540.62,-601.34"/>
</g>
<!-- utils/modelCost.ts -->
<g id="node30" class="node">
<title>utils/modelCost.ts</title>
<polygon fill="#ffff99" stroke="black" points="655.38,-576 565.88,-576 565.88,-540 655.38,-540 655.38,-576"/>
<text text-anchor="middle" x="610.62" y="-555.83" font-family="Times,serif" font-size="9.00">utils/modelCost.ts</text>
</g>
<!-- utils/model/model.ts&#45;&gt;utils/modelCost.ts -->
<g id="edge28" class="edge">
<title>utils/model/model.ts&#45;&gt;utils/modelCost.ts</title>
<path fill="none" stroke="black" d="M469.44,-326.81C477.14,-330.56 484.33,-335.5 489.75,-342 544.54,-407.65 469.12,-466.93 525.75,-531 533.35,-539.6 543.69,-545.47 554.52,-549.49"/>
<polygon fill="black" stroke="black" points="553.4,-552.8 563.99,-552.46 555.49,-546.12 553.4,-552.8"/>
</g>
<!-- utils/permissions/PermissionMode.ts -->
<g id="node31" class="node">
<title>utils/permissions/PermissionMode.ts</title>
<polygon fill="#ffff99" stroke="black" points="695.5,-522 525.75,-522 525.75,-486 695.5,-486 695.5,-522"/>
<text text-anchor="middle" x="610.62" y="-501.82" font-family="Times,serif" font-size="9.00">utils/permissions/PermissionMode.ts</text>
</g>
<!-- utils/model/model.ts&#45;&gt;utils/permissions/PermissionMode.ts -->
<g id="edge29" class="edge">
<title>utils/model/model.ts&#45;&gt;utils/permissions/PermissionMode.ts</title>
<path fill="none" stroke="black" d="M469.41,-327.31C477.02,-331.01 484.18,-335.8 489.75,-342 531.24,-388.21 482.97,-431.99 525.75,-477 526.23,-477.5 526.71,-478 527.21,-478.48"/>
<polygon fill="black" stroke="black" points="524.79,-481.02 534.77,-484.59 529.19,-475.58 524.79,-481.02"/>
</g>
<!-- utils/settings/settings.ts -->
<g id="node34" class="node">
<title>utils/settings/settings.ts</title>
<polygon fill="#ffff99" stroke="black" points="666.25,-468 555,-468 555,-432 666.25,-432 666.25,-468"/>
<text text-anchor="middle" x="610.62" y="-447.82" font-family="Times,serif" font-size="9.00">utils/settings/settings.ts</text>
</g>
<!-- utils/model/model.ts&#45;&gt;utils/settings/settings.ts -->
<g id="edge30" class="edge">
<title>utils/model/model.ts&#45;&gt;utils/settings/settings.ts</title>
<path fill="none" stroke="black" d="M469.34,-328.43C476.78,-331.98 483.9,-336.43 489.75,-342 518.3,-369.15 496.45,-396.67 525.75,-423 531.25,-427.95 537.67,-431.99 544.47,-435.29"/>
<polygon fill="black" stroke="black" points="542.66,-438.32 553.23,-439.02 545.4,-431.88 542.66,-438.32"/>
</g>
<!-- utils/stringUtils.ts -->
<g id="node37" class="node">
<title>utils/stringUtils.ts</title>
<polygon fill="#ffff99" stroke="black" points="655.75,-414 565.5,-414 565.5,-378 655.75,-378 655.75,-414"/>
<text text-anchor="middle" x="610.62" y="-393.82" font-family="Times,serif" font-size="9.00">utils/stringUtils.ts</text>
</g>
<!-- utils/model/model.ts&#45;&gt;utils/stringUtils.ts -->
<g id="edge31" class="edge">
<title>utils/model/model.ts&#45;&gt;utils/stringUtils.ts</title>
<path fill="none" stroke="black" d="M469.48,-332.22C476.43,-335.19 483.37,-338.47 489.75,-342 507.25,-351.69 507.99,-359.81 525.75,-369 534.83,-373.7 544.88,-377.78 554.79,-381.25"/>
<polygon fill="black" stroke="black" points="553.39,-384.48 563.98,-384.31 555.59,-377.83 553.39,-384.48"/>
</g>
<!-- utils/sideQuery.ts&#45;&gt;bootstrap/state.ts -->
<g id="edge32" class="edge">
<title>utils/sideQuery.ts&#45;&gt;bootstrap/state.ts</title>
<path fill="none" stroke="black" d="M259.23,-630.46C270.23,-664.28 298.3,-736.15 347.75,-774 399.63,-813.71 438.96,-770.91 489.75,-812 556.83,-866.28 590.1,-967.94 602.99,-1017.85"/>
<polygon fill="black" stroke="black" points="599.54,-1018.47 605.35,-1027.33 606.34,-1016.78 599.54,-1018.47"/>
</g>
<!-- utils/sideQuery.ts&#45;&gt;constants/betas.ts -->
<g id="edge33" class="edge">
<title>utils/sideQuery.ts&#45;&gt;constants/betas.ts</title>
<path fill="none" stroke="black" d="M297.27,-619.16C317.3,-622.46 341.29,-626.41 362.57,-629.92"/>
<polygon fill="black" stroke="black" points="361.81,-633.34 372.25,-631.51 362.95,-626.43 361.81,-633.34"/>
</g>
<!-- utils/sideQuery.ts&#45;&gt;constants/system.ts -->
<g id="edge34" class="edge">
<title>utils/sideQuery.ts&#45;&gt;constants/system.ts</title>
<path fill="none" stroke="black" d="M297.27,-604.84C316.24,-601.71 338.78,-598 359.19,-594.64"/>
<polygon fill="black" stroke="black" points="359.49,-598.14 368.79,-593.06 358.35,-591.23 359.49,-598.14"/>
</g>
<!-- utils/sideQuery.ts&#45;&gt;services/analytics/index.ts -->
<g id="edge35" class="edge">
<title>utils/sideQuery.ts&#45;&gt;services/analytics/index.ts</title>
<path fill="none" stroke="black" d="M287.63,-593.64C295.58,-589.24 303.99,-584.51 311.75,-580 327.96,-570.58 330.93,-566.3 347.75,-558 350.6,-556.6 353.54,-555.21 356.53,-553.86"/>
<polygon fill="black" stroke="black" points="357.64,-557.19 365.42,-550 354.86,-550.77 357.64,-557.19"/>
</g>
<!-- utils/sideQuery.ts&#45;&gt;services/analytics/metadata.ts -->
<g id="edge36" class="edge">
<title>utils/sideQuery.ts&#45;&gt;services/analytics/metadata.ts</title>
<path fill="none" stroke="black" d="M294.78,-593.67C300.95,-589.75 306.87,-585.2 311.75,-580 337.35,-552.77 320.36,-529.43 347.75,-504 348.5,-503.3 349.27,-502.62 350.06,-501.96"/>
<polygon fill="black" stroke="black" points="351.8,-505.02 357.9,-496.36 347.73,-499.33 351.8,-505.02"/>
</g>
<!-- utils/sideQuery.ts&#45;&gt;services/api/claude.ts -->
<g id="edge37" class="edge">
<title>utils/sideQuery.ts&#45;&gt;services/api/claude.ts</title>
<path fill="none" stroke="black" d="M296.75,-593.58C302.38,-589.74 307.62,-585.23 311.75,-580 348.9,-532.95 307.48,-494.42 347.75,-450 350.24,-447.25 353.05,-444.78 356.07,-442.55"/>
<polygon fill="black" stroke="black" points="357.71,-445.65 364.37,-437.41 354.03,-439.7 357.71,-445.65"/>
</g>
<!-- utils/sideQuery.ts&#45;&gt;services/api/client.ts -->
<g id="edge38" class="edge">
<title>utils/sideQuery.ts&#45;&gt;services/api/client.ts</title>
<path fill="none" stroke="black" d="M297.4,-593.66C302.87,-589.82 307.89,-585.3 311.75,-580 360.84,-512.66 294.2,-459.84 347.75,-396 350.81,-392.35 354.42,-389.19 358.37,-386.46"/>
<polygon fill="black" stroke="black" points="359.88,-389.63 366.77,-381.59 356.37,-383.58 359.88,-389.63"/>
</g>
<!-- utils/sideQuery.ts&#45;&gt;utils/betas.ts -->
<g id="edge39" class="edge">
<title>utils/sideQuery.ts&#45;&gt;utils/betas.ts</title>
<path fill="none" stroke="black" d="M265.33,-630.1C281.28,-653.73 312.13,-695.03 347.75,-720 355.65,-725.53 364.83,-730.13 373.9,-733.86"/>
<polygon fill="black" stroke="black" points="372.39,-737.03 382.98,-737.31 374.88,-730.49 372.39,-737.03"/>
</g>
<!-- utils/sideQuery.ts&#45;&gt;utils/fingerprint.ts -->
<g id="edge40" class="edge">
<title>utils/sideQuery.ts&#45;&gt;utils/fingerprint.ts</title>
<path fill="none" stroke="black" d="M283.18,-630.46C301.4,-641.5 325.49,-655.39 347.75,-666 352.17,-668.11 356.8,-670.18 361.48,-672.17"/>
<polygon fill="black" stroke="black" points="359.78,-675.26 370.36,-675.84 362.46,-668.79 359.78,-675.26"/>
</g>
<!-- utils/sideQuery.ts&#45;&gt;utils/model/model.ts -->
<g id="edge41" class="edge">
<title>utils/sideQuery.ts&#45;&gt;utils/model/model.ts</title>
<path fill="none" stroke="black" d="M297.61,-593.8C303.05,-589.95 308,-585.38 311.75,-580 372.89,-492.21 280.78,-425.43 347.75,-342 350.78,-338.23 354.4,-334.98 358.38,-332.19"/>
<polygon fill="black" stroke="black" points="360.02,-335.29 366.89,-327.23 356.49,-329.24 360.02,-335.29"/>
</g>
<!-- utils/slowOperations.ts&#45;&gt;bootstrap/state.ts -->
<g id="edge42" class="edge">
<title>utils/slowOperations.ts&#45;&gt;bootstrap/state.ts</title>
<path fill="none" stroke="black" d="M471.52,-1328.65C478.17,-1324.83 484.48,-1320.31 489.75,-1315 558.33,-1245.86 591.31,-1130.66 603.63,-1076.65"/>
<polygon fill="black" stroke="black" points="607.03,-1077.49 605.76,-1066.97 600.2,-1075.99 607.03,-1077.49"/>
</g>
<!-- utils/slowOperations.ts&#45;&gt;utils/debug.ts -->
<g id="edge43" class="edge">
<title>utils/slowOperations.ts&#45;&gt;utils/debug.ts</title>
<path fill="none" stroke="black" d="M362.45,-1334.31C357.23,-1331.26 352.22,-1327.81 347.75,-1324 308.32,-1290.4 278.66,-1236.31 263.98,-1202.89"/>
<polygon fill="black" stroke="black" points="267.27,-1201.67 260.17,-1193.8 260.81,-1204.37 267.27,-1201.67"/>
</g>
</g>
</svg>
